<svg width="17" height="16" viewBox="0 0 17 16" fill="none" xmlns="http://www.w3.org/2000/svg">
<path fill-rule="evenodd" clip-rule="evenodd" d="M15.2157 0.0090332H1.78428C1.07614 0.0090332 0.5 0.585176 0.5 1.29331V14.7069C0.5 15.4151 1.07614 15.9912 1.78428 15.9912H6.72519C7.08016 15.9912 7.36734 15.704 7.36734 15.3491C7.36734 14.9941 7.08016 14.7069 6.72519 14.7069H1.78428V1.29331H15.2157V7.35797C15.2157 7.71293 15.5029 8.00011 15.8579 8.00011C16.2128 8.00011 16.5 7.71293 16.5 7.35797V1.29331C16.5 0.585176 15.9239 0.0090332 15.2157 0.0090332ZM14.3577 12.6503C15.4262 13.0819 16.2449 14.0327 16.4697 15.2206C16.5357 15.5685 16.3074 15.9038 15.9595 15.9716C15.9203 15.9787 15.8793 15.9823 15.84 15.9823C15.5386 15.9823 15.2692 15.7682 15.2104 15.4596C15.0159 14.4287 14.1098 13.6813 13.0592 13.6813C12.0086 13.6813 11.1042 14.4287 10.908 15.4596C10.842 15.8093 10.5049 16.0376 10.1571 15.9716C9.80747 15.9056 9.57915 15.5685 9.64515 15.2206C9.8699 14.0345 10.6886 13.0819 11.7571 12.6503C11.1221 12.2275 10.7029 11.5051 10.7029 10.6882C10.7029 9.38964 11.7589 8.33367 13.0574 8.33367C14.356 8.33367 15.4119 9.38964 15.4119 10.6882C15.4119 11.5069 14.9928 12.2275 14.3577 12.6503ZM14.1276 10.6882C14.1276 10.0978 13.6478 9.61795 13.0574 9.61795C12.467 9.61795 11.9872 10.0978 11.9872 10.6882C11.9872 11.2786 12.467 11.7584 13.0574 11.7584C13.6478 11.7584 14.1276 11.2786 14.1276 10.6882ZM9.00836 4.71806H3.44314C3.08818 4.71806 2.801 4.43088 2.801 4.07592C2.801 3.72096 3.08818 3.43378 3.44314 3.43378H9.00836C9.36332 3.43378 9.6505 3.72096 9.6505 4.07592C9.6505 4.43088 9.36332 4.71806 9.00836 4.71806ZM3.44314 6.85853H6.72519C7.08016 6.85853 7.36734 7.14571 7.36734 7.50067C7.36734 7.85563 7.08016 8.14281 6.72519 8.14281H3.44314C3.08818 8.14281 2.801 7.85563 2.801 7.50067C2.801 7.14571 3.08818 6.85853 3.44314 6.85853ZM6.72519 10.2833H3.44314C3.08818 10.2833 2.801 10.5705 2.801 10.9254C2.801 11.2804 3.08818 11.5676 3.44314 11.5676H6.72519C7.08016 11.5676 7.36734 11.2804 7.36734 10.9254C7.36734 10.5705 7.08016 10.2833 6.72519 10.2833Z" fill="#8893A7"/>
</svg>
