<svg width="16" height="16" viewBox="0 0 16 16" fill="none" xmlns="http://www.w3.org/2000/svg">
<path fill-rule="evenodd" clip-rule="evenodd" d="M14.875 3.38453H7.64062L7.25 2.13614C7.10156 1.65697 6.66875 1.33325 6.17812 1.33325H1.125C0.503125 1.33325 0 1.84928 0 2.4871V13.5127C0 14.1506 0.503125 14.6666 1.125 14.6666H8.4375C8.74844 14.6666 9 14.4086 9 14.0897C9 13.7708 8.74844 13.5127 8.4375 13.5127H1.125V4.53838H14.875V6.91017C14.875 7.22908 15.1266 7.4871 15.4375 7.4871C15.7484 7.4871 16 7.22908 16 6.91017V4.53838C16 3.90056 15.4969 3.38453 14.875 3.38453ZM15.4375 10.564H13V8.06402C13 7.74511 12.7484 7.4871 12.4375 7.4871C12.1266 7.4871 11.875 7.74511 11.875 8.06402V10.564H9.5625C9.25156 10.564 9 10.822 9 11.1409C9 11.4599 9.25156 11.7179 9.5625 11.7179H11.875V14.0897C11.875 14.4086 12.1266 14.6666 12.4375 14.6666C12.7484 14.6666 13 14.4086 13 14.0897V11.7179H15.4375C15.7484 11.7179 16 11.4599 16 11.1409C16 10.822 15.7484 10.564 15.4375 10.564ZM1.125 2.4871V3.38453H6.45781L6.17812 2.4871H1.125Z" fill="#8893A7"/>
</svg>
