<svg width="16" height="16" viewBox="0 0 16 16" fill="none" xmlns="http://www.w3.org/2000/svg">
<path fill-rule="evenodd" clip-rule="evenodd" d="M13.6734 4.71562L9.32969 0.332812C9.25938 0.2625 9.18125 0.203125 9.09844 0.153125C9.07656 0.140625 9.05312 0.128125 9.02969 0.117188C9.01889 0.111189 9.00717 0.106111 8.99594 0.101247L8.98594 0.096875C8.84375 0.034375 8.68906 0 8.53125 0H3.125C2.50313 0 2 0.503125 2 1.125V14.875C2 15.4969 2.50313 16 3.125 16H6.4375C6.74844 16 7 15.7484 7 15.4375C7 15.1266 6.74844 14.875 6.4375 14.875H3.125V1.125H8V4.875C8 5.49687 8.50313 6 9.125 6H12.875V8.4375C12.875 8.74844 13.1266 9 13.4375 9C13.7484 9 14 8.74844 14 8.4375V5.50781C14 5.21094 13.8828 4.92656 13.6734 4.71562ZM13.4375 12H11V9.5625C11 9.25156 10.7484 9 10.4375 9C10.1266 9 9.875 9.25156 9.875 9.5625V12H7.5625C7.25156 12 7 12.2516 7 12.5625C7 12.8734 7.25156 13.125 7.5625 13.125H9.875V15.4375C9.875 15.7484 10.1266 16 10.4375 16C10.7484 16 11 15.7484 11 15.4375V13.125H13.4375C13.7484 13.125 14 12.8734 14 12.5625C14 12.2516 13.7484 12 13.4375 12ZM9.125 1.725V4.875H12.2469L9.125 1.725Z" fill="#8893A7"/>
</svg>
