<svg width="16" height="16" viewBox="0 0 16 16" fill="none" xmlns="http://www.w3.org/2000/svg">
<path d="M13.4419 7.37209H8.50388V2.55814C8.50388 2.24961 8.25426 2 7.94574 2C7.63721 2 7.3876 2.24961 7.3876 2.55814V7.37209H2.55814C2.24961 7.37209 2 7.62171 2 7.93023C2 8.23876 2.24961 8.48837 2.55814 8.48837H7.3876V13.3178C7.3876 13.6264 7.63721 13.876 7.94574 13.876C8.25426 13.876 8.50388 13.6264 8.50388 13.3178V8.48837H13.4419C13.7504 8.48837 14 8.23876 14 7.93023C14 7.62171 13.7504 7.37209 13.4419 7.37209Z" fill="#8893A7"/>
</svg>
