<svg width="240" height="240" viewBox="0 0 240 240" fill="none" xmlns="http://www.w3.org/2000/svg">
<path fill-rule="evenodd" clip-rule="evenodd" d="M120 220C175.228 220 220 175.228 220 120C220 64.7715 175.228 20 120 20C64.7715 20 20 64.7715 20 120C20 175.228 64.7715 220 120 220Z" fill="#DCE0E8"/>
<mask id="mask0_2863_18646" style="mask-type:alpha" maskUnits="userSpaceOnUse" x="20" y="2" width="217" height="218">
<path fill-rule="evenodd" clip-rule="evenodd" d="M120 220C175.228 220 220 175.228 220 120C220 101.528 246.201 62.5495 233 41C206.734 -1.8791 127.756 2.99996 91 2.99996C62.3567 2.99996 43.7212 15.2993 33 39C23.0492 60.9976 20 93.4148 20 120C20 175.228 64.7715 220 120 220Z" fill="white"/>
</mask>
<g mask="url(#mask0_2863_18646)">
<g style="mix-blend-mode:multiply">
<path d="M232.682 75.5855L220.665 115.754L201.55 179.611C200.185 181.531 198.763 183.396 197.261 185.212C196.833 185.744 196.397 186.269 195.945 186.786C195.493 187.302 195.137 187.778 194.661 188.262C192.289 190.936 189.783 193.488 187.15 195.906L185.535 197.35C183.139 199.465 180.641 201.464 178.041 203.347C177.766 203.557 177.484 203.758 177.233 203.944C176.983 204.13 176.684 204.348 176.426 204.541C175.247 205.365 174.052 206.172 172.84 206.963L92.0824 182.815C91.6574 182.686 91.4158 182.239 91.5413 181.814L92.26 179.393L92.4942 178.586L92.7284 177.819L132.3 45.5459C132.361 45.34 132.502 45.1672 132.692 45.0657C132.881 44.9642 133.104 44.9424 133.309 45.0051L206.306 66.7964L228.959 73.5597L229.766 73.7938L230.574 74.0279L232.189 74.5121C232.402 74.5826 232.576 74.7382 232.669 74.9417C232.762 75.1453 232.767 75.3785 232.682 75.5855Z" fill="#CACFDB"/>
</g>
<path d="M230.525 71.2516L229.718 73.8665L219.93 106.626L195.945 186.753C195.525 187.254 195.097 187.746 194.661 188.23C192.289 190.904 189.783 193.455 187.15 195.873L185.535 197.318C183.14 199.433 180.641 201.431 178.041 203.315C177.766 203.525 177.484 203.726 177.233 203.912L92.4942 178.626L90.7256 178.101L131.557 41.7042L204.142 63.3986L230.525 71.2516Z" fill="white"/>
<path d="M230.76 70.4767L203.447 62.3171L131.791 40.8971C131.585 40.8344 131.363 40.8562 131.174 40.9577C130.984 41.0592 130.843 41.232 130.782 41.4378L89.9504 177.835C89.8898 178.04 89.913 178.261 90.015 178.448C90.1168 178.64 90.2914 178.782 90.4995 178.844L92.26 179.368L176.369 204.509C176.652 204.315 176.927 204.122 177.177 203.912C177.427 203.702 177.742 203.524 177.984 203.315L92.7607 177.859L91.7674 177.561L132.146 42.6727L204.828 64.4074L229.54 71.7923L228.991 73.6324L219.688 104.705L194.653 188.262C195.089 187.778 195.517 187.286 195.937 186.786C196.389 186.269 196.825 185.744 197.253 185.212L220.156 108.692L230.509 74.1005L231.317 71.4775C231.377 71.2709 231.351 71.0491 231.247 70.8612C231.142 70.6733 230.967 70.5349 230.76 70.4767Z" fill="#8893A7"/>
<path d="M176.902 70.1377C190.892 74.2983 198.86 89.0044 194.699 102.987C190.538 116.969 175.824 124.933 161.832 120.777C147.841 116.621 139.869 101.917 144.026 87.9339C146.023 81.216 150.609 75.5664 156.775 72.2288C162.941 68.8911 170.181 68.1389 176.902 70.1377Z" fill="white"/>
<path fill-rule="evenodd" clip-rule="evenodd" d="M148.537 77.9267C155.517 69.6464 166.744 66.2871 177.128 69.371C188.681 72.8144 196.605 83.424 196.623 95.4721C196.612 105.086 191.529 113.982 183.25 118.878C183.016 119.023 182.781 119.16 182.539 119.281L182.362 119.386C182.184 119.483 182.006 119.58 181.829 119.66C181.207 119.983 180.585 120.274 179.955 120.54C179.919 120.555 179.883 120.57 179.847 120.585C179.554 120.707 179.265 120.827 178.97 120.928L178.727 121.024C178.307 121.178 177.912 121.315 177.5 121.444C176.822 121.662 176.248 121.815 175.441 122.001C174.633 122.187 173.825 122.332 173.018 122.437C172.95 122.447 172.883 122.458 172.815 122.469C172.511 122.517 172.207 122.566 171.903 122.566H171.847L170.805 122.639H170.329C169.159 122.673 167.989 122.636 166.824 122.526C165.063 122.362 163.323 122.021 161.631 121.509C161.21 121.391 160.85 121.266 160.471 121.134C160.435 121.122 160.399 121.11 160.363 121.097H160.266C159.903 120.968 159.547 120.839 159.192 120.694L158.901 120.572L158.021 120.193L157.747 120.064L157.746 120.064C157.423 119.911 157.1 119.757 156.786 119.588C156.341 119.362 155.905 119.12 155.477 118.869L154.444 118.224L154.177 118.046C153.878 117.869 153.62 117.691 153.369 117.506L153.087 117.296C152.877 117.142 152.667 116.989 152.465 116.819L151.98 116.432L151.787 116.271L151.1 115.673L150.293 114.915C149.762 114.402 149.258 113.864 148.782 113.301C148.631 113.142 148.488 112.975 148.354 112.8C148.274 112.712 148.201 112.618 148.136 112.518C148.07 112.443 148.008 112.365 147.951 112.284C147.813 112.122 147.684 111.953 147.555 111.775C147.542 111.758 147.527 111.74 147.512 111.723C147.477 111.684 147.442 111.645 147.442 111.606L147.401 111.557C147.213 111.32 147.042 111.071 146.875 110.825C146.848 110.786 146.822 110.748 146.796 110.71C146.408 110.137 146.045 109.556 145.714 108.95C145.636 108.826 145.564 108.697 145.492 108.57C145.466 108.524 145.441 108.479 145.415 108.434L145.318 108.248C145.189 108.014 145.068 107.772 144.954 107.538C140.15 97.8338 141.557 86.2069 148.537 77.9267ZM181.043 118.259C181.21 118.174 181.376 118.09 181.538 117.998L181.643 118.022L182.321 117.635C187.981 114.377 192.166 109.064 194.007 102.8C196.184 95.4559 194.961 87.5229 190.672 81.1742C186.383 74.8256 179.477 70.7269 171.847 70.0006C162.563 69.1306 153.538 73.3681 148.282 81.0658C143.025 88.7634 142.367 98.7066 146.562 107.03L146.562 107.03C146.675 107.256 146.788 107.482 146.909 107.699C147.038 107.934 147.167 108.159 147.305 108.385C147.668 109.022 148.064 109.639 148.492 110.234C148.661 110.484 148.92 110.855 149.017 110.976C149.042 111.008 149.067 111.04 149.092 111.072C149.162 111.161 149.23 111.248 149.307 111.331C149.56 111.66 149.83 111.975 150.115 112.276C150.142 112.314 150.173 112.349 150.206 112.385C150.221 112.402 150.237 112.419 150.252 112.437C150.446 112.671 150.656 112.897 150.882 113.123C151.302 113.575 151.746 114.011 152.207 114.422C152.358 114.564 152.534 114.711 152.691 114.844C152.777 114.916 152.857 114.984 152.925 115.044C153.119 115.213 153.313 115.375 153.523 115.536L153.878 115.803C153.995 115.898 154.069 115.951 154.184 116.034C154.245 116.077 154.316 116.128 154.411 116.198C154.686 116.4 154.952 116.585 155.259 116.787C155.436 116.903 155.636 117.027 155.822 117.142C155.96 117.227 156.089 117.308 156.196 117.376C156.337 117.467 156.515 117.566 156.677 117.657C156.803 117.727 156.919 117.792 157.004 117.844C157.197 117.966 157.399 118.07 157.601 118.175C158.021 118.393 158.457 118.595 158.893 118.789C159.112 118.895 159.335 118.989 159.564 119.071C159.652 119.116 159.744 119.154 159.838 119.184C160.089 119.297 160.363 119.402 160.646 119.499L160.92 119.604C161.292 119.733 161.671 119.854 162.051 119.967C164.684 120.756 167.428 121.113 170.175 121.024H170.757H171.104L171.605 120.976L172.283 120.911C172.593 120.88 172.851 120.842 173.206 120.789L173.252 120.782C173.632 120.726 174.011 120.653 174.383 120.581L175.19 120.403H175.231L175.231 120.403C175.473 120.346 175.715 120.29 175.957 120.217C176.105 120.184 176.25 120.144 176.394 120.096L177.096 119.886L177.548 119.733L177.976 119.588L178.84 119.265C179.519 118.991 180.189 118.692 180.843 118.361C180.91 118.327 180.977 118.293 181.043 118.259Z" fill="#8893A7"/>
<path d="M160.523 99.3865L174.99 103.686L171.066 116.876L156.598 112.577L160.523 99.3865Z" fill="white"/>
<path d="M161.106 105.956C162.363 107.015 163.802 107.835 165.354 108.377C167.065 108.85 168.863 108.914 170.603 108.563L170.878 106.222C167.349 106.666 164.32 105.714 162.382 103.696L161.106 105.956Z" fill="#F0F1F5"/>
<path d="M161.833 120.782C167.359 122.437 173.276 122.227 178.671 120.185L169.998 112.59L168.156 113.204C165.447 114.09 162.471 113.206 160.686 110.984L159.475 109.467L148.056 111.081C151.457 115.739 156.299 119.148 161.833 120.782Z" fill="#CACFDB"/>
<path fill-rule="evenodd" clip-rule="evenodd" d="M179.422 119.903C179.375 119.779 179.301 119.669 179.204 119.58L178.841 119.265L172.113 113.373L170.894 112.276L170.531 111.953C170.374 111.818 170.172 111.749 169.965 111.759C169.893 111.751 169.82 111.751 169.747 111.759L169.19 111.945L167.906 112.364C165.515 113.143 162.891 112.362 161.316 110.403L160.509 109.362L160.137 108.894C160.093 108.835 160.038 108.786 159.976 108.749C159.812 108.618 159.601 108.562 159.394 108.595L158.926 108.66L157.73 108.829L148.468 110.153L147.975 110.226C147.85 110.244 147.731 110.291 147.628 110.363C147.503 110.45 147.405 110.57 147.345 110.71V110.791C147.275 111.027 147.316 111.283 147.458 111.485L147.498 111.533L147.62 111.703C147.749 111.88 147.878 112.05 148.015 112.211C148.073 112.292 148.135 112.371 148.201 112.445C148.272 112.545 148.35 112.639 148.435 112.728C148.564 112.897 148.702 113.067 148.847 113.228C149.332 113.793 149.832 114.326 150.357 114.842L151.165 115.601L151.851 116.198L152.045 116.359L152.53 116.747C152.732 116.916 152.941 117.07 153.151 117.223L153.151 117.223L153.434 117.433L154.242 117.974L154.508 118.151L155.542 118.797C155.97 119.047 156.406 119.289 156.85 119.515C157.165 119.685 157.488 119.838 157.811 119.991L158.086 120.12L158.966 120.5L159.257 120.621C159.612 120.766 159.967 120.895 160.331 121.024H160.428L160.535 121.062L160.535 121.062C160.915 121.193 161.275 121.318 161.696 121.436C163.388 121.948 165.128 122.289 166.888 122.453C168.053 122.563 169.224 122.601 170.393 122.566H170.87L171.912 122.493H171.903C172.207 122.493 172.511 122.445 172.815 122.396C172.883 122.385 172.95 122.374 173.018 122.364C173.825 122.259 174.633 122.106 175.441 121.928C176.248 121.751 176.805 121.581 177.476 121.363C177.888 121.242 178.283 121.105 178.711 120.944L178.97 120.855C179.206 120.763 179.385 120.566 179.454 120.322C179.458 120.295 179.458 120.268 179.454 120.241C179.471 120.128 179.46 120.011 179.422 119.903ZM170.167 112.752L169.998 112.598L169.343 112.816C169.287 112.558 169.23 112.292 169.19 112.009L167.906 112.429C165.515 113.208 162.891 112.427 161.316 110.468L160.509 109.427C160.323 109.628 160.129 109.822 159.935 110L159.507 109.459H159.305C158.919 109.818 158.506 110.147 158.07 110.443L159.168 110.29L159.329 110.492L160.089 111.444C162.084 113.927 165.409 114.917 168.439 113.93L169.594 113.543L169.844 113.462L170.652 114.204C170.455 113.733 170.293 113.247 170.167 112.752ZM175.19 120.403H175.231L175.966 120.169C176.113 120.136 176.258 120.096 176.402 120.048L177.104 119.838L176.151 119.031L172.42 115.762L171.613 115.06L170.668 114.253L169.86 113.51L169.61 113.591L168.455 113.979C165.425 114.966 162.1 113.976 160.105 111.493L159.346 110.54L159.184 110.339L158.086 110.492L157.278 110.613L155.825 110.823L150.858 111.525L149.639 111.703C149.792 111.896 149.945 112.09 150.115 112.276C150.142 112.314 150.174 112.349 150.206 112.385C150.221 112.402 150.237 112.419 150.252 112.437C150.454 112.671 150.664 112.897 150.882 113.123C151.31 113.575 151.754 114.003 152.207 114.422L152.925 115.044C153.119 115.213 153.313 115.375 153.523 115.536L153.878 115.803C154.049 115.943 154.227 116.075 154.411 116.198C154.686 116.4 154.952 116.585 155.259 116.787C155.436 116.903 155.636 117.027 155.822 117.142C155.96 117.227 156.09 117.308 156.196 117.376C156.337 117.467 156.515 117.566 156.677 117.657C156.803 117.727 156.919 117.792 157.004 117.844C157.197 117.966 157.399 118.07 157.601 118.175L157.601 118.175C158.021 118.393 158.457 118.595 158.893 118.789L159.564 119.071C159.652 119.116 159.744 119.153 159.838 119.184C160.089 119.297 160.363 119.402 160.646 119.499L160.92 119.604C161.292 119.733 161.671 119.854 162.051 119.967C164.684 120.756 167.428 121.113 170.175 121.024H170.757H171.104L171.605 120.976L172.283 120.911L173.252 120.782C173.632 120.726 174.011 120.653 174.383 120.58L175.19 120.403Z" fill="#8893A7"/>
<path d="M170.086 105.996C167.123 122.461 185.535 122.138 185.535 122.138C185.535 122.138 175.957 115.439 181.247 107.377C195.339 85.9081 183.783 73.479 174.972 76.6105C169.319 69.145 152.836 73.2772 152.901 98.9586C152.901 108.595 141.24 108.983 141.24 108.983C141.24 108.983 156.495 119.297 163.044 103.882L170.086 105.996Z" fill="#DCE0E8"/>
<path fill-rule="evenodd" clip-rule="evenodd" d="M185.996 121.492C184.97 120.736 184.036 119.864 183.21 118.894L182.701 118.264L182.701 118.264L182.701 118.264C182.539 118.046 182.378 117.828 182.224 117.594L182.063 117.352C179.947 114.124 179.898 110.895 181.901 107.829C192.933 91.017 187.554 81.7839 185.624 79.3546C182.983 76.0052 178.954 74.6009 175.231 75.6824C172.695 72.7446 168.56 71.7196 164.514 73.0836C161.583 74.0682 152.021 78.8623 152.069 98.9667C152.069 103.519 149.243 105.827 146.465 106.989C146.214 107.102 145.956 107.199 145.706 107.288C145.455 107.377 145.181 107.465 144.898 107.538C143.68 107.892 142.426 108.109 141.159 108.184C140.809 108.194 140.506 108.429 140.408 108.765C140.309 109.102 140.44 109.464 140.731 109.661C143.054 111.148 145.621 112.217 148.314 112.816C148.718 112.908 149.13 112.98 149.55 113.034C149.949 113.092 150.35 113.13 150.753 113.147C152.26 113.258 153.775 113.1 155.227 112.679C155.719 112.536 156.2 112.355 156.664 112.138C157.588 111.72 158.449 111.177 159.224 110.524C159.436 110.36 159.638 110.185 159.83 110L159.839 109.991L159.903 110.072C160.097 109.895 160.29 109.701 160.476 109.499C161.196 108.723 161.832 107.874 162.374 106.965C162.699 106.445 162.993 105.906 163.254 105.351C163.327 105.214 163.392 105.076 163.456 104.939L163.456 104.939L164.054 105.117L164.425 105.23L168.213 106.352L168.382 106.408L169.116 106.621C169.112 106.701 169.098 106.782 169.085 106.861L169.085 106.861C169.076 106.915 169.067 106.969 169.061 107.021C168.982 107.613 168.933 108.208 168.915 108.805C168.863 109.886 168.934 110.969 169.125 112.033C169.166 112.308 169.222 112.574 169.279 112.84L169.279 112.841C169.319 113.03 169.372 113.212 169.428 113.405L169.428 113.405C169.45 113.484 169.474 113.564 169.497 113.648C169.843 114.78 170.367 115.85 171.047 116.819C171.249 117.094 171.451 117.368 171.677 117.627C172.664 118.768 173.842 119.729 175.158 120.467C175.513 120.669 175.869 120.855 176.232 121.024C176.595 121.194 176.999 121.371 177.387 121.517C179.327 122.256 181.36 122.726 183.428 122.913C184.098 122.987 184.772 123.019 185.447 123.01C185.793 123.001 186.095 122.772 186.197 122.441C186.299 122.111 186.179 121.752 185.899 121.549L185.996 121.492ZM170.649 105.436C170.832 105.617 170.925 105.881 170.878 106.15C170.874 106.187 170.874 106.225 170.878 106.263C170.871 106.297 170.863 106.332 170.854 106.367C170.834 106.453 170.813 106.539 170.813 106.626C170.706 107.283 170.636 107.946 170.603 108.611C170.529 109.854 170.63 111.101 170.902 112.316C171.014 112.817 171.165 113.308 171.354 113.785C171.467 114.082 171.596 114.373 171.742 114.656C171.94 115.047 172.164 115.425 172.412 115.786C172.584 116.039 172.77 116.282 172.969 116.513C173.864 117.546 174.94 118.407 176.143 119.055C176.597 119.31 177.066 119.537 177.548 119.733C177.896 119.886 178.259 120.024 178.614 120.145H178.76C178.919 120.203 179.106 120.261 179.264 120.31C179.346 120.336 179.42 120.359 179.479 120.379C179.526 120.394 179.572 120.413 179.619 120.431C179.739 120.478 179.857 120.524 179.979 120.524C181.04 120.809 182.119 121.019 183.21 121.153C182.745 120.719 182.303 120.261 181.885 119.781C181.716 119.58 181.546 119.354 181.384 119.136C181.223 118.918 181.061 118.7 180.916 118.466C179.026 115.568 177.718 111.501 180.641 107.054C186.068 98.7165 189.945 87.377 184.453 80.42C182.119 77.4418 178.55 76.2877 175.32 77.4418C174.988 77.5586 174.619 77.4476 174.407 77.1674C172.348 74.4475 168.705 73.471 165.128 74.6735C156.761 77.5064 153.822 89.1122 153.822 99.0313C153.822 104.35 150.591 107.062 147.361 108.442C147.232 108.491 147.112 108.537 146.996 108.581C146.844 108.639 146.7 108.694 146.554 108.749L145.786 109.015C145.137 109.22 144.476 109.39 143.808 109.523C144.797 110.013 145.82 110.431 146.869 110.774L147.361 110.928L148.112 111.129H148.201C148.564 111.218 148.936 111.299 149.324 111.364C149.828 111.461 150.337 111.526 150.85 111.557C152.208 111.677 153.577 111.545 154.888 111.17C155.192 111.082 155.492 110.977 155.784 110.855C155.795 110.85 155.807 110.846 155.818 110.841L157.23 110.637L158.037 110.516C158.473 110.219 158.886 109.89 159.273 109.531H159.475L159.839 109.991C160.03 109.816 160.221 109.625 160.404 109.427C161.123 108.65 161.759 107.801 162.301 106.892C162.626 106.372 162.92 105.833 163.182 105.278C163.254 105.141 163.319 105.004 163.384 104.867L163.981 105.044L164.353 105.157L168.14 106.279L168.31 106.335L169.117 106.569C169.117 106.58 169.117 106.59 169.117 106.6C169.117 106.607 169.116 106.614 169.116 106.621L169.19 106.642C169.19 106.74 169.174 106.838 169.157 106.934C169.148 106.988 169.139 107.042 169.133 107.094C169.055 107.686 169.006 108.281 168.988 108.878C168.936 109.958 169.006 111.041 169.198 112.106C169.238 112.38 169.295 112.647 169.352 112.913L170.006 112.695L170.175 112.849C170.302 113.358 170.466 113.857 170.668 114.342L171.613 115.149L172.42 115.851C172.164 115.467 171.934 115.065 171.734 114.648C171.588 114.365 171.459 114.074 171.346 113.777C171.157 113.3 171.006 112.809 170.894 112.308C170.622 111.093 170.521 109.846 170.595 108.603C170.628 107.938 170.698 107.275 170.805 106.618C170.805 106.531 170.826 106.445 170.846 106.358L170.846 106.358C170.855 106.324 170.863 106.289 170.87 106.255C170.866 106.217 170.866 106.179 170.87 106.142C170.916 105.877 170.827 105.617 170.649 105.436ZM170.649 105.436C170.556 105.342 170.439 105.27 170.304 105.23L170.054 105.157L163.464 103.196L163.214 103.123H163.069C162.721 103.096 162.396 103.295 162.261 103.616C162.196 103.769 162.132 103.914 162.059 104.059C161.317 105.817 160.242 107.415 158.893 108.765C158.529 109.126 158.135 109.455 157.714 109.749C157.612 109.829 157.504 109.902 157.391 109.967C156.885 110.317 156.344 110.611 155.776 110.847L155.818 110.841C156.374 110.608 156.903 110.318 157.399 109.975C157.512 109.91 157.62 109.837 157.722 109.757C158.143 109.464 158.537 109.134 158.901 108.773C160.25 107.423 161.325 105.825 162.067 104.068C162.14 103.922 162.204 103.777 162.269 103.624C162.404 103.303 162.729 103.104 163.077 103.131H163.222L163.472 103.204L170.062 105.165L170.313 105.238C170.443 105.277 170.557 105.346 170.649 105.436Z" fill="#8893A7"/>
<path d="M181.15 94.1646C179.236 100.621 172.008 107.748 166.226 106.029C160.444 104.31 158.304 94.3664 160.21 87.95C160.103 87.7692 160.016 87.577 159.951 87.377C165.83 88.3697 170.87 84.1487 170.87 84.1487C173.189 88.2808 176.764 91.5681 181.078 93.5351C181.07 93.7474 181.095 93.9596 181.15 94.1646Z" fill="white"/>
<path d="M167.333 107.062C166.878 107.019 166.43 106.932 165.992 106.804C159.475 104.867 157.553 94.0516 159.434 87.716C159.494 87.5105 159.634 87.3372 159.821 87.2343C160.009 87.1314 160.23 87.1072 160.436 87.1672C160.643 87.227 160.818 87.3674 160.921 87.5569C161.024 87.7465 161.047 87.9695 160.985 88.176C159.119 94.4309 161.324 103.729 166.452 105.254C171.58 106.779 178.509 100.194 180.375 93.9547C180.503 93.5301 180.951 93.2886 181.376 93.414C181.804 93.5388 182.05 93.9869 181.925 94.4148C180.165 100.306 173.519 107.659 167.333 107.062Z" fill="#8893A7"/>
<path d="M161.155 88.2245L166.331 86.9977L170.28 84.9073L170.684 85.0284L172.558 87.2479L177.476 91.9451L180.23 94.0355C180.23 94.0355 179.995 94.6488 179.705 95.3429C173.664 92.1146 172.162 90.0969 170.143 87.8693C165.588 90.2341 162.6 90.0808 160.775 89.8467L161.155 88.2245Z" fill="#DCE0E8"/>
<path d="M183.411 95.2542H183.258C177.99 93.612 173.498 90.1128 170.619 85.4078C168.77 86.683 163.868 89.4916 158.457 87.8855C158.159 87.8228 157.922 87.598 157.844 87.3041C157.765 87.0102 157.858 86.6971 158.085 86.4943C158.312 86.2915 158.634 86.2334 158.918 86.344C164.821 88.0873 170.296 83.6403 170.353 83.5919C170.542 83.4322 170.795 83.3685 171.037 83.4189C171.28 83.4693 171.486 83.6283 171.596 83.8501C174.25 88.5428 178.575 92.0642 183.71 93.7127C184.101 93.8369 184.336 94.234 184.258 94.6362C184.18 95.0384 183.812 95.318 183.403 95.2865L183.411 95.2542Z" fill="#8893A7"/>
<path d="M168.512 102.284C166.717 102.077 165.092 101.128 164.029 99.6689C163.799 99.3217 163.871 98.8564 164.196 98.595C164.52 98.3335 164.99 98.3617 165.281 98.66C166.573 100.494 168.955 101.202 171.039 100.371C171.317 100.269 171.628 100.327 171.85 100.521C172.073 100.716 172.171 101.017 172.106 101.305C172.042 101.593 171.824 101.823 171.54 101.905C170.567 102.237 169.536 102.366 168.512 102.284Z" fill="#8893A7"/>
<g opacity="0.5">
<path d="M144.385 127.659C144.703 126.591 145.826 125.983 146.894 126.3L171.224 133.535C172.293 133.853 172.901 134.977 172.583 136.045C172.265 137.113 171.142 137.721 170.074 137.403L145.744 130.169C144.676 129.851 144.067 128.727 144.385 127.659Z" fill="#8893A7"/>
</g>
<g opacity="0.2">
<path d="M129.226 132.244C129.466 131.45 130.303 131.001 131.097 131.241L181.236 146.377C182.03 146.617 182.479 147.455 182.239 148.249C181.999 149.043 181.161 149.492 180.368 149.252L130.229 134.116C129.435 133.876 128.986 133.038 129.226 132.244Z" fill="#8893A7"/>
</g>
<g opacity="0.2">
<path d="M106.084 156.18C106.32 155.387 107.153 154.936 107.945 155.172L133.637 162.812C134.43 163.047 134.882 163.881 134.646 164.674C134.41 165.466 133.576 165.918 132.784 165.682L107.092 158.042C106.299 157.806 105.848 156.973 106.084 156.18Z" fill="#8893A7"/>
</g>
<g opacity="0.5">
<path d="M157.185 150.933C157.421 150.14 158.254 149.689 159.047 149.925L168.786 152.821C169.578 153.056 170.03 153.89 169.794 154.683C169.558 155.475 168.724 155.926 167.932 155.691L158.193 152.795C157.4 152.559 156.949 151.725 157.185 150.933Z" fill="#8893A7"/>
</g>
<g opacity="0.2">
<path d="M154.846 157.605C155.085 156.811 155.923 156.362 156.717 156.602L182.512 164.389C183.306 164.629 183.755 165.467 183.515 166.261C183.275 167.055 182.437 167.504 181.644 167.264L155.849 159.477C155.055 159.237 154.606 158.399 154.846 157.605Z" fill="#8893A7"/>
</g>
<g opacity="0.5">
<path d="M153.125 164.558C153.361 163.765 154.194 163.314 154.987 163.55L172.9 168.876C173.692 169.112 174.144 169.946 173.908 170.739C173.672 171.531 172.839 171.982 172.046 171.747L154.133 166.42C153.341 166.184 152.889 165.35 153.125 164.558Z" fill="#8893A7"/>
</g>
<g opacity="0.2">
<path d="M151.594 169.704C151.83 168.912 152.663 168.461 153.456 168.696L185.495 178.224C186.287 178.459 186.739 179.293 186.503 180.086C186.267 180.878 185.433 181.329 184.641 181.094L152.602 171.567C151.809 171.331 151.358 170.497 151.594 169.704Z" fill="#8893A7"/>
</g>
<g opacity="0.5">
<path d="M102.455 166.095C102.695 165.301 103.533 164.852 104.327 165.092L117.818 169.165C118.612 169.405 119.061 170.243 118.821 171.037C118.581 171.83 117.744 172.279 116.95 172.04L103.459 167.967C102.665 167.727 102.215 166.889 102.455 166.095Z" fill="#8893A7"/>
</g>
<g opacity="0.2">
<path d="M101.83 169.954C102.065 169.161 102.899 168.71 103.691 168.946L132.843 177.614C133.636 177.85 134.087 178.684 133.851 179.477C133.615 180.269 132.782 180.72 131.99 180.484L102.838 171.816C102.045 171.58 101.594 170.746 101.83 169.954Z" fill="#8893A7"/>
</g>
<g opacity="0.5">
<path d="M147.956 179.863C148.196 179.069 149.033 178.62 149.827 178.86L164.698 183.35C165.492 183.589 165.942 184.427 165.702 185.221C165.462 186.015 164.624 186.464 163.83 186.224L148.959 181.735C148.165 181.495 147.716 180.657 147.956 179.863Z" fill="#8893A7"/>
</g>
<g opacity="0.2">
<path d="M147.344 183.49C147.579 182.698 148.413 182.247 149.205 182.482L178.535 191.204C179.328 191.44 179.779 192.274 179.543 193.066C179.308 193.859 178.474 194.31 177.682 194.074L148.352 185.353C147.559 185.117 147.108 184.283 147.344 183.49Z" fill="#8893A7"/>
</g>
<g style="mix-blend-mode:multiply">
<path d="M151.861 146.787L138.834 32.5848C138.811 32.3721 138.703 32.1776 138.536 32.0441C138.372 31.9063 138.158 31.8447 137.946 31.8746L35.303 43.5692C35.093 43.5952 34.9016 43.7024 34.77 43.8679C34.6308 44.0337 34.5691 44.251 34.6004 44.4651L47.5216 157.836L37.3138 158.998C37.1006 159.023 36.9058 159.131 36.7724 159.299C36.6391 159.467 36.5782 159.681 36.6032 159.894C37.2914 165.89 42.3631 170.421 48.4019 170.435C48.8551 170.435 49.308 170.41 49.7586 170.362L141.378 159.918C144.519 159.572 147.392 157.989 149.362 155.521C151.333 153.052 152.237 149.9 151.877 146.763L151.861 146.787Z" fill="#CACFDB"/>
</g>
<path d="M48.5311 156.505L35.4968 157.99L39.1713 165.027L43.823 167.481H50.0252L48.5311 156.505Z" fill="white"/>
<path d="M46.5364 156.73L33.4859 42.5523L136.121 30.8577L149.147 145.036C149.829 151.101 145.474 156.575 139.408 157.279L47.7639 167.771" fill="white"/>
<path d="M39.1713 165.027L130.323 154.14L135.281 157.376L133.375 157.99L46.0115 167.941L39.1713 165.027Z" fill="#DCE0E8"/>
<path d="M47.7639 168.578C47.3179 168.603 46.9364 168.262 46.9119 167.816C46.8874 167.37 47.2291 166.989 47.6751 166.964L139.295 156.472C144.906 155.83 148.948 150.785 148.348 145.173L135.427 31.7939L34.4227 43.2626L47.344 156.642C47.3912 157.082 47.0739 157.479 46.6333 157.529C46.1923 157.577 45.7957 157.26 45.745 156.819L32.6864 42.6734C32.6392 42.2327 32.9564 41.8363 33.3971 41.7856L136.032 30.091C136.244 30.06 136.459 30.1217 136.622 30.2605C136.792 30.3925 136.903 30.5872 136.929 30.8012L149.947 144.979C150.305 148.116 149.399 151.266 147.43 153.735C145.46 156.203 142.588 157.786 139.448 158.135L47.8608 168.578H47.7639Z" fill="#8893A7"/>
<path d="M149.147 145.036C149.841 151.114 145.473 156.602 139.392 157.295C133.31 157.989 127.818 153.624 127.125 147.546" fill="white"/>
<path d="M138.124 158.183C132.084 158.165 127.013 153.632 126.325 147.635C126.278 147.194 126.595 146.798 127.036 146.747C127.477 146.7 127.873 147.017 127.924 147.457C128.586 153.077 133.668 157.106 139.295 156.472C144.906 155.83 148.948 150.785 148.348 145.173C148.315 144.885 148.438 144.601 148.671 144.428C148.904 144.255 149.212 144.219 149.479 144.335C149.745 144.45 149.93 144.699 149.963 144.987C150.321 148.124 149.416 151.275 147.446 153.743C145.476 156.211 142.604 157.794 139.464 158.143C139.019 158.184 138.571 158.197 138.124 158.183Z" fill="#8893A7"/>
<path d="M35.4968 158.797C35.0508 158.821 34.6693 158.48 34.6448 158.034C34.6203 157.588 34.9619 157.207 35.408 157.182L127.036 146.787C127.482 146.738 127.883 147.06 127.932 147.505C127.981 147.951 127.659 148.352 127.213 148.401L35.5937 158.788L35.4968 158.797Z" fill="#8893A7"/>
<path d="M86.4711 50.9056C100.98 49.3306 114.02 59.8051 115.602 74.3044C117.183 88.8037 106.707 101.84 92.1998 103.426C77.6922 105.012 64.6438 94.5475 63.0513 80.0494C62.2836 73.0798 64.321 66.0911 68.7142 60.6241C73.1074 55.1571 79.4958 51.6607 86.4711 50.9056Z" fill="white"/>
<path fill-rule="evenodd" clip-rule="evenodd" d="M62.2396 78.6236C63.0154 93.031 74.901 104.333 89.338 104.391C90.3496 104.389 91.3604 104.336 92.3664 104.23C102.145 103.291 110.66 97.1643 114.654 88.195C118.648 79.2258 117.502 68.8024 111.655 60.9139C105.807 53.0254 96.1636 48.8932 86.4146 50.0986C72.0672 51.7048 61.4638 64.2162 62.2396 78.6236ZM63.8099 74.9082C64.8916 62.7319 74.4312 53.016 86.5923 51.7047L86.56 51.7208C93.3181 50.959 100.1 52.9325 105.393 57.2009C114.929 64.8555 117.726 78.1778 112.071 89.0171C106.416 99.8564 93.8851 105.192 82.1454 101.76C70.4057 98.3281 62.7281 87.0845 63.8099 74.9082Z" fill="#8893A7"/>
<path d="M85.1628 98.7576C86.9867 100.326 89.323 101.17 91.7285 101.13C93.8201 100.896 96.7597 98.9917 98.0841 96.7157L95.4837 87.9669C92.5603 90.3317 89.12 90.8401 85.93 89.0161L85.1628 98.7576Z" fill="white"/>
<path d="M85.5909 91.7845C87.2976 92.3189 89.0865 92.5431 90.8724 92.4463C92.7801 92.1997 94.6031 91.5086 96.1944 90.4286L95.4837 88.0073C92.1484 89.9363 88.7162 90.2591 85.9301 89.0565L85.5909 91.7845Z" fill="#F0F1F5"/>
<path d="M101.355 76.2723C100.353 82.4869 96.2913 89.0323 90.7352 89.6457C85.179 90.2591 79.744 84.6983 77.4263 78.8308C76.4653 76.4095 76.6591 73.5121 76.861 70.881C76.9079 69.7446 77.1426 68.6238 77.5555 67.5639C78.5623 65.4805 80.4099 63.9246 82.6352 63.2864C84.843 62.6709 87.1476 62.4791 89.4269 62.7214C92.4876 62.9393 95.6695 63.5285 98.068 65.4171C98.5317 65.7742 98.9423 66.1954 99.2874 66.668C99.955 67.7491 100.374 68.9647 100.515 70.2273C100.862 72.2127 101.67 74.2869 101.355 76.2723Z" fill="white"/>
<path fill-rule="evenodd" clip-rule="evenodd" d="M76.6752 79.1213C78.9687 84.9323 84.1453 90.4931 89.8629 90.4931C90.1456 90.4931 90.5009 90.477 90.8482 90.4447C96.8808 89.7748 101.104 82.8581 102.154 76.4014C102.302 74.8324 102.137 73.2497 101.67 71.7445C101.663 71.714 101.656 71.6836 101.648 71.6531C101.526 71.1275 101.406 70.6088 101.314 70.09C101.146 68.71 100.68 67.3828 99.9496 66.1999C99.5597 65.6651 99.0946 65.1893 98.5686 64.7875C95.8309 62.6164 92.2776 62.116 89.4834 61.9143C87.1028 61.6672 84.697 61.8726 82.3928 62.5196C79.9393 63.2218 77.9064 64.9447 76.8125 67.2491C76.3678 68.3893 76.1114 69.5941 76.0533 70.8164L76.0487 70.879C75.8637 73.3784 75.634 76.48 76.6752 79.1213ZM82.8855 64.053C84.3206 63.6246 85.8134 63.4204 87.311 63.4477C88.0378 63.4477 88.7404 63.4881 89.3703 63.5284C91.9142 63.706 95.1445 64.1499 97.5672 66.0465C97.9706 66.3595 98.3292 66.7261 98.6332 67.1361C99.2224 68.1224 99.5941 69.223 99.7235 70.3644C99.8204 70.9375 99.9577 71.5266 100.103 72.1077C100.512 73.4113 100.666 74.7815 100.555 76.1432C99.6346 81.8734 95.839 88.2575 90.6463 88.8386C85.4536 89.4197 80.3174 83.9557 78.1854 78.5321C77.2647 76.2077 77.4747 73.4071 77.6685 70.9455C77.7099 69.8991 77.9199 68.8663 78.2903 67.8867C79.2 66.0085 80.8739 64.612 82.8855 64.053Z" fill="#8893A7"/>
<path d="M84.864 96.861C84.538 96.8629 84.2428 96.6687 84.1157 96.3687C83.9885 96.0687 84.0544 95.7217 84.2826 95.489C85.0902 94.6335 85.1386 91.05 84.8883 88.774C84.8657 88.561 84.9287 88.3478 85.0635 88.1813C85.1983 88.0148 85.3939 87.9086 85.607 87.8863C86.048 87.839 86.4446 88.1561 86.4953 88.5965C86.6084 89.6376 87.101 94.9079 85.4455 96.6108C85.2938 96.7698 85.0839 96.8602 84.864 96.861Z" fill="#8893A7"/>
<path d="M97.8499 95.4325C97.6916 95.4313 97.5371 95.3836 97.4057 95.2953C95.4271 93.9959 94.7569 88.7418 94.6438 87.7007C94.6121 87.4123 94.7367 87.129 94.9707 86.9573C95.2047 86.7857 95.5125 86.7518 95.7782 86.8685C96.044 86.9852 96.2272 87.2348 96.259 87.5231C96.5174 89.7991 97.3169 93.2938 98.3102 93.9798C98.6119 94.1745 98.7487 94.545 98.6458 94.8889C98.5429 95.2328 98.2252 95.4675 97.866 95.4648L97.8499 95.4325Z" fill="#8893A7"/>
<path d="M77.725 69.2265C77.9108 69.2265 86.2127 72.4549 89.8387 73.843C90.1414 73.9706 90.4913 73.9022 90.7236 73.6701C90.9559 73.4379 91.0243 73.0883 90.8966 72.7858L89.1765 68.3226C89.1765 68.3226 93.9412 70.5017 98.7059 70.0175C103.471 69.5332 99.4327 65.7076 99.4327 65.7076L82.2071 64.4647L77.725 69.2265Z" fill="#DCE0E8"/>
<path d="M86.5761 55.3608C98.4717 54.0533 104.02 57.9274 102.138 75.6751C102.108 75.9879 101.866 76.2387 101.554 76.281C101.243 76.3233 100.943 76.146 100.83 75.8527C99.8527 73.383 98.3183 68.3307 98.3183 68.3307C98.1921 67.7125 97.6011 67.3034 96.9777 67.4025C92.7945 67.8141 87.8844 65.6834 87.8844 65.6834C87.6108 65.6367 87.3325 65.7337 87.1472 65.9401C86.9619 66.1466 86.8957 66.4337 86.9718 66.7003L89.2169 71.1635L81.0361 67.9352C80.2594 67.6331 79.3764 67.8875 78.8799 68.5566L77.8704 78.3062C77.8253 78.618 77.5712 78.8576 77.2571 78.8846C76.943 78.9116 76.6517 78.7187 76.5541 78.4192C70.901 61.5673 75.3831 56.6279 87.2625 55.2882" fill="#DCE0E8"/>
<path fill-rule="evenodd" clip-rule="evenodd" d="M75.8273 78.6693C76.0211 79.2766 76.5865 79.6882 77.2244 79.6863L77.4182 79.7831C78.1187 79.7234 78.6815 79.1812 78.7668 78.4837L79.744 68.9843C80.0394 68.7217 80.4559 68.6441 80.8262 68.7826L89.0069 72.0109C89.3186 72.1337 89.6737 72.0515 89.8996 71.8043C90.1254 71.557 90.1751 71.1961 90.0245 70.8971L87.8683 66.6115C88.8858 67.0231 93.271 68.6857 97.1473 68.2983C97.2927 68.2902 97.6076 68.3225 97.6076 68.5566V68.6615C97.6107 68.6714 97.6169 68.6919 97.6261 68.722C97.8117 69.33 99.2048 73.8952 100.143 76.2481C100.396 76.8834 101.05 77.2642 101.728 77.1704C102.406 77.0767 102.932 76.5327 103.002 75.8526C104.004 66.4985 103.002 60.6956 99.772 57.4673C97.2039 54.9169 93.3517 54.0129 87.3514 54.5698H87.2464L86.9072 54.6102H86.56H86.4631C80.4951 55.3769 76.9579 57.0799 75.0197 60.1064C72.597 63.8594 72.8312 69.7914 75.8273 78.6693ZM76.3522 60.97C78.0481 58.2824 81.3511 56.7893 87.0526 56.1275H87.0122C92.738 55.5303 96.3074 56.2808 98.5929 58.468C101.371 61.2283 102.275 66.4985 101.427 75.0133C100.531 72.6162 99.2874 68.5727 99.142 68.0965C98.9238 67.0846 97.9641 66.4101 96.9374 66.5469C93.3713 66.9364 89.1358 65.2786 88.3694 64.9787C88.294 64.9491 88.2522 64.9328 88.2478 64.9328C88.168 64.8991 88.0836 64.8773 87.9975 64.8682C87.4248 64.8111 86.8623 65.0482 86.5034 65.4977C86.1745 65.906 86.0771 66.4539 86.245 66.9505C86.2405 66.9853 86.2405 67.0206 86.245 67.0554L87.5452 69.63L81.3349 67.2088C80.2093 66.7687 78.9282 67.1435 78.2177 68.1208C78.1377 68.2327 78.0876 68.3633 78.0723 68.5001L77.1598 77.6282C74.519 69.5412 74.2606 64.2387 76.3522 60.97Z" fill="#8893A7"/>
<path d="M89.6772 85.4489C88.3985 85.4252 87.1461 85.0811 86.035 84.4481C85.7811 84.3039 85.6235 84.0353 85.6215 83.7435C85.6195 83.4516 85.7734 83.1809 86.0253 83.0332C86.2772 82.8856 86.5887 82.8834 86.8426 83.0276C88.9053 84.3008 91.571 84.0045 93.3032 82.3093C93.6422 82.0173 94.1538 82.0553 94.446 82.394C94.7381 82.7328 94.7001 83.2441 94.3612 83.5361C93.088 84.727 91.4206 85.4079 89.6772 85.4489Z" fill="#8893A7"/>
<path d="M92.2453 103.423C97.6781 102.841 102.795 100.585 106.887 96.966C104.038 95.6597 100.977 94.8778 97.8499 94.6577L91.8577 99.8795L84.8641 96.0863C81.86 96.9782 79.042 98.4055 76.546 100.299C81.327 102.946 86.8146 104.038 92.2453 103.423Z" fill="#CACFDB"/>
<path fill-rule="evenodd" clip-rule="evenodd" d="M76.1745 100.969C80.1981 103.214 84.7298 104.392 89.338 104.391L89.3057 104.44C95.9731 104.432 102.408 101.993 107.404 97.5793C107.603 97.401 107.701 97.1355 107.666 96.8705C107.63 96.6054 107.465 96.3752 107.226 96.2557C104.295 94.8907 101.14 94.0703 97.9145 93.8344C97.6919 93.8112 97.4697 93.8814 97.3008 94.0281L91.7285 98.8706L85.2679 95.3437C85.0721 95.2378 84.8412 95.2173 84.6299 95.2872C81.5307 96.2054 78.6246 97.6795 76.0534 99.6374C75.8454 99.8083 75.7364 100.072 75.7627 100.34C75.7877 100.604 75.9418 100.84 76.1745 100.969ZM92.1323 102.624C87.2918 103.161 82.3986 102.301 78.032 100.146C80.1151 98.7625 82.3823 97.6785 84.7672 96.9256L91.4458 100.557C91.7422 100.716 92.1057 100.674 92.3584 100.453L98.0922 95.4648C100.582 95.6778 103.029 96.243 105.36 97.1435C101.566 100.196 96.9752 102.098 92.1323 102.624Z" fill="#8893A7"/>
<g opacity="0.5">
<path d="M78.6394 113.088C78.5131 111.981 79.3085 110.981 80.4158 110.855L105.637 107.983C106.744 107.857 107.744 108.652 107.87 109.759C107.997 110.867 107.201 111.867 106.094 111.993L80.8724 114.865C79.7653 114.991 78.7656 114.195 78.6394 113.088Z" fill="#8893A7"/>
</g>
<g opacity="0.2">
<path d="M66.6385 121.709C66.5448 120.888 67.135 120.146 67.9566 120.052L119.849 114.143C120.67 114.05 121.412 114.64 121.506 115.461C121.599 116.283 121.009 117.025 120.188 117.118L68.2954 123.027C67.4739 123.121 66.7321 122.531 66.6385 121.709Z" fill="#8893A7"/>
</g>
<g opacity="0.5">
<path d="M52.3674 134.861C52.2738 134.039 52.8639 133.297 53.6856 133.204L71.7651 131.145C72.5866 131.052 73.3284 131.642 73.422 132.463C73.5157 133.285 72.9255 134.027 72.1039 134.12L54.0243 136.179C53.2029 136.272 52.4611 135.682 52.3674 134.861Z" fill="#8893A7"/>
</g>
<g opacity="0.2">
<path d="M52.9742 140.201C52.8806 139.38 53.4708 138.638 54.2924 138.544L88.9492 134.598C89.7707 134.505 90.5125 135.095 90.6061 135.916C90.6998 136.738 90.1096 137.48 89.288 137.573L54.6311 141.519C53.8097 141.613 53.0679 141.023 52.9742 140.201Z" fill="#8893A7"/>
</g>
<g opacity="0.5">
<path d="M53.9833 148.983C53.8896 148.161 54.4798 147.419 55.3014 147.325L69.2647 145.735C70.0862 145.642 70.828 146.232 70.9216 147.053C71.0153 147.875 70.4251 148.617 69.6035 148.711L55.6402 150.3C54.8187 150.394 54.0769 149.804 53.9833 148.983Z" fill="#8893A7"/>
</g>
<g opacity="0.2">
<path d="M54.5928 154.331C54.4992 153.509 55.0893 152.767 55.911 152.674L86.1306 149.233C86.9521 149.139 87.6939 149.729 87.7875 150.551C87.8812 151.372 87.291 152.114 86.4694 152.208L56.2497 155.649C55.4283 155.742 54.6865 155.152 54.5928 154.331Z" fill="#8893A7"/>
</g>
<g opacity="0.5">
<path d="M99.5411 129.488C99.4474 128.666 100.038 127.924 100.859 127.831L110.955 126.681C111.776 126.588 112.518 127.178 112.612 127.999C112.706 128.821 112.115 129.563 111.294 129.656L101.198 130.806C100.377 130.899 99.6347 130.309 99.5411 129.488Z" fill="#8893A7"/>
</g>
<g opacity="0.2">
<path d="M100.157 134.836C100.063 134.015 100.653 133.273 101.475 133.179L128.172 130.139C128.994 130.046 129.735 130.636 129.829 131.457C129.923 132.279 129.333 133.021 128.511 133.114L101.814 136.154C100.992 136.248 100.251 135.658 100.157 134.836Z" fill="#8893A7"/>
</g>
<g opacity="0.5">
<path d="M101.149 143.619C101.056 142.798 101.646 142.056 102.468 141.962L121.037 139.848C121.858 139.754 122.6 140.344 122.694 141.166C122.787 141.987 122.197 142.729 121.375 142.823L102.806 144.937C101.985 145.031 101.243 144.441 101.149 143.619Z" fill="#8893A7"/>
</g>
<path d="M46.5364 168.619C40.4862 168.622 35.3946 164.093 34.6973 158.086C34.6723 157.873 34.7332 157.659 34.8665 157.491C34.9999 157.323 35.1947 157.215 35.4079 157.191C35.6211 157.166 35.8355 157.226 36.0037 157.36C36.1719 157.493 36.2801 157.688 36.3043 157.901C36.942 163.54 42.0314 167.597 47.675 166.964C48.1161 166.917 48.5127 167.234 48.5634 167.675C48.5884 167.888 48.5275 168.102 48.3941 168.27C48.2608 168.438 48.066 168.546 47.8527 168.57C47.4151 168.609 46.9757 168.625 46.5364 168.619Z" fill="#8893A7"/>
</g>
</svg>
