<svg width="16" height="16" viewBox="0 0 16 16" fill="none" xmlns="http://www.w3.org/2000/svg">
<path d="M7.16377 13.7652C6.13865 14.7903 4.35787 14.6716 3.1863 13.5C2.01472 12.3284 1.89601 10.5477 2.92113 9.52254L7.87088 4.57279C8.5543 3.88938 9.74148 3.96852 10.5225 4.74957C11.3036 5.53062 11.3827 6.7178 10.6993 7.40122L6.36828 11.7323L5.66117 11.0251L9.9922 6.69411C10.3339 6.35241 10.2943 5.75881 9.90381 5.36829C9.51329 4.97777 8.91969 4.93819 8.57799 5.2799L3.62824 10.2296C2.94482 10.9131 3.02397 12.1003 3.80502 12.8813C4.58606 13.6623 5.77325 13.7415 6.45667 13.0581L12.0251 7.48961C13.0503 6.46448 12.9315 4.68371 11.76 3.51213C10.5884 2.34056 8.80762 2.22184 7.78249 3.24697L2.21403 8.81544L1.50692 8.10833L7.07538 2.53986C8.44222 1.17303 10.8166 1.33132 12.3787 2.89342C13.9408 4.45551 14.0991 6.82988 12.7322 8.19672L7.16377 13.7652Z" fill="#1971C2"/>
</svg>
