<svg width="16" height="16" viewBox="0 0 16 15" fill="currentColor" xmlns="http://www.w3.org/2000/svg">
  <path fill-rule="evenodd" clip-rule="evenodd"
        d="M16 5.16666V7.66666H0V5.16666C0 4.33823 0.671563 3.66666 1.5 3.66666H4V2.16666C4 1.33823 4.67156 0.666664 5.5 0.666664H10.5C11.3284 0.666664 12 1.33823 12 2.16666V3.66666H14.5C15.3284 3.66666 16 4.33823 16 5.16666ZM10 8.66666H16V13.1667C16 13.9951 15.3284 14.6667 14.5 14.6667H1.5C0.671563 14.6667 0 13.9951 0 13.1667V8.66666H6V9.29166C6 9.49876 6.16791 9.66666 6.375 9.66666H9.625C9.83209 9.66666 10 9.49876 10 9.29166V8.66666ZM6 2.66666H10V3.66666H6V2.66666Z"
  />
</svg>
