<svg width="16" height="16" viewBox="0 0 16 16" fill="none" xmlns="http://www.w3.org/2000/svg">
<path fill-rule="evenodd" clip-rule="evenodd" d="M14.3036 5.60491H15.3274C15.6829 5.60491 15.9706 5.89257 15.9706 6.24813V8.71915C15.9706 9.07471 15.6829 9.36237 15.3274 9.36237H14.3054V9.76616C14.3054 9.86086 14.3054 10.0592 13.9712 10.572C13.9123 10.6613 13.8515 10.7506 13.7872 10.8328C13.7997 11.1151 13.7908 11.5422 13.6836 12.0478C13.5121 12.8572 13.0493 14.0382 11.8129 15.0655C11.6021 15.2389 11.3466 15.3282 11.0893 15.3282C10.8749 15.3282 10.6587 15.2657 10.4693 15.1424C10.0512 14.869 9.86181 14.3634 9.9976 13.8827C10.2317 13.0555 10.4836 11.9084 10.4586 10.831H10.3853C10.2674 11.0615 10.0905 11.2277 9.84395 11.2277C5.02697 11.2277 1.30168 15.8803 1.30168 15.8803C1.1641 15.9625 1.01581 16 0.872869 16C0.433338 16 0.029541 15.6498 0.029541 15.1567V0.843328C0.029541 0.353769 0.431551 0 0.872869 0C1.00509 0 1.14088 0.0321608 1.27131 0.101843C1.27131 0.101843 5.30391 3.98973 9.79213 3.98973C10.0566 3.98973 10.2495 4.1684 10.3782 4.41496H13.4567C13.923 4.41496 14.3036 4.80804 14.3036 5.29045V5.60491ZM5.97393 10.7703C7.08348 10.3004 8.1966 10.0288 9.29185 9.95913C9.29185 9.95198 9.29185 9.94662 9.29007 9.93948V5.41016C9.28292 5.37264 9.27935 5.33333 9.27935 5.29224V5.26186C8.26092 5.20469 7.20319 4.97956 6.12759 4.59185C5.15026 4.23987 4.15506 3.75031 3.16879 3.13925C2.41837 2.67471 1.78588 2.20838 1.31419 1.83317V13.9757C1.75193 13.5468 2.31653 13.0376 2.98834 12.5284C3.96388 11.7887 4.96801 11.1973 5.97393 10.7703ZM13.0171 9.65896C12.9618 9.76795 12.8456 9.94662 12.7759 10.036C12.7188 10.0717 12.667 10.1164 12.6241 10.1682C12.5026 10.3147 12.4508 10.5076 12.4847 10.6953L12.4851 10.6985C12.4909 10.7406 12.552 11.1846 12.4257 11.7816C12.2721 12.5106 11.9183 13.1609 11.3734 13.7219C11.6324 12.6767 11.8504 11.3331 11.6968 10.1074C11.6557 9.78582 11.3823 9.54461 11.0589 9.54461H10.6015V9.01039C10.6015 8.95142 10.5926 8.89425 10.5783 8.84065V5.7014H13.0171V9.65896ZM14.3036 8.07594H14.6841V6.89135H14.3036V8.07594Z" fill="#8893A7"/>
</svg>
