<svg width="16" height="16" viewBox="0 0 16 16" fill="none" xmlns="http://www.w3.org/2000/svg">
<path fill-rule="evenodd" clip-rule="evenodd" d="M8 4.11111H16V15H0V1H8V4.11111ZM1.6 13.4444H3.2V11.8889H1.6V13.4444ZM3.2 10.3333H1.6V8.77778H3.2V10.3333ZM1.6 7.22222H3.2V5.66667H1.6V7.22222ZM3.2 4.11111H1.6V2.55556H3.2V4.11111ZM4.8 13.4444H6.4V11.8889H4.8V13.4444ZM6.4 10.3333H4.8V8.77778H6.4V10.3333ZM4.8 7.22222H6.4V5.66667H4.8V7.22222ZM6.4 4.11111H4.8V2.55556H6.4V4.11111ZM14.4 13.4444V5.66667H8V7.22222H9.6V8.77778H8V10.3333H9.6V11.8889H8V13.4444H14.4ZM12.8 7.22222H11.2V8.77778H12.8V7.22222ZM11.2 10.3333H12.8V11.8889H11.2V10.3333Z" fill="#1971C2"/>
</svg>
