<svg width="17" height="16" viewBox="0 0 17 16" fill="none" xmlns="http://www.w3.org/2000/svg">
<path fill-rule="evenodd" clip-rule="evenodd" d="M1.14286 16H15.8571C16.2125 16 16.5 15.7125 16.5 15.3571C16.5 15.0018 16.2125 14.7143 15.8571 14.7143H1.78571V0.642857C1.78571 0.2875 1.49821 0 1.14286 0C0.7875 0 0.5 0.2875 0.5 0.642857V15.3571C0.5 15.7125 0.7875 16 1.14286 16ZM2.80357 6.81071C2.81786 6.10893 3.39107 5.53393 4.09286 5.51786C4.8375 5.5 5.44643 6.09821 5.44643 6.83929C5.44643 7.36429 5.13929 7.81786 4.69643 8.03036V13.125C4.69643 13.4411 4.44107 13.6964 4.125 13.6964C3.80893 13.6964 3.55357 13.4411 3.55357 13.125V8.03036C3.10179 7.81429 2.79286 7.34821 2.80357 6.81071ZM9.04821 3.41071C8.34643 3.42679 7.77321 4.00179 7.75893 4.70357C7.74821 5.24107 8.05714 5.70714 8.50893 5.92321V13.125C8.50893 13.4411 8.76429 13.6964 9.08036 13.6964C9.39643 13.6964 9.65179 13.4411 9.65179 13.125V5.92321C10.0946 5.71071 10.4018 5.25714 10.4018 4.73214C10.4018 3.99107 9.79286 3.39286 9.04821 3.41071ZM14.0036 5.71429C14.7482 5.69643 15.3571 6.29464 15.3571 7.03571C15.3571 7.56071 15.05 8.01429 14.6071 8.22679V13.125C14.6071 13.4411 14.3518 13.6964 14.0357 13.6964C13.7196 13.6964 13.4643 13.4411 13.4643 13.125V8.22679C13.0125 8.01071 12.7036 7.54464 12.7143 7.00714C12.7286 6.30536 13.3018 5.73036 14.0036 5.71429Z" fill="#8893A7"/>
</svg>
