<svg width="16" height="16" viewBox="0 0 16 16" fill="none" xmlns="http://www.w3.org/2000/svg">
<path fill-rule="evenodd" clip-rule="evenodd" d="M1 8C1 4.13392 4.13392 1 8 1C11.8661 1 15 4.13392 15 8C15 11.8661 11.8661 15 8 15C4.13392 15 1 11.8661 1 8ZM6.54663 11.6772L12.2315 6.14428C12.4025 5.97322 12.4025 5.69541 12.2315 5.52434C12.0604 5.35327 11.7826 5.35327 11.6115 5.52434L6.23734 10.748L4.37478 8.98123C4.20371 8.81017 3.9259 8.81017 3.75484 8.98123C3.58377 9.1523 3.58377 9.43011 3.75484 9.60117L5.92669 11.6772C6.09775 11.8483 6.37556 11.8483 6.54663 11.6772Z" fill="#2F9E44"/>
</svg>
