<svg width="16" height="16" viewBox="0 0 16 16" fill="none" xmlns="http://www.w3.org/2000/svg">
<path d="M1.6 0H14.4C15.28 0 16 0.72 16 1.6V16L12.8 12.8H1.6C0.719999 12.8 0 12.08 0 11.2V1.6C0 0.72 0.719999 0 1.6 0ZM1.6 11.2H12.8L14.4 12.8V1.6H1.6V11.2Z" fill="#8893A7"/>
<path d="M3.99956 9.60019H11.9996C12.4396 9.60019 12.7996 9.24019 12.7996 8.80019C12.7996 8.36019 12.4396 8.00019 11.9996 8.00019H3.99956C3.55956 8.00019 3.19956 8.36019 3.19956 8.80019C3.19956 9.24019 3.55956 9.60019 3.99956 9.60019ZM3.99956 7.20019H11.9996C12.4396 7.20019 12.7996 6.84019 12.7996 6.40019C12.7996 5.96019 12.4396 5.60019 11.9996 5.60019H3.99956C3.55956 5.60019 3.19956 5.96019 3.19956 6.40019C3.19956 6.84019 3.55956 7.20019 3.99956 7.20019ZM3.99956 4.8002H11.9996C12.4396 4.8002 12.7996 4.4402 12.7996 4.0002C12.7996 3.5602 12.4396 3.2002 11.9996 3.2002H3.99956C3.55956 3.2002 3.19956 3.5602 3.19956 4.0002C3.19956 4.4402 3.55956 4.8002 3.99956 4.8002Z" fill="#8893A7"/>
</svg>
