<svg width="16" height="16" viewBox="0 0 16 16" fill="none" xmlns="http://www.w3.org/2000/svg">
<path fill-rule="evenodd" clip-rule="evenodd" d="M2.42857 0H14.7143C15.425 0 16 0.575 16 1.28571V14.7143C16 15.425 15.425 16 14.7143 16H2.42857C1.71786 16 1.14286 15.425 1.14286 14.7143V13.75H1.14464C1.14286 13.7375 1.14286 13.7268 1.14286 13.7143C1.14286 13.3589 1.43036 13.0714 1.78571 13.0714C2.14107 13.0714 2.42857 13.3589 2.42857 13.7143C2.42857 13.7205 2.42812 13.7263 2.42768 13.7321L2.42768 13.7322C2.42723 13.738 2.42679 13.7438 2.42679 13.75H2.42857V14.7143H14.7143V1.28571H2.42857V2.28571C2.42857 2.64107 2.14107 2.92857 1.78571 2.92857C1.43036 2.92857 1.14286 2.64107 1.14286 2.28571V1.28571C1.14286 0.575 1.71786 0 2.42857 0ZM0.642857 5.46429H2.78571C3.14107 5.46429 3.42857 5.17679 3.42857 4.82143C3.42857 4.46607 3.14107 4.17857 2.78571 4.17857H0.642857C0.2875 4.17857 0 4.46607 0 4.82143C0 5.17679 0.2875 5.46429 0.642857 5.46429ZM3.42857 11.2143C3.42857 10.8589 3.14107 10.5714 2.78571 10.5714H0.642857C0.2875 10.5714 0 10.8589 0 11.2143C0 11.5696 0.2875 11.8571 0.642857 11.8571H2.78571C3.14107 11.8571 3.42857 11.5696 3.42857 11.2143ZM7.55274 8.81978C6.74392 8.29792 6.20714 7.3888 6.20714 6.35714C6.20714 4.74286 7.52143 3.42857 9.13571 3.42857C10.75 3.42857 12.0643 4.74286 12.0643 6.35714C12.0643 7.38893 11.5274 8.29815 10.7184 8.81998C11.943 9.33715 12.8767 10.4386 13.1357 11.8089C13.2018 12.1571 12.9732 12.4946 12.6232 12.5607C12.5839 12.5679 12.5429 12.5714 12.5036 12.5714C12.2 12.5714 11.9304 12.3571 11.8732 12.0482C11.6232 10.7375 10.4732 9.78571 9.13571 9.78571C7.79821 9.78571 6.64821 10.7375 6.39821 12.0482C6.33929 12.3571 6.06964 12.5714 5.76786 12.5714C5.72857 12.5714 5.6875 12.5679 5.64821 12.5607C5.3 12.4946 5.06964 12.1589 5.13571 11.8089C5.39476 10.4384 6.32774 9.33687 7.55274 8.81978ZM0.642857 8.66071H2.78571C3.14107 8.66071 3.42857 8.37321 3.42857 8.01786C3.42857 7.6625 3.14107 7.375 2.78571 7.375H0.642857C0.2875 7.375 0 7.6625 0 8.01786C0 8.37321 0.2875 8.66071 0.642857 8.66071ZM7.49286 6.35714C7.49286 5.45179 8.23036 4.71429 9.13571 4.71429C10.0411 4.71429 10.7786 5.45179 10.7786 6.35714C10.7786 7.2625 10.0411 8 9.13571 8C8.23036 8 7.49286 7.2625 7.49286 6.35714Z" fill="#8893A7"/>
</svg>
