<svg width="17" height="16" viewBox="0 0 17 16" fill="none" xmlns="http://www.w3.org/2000/svg">
<path fill-rule="evenodd" clip-rule="evenodd" d="M14.1734 3.71563L10.8328 0.332812C10.7625 0.2625 10.6859 0.203125 10.6031 0.153125L10.6031 0.153117C10.5812 0.140619 10.5594 0.128123 10.5359 0.117188C10.5251 0.111188 10.5134 0.106111 10.5022 0.101247L10.4922 0.096875C10.3516 0.034375 10.1969 0 10.0391 0H5.64844C5.02656 0 4.50781 0.503125 4.50781 1.125V2H3.64062C3.01875 2 2.50781 2.50937 2.50781 3.13125V14.8813C2.50781 15.5031 3.01875 16 3.64062 16H11.375C11.9969 16 12.4922 15.5031 12.4922 14.8813V14H13.3828C14.0047 14 14.4922 13.4969 14.4922 12.875V4.50781C14.4922 4.21094 14.3828 3.92656 14.1734 3.71563ZM10.6172 1.725L12.7547 3.875H10.6172V1.725ZM3.63281 14.875H11.3672V14H5.64844C5.02656 14 4.50781 13.4969 4.50781 12.875V3.125H3.63281V14.875ZM13.3672 12.875H5.63281V1.125H9.49219V3.875C9.49219 4.49687 10.0109 5 10.6328 5H13.3672V12.875ZM9.94531 6C10.2562 6 10.5078 6.25156 10.5078 6.5625C10.5078 6.87344 10.2562 7.125 9.94531 7.125H7.07031C6.75938 7.125 6.50781 6.87344 6.50781 6.5625C6.50781 6.25156 6.75938 6 7.07031 6H9.94531ZM12.5078 8.5625C12.5078 8.25156 12.2563 8 11.9453 8H7.07031C6.75938 8 6.50781 8.25156 6.50781 8.5625C6.50781 8.87344 6.75938 9.125 7.07031 9.125H11.9453C12.2563 9.125 12.5078 8.87344 12.5078 8.5625ZM10.9453 10C11.2563 10 11.5078 10.2516 11.5078 10.5625C11.5078 10.8734 11.2563 11.125 10.9453 11.125H7.07031C6.75938 11.125 6.50781 10.8734 6.50781 10.5625C6.50781 10.2516 6.75938 10 7.07031 10H10.9453Z" fill="#8893A7"/>
</svg>
