<svg width="16" height="16" viewBox="0 0 16 16" fill="none" xmlns="http://www.w3.org/2000/svg">
<path fill-rule="evenodd" clip-rule="evenodd" d="M12.5714 1.14286H14.7143C15.425 1.14286 16 1.71786 16 2.42857V14.7143C16 15.4232 15.425 16 14.7143 16H1.28571C0.575 16 0 15.425 0 14.7143V2.42857C0 1.71786 0.575 1.14286 1.28571 1.14286H3.42857V0.642857C3.42857 0.2875 3.71607 0 4.07143 0C4.42679 0 4.71429 0.2875 4.71429 0.642857V1.14286H11.2857V0.642857C11.2857 0.2875 11.5732 0 11.9286 0C12.2839 0 12.5714 0.2875 12.5714 0.642857V1.14286ZM3.42857 2.42857H1.28571V4.42857H14.7143V2.42857H12.5714V2.78571C12.5714 3.14107 12.2839 3.42857 11.9286 3.42857C11.5732 3.42857 11.2857 3.14107 11.2857 2.78571V2.42857H4.71429V2.78571C4.71429 3.14107 4.42679 3.42857 4.07143 3.42857C3.71607 3.42857 3.42857 3.14107 3.42857 2.78571V2.42857ZM14.7143 14.7143H1.28571V5.71429H14.7143V14.7143ZM5.14286 8H4C3.68393 8 3.42857 8.25536 3.42857 8.57143C3.42857 8.8875 3.68393 9.14286 4 9.14286H5.14286C5.45893 9.14286 5.71429 8.8875 5.71429 8.57143C5.71429 8.25536 5.45893 8 5.14286 8ZM7.42857 8H8.57143C8.8875 8 9.14286 8.25536 9.14286 8.57143C9.14286 8.8875 8.8875 9.14286 8.57143 9.14286H7.42857C7.1125 9.14286 6.85714 8.8875 6.85714 8.57143C6.85714 8.25536 7.1125 8 7.42857 8ZM12 8H10.8571C10.5411 8 10.2857 8.25536 10.2857 8.57143C10.2857 8.8875 10.5411 9.14286 10.8571 9.14286H12C12.3161 9.14286 12.5714 8.8875 12.5714 8.57143C12.5714 8.25536 12.3161 8 12 8ZM4 11.4643H5.14286C5.45893 11.4643 5.71429 11.7196 5.71429 12.0357C5.71429 12.3518 5.45893 12.6071 5.14286 12.6071H4C3.68393 12.6071 3.42857 12.3518 3.42857 12.0357C3.42857 11.7196 3.68393 11.4643 4 11.4643ZM8.57143 11.4643H7.42857C7.1125 11.4643 6.85714 11.7196 6.85714 12.0357C6.85714 12.3518 7.1125 12.6071 7.42857 12.6071H8.57143C8.8875 12.6071 9.14286 12.3518 9.14286 12.0357C9.14286 11.7196 8.8875 11.4643 8.57143 11.4643Z" fill="#1971C2"/>
</svg>
