<svg width="16" height="16" viewBox="0 0 16 16" fill="none" xmlns="http://www.w3.org/2000/svg">
<path fill-rule="evenodd" clip-rule="evenodd" d="M10.1881 2.28568C10.0297 1.83751 9.69025 1.47487 9.2576 1.28568C9.04748 1.1938 8.81539 1.14282 8.57139 1.14282H7.42854C7.18454 1.14282 6.95245 1.1938 6.74233 1.28568C6.30968 1.47487 5.9702 1.83751 5.8118 2.28568H1.14282V3.42854H2.28568L2.28894 14.8575C2.28894 15.935 2.54872 16 3.59634 16H12.5676C13.6152 16 13.7143 15.935 13.7143 14.8575V3.42854H14.8571V2.28568H10.1881ZM9.00003 2.28568C8.96033 2.25584 8.91741 2.23005 8.87189 2.20892C8.78054 2.1665 8.67873 2.14282 8.57139 2.14282H7.42854C7.3212 2.14282 7.21939 2.1665 7.12805 2.20892C7.08253 2.23005 7.03961 2.25584 6.9999 2.28568H9.00003ZM3.42854 14.8571V3.42854H12.5714V14.8571H3.42854Z" fill="#1971C2"/>
</svg>
