<svg width="16" height="16" viewBox="0 0 16 16" fill="none" xmlns="http://www.w3.org/2000/svg">
<path d="M8.87036 7.99839L12.8516 4.02026C13.0922 3.77964 13.0922 3.39058 12.8516 3.15151C12.611 2.91089 12.2219 2.91089 11.9829 3.15151L8.00005 7.12808L4.01724 3.14995C3.77661 2.90933 3.38755 2.90933 3.14849 3.14995C2.90786 3.39058 2.90786 3.77964 3.14849 4.0187L7.12974 7.99683L3.14849 11.9765C2.90786 12.2171 2.90786 12.6062 3.14849 12.8453C3.2688 12.9656 3.42661 13.025 3.58286 13.025C3.74067 13.025 3.89692 12.9656 4.01724 12.8453L8.00005 8.86714L11.9829 12.8468C12.1032 12.9671 12.2594 13.0265 12.4172 13.0265C12.575 13.0265 12.7313 12.9671 12.8516 12.8468C13.0922 12.6062 13.0922 12.2171 12.8516 11.9781L8.87036 7.99839Z" fill="#8893A7"/>
</svg>
