<svg width="8" height="8" viewBox="0 0 8 8" fill="none" xmlns="http://www.w3.org/2000/svg">
<path d="M4.69182 4.00031L7.85654 0.835858C8.04782 0.64445 8.04782 0.334965 7.85654 0.144799C7.66527 -0.0466092 7.356 -0.0466092 7.16597 0.144799L4 3.30801L0.834032 0.143556C0.642757 -0.0478521 0.333489 -0.0478521 0.143456 0.143556C-0.0478187 0.334965 -0.0478187 0.64445 0.143456 0.834615L3.30818 3.99907L0.143456 7.16476C-0.0478187 7.35617 -0.0478187 7.66566 0.143456 7.85582C0.239093 7.95153 0.36454 7.99876 0.488744 7.99876C0.61419 7.99876 0.738395 7.95153 0.834032 7.85582L4 4.69137L7.16597 7.85707C7.26161 7.95277 7.38581 8 7.51126 8C7.6367 8 7.76091 7.95277 7.85654 7.85707C8.04782 7.66566 8.04782 7.35617 7.85654 7.16601L4.69182 4.00031Z" fill="#1971C2"/>
</svg>
