<svg width="240" height="240" viewBox="0 0 240 240" fill="none" xmlns="http://www.w3.org/2000/svg">
<path fill-rule="evenodd" clip-rule="evenodd" d="M120 220C175.228 220 220 175.228 220 120C220 64.7715 175.228 20 120 20C64.7715 20 20 64.7715 20 120C20 175.228 64.7715 220 120 220Z" fill="#DCE0E8"/>
<mask id="mask0_2863_18914" style="mask-type:alpha" maskUnits="userSpaceOnUse" x="20" y="2" width="217" height="218">
<path fill-rule="evenodd" clip-rule="evenodd" d="M120 220C175.228 220 220 175.228 220 120C220 101.528 246.201 62.5495 233 41C206.734 -1.8791 127.756 2.99996 91 2.99996C62.3567 2.99996 43.7212 15.2993 33 39C23.0492 60.9976 20 93.4148 20 120C20 175.228 64.7715 220 120 220Z" fill="white"/>
</mask>
<g mask="url(#mask0_2863_18914)">
<g style="mix-blend-mode:multiply">
<path d="M230.174 76.5854L218.157 116.754L199.041 180.61C197.677 182.531 196.255 184.396 194.753 186.212C194.325 186.744 193.889 187.269 193.437 187.785C192.985 188.302 192.629 188.778 192.153 189.262C189.781 191.936 187.275 194.487 184.642 196.905L183.027 198.35C180.631 200.465 178.133 202.464 175.533 204.347C175.258 204.557 174.976 204.758 174.725 204.944C174.475 205.13 174.176 205.348 173.918 205.541C172.739 206.364 171.543 207.172 170.332 207.962L89.5742 183.815C89.1493 183.686 88.9077 183.239 89.0332 182.814L89.7519 180.393L89.9861 179.585L90.2203 178.819L129.792 46.5457C129.853 46.3399 129.994 46.1671 130.184 46.0656C130.373 45.9641 130.595 45.9423 130.801 46.005L203.798 67.7963L226.451 74.5596L227.258 74.7937L228.066 75.0277L229.681 75.512C229.894 75.5824 230.067 75.7381 230.161 75.9416C230.254 76.1452 230.259 76.3783 230.174 76.5854Z" fill="#CACFDB"/>
</g>
<path d="M228.723 71.8231L227.91 74.4555L218.063 107.434L193.933 188.096C193.51 188.6 193.08 189.095 192.641 189.583C190.255 192.275 187.733 194.843 185.085 197.277L183.46 198.731C181.05 200.86 178.536 202.872 175.92 204.768C175.644 204.979 175.359 205.182 175.108 205.369L89.8549 179.914L88.0756 179.386L129.154 42.0785L202.179 63.9178L228.723 71.8231Z" fill="white"/>
<path d="M228.958 71.0431L201.48 62.829L129.39 41.266C129.183 41.2028 128.959 41.2248 128.769 41.327C128.578 41.4291 128.436 41.6031 128.374 41.8103L87.2956 179.118C87.2347 179.325 87.258 179.547 87.3606 179.736C87.463 179.928 87.6387 180.072 87.8481 180.134L89.6193 180.662L174.238 205.97C174.523 205.775 174.799 205.58 175.051 205.369C175.303 205.158 175.619 204.979 175.863 204.768L90.123 179.143L89.1237 178.842L129.747 43.0534L202.87 64.9333L227.731 72.3674L227.179 74.2199L217.819 105.5L192.633 189.615C193.071 189.128 193.502 188.632 193.925 188.129C194.379 187.609 194.818 187.08 195.249 186.544L218.291 109.514L228.706 74.6911L229.519 72.0506C229.579 71.8426 229.554 71.6193 229.448 71.4302C229.343 71.241 229.167 71.1017 228.958 71.0431Z" fill="#8893A7"/>
<path d="M142.06 128.608C142.38 127.532 143.511 126.92 144.586 127.24L169.062 134.523C170.137 134.842 170.749 135.973 170.429 137.049C170.109 138.124 168.978 138.736 167.903 138.416L143.428 131.134C142.352 130.814 141.74 129.683 142.06 128.608Z" fill="#CACFDB"/>
<path d="M126.809 133.223C127.05 132.424 127.894 131.972 128.693 132.213L179.134 147.451C179.933 147.692 180.385 148.536 180.143 149.335C179.902 150.134 179.059 150.586 178.26 150.344L127.819 135.107C127.02 134.866 126.568 134.022 126.809 133.223Z" fill="#F0F1F5"/>
<path d="M109.152 138.409C109.389 137.611 110.228 137.157 111.026 137.395L128.571 142.615C129.369 142.852 129.823 143.691 129.586 144.489C129.348 145.287 128.509 145.741 127.711 145.504L110.166 140.284C109.369 140.046 108.914 139.207 109.152 138.409Z" fill="#F0F1F5"/>
<path d="M107.605 143.599C107.842 142.802 108.681 142.347 109.479 142.585L143.112 152.592C143.91 152.829 144.365 153.669 144.127 154.466C143.89 155.264 143.051 155.719 142.253 155.481L108.619 145.474C107.822 145.236 107.367 144.397 107.605 143.599Z" fill="#F0F1F5"/>
<path d="M104.217 153.414C104.458 152.615 105.302 152.163 106.101 152.404L119.673 156.504C120.472 156.745 120.924 157.589 120.682 158.388C120.441 159.187 119.598 159.639 118.798 159.398L105.227 155.298C104.428 155.056 103.976 154.213 104.217 153.414Z" fill="#F0F1F5"/>
<path d="M103.527 157.319C103.764 156.521 104.603 156.067 105.401 156.304L131.247 163.995C132.045 164.232 132.499 165.071 132.262 165.869C132.025 166.667 131.185 167.121 130.388 166.884L104.541 159.193C103.744 158.956 103.289 158.117 103.527 157.319Z" fill="#F0F1F5"/>
<path d="M154.937 152.037C155.175 151.239 156.014 150.785 156.812 151.022L166.608 153.937C167.406 154.174 167.86 155.013 167.623 155.811C167.386 156.609 166.546 157.063 165.749 156.826L155.952 153.911C155.154 153.674 154.7 152.835 154.937 152.037Z" fill="#CACFDB"/>
<path d="M152.584 157.542C152.825 156.743 153.669 156.29 154.468 156.532L180.418 164.371C181.217 164.612 181.669 165.456 181.427 166.255C181.186 167.054 180.343 167.506 179.543 167.264L153.594 159.425C152.795 159.184 152.343 158.341 152.584 157.542Z" fill="#F0F1F5"/>
<path d="M150.853 165.753C151.091 164.955 151.93 164.501 152.728 164.738L170.747 170.1C171.545 170.337 171.999 171.176 171.762 171.974C171.525 172.772 170.686 173.226 169.888 172.989L151.868 167.627C151.07 167.39 150.616 166.551 150.853 165.753Z" fill="#CACFDB"/>
<path d="M149.312 170.934C149.55 170.136 150.389 169.682 151.187 169.919L183.418 179.509C184.216 179.747 184.671 180.586 184.433 181.384C184.196 182.182 183.357 182.636 182.559 182.398L150.327 172.808C149.529 172.571 149.075 171.732 149.312 170.934Z" fill="#F0F1F5"/>
<path d="M99.8763 167.3C100.118 166.501 100.961 166.049 101.76 166.29L115.332 170.39C116.131 170.632 116.583 171.475 116.342 172.274C116.1 173.073 115.257 173.525 114.458 173.284L100.886 169.184C100.087 168.943 99.6349 168.099 99.8763 167.3Z" fill="#CACFDB"/>
<path d="M136.39 59.6153C136.632 58.8162 137.475 58.3641 138.274 58.6055L158.587 64.7417C159.386 64.9831 159.838 65.8266 159.597 66.6257C159.356 67.4247 158.512 67.8768 157.713 67.6354L137.4 61.4992C136.601 61.2578 136.149 60.4144 136.39 59.6153Z" fill="#CACFDB"/>
<path d="M119.27 103.058C119.512 102.259 120.355 101.807 121.154 102.048L134.726 106.148C135.525 106.389 135.977 107.233 135.735 108.032C135.494 108.831 134.651 109.283 133.852 109.041L120.28 104.942C119.481 104.7 119.029 103.857 119.27 103.058Z" fill="#F0F1F5"/>
<path d="M122.907 87.3002C123.148 86.5012 123.991 86.0491 124.79 86.2905L138.362 90.3902C139.161 90.6316 139.613 91.475 139.372 92.2741C139.13 93.0732 138.287 93.5253 137.488 93.2839L123.916 89.1842C123.117 88.9428 122.665 88.0993 122.907 87.3002Z" fill="#F0F1F5"/>
<path d="M98.0344 172.397C98.2718 171.599 99.111 171.145 99.9088 171.382L129.236 180.108C130.034 180.345 130.488 181.185 130.251 181.982C130.013 182.78 129.174 183.235 128.376 182.997L99.0492 174.271C98.2514 174.034 97.797 173.195 98.0344 172.397Z" fill="#F0F1F5"/>
<path d="M137.829 67.3014C138.066 66.5036 138.906 66.0492 139.703 66.2866L215.502 88.84C216.3 89.0773 216.754 89.9165 216.517 90.7143C216.279 91.5121 215.44 91.9664 214.642 91.729L138.844 69.1757C138.046 68.9383 137.592 68.0992 137.829 67.3014Z" fill="#F0F1F5"/>
<path d="M135.405 74.5741C135.642 73.7763 136.481 73.322 137.279 73.5593L213.078 96.1127C213.876 96.35 214.33 97.1892 214.092 97.987C213.855 98.7848 213.016 99.2391 212.218 99.0018L136.42 76.4484C135.622 76.211 135.167 75.3719 135.405 74.5741Z" fill="#F0F1F5"/>
<path d="M132.981 81.8468C133.218 81.049 134.057 80.5947 134.855 80.832L210.654 103.385C211.451 103.623 211.906 104.462 211.668 105.26C211.431 106.058 210.592 106.512 209.794 106.274L133.995 83.7211C133.198 83.4838 132.743 82.6446 132.981 81.8468Z" fill="#F0F1F5"/>
<path d="M117.428 109.366C117.666 108.569 118.505 108.114 119.303 108.352L148.63 117.078C149.428 117.315 149.882 118.154 149.644 118.952C149.407 119.75 148.568 120.204 147.77 119.967L118.443 111.241C117.645 111.003 117.191 110.164 117.428 109.366Z" fill="#F0F1F5"/>
<path d="M121.065 93.6089C121.302 92.8111 122.141 92.3567 122.939 92.5941L152.266 101.32C153.064 101.558 153.518 102.397 153.281 103.195C153.043 103.992 152.204 104.447 151.406 104.209L122.079 95.4832C121.282 95.2458 120.827 94.4067 121.065 93.6089Z" fill="#F0F1F5"/>
<path d="M145.652 181.16C145.894 180.361 146.737 179.909 147.536 180.15L162.496 184.67C163.295 184.911 163.747 185.754 163.506 186.554C163.265 187.353 162.421 187.805 161.622 187.563L146.662 183.044C145.863 182.803 145.411 181.959 145.652 181.16Z" fill="#CACFDB"/>
<path d="M165.046 118.13C165.288 117.331 166.131 116.879 166.93 117.12L181.89 121.639C182.689 121.881 183.141 122.724 182.9 123.523C182.659 124.322 181.815 124.774 181.016 124.533L166.056 120.014C165.257 119.772 164.805 118.929 165.046 118.13Z" fill="#CACFDB"/>
<path d="M168.683 102.372C168.924 101.573 169.768 101.121 170.567 101.363L185.527 105.882C186.326 106.123 186.778 106.967 186.536 107.766C186.295 108.565 185.452 109.017 184.652 108.775L169.693 104.256C168.894 104.015 168.441 103.171 168.683 102.372Z" fill="#CACFDB"/>
<path d="M143.824 186.024C144.062 185.226 144.901 184.772 145.699 185.009L175.205 193.789C176.003 194.026 176.457 194.865 176.22 195.663C175.982 196.461 175.143 196.915 174.345 196.678L144.839 187.898C144.041 187.661 143.587 186.822 143.824 186.024Z" fill="#F0F1F5"/>
<path d="M163.218 122.994C163.456 122.196 164.295 121.742 165.093 121.979L194.599 130.758C195.397 130.996 195.851 131.835 195.614 132.633C195.376 133.431 194.537 133.885 193.739 133.647L164.233 124.868C163.435 124.631 162.981 123.792 163.218 122.994Z" fill="#F0F1F5"/>
<path d="M166.855 107.236C167.092 106.438 167.931 105.984 168.729 106.221L198.235 115.001C199.033 115.238 199.487 116.077 199.25 116.875C199.012 117.673 198.173 118.127 197.376 117.89L167.869 109.111C167.072 108.873 166.617 108.034 166.855 107.236Z" fill="#F0F1F5"/>
<g style="mix-blend-mode:multiply">
<path d="M150.587 148.87L137.482 33.9051C137.458 33.6909 137.35 33.4951 137.181 33.3607C137.017 33.222 136.801 33.1599 136.588 33.1901L33.323 44.9628C33.1118 44.9889 32.9193 45.0968 32.7868 45.2634C32.6468 45.4303 32.5847 45.6491 32.6162 45.8646L45.6157 159.993L35.3461 161.163C35.1315 161.187 34.9355 161.296 34.8014 161.465C34.6672 161.634 34.606 161.85 34.6311 162.064C35.3235 168.1 40.4259 172.661 46.5013 172.675C46.9573 172.675 47.4129 172.651 47.8663 172.602L140.041 162.089C143.201 161.74 146.092 160.147 148.074 157.662C150.056 155.176 150.966 152.004 150.603 148.846L150.587 148.87Z" fill="#CACFDB"/>
</g>
<path d="M46.6314 158.652L33.5181 160.147L37.2148 167.232L41.8947 169.702H48.1344L46.6314 158.652Z" fill="white"/>
<path d="M44.6246 158.88L31.495 43.9391L134.752 32.1664L147.857 147.107C148.543 153.213 144.162 158.723 138.059 159.432L45.8595 169.994" fill="white"/>
<path d="M37.2147 167.232L128.918 156.271L133.907 159.529L131.99 160.147L44.0964 170.165L37.2147 167.232Z" fill="#DCE0E8"/>
<path d="M45.8595 170.807C45.4108 170.831 45.027 170.488 45.0023 170.039C44.9776 169.59 45.3214 169.206 45.7701 169.182L137.945 158.62C143.59 157.973 147.657 152.895 147.053 147.245L134.053 33.1088L32.4374 44.654L45.437 158.79C45.4845 159.234 45.1653 159.633 44.722 159.684C44.2783 159.731 43.8793 159.412 43.8283 158.969L30.6906 44.0609C30.6431 43.6172 30.9623 43.2182 31.4056 43.1672L134.663 31.3945C134.876 31.3633 135.092 31.4255 135.256 31.5651C135.427 31.6981 135.538 31.8941 135.565 32.1095L148.662 147.05C149.022 150.208 148.111 153.379 146.129 155.864C144.148 158.349 141.258 159.942 138.099 160.293L45.957 170.807H45.8595Z" fill="#8893A7"/>
<path d="M147.857 147.107C148.555 153.225 144.161 158.751 138.043 159.448C131.924 160.146 126.399 155.752 125.701 149.634" fill="white"/>
<path d="M136.767 160.342C130.69 160.324 125.589 155.76 124.897 149.723C124.849 149.279 125.168 148.88 125.612 148.829C126.055 148.782 126.454 149.101 126.505 149.544C127.172 155.202 132.284 159.258 137.945 158.62C143.59 157.973 147.657 152.895 147.053 147.245C147.02 146.955 147.144 146.669 147.378 146.495C147.613 146.321 147.923 146.285 148.191 146.401C148.459 146.517 148.644 146.768 148.678 147.058C149.038 150.216 148.127 153.387 146.146 155.872C144.164 158.357 141.275 159.951 138.116 160.301C137.667 160.343 137.217 160.356 136.767 160.342Z" fill="#8893A7"/>
<path d="M51.0709 137.032C50.9767 136.205 51.5707 135.458 52.3977 135.364L70.5851 133.292C71.4121 133.198 72.1589 133.792 72.2531 134.619C72.3473 135.446 71.7533 136.192 70.9263 136.287L52.7389 138.359C51.9119 138.453 51.1651 137.859 51.0709 137.032Z" fill="#CACFDB"/>
<path d="M47.4345 106.729C47.3403 105.902 47.9343 105.155 48.7614 105.061L66.9487 102.989C67.7757 102.894 68.5225 103.488 68.6168 104.315C68.711 105.143 68.1169 105.889 67.2899 105.984L49.1026 108.056C48.2756 108.15 47.5288 107.556 47.4345 106.729Z" fill="#CACFDB"/>
<path d="M40.1969 59.2072C40.1026 58.3801 40.6967 57.6333 41.5237 57.5391L70.5519 54.2318C71.3789 54.1375 72.1258 54.7316 72.22 55.5586C72.3142 56.3856 71.7202 57.1324 70.8931 57.2267L41.8649 60.534C41.0379 60.6282 40.2911 60.0342 40.1969 59.2072Z" fill="#CACFDB"/>
<path d="M51.3956 141.915C51.3014 141.088 51.8954 140.341 52.7224 140.247L87.5875 136.274C88.4146 136.18 89.1614 136.774 89.2556 137.601C89.3498 138.428 88.7558 139.175 87.9288 139.269L53.0636 143.242C52.2366 143.336 51.4898 142.742 51.3956 141.915Z" fill="#F0F1F5"/>
<path d="M48.6467 111.053C48.5525 110.226 49.1465 109.48 49.9735 109.385L84.8386 105.413C85.6657 105.319 86.4125 105.913 86.5067 106.74C86.6009 107.567 86.0069 108.314 85.1799 108.408L50.3147 112.38C49.4877 112.474 48.7409 111.88 48.6467 111.053Z" fill="#F0F1F5"/>
<path d="M52.283 156.605C52.1888 155.778 52.7829 155.032 53.6099 154.937L84.0109 151.474C84.8379 151.379 85.5847 151.973 85.679 152.8C85.7732 153.627 85.1791 154.374 84.3521 154.468L53.9511 157.932C53.1241 158.026 52.3773 157.432 52.283 156.605Z" fill="#F0F1F5"/>
<path d="M43.9462 81.2789C43.852 80.4519 44.4461 79.7051 45.2731 79.6109L125.907 70.4238C126.734 70.3296 127.481 70.9236 127.575 71.7507C127.669 72.5777 127.075 73.3245 126.248 73.4187L45.6143 82.6058C44.7873 82.7 44.0405 82.106 43.9462 81.2789Z" fill="#F0F1F5"/>
<path d="M42.7341 74.0061C42.6399 73.1791 43.2339 72.4323 44.0609 72.3381L124.695 63.151C125.522 63.0568 126.269 63.6508 126.363 64.4778C126.457 65.3049 125.863 66.0517 125.036 66.1459L44.4021 75.333C43.5751 75.4272 42.8283 74.8331 42.7341 74.0061Z" fill="#F0F1F5"/>
<path d="M41.5221 66.7334C41.4278 65.9064 42.0219 65.1596 42.8489 65.0653L123.483 55.8783C124.31 55.7841 125.056 56.3781 125.151 57.2051C125.245 58.0321 124.651 58.779 123.824 58.8732L43.1901 68.0602C42.3631 68.1545 41.6163 67.5604 41.5221 66.7334Z" fill="#F0F1F5"/>
<path d="M52.283 151.106C52.1888 150.279 52.7829 149.532 53.6099 149.438L67.656 147.837C68.483 147.743 69.2299 148.337 69.3241 149.164C69.4183 149.991 68.8243 150.738 67.9972 150.832L53.9511 152.432C53.1241 152.527 52.3773 151.933 52.283 151.106Z" fill="#CACFDB"/>
<path d="M48.6467 120.803C48.5525 119.976 49.1465 119.229 49.9735 119.135L64.0197 117.534C64.8467 117.44 65.5935 118.034 65.6877 118.861C65.782 119.688 65.1879 120.435 64.3609 120.529L50.3147 122.129C49.4877 122.224 48.7409 121.63 48.6467 120.803Z" fill="#CACFDB"/>
<path d="M45.0103 90.845C44.9161 90.018 45.5102 89.2711 46.3372 89.1769L60.3833 87.5766C61.2103 87.4823 61.9572 88.0764 62.0514 88.9034C62.1456 89.7304 61.5516 90.4772 60.7245 90.5715L46.6784 92.1718C45.8514 92.266 45.1046 91.672 45.0103 90.845Z" fill="#CACFDB"/>
<path d="M48.6467 126.302C48.5525 125.475 49.1465 124.729 49.9735 124.634L80.3746 121.171C81.2016 121.076 81.9484 121.67 82.0426 122.497C82.1368 123.324 81.5428 124.071 80.7158 124.165L50.3148 127.629C49.4877 127.723 48.7409 127.129 48.6467 126.302Z" fill="#F0F1F5"/>
<path d="M45.0103 96.3447C44.9161 95.5177 45.5102 94.7709 46.3372 94.6767L76.7382 91.2129C77.5652 91.1187 78.312 91.7127 78.4063 92.5398C78.5005 93.3668 77.9064 94.1136 77.0794 94.2078L46.6784 97.6716C45.8514 97.7658 45.1046 97.1718 45.0103 96.3447Z" fill="#F0F1F5"/>
<path d="M98.3437 131.268C98.2495 130.441 98.8435 129.694 99.6705 129.6L109.826 128.443C110.653 128.349 111.4 128.943 111.494 129.77C111.588 130.597 110.994 131.344 110.167 131.438L100.012 132.595C99.1848 132.689 98.4379 132.095 98.3437 131.268Z" fill="#CACFDB"/>
<path d="M100.768 150.888C100.674 150.061 101.268 149.314 102.095 149.22L135.507 145.413C136.334 145.319 137.081 145.913 137.175 146.74C137.269 147.567 136.675 148.314 135.848 148.408L102.436 152.215C101.609 152.309 100.862 151.715 100.768 150.888Z" fill="#F0F1F5"/>
<path d="M93.4952 100.965C93.401 100.138 93.995 99.3915 94.822 99.2973L104.977 98.1402C105.804 98.046 106.551 98.6401 106.645 99.4671C106.74 100.294 106.145 101.041 105.318 101.135L95.1633 102.292C94.3362 102.386 93.5894 101.792 93.4952 100.965Z" fill="#CACFDB"/>
<path d="M98.3437 136.808C98.2495 135.981 98.8435 135.234 99.6705 135.14L126.528 132.08C127.355 131.985 128.102 132.579 128.196 133.406C128.29 134.233 127.696 134.98 126.869 135.074L100.012 138.134C99.1848 138.229 98.4379 137.635 98.3437 136.808Z" fill="#F0F1F5"/>
<path d="M93.4952 106.505C93.401 105.678 93.995 104.931 94.822 104.837L121.679 101.777C122.506 101.682 123.253 102.276 123.347 103.103C123.442 103.93 122.847 104.677 122.02 104.771L95.1633 107.831C94.3362 107.926 93.5894 107.332 93.4952 106.505Z" fill="#F0F1F5"/>
<path d="M99.5557 145.573C99.4615 144.746 100.056 143.999 100.883 143.905L119.562 141.777C120.389 141.682 121.136 142.276 121.23 143.103C121.325 143.93 120.731 144.677 119.904 144.771L101.224 146.9C100.397 146.994 99.65 146.4 99.5557 145.573Z" fill="#CACFDB"/>
<path d="M94.7072 115.27C94.613 114.443 95.2071 113.696 96.0341 113.602L114.714 111.474C115.541 111.379 116.288 111.973 116.382 112.8C116.476 113.627 115.882 114.374 115.055 114.468L96.3753 116.597C95.5483 116.691 94.8015 116.097 94.7072 115.27Z" fill="#CACFDB"/>
<path d="M91.0709 85.3123C90.9767 84.4852 91.5707 83.7384 92.3977 83.6442L111.077 81.5159C111.904 81.4217 112.651 82.0157 112.746 82.8428C112.84 83.6698 112.246 84.4166 111.419 84.5108L92.7389 86.6391C91.9119 86.7333 91.1651 86.1393 91.0709 85.3123Z" fill="#CACFDB"/>
<path d="M95.9194 120.585C95.8252 119.758 96.4192 119.011 97.2462 118.917L130.658 115.11C131.485 115.016 132.232 115.61 132.326 116.437C132.421 117.264 131.827 118.011 131 118.105L97.5875 121.912C96.7604 122.006 96.0136 121.412 95.9194 120.585Z" fill="#F0F1F5"/>
<path d="M92.283 90.6272C92.1888 89.8002 92.7829 89.0534 93.6099 88.9591L127.022 85.1523C127.849 85.0581 128.596 85.6521 128.69 86.4792C128.784 87.3062 128.19 88.053 127.363 88.1472L93.9511 91.954C93.1241 92.0483 92.3773 91.4542 92.283 90.6272Z" fill="#F0F1F5"/>
<path d="M44.6245 170.847C38.5377 170.851 33.4152 166.291 32.7137 160.245C32.6885 160.03 32.7498 159.814 32.8839 159.645C33.0181 159.476 33.2141 159.367 33.4286 159.343C33.6431 159.318 33.8588 159.379 34.028 159.513C34.1972 159.647 34.306 159.843 34.3305 160.058C34.972 165.735 40.0923 169.819 45.7701 169.182C46.2138 169.134 46.6128 169.453 46.6638 169.897C46.689 170.111 46.6277 170.327 46.4935 170.496C46.3594 170.665 46.1634 170.774 45.9488 170.799C45.5085 170.838 45.0665 170.854 44.6245 170.847Z" fill="#8893A7"/>
<path d="M33.518 160.96C33.0692 160.984 32.6855 160.64 32.6608 160.192C32.6361 159.743 32.9799 159.359 33.4286 159.335L125.612 148.87C126.06 148.821 126.464 149.144 126.514 149.593C126.563 150.042 126.239 150.446 125.79 150.495L33.6155 160.951L33.518 160.96Z" fill="#8893A7"/>
</g>
</svg>
