<svg width="16" height="16" viewBox="0 0 16 16" fill="none" xmlns="http://www.w3.org/2000/svg">
<path fill-rule="evenodd" clip-rule="evenodd" d="M1.68276 12.7812C1.38901 13.0171 1.34214 13.4468 1.57808 13.7406C1.71401 13.9078 1.91089 13.9953 2.11089 13.9953C2.26089 13.9953 2.41245 13.9453 2.53901 13.8453L9.16089 8.5187C9.32183 8.38901 9.41558 8.1937 9.41558 7.98589C9.41558 7.77964 9.32183 7.58276 9.16089 7.45464L2.56714 2.1562C2.27339 1.92026 1.8437 1.96714 1.60776 2.26089C1.37183 2.55464 1.4187 2.98433 1.71245 3.22026L7.6437 7.98589L1.68276 12.7812ZM6.83901 12.7812C6.54526 13.0171 6.49839 13.4468 6.73433 13.7406C6.87026 13.9078 7.06714 13.9953 7.26714 13.9953C7.41714 13.9953 7.5687 13.9453 7.69526 13.8453L14.3171 8.5187C14.4781 8.38901 14.5718 8.1937 14.5718 7.98589C14.5718 7.77964 14.4781 7.58276 14.3171 7.45464L7.72339 2.1562C7.42964 1.92026 6.99995 1.96714 6.76401 2.26089C6.52808 2.55464 6.57495 2.98433 6.8687 3.22026L12.8 7.98589L6.83901 12.7812Z" fill="#8893A7"/>
</svg>
