<svg width="16" height="16" viewBox="0 0 16 16" fill="none" xmlns="http://www.w3.org/2000/svg">
<path fill-rule="evenodd" clip-rule="evenodd" d="M8.01786 13.0438C7.85893 13.0438 7.7 12.9831 7.58036 12.8635L4.79821 10.0795C4.55893 9.83848 4.55893 9.44741 4.8 9.20633C5.03929 8.96526 5.43036 8.96526 5.67143 9.20633L7.40179 10.9367V0.618834C7.40179 0.277762 7.67857 0.000976562 8.01964 0.000976562C8.36071 0.000976562 8.6375 0.277762 8.6375 0.618834V10.9367L10.3679 9.20633C10.4839 9.09026 10.6393 9.02598 10.8036 9.02598C10.9679 9.02598 11.1232 9.09026 11.2393 9.20633C11.4804 9.44741 11.4804 9.83848 11.2393 10.0795L8.45536 12.8635C8.33393 12.9831 8.17679 13.0438 8.01786 13.0438ZM14.7643 10.9117C14.7643 10.5706 15.0411 10.2938 15.3821 10.2938C15.7232 10.2938 16 10.5706 16 10.9099V14.8903C16 15.501 15.5036 15.9992 14.8911 15.9992H1.10893C0.498214 15.9992 0 15.5028 0 14.8903V10.9099C0 10.5706 0.275 10.292 0.616071 10.292C0.957143 10.292 1.23393 10.5688 1.23393 10.9099V14.401C1.23393 14.6045 1.4 14.7688 1.60179 14.7688H14.3964C14.6 14.7688 14.7643 14.6028 14.7643 14.401V10.9117Z" fill="#8893A7"/>
</svg>
