<svg width="16" height="16" viewBox="0 0 16 16" fill="none" xmlns="http://www.w3.org/2000/svg">
<path fill-rule="evenodd" clip-rule="evenodd" d="M8.34751 10.8254L4.14251 12.6056C3.90503 12.7056 3.66576 12.636 3.51399 12.4824C3.36222 12.3289 3.29258 12.0914 3.39257 11.8557L5.17457 7.65249C5.20313 7.58464 5.2442 7.52214 5.29598 7.47036L12.3882 0.378098C12.89 -0.123646 13.7078 -0.127217 14.2095 0.374527L15.6255 1.79048C16.1272 2.29222 16.1236 3.11001 15.6219 3.61175L8.52964 10.704C8.47607 10.7558 8.41536 10.7969 8.34751 10.8254ZM0.642803 14.7126H15.3559C15.7112 14.7126 15.9987 15.0001 15.9987 15.3554C15.9987 15.7107 15.7112 15.9982 15.3559 15.9982H0.642803C0.287476 15.9982 0 15.7107 0 15.3554C0 15.0001 0.287476 14.7126 0.642803 14.7126ZM13.2971 1.28695L13.3007 1.28338L14.7148 2.69755L14.7113 2.70112L13.6042 3.80817L12.19 2.394L13.2971 1.28695ZM11.2812 3.30285L6.30304 8.28101L5.26384 10.7344L7.71721 9.69517L12.6954 4.71702L11.2812 3.30285Z" fill="#8893A7"/>
</svg>
