<svg width="16" height="16" viewBox="0 0 16 16" fill="none" xmlns="http://www.w3.org/2000/svg">
<path fill-rule="evenodd" clip-rule="evenodd" d="M14.7159 0.618164H1.28414C0.574295 0.618164 0 1.23564 0 1.99885V14.0013C0 14.7645 0.574295 15.382 1.28414 15.382H14.7159C15.4257 15.382 16 14.7645 16 14.0013V1.99885C16 1.23756 15.4239 0.618164 14.7159 0.618164ZM13.339 1.99885L8.55735 6.29625L8.52882 6.32118L8.50385 6.34994C8.38257 6.48801 8.21848 6.5628 8.04191 6.56472H8.03835C7.86356 6.56472 7.69948 6.48993 7.5782 6.3557L7.55323 6.32885L2.66994 1.99885H13.339ZM1.28414 14.0013H14.7159H14.7176V2.56264L9.40809 7.33368C9.04604 7.7268 8.56449 7.94349 8.04905 7.94541H8.04013C7.52647 7.94541 7.04849 7.73255 6.68465 7.34519L1.28414 2.56072V14.0013Z"/>
</svg>
