<svg width="240" height="240" viewBox="0 0 240 240" fill="none" xmlns="http://www.w3.org/2000/svg">
<path fill-rule="evenodd" clip-rule="evenodd" d="M120 220C175.228 220 220 175.228 220 120C220 64.7715 175.228 20 120 20C64.7715 20 20 64.7715 20 120C20 175.228 64.7715 220 120 220Z" fill="#DCE0E8"/>
<path d="M193.5 99.7244V169.435C193.5 169.722 193.5 169.866 193.5 170.153C193.356 174.178 191.488 177.627 188.613 180.071C186.17 182.227 182.864 183.664 179.271 183.664H66.7282C64.2847 183.664 61.985 183.089 59.9728 181.939C59.1104 181.508 58.248 180.933 57.5293 180.215C55.9482 178.921 54.5109 177.052 53.7923 175.04C53.2173 173.603 52.7861 172.022 52.7861 170.441V99.7244C52.7861 99.7244 58.6792 94.6938 67.1594 87.7946C75.927 80.4643 87.4256 70.978 97.4869 62.6415C103.236 57.7546 102.661 58.3295 111.573 50.8554C118.328 45.1061 128.246 45.1061 135.001 50.8554C136.726 52.2928 138.594 54.0175 140.319 55.4549C144.056 58.4732 148.081 61.9228 152.393 65.5161C161.448 72.9902 171.365 81.3267 179.127 87.7946C187.032 94.2626 192.781 99.1495 193.5 99.7244Z" fill="#CACFDB"/>
<path d="M179.127 88.9384V113.948L154.549 128.752L147.218 133.208L131.695 142.551L124.365 147.006L121.203 148.875L118.184 147.006L111.285 142.551L96.4807 133.208L89.5815 128.752L66.8718 114.523V89.0821C75.6395 81.7518 87.1381 72.2654 97.1994 63.929L152.249 66.6599C161.448 74.2777 171.365 82.4704 179.127 88.9384Z" fill="#CACFDB"/>
<path d="M174.24 69.1034V113.086L151.818 126.453L145.206 130.477L130.977 138.814L124.365 142.838L121.49 144.419L118.759 142.838L112.435 138.814L98.9243 130.477L92.6 126.453L71.9026 113.517V69.1034C71.9026 64.504 75.6396 60.7669 80.3828 60.7669H165.76C170.359 60.6232 174.24 64.504 174.24 69.1034Z" fill="#CACFDB"/>
<path d="M193.5 101.012V171.441C193.356 175.465 191.488 178.915 188.613 181.358C186.17 183.514 182.864 184.952 179.271 184.952H66.7282C64.2847 184.952 61.985 184.377 59.9728 183.227C59.1104 182.796 58.248 182.221 57.5293 181.502C55.9482 180.208 54.5109 178.34 53.7923 176.328C53.2173 174.89 52.7861 173.309 52.7861 171.728V171.585V101.012L115.741 140.395L121.203 143.844L123.071 142.694L124.796 141.688L193.5 101.012Z" fill="#CACFDB"/>
<path d="M188.757 181.358C186.314 183.514 183.008 184.952 179.414 184.952H66.7282C64.2847 184.952 61.985 184.377 59.9728 183.227C59.1104 182.796 58.248 182.221 57.5293 181.502C55.9482 180.208 54.5109 178.34 53.7923 176.328C53.2173 174.89 52.7861 173.309 52.7861 171.728V171.585V101.012L60.1165 105.468L123.071 142.694L124.796 143.7L124.94 143.844L181.427 177.19L188.757 181.358Z" fill="#CACFDB"/>
<path d="M193.5 101.012V171.441C193.356 175.465 191.488 178.915 188.613 181.358C186.17 183.514 182.864 184.952 179.271 184.952H66.7282C64.2847 184.952 61.985 184.377 59.9727 183.227C59.1104 182.796 58.248 182.221 57.5293 181.502L64.7159 177.19L121.203 143.844L123.071 142.694L124.796 141.688L186.026 105.324L193.5 101.012Z" fill="#CACFDB"/>
<path d="M176.54 150.312H139.169C138.307 150.312 137.588 149.594 137.588 148.731C137.588 147.869 138.307 147.15 139.169 147.15H176.54C177.402 147.15 178.121 147.869 178.121 148.731C178.264 149.594 177.546 150.312 176.54 150.312Z" fill="#CACFDB"/>
<path d="M176.54 161.092H139.169C138.307 161.092 137.588 160.374 137.588 159.511C137.588 158.649 138.307 157.93 139.169 157.93H176.54C177.402 157.93 178.121 158.649 178.121 159.511C178.264 160.374 177.546 161.092 176.54 161.092Z" fill="#CACFDB"/>
<path d="M184.301 183.514L188.901 181.215C188.757 181.358 188.757 181.358 188.613 181.502C188.613 181.502 188.613 181.502 188.47 181.502L184.301 183.514Z" fill="#CACFDB"/>
<path d="M120.02 117.181C118.934 117.181 117.911 116.782 117.081 115.917L102.959 101.212C101.361 99.5483 101.361 96.7537 102.959 95.0903C104.556 93.4268 107.24 93.4268 108.838 95.0903L120.02 106.735L146.347 79.3871C147.944 77.7237 150.628 77.7237 152.225 79.3871C153.823 81.0506 153.823 83.8452 152.225 85.5087L122.959 115.917C122.193 116.782 121.106 117.181 120.02 117.181Z" fill="#CACFDB"/>
<path d="M190.5 94.7244V164.435C190.5 164.722 190.5 164.866 190.5 165.153C190.356 169.178 188.488 172.627 185.613 175.071C183.17 177.227 179.864 178.664 176.271 178.664H63.7282C61.2847 178.664 58.985 178.089 56.9728 176.939C56.1104 176.508 55.248 175.933 54.5293 175.215C52.9482 173.921 51.5109 172.052 50.7923 170.04C50.2173 168.603 49.7861 167.022 49.7861 165.441V94.7244C49.7861 94.7244 55.6792 89.6938 64.1594 82.7946C72.927 75.4643 84.4256 65.978 94.4869 57.6415C100.236 52.7546 99.6613 53.3295 108.573 45.8554C115.328 40.1061 125.246 40.1061 132.001 45.8554C133.726 47.2928 135.594 49.0175 137.319 50.4549C141.056 53.4732 145.081 56.9228 149.393 60.5161C158.448 67.9902 168.365 76.3267 176.127 82.7946C184.032 89.2626 189.781 94.1495 190.5 94.7244Z" fill="#F0F1F5" stroke="#8893A7" stroke-width="2" stroke-miterlimit="10"/>
<path d="M176.127 83.9384V108.948L151.549 123.752L144.218 128.208L128.695 137.551L121.365 142.006L118.203 143.875L115.184 142.006L108.285 137.551L93.4807 128.208L86.5815 123.752L63.8718 109.523V84.0821C72.6395 76.7518 84.1381 67.2654 94.1994 58.929L149.249 61.6599C158.448 69.2777 168.365 77.4704 176.127 83.9384Z" fill="#DCE0E8"/>
<path d="M171.24 64.1034V108.086L148.818 121.453L142.206 125.477L127.977 133.814L121.365 137.838L118.49 139.419L115.759 137.838L109.435 133.814L95.9243 125.477L89.6 121.453L68.9026 108.517V64.1034C68.9026 59.504 72.6396 55.7669 77.3828 55.7669H162.76C167.359 55.6232 171.24 59.504 171.24 64.1034Z" fill="white" stroke="#8893A7" stroke-width="2" stroke-miterlimit="10"/>
<path d="M190.5 96.012V166.441C190.356 170.465 188.488 173.915 185.613 176.358C183.17 178.514 179.864 179.952 176.271 179.952H63.7282C61.2847 179.952 58.985 179.377 56.9728 178.227C56.1104 177.796 55.248 177.221 54.5293 176.502C52.9482 175.208 51.5109 173.34 50.7923 171.328C50.2173 169.89 49.7861 168.309 49.7861 166.728V166.585V96.012L112.741 135.395L118.203 138.844L120.071 137.694L121.796 136.688L190.5 96.012Z" fill="#738DFF"/>
<path d="M185.757 176.358C183.314 178.514 180.008 179.952 176.414 179.952H63.7282C61.2847 179.952 58.985 179.377 56.9728 178.227C56.1104 177.796 55.248 177.221 54.5293 176.502C52.9482 175.208 51.5109 173.34 50.7923 171.328C50.2173 169.89 49.7861 168.309 49.7861 166.728V166.585V96.012L57.1165 100.468L120.071 137.694L121.796 138.7L121.94 138.844L178.427 172.19L185.757 176.358Z" fill="white" stroke="#8893A7" stroke-width="2" stroke-miterlimit="10"/>
<path d="M190.5 96.012V166.441C190.356 170.465 188.488 173.915 185.613 176.358C183.17 178.514 179.864 179.952 176.271 179.952H63.7282C61.2847 179.952 58.985 179.377 56.9727 178.227C56.1104 177.796 55.248 177.221 54.5293 176.502L61.7159 172.19L118.203 138.844L120.071 137.694L121.796 136.688L183.026 100.324L190.5 96.012Z" fill="white" stroke="#8893A7" stroke-width="2" stroke-miterlimit="10"/>
<path d="M173.54 145.312H136.169C135.307 145.312 134.588 144.594 134.588 143.731C134.588 142.869 135.307 142.15 136.169 142.15H173.54C174.402 142.15 175.121 142.869 175.121 143.731C175.264 144.594 174.546 145.312 173.54 145.312Z" fill="#CACFDB"/>
<path d="M173.54 156.092H136.169C135.307 156.092 134.588 155.374 134.588 154.511C134.588 153.649 135.307 152.93 136.169 152.93H173.54C174.402 152.93 175.121 153.649 175.121 154.511C175.264 155.374 174.546 156.092 173.54 156.092Z" fill="#CACFDB"/>
<path d="M181.301 178.514L185.901 176.215C185.757 176.358 185.757 176.358 185.613 176.502C185.613 176.502 185.613 176.502 185.47 176.502L181.301 178.514Z" fill="#526DFF"/>
<path d="M117.02 112.181C115.934 112.181 114.911 111.782 114.081 110.917L99.9589 96.2118C98.3614 94.5483 98.3614 91.7537 99.9589 90.0903C101.556 88.4268 104.24 88.4268 105.838 90.0903L117.02 101.735L143.347 74.3871C144.944 72.7237 147.628 72.7237 149.225 74.3871C150.823 76.0506 150.823 78.8452 149.225 80.5087L119.959 110.917C119.193 111.782 118.106 112.181 117.02 112.181Z" fill="#CACFDB" stroke="#8893A7" stroke-width="2" stroke-miterlimit="10"/>
</svg>
