<svg width="24" height="24" viewBox="0 0 24 24" fill="none" xmlns="http://www.w3.org/2000/svg">
<path fill-rule="evenodd" clip-rule="evenodd" d="M12 0C5.37187 0 0 5.37188 0 12C0 18.6281 5.37187 24 12 24C18.6281 24 24 18.6281 24 12C24 5.37188 18.6281 0 12 0ZM16.8094 7.17656C16.4789 6.84844 15.9445 6.84844 15.6164 7.17891L12 10.8047L8.38359 7.17891C8.05547 6.84844 7.52109 6.84844 7.19062 7.17656C6.86016 7.50469 6.86016 8.03906 7.18828 8.36953L10.8094 12L7.18828 15.6305C6.86016 15.9609 6.86016 16.4953 7.19062 16.8234C7.35469 16.9875 7.57031 17.0695 7.78594 17.0695C8.00156 17.0695 8.21953 16.9875 8.38359 16.8211L12 13.1953L15.6164 16.8234C15.7805 16.9898 15.9984 17.0719 16.2141 17.0719C16.4297 17.0719 16.6453 16.9898 16.8094 16.8258C17.1398 16.4977 17.1398 15.9633 16.8117 15.6328L13.1906 12L16.8094 8.36953C17.1398 8.03906 17.1398 7.50469 16.8094 7.17656ZM16.0125 21.5016C17.2406 20.9836 18.3445 20.2383 19.2914 19.2914C20.2406 18.3445 20.9836 17.2406 21.5039 16.0125C22.0406 14.7422 22.3125 13.3922 22.3125 12C22.3125 10.6078 22.0406 9.25781 21.5016 7.98516C20.9836 6.75703 20.2383 5.65312 19.2914 4.70625C18.3422 3.75937 17.2406 3.01641 16.0125 2.49609C14.7422 1.95938 13.3922 1.6875 12 1.6875C10.6078 1.6875 9.25781 1.95938 7.98516 2.49844C6.75703 3.01641 5.65312 3.76172 4.70625 4.70859C3.75938 5.65781 3.01641 6.75937 2.49609 7.9875C1.95938 9.25781 1.6875 10.6078 1.6875 12C1.6875 13.3922 1.95938 14.7422 2.49844 16.0148C3.01641 17.243 3.76172 18.3469 4.70859 19.2937C5.65781 20.2406 6.75938 20.9836 7.9875 21.5039C9.25781 22.0406 10.6078 22.3125 12 22.3125C13.3922 22.3125 14.7422 22.0406 16.0125 21.5016Z" fill="#E03131"/>
</svg>
