<svg width="17" height="16" viewBox="0 0 17 16" fill="none" xmlns="http://www.w3.org/2000/svg">
<path fill-rule="evenodd" clip-rule="evenodd" d="M9.97664 0H15.7152C16.1496 0 16.5018 0.351786 16.5 0.783929V6.35536C16.5 6.78929 16.1478 7.14107 15.7134 7.14107C15.279 7.14107 14.9268 6.78929 14.9268 6.35536V2.61607L10.7132 6.825C10.5594 6.97857 10.3592 7.05536 10.1572 7.05536C9.95697 7.05536 9.75496 6.97857 9.60122 6.825C9.29374 6.51786 9.29374 6.02143 9.60122 5.71429L13.7505 1.57143H9.97664C9.54223 1.57143 9.19005 1.21964 9.19005 0.785714C9.19005 0.351786 9.54223 0 9.97664 0ZM3.25128 14.4286H7.02692C7.46133 14.4286 7.81173 14.7804 7.81173 15.2143C7.81173 15.6482 7.45955 16 7.02513 16H1.28659C0.852178 16 0.5 15.6482 0.5 15.2143V9.64286C0.5 9.20893 0.852178 8.85714 1.28659 8.85714C1.721 8.85714 2.07318 9.20893 2.07318 9.64286V13.3821L6.2886 9.17321C6.59608 8.86607 7.09307 8.86607 7.40055 9.17321C7.70804 9.48036 7.70804 9.97679 7.40055 10.2839L3.25128 14.4286Z" fill="#8893A7"/>
</svg>
