<svg width="16" height="16" viewBox="0 0 16 16" fill="none" xmlns="http://www.w3.org/2000/svg">
<path fill-rule="evenodd" clip-rule="evenodd" d="M9.40938 1.29121L13.2074 5.12617C13.3906 5.31074 13.4863 5.55957 13.4863 5.81934V14.0156C13.4863 14.5598 13.0598 15 12.5156 15H3.99805C3.45391 15 3 14.5598 3 14.0156V1.98438C3 1.44023 3.45391 1 3.99805 1H8.71484C8.85293 1 8.98828 1.03008 9.11133 1.08477L9.12008 1.08859C9.12991 1.09285 9.14016 1.09729 9.14961 1.10254C9.17011 1.11211 9.18925 1.12304 9.20839 1.13398L9.2084 1.13398C9.28086 1.17773 9.34785 1.22969 9.40938 1.29121ZM11.966 5.26562L9.2207 2.50937V5.26562H11.966ZM12.502 14.0156H3.98438V1.98438H8.23633V5.26562C8.23633 5.80977 8.69023 6.25 9.23438 6.25H12.502V14.0156ZM4.88672 8.875H5.79863C6.37695 8.875 6.85 9.08008 6.85137 9.72676C6.85137 10.3488 6.37012 10.625 5.81777 10.625H5.51562V11.5H4.88672V8.875ZM5.78633 10.1328H5.51562V9.36719H5.76855C6.07207 9.36719 6.24023 9.46289 6.24023 9.72812C6.24023 9.98379 6.09258 10.1328 5.78633 10.1328ZM7.29297 8.875H8.05176C8.8502 8.875 9.37793 9.26328 9.37793 10.1738C9.37793 11.0844 8.8502 11.5 8.0873 11.5H7.29297V8.875ZM8.01211 10.9941H7.93555V9.38086H8.01211C8.43457 9.38086 8.73262 9.55586 8.73262 10.1779C8.73262 10.8 8.43457 10.9941 8.01211 10.9941ZM11.5312 8.875V9.39453H10.4922V9.98242H11.3809V10.502H10.4922V11.5H9.86328V8.875H11.5312Z" fill="#8893A7"/>
</svg>
