<svg width="16" height="16" viewBox="0 0 16 16" fill="none" xmlns="http://www.w3.org/2000/svg">
<path fill-rule="evenodd" clip-rule="evenodd" d="M9.33281 0.332812L13.6734 4.71562C13.8828 4.92656 13.9922 5.21094 13.9922 5.50781V14.875C13.9922 15.4969 13.5047 16 12.8828 16H3.14844C2.52656 16 2.00781 15.4969 2.00781 14.875V1.125C2.00781 0.503125 2.52656 0 3.14844 0H8.53906C8.69688 0 8.85156 0.034375 8.99219 0.096875L9.00219 0.101247C9.01342 0.106111 9.02514 0.111189 9.03594 0.117188C9.05937 0.128125 9.08125 0.140625 9.10313 0.153125C9.18594 0.203125 9.2625 0.2625 9.33281 0.332812ZM12.2547 4.875L9.11719 1.725V4.875H12.2547ZM12.8672 14.875H3.13281V1.125H7.99219V4.875C7.99219 5.49687 8.51094 6 9.13281 6H12.8672V14.875ZM8.57031 7C8.88125 7 9.13281 7.25156 9.13281 7.5625C9.13281 7.87344 8.88125 8.125 8.57031 8.125H4.57031C4.25938 8.125 4.00781 7.87344 4.00781 7.5625C4.00781 7.25156 4.25938 7 4.57031 7H8.57031ZM12.1328 10.0625C12.1328 9.75156 11.8813 9.5 11.5703 9.5H4.57031C4.25938 9.5 4.00781 9.75156 4.00781 10.0625C4.00781 10.3734 4.25938 10.625 4.57031 10.625H11.5703C11.8813 10.625 12.1328 10.3734 12.1328 10.0625ZM9.57031 12C9.88125 12 10.1328 12.2516 10.1328 12.5625C10.1328 12.8734 9.88125 13.125 9.57031 13.125H4.57031C4.25938 13.125 4.00781 12.8734 4.00781 12.5625C4.00781 12.2516 4.25938 12 4.57031 12H9.57031Z" fill="#8893A7"/>
</svg>
