<svg width="16" height="16" viewBox="0 0 16 16" fill="none" xmlns="http://www.w3.org/2000/svg">
<path fill-rule="evenodd" clip-rule="evenodd" d="M14.7143 1.12939H1.28571C0.578571 1.12939 0 1.70797 0 2.41511V13.5848C0 14.2919 0.578571 14.8705 1.28571 14.8705H14.7143C15.4214 14.8705 16 14.2919 16 13.5848V2.41511C16 1.70797 15.4214 1.12939 14.7143 1.12939ZM14.7143 13.5812L14.7125 13.583H1.28929L1.2875 13.5812V9.78118L4.60179 6.39189L8.48214 11.2115C8.69643 11.4544 9.05714 11.5008 9.325 11.3187L12.1911 9.38118L14.7143 10.5687V13.5812ZM12.6054 8.08118L14.7143 8.95082L14.7125 2.41689L14.7107 2.41511H1.2875L1.28571 2.41689V7.94189L4.16429 4.99725C4.28929 4.87047 4.4625 4.79904 4.64107 4.80439C4.81964 4.80975 4.98929 4.88832 5.10714 5.02225L9.07321 9.93654L11.8554 8.05975C12.0839 7.90439 12.3857 7.91332 12.6054 8.08118ZM11.3214 3.73297C10.3268 3.73297 9.51786 4.54189 9.51786 5.53654C9.51786 6.53118 10.3268 7.34011 11.3214 7.34011C12.3161 7.34011 13.125 6.53118 13.125 5.53654C13.125 4.54189 12.3161 3.73297 11.3214 3.73297ZM10.8036 5.53654C10.8036 5.82225 11.0357 6.05439 11.3214 6.05439C11.6071 6.05439 11.8393 5.82225 11.8393 5.53654C11.8393 5.25082 11.6071 5.01868 11.3214 5.01868C11.0357 5.01868 10.8036 5.25082 10.8036 5.53654Z" fill="#8893A7"/>
</svg>
