<svg width="16" height="16" viewBox="0 0 16 16" fill="none" xmlns="http://www.w3.org/2000/svg">
<path fill-rule="evenodd" clip-rule="evenodd" d="M13.6734 4.71562L9.33281 0.332812C9.2625 0.2625 9.18594 0.203125 9.10313 0.153125C9.08125 0.140625 9.05937 0.128125 9.03594 0.117188C9.02514 0.111189 9.01342 0.106111 9.00219 0.101247L8.99219 0.096875C8.85156 0.034375 8.69688 0 8.53906 0H3.14844C2.52656 0 2.00781 0.503125 2.00781 1.125V14.875C2.00781 15.4969 2.52656 16 3.14844 16H12.8828C13.5047 16 13.9922 15.4969 13.9922 14.875V5.50781C13.9922 5.21094 13.8828 4.92656 13.6734 4.71562ZM9.11719 1.725L12.2547 4.875H9.11719V1.725ZM3.13281 14.875H12.8672V6H9.13281C8.51094 6 7.99219 5.49687 7.99219 4.875V1.125H3.13281V14.875ZM12.1328 7.5625C12.1328 7.53044 12.1301 7.49901 12.125 7.46842V7.41538C12.125 7.19968 11.903 7.02266 11.6183 7.00201C11.6025 7.00068 11.5865 7 11.5703 7H11.5625H8.0675H4.5725H4.57031L4.55687 7.00016C4.25318 7.00626 4.01 7.18963 4.01 7.41538V7.51248C4.00855 7.52896 4.00781 7.54564 4.00781 7.5625C4.00781 7.57936 4.00855 7.59604 4.01 7.61252V10.0125C4.00855 10.029 4.00781 10.0456 4.00781 10.0625C4.00781 10.0794 4.00855 10.096 4.01 10.1125V12.5125C4.00855 12.529 4.00781 12.5456 4.00781 12.5625C4.00781 12.8734 4.25938 13.125 4.57031 13.125H11.5703C11.8813 13.125 12.1328 12.8734 12.1328 12.5625C12.1328 12.5304 12.1301 12.499 12.125 12.4684V10.1566C12.1301 10.126 12.1328 10.0946 12.1328 10.0625C12.1328 10.0304 12.1301 9.99901 12.125 9.96842V7.65658C12.1301 7.62599 12.1328 7.59456 12.1328 7.5625ZM11 8.125H11.5703C11.8492 8.125 12.0803 7.92264 12.125 7.65658V7.46842C12.0829 7.21778 11.8754 7.02367 11.6183 7.00201C11.5999 7.00068 11.5813 7 11.5625 7C11.2516 7 11 7.18577 11 7.41538V8.125ZM11 9.5V8.125H8.63V7.41538C8.63 7.18577 8.37844 7 8.0675 7C7.75656 7 7.505 7.18577 7.505 7.41538V8.125H5.135V7.41538C5.135 7.18577 4.88344 7 4.5725 7L4.55687 7.00016C4.26892 7.00689 4.03488 7.22942 4.01 7.51248V7.61252C4.03526 7.89997 4.27623 8.125 4.57031 8.125H5.135V9.5H4.57031C4.27623 9.5 4.03526 9.72503 4.01 10.0125V10.1125C4.03526 10.4 4.27623 10.625 4.57031 10.625H5.135V12H4.57031C4.27623 12 4.03526 12.225 4.01 12.5125V12.5846C4.01 12.8142 4.26156 13 4.5725 13C4.88344 13 5.135 12.8142 5.135 12.5846V12H7.505V12.5846C7.505 12.8142 7.75656 13 8.0675 13C8.37844 13 8.63 12.8142 8.63 12.5846V12H11V12.5846C11 12.8142 11.2516 13 11.5625 13C11.8734 13 12.125 12.8142 12.125 12.5846V12.4684C12.0803 12.2024 11.8492 12 11.5703 12H11V10.625H11.5703C11.8492 10.625 12.0803 10.4226 12.125 10.1566V9.96842C12.0803 9.70236 11.8492 9.5 11.5703 9.5H11ZM8.63 9.5V8.125H7.505V9.5H5.135V10.625H7.505V12H8.63V10.625H11V9.5H8.63ZM8.63 9.5V10.625H7.505V9.5H8.63Z" fill="#8893A7"/>
</svg>
