<svg width="16" height="16" viewBox="0 0 16 16" fill="none" xmlns="http://www.w3.org/2000/svg">
<path fill-rule="evenodd" clip-rule="evenodd" d="M12.6985 1.00977C13.2235 1.00977 13.6922 1.33789 13.8922 1.84648C14.0922 2.35672 13.9829 2.93586 13.611 3.32633L9.72819 7.61656V14.0675C9.72819 14.3087 9.58912 14.5252 9.37662 14.6155C9.30787 14.6434 9.236 14.6581 9.16569 14.6581C9.01569 14.6581 8.86881 14.5958 8.761 14.4777L6.80475 12.353C6.70319 12.2431 6.64694 12.0955 6.64694 11.9429V7.64445L2.38131 3.32469C2.011 2.93422 1.90162 2.35508 2.10319 1.84648C2.30475 1.33789 2.7735 1.00977 3.29694 1.00977H12.6985ZM8.76881 6.95375L12.8157 2.48961C12.8813 2.42234 12.8719 2.34852 12.8532 2.2993C12.8329 2.25008 12.7907 2.19102 12.6985 2.19102H3.29694C3.20475 2.19102 3.161 2.25008 3.14225 2.2993C3.1235 2.34852 3.11256 2.4207 3.17819 2.48961L7.60944 6.98164C7.71412 7.09156 7.7735 7.2425 7.7735 7.39836V11.7034L8.60475 12.6549V7.37211C8.60475 7.21461 8.66256 7.06531 8.76881 6.95375Z" fill="#8893A7"/>
</svg>
