<svg width="17" height="16" viewBox="0 0 17 16" fill="none" xmlns="http://www.w3.org/2000/svg">
<path fill-rule="evenodd" clip-rule="evenodd" d="M8.51023 8.23853C10.78 8.23853 12.6203 6.3945 12.6203 4.11927C12.6203 1.84404 10.78 0 8.51023 0C6.2405 0 4.40014 1.84404 4.40014 4.11927C4.40014 6.3945 6.2405 8.23853 8.51023 8.23853ZM8.51023 8.23853C4.61848 8.23853 1.46436 11.4 1.46436 15.3009H1.46619C1.46619 15.3073 1.46573 15.3133 1.46527 15.3193C1.46481 15.3252 1.46436 15.3312 1.46436 15.3376C1.46436 15.7028 1.75977 16 2.12491 16C2.49004 16 2.78546 15.7028 2.78546 15.3376C2.78546 15.3248 2.78546 15.3138 2.78362 15.3009H2.78546C2.78546 12.1321 5.34876 9.5633 8.51023 9.5633C9.22949 9.5633 9.91757 9.69541 10.5506 9.93945C11.09 9.62385 11.7047 9.42752 12.3634 9.38716C11.2552 8.66055 9.93225 8.23853 8.51023 8.23853ZM11.2992 4.11927C11.2992 5.66239 10.0497 6.91376 8.51023 6.91376C6.97078 6.91376 5.72124 5.66239 5.72124 4.11927C5.72124 2.57615 6.97078 1.32477 8.51023 1.32477C10.0497 1.32477 11.2992 2.57615 11.2992 4.11927ZM14.1274 11.8603V16H15.5356V10.628H14.1274L12.7192 11.5587V12.7351L14.0544 11.8603H14.1274Z" fill="#8893A7"/>
</svg>
