<svg width="240" height="240" viewBox="0 0 240 240" fill="none" xmlns="http://www.w3.org/2000/svg">
<path fill-rule="evenodd" clip-rule="evenodd" d="M120 220C175.228 220 220 175.228 220 120C220 64.7715 175.228 20 120 20C64.7715 20 20 64.7715 20 120C20 175.228 64.7715 220 120 220Z" fill="#DCE0E8"/>
<mask id="mask0_2863_18753" style="mask-type:alpha" maskUnits="userSpaceOnUse" x="3" y="5" width="217" height="215">
<path fill-rule="evenodd" clip-rule="evenodd" d="M120 220C175.228 220 220 175.228 220 120C220 64.7715 207.228 5 152 5C96.7715 5 3 74.7715 3 130C3 185.228 64.7715 220 120 220Z" fill="white"/>
</mask>
<g mask="url(#mask0_2863_18753)">
<g opacity="0.3">
<path d="M214.863 152.446C213.229 157.549 211.162 162.503 208.686 167.256L208.24 168.112L207.778 168.96C207.223 169.952 206.65 170.945 206.059 171.937L204.147 172.264C174.288 180.838 118.783 197.308 106.995 198.61L106.772 198.372C103.056 199.115 99.2463 199.273 95.4815 198.841C89.6914 198.29 84.013 195.641 78.8257 193.185C74.3156 191.064 69.9693 188.608 65.6007 186.226C57.9575 182.081 50.21 178.196 42.7231 173.731L41.5174 172.986C33.579 168.164 25.8886 162.974 18.4463 157.417C14.5837 154.544 11.004 151.374 7.28284 148.367L18.4463 144.773L19.1384 144.542L19.8827 144.304L29.9223 141.074L32.7727 140.151L45.5139 136.035C49.0565 134.889 52.6809 133.631 56.2978 132.649C60.1827 131.592 64.2164 131.198 68.2055 130.535C84.9656 127.745 101.205 119.64 114.437 109.072C119.057 105.36 123.393 101.307 127.409 96.9484L214.863 152.446Z" fill="#8893A7"/>
</g>
<path d="M203.477 168.975C173.581 177.548 118.069 194.011 106.28 195.313L90.1901 178.255L113.365 154.537L173.209 155.192L196.384 160.52L203.477 168.975Z" fill="#F0F1F5"/>
<path fill-rule="evenodd" clip-rule="evenodd" d="M203.73 168.186L204.013 168.521C204.065 168.623 204.095 168.734 204.102 168.848C204.124 168.959 204.124 169.073 204.102 169.183C204.028 169.424 203.838 169.612 203.596 169.682C198.937 171.022 193.631 172.555 187.967 174.199C157.751 182.952 116.365 194.934 106.362 196.035H106.28C106.118 196.033 105.962 195.978 105.834 195.879C105.798 195.856 105.766 195.828 105.737 195.797L105.194 195.224L104.576 194.569L89.6542 178.806C89.3801 178.519 89.3801 178.067 89.6542 177.779L112.829 154.061C112.972 153.915 113.169 153.834 113.373 153.837L173.216 154.485C173.268 154.477 173.321 154.477 173.373 154.485L196.548 159.813C196.709 159.85 196.853 159.939 196.957 160.066L203.73 168.186ZM187.55 172.808L193.325 171.133L197.821 169.838L202.152 168.595L202.048 168.469L195.99 161.213L173.134 155.951L113.685 155.303L91.2319 178.285L106.31 194.264L106.578 194.547C107.397 194.442 108.394 194.279 109.555 194.048C110.522 193.869 111.587 193.646 112.755 193.386C128.414 189.925 161.986 180.213 187.55 172.808Z" fill="#8893A7"/>
<path d="M215.6 150.034C215.533 150.28 215.459 150.525 215.384 150.778C215.221 151.337 215.042 151.895 214.863 152.453C213.228 157.554 211.162 162.506 208.686 167.256L208.24 168.112C206.96 168.365 205.61 168.613 204.191 168.856L203.447 168.975C201.681 169.263 199.805 169.543 197.821 169.816L197.002 169.928C180.711 172.086 145.65 173.217 128.458 169.295C123.36 179.178 120.168 189.91 109.57 194.026C108.437 194.468 107.269 194.816 106.079 195.068C105.804 195.135 105.514 195.194 105.223 195.246C101.781 195.828 98.2743 195.928 94.8042 195.544C81.8546 194.316 53.5813 176.67 38.6446 166.467C34.023 163.319 30.6814 160.87 29.4608 159.851C24.6524 155.849 21.0888 150.555 19.1905 144.594C17.3373 138.915 16.9578 133.163 16.7271 128.117C20.7608 128.573 24.6705 128.908 28.4561 129.121C78.0963 132.054 106.727 115.234 126.709 93.6737L215.6 150.034Z" fill="white"/>
<path d="M127.111 93.0486C126.809 92.8551 126.411 92.9052 126.166 93.1677C111.52 108.983 87.1015 128.697 39.1508 128.697C35.6777 128.697 32.088 128.591 28.3817 128.377C24.6755 128.164 20.8104 127.831 16.7866 127.38C16.5694 127.354 16.3516 127.425 16.1913 127.573C16.0329 127.724 15.9486 127.936 15.9605 128.154C16.1913 133.52 16.6601 139.258 18.4686 144.825C20.397 150.92 24.0369 156.332 28.9548 160.416C30.1084 161.384 33.9411 164.175 39.2996 167.799C54.4819 178.077 81.8547 195.068 94.7001 196.288C96.3076 196.437 97.8209 196.511 99.2399 196.511C101.453 196.526 103.661 196.321 105.834 195.901C107.222 195.626 108.584 195.232 109.905 194.725C110.889 194.347 111.842 193.891 112.755 193.363C119.647 189.441 123.011 182.341 126.494 174.988C127.238 173.396 128.027 171.751 128.845 170.151C144.638 173.574 175.27 173.046 193.325 171.111C194.65 170.97 195.908 170.821 197.084 170.664L197.977 170.545C199.971 170.27 201.847 169.987 203.618 169.697C205.062 169.459 206.434 169.211 207.734 168.953L208.195 168.104L208.642 167.248C207.099 167.561 205.451 167.864 203.7 168.156L202.852 168.298L202.003 168.439C200.381 168.692 198.669 168.945 196.861 169.183C179.527 171.476 145.174 172.346 128.585 168.566C128.253 168.486 127.909 168.642 127.751 168.945C126.828 170.739 125.958 172.57 125.117 174.348C120.927 183.197 116.93 191.667 106.265 194.234L105.41 194.42L104.546 194.584C101.325 195.081 98.052 195.154 94.8117 194.8C81.5421 193.535 52.2864 174.973 37.8781 165.031C33.7625 162.195 30.86 160.067 29.8851 159.248C25.1829 155.339 21.7053 150.158 19.8678 144.326C18.1932 139.198 17.6872 133.907 17.4564 128.928C21.2024 129.335 24.8665 129.642 28.4487 129.851C70.6391 132.322 102.127 120.987 126.806 94.6041L215.37 150.741C215.444 150.496 215.518 150.25 215.585 149.997C215.652 149.744 215.734 149.506 215.809 149.253L127.111 93.0486Z" fill="#8893A7"/>
<path d="M164.315 44.8002C173.551 44.8002 181.038 37.3131 181.038 28.0773C181.038 18.8416 173.551 11.3545 164.315 11.3545C155.08 11.3545 147.593 18.8416 147.593 28.0773C147.593 37.3131 155.08 44.8002 164.315 44.8002Z" fill="#F0F1F5"/>
<path d="M169.421 12.1582C169.421 12.1582 173.812 16.6236 169.495 30.0197C174.95 31.4561 180.234 32.7436 180.234 32.7436L181.038 24.8845C181.038 24.8845 177.838 18.2534 177.734 18.112C177.63 17.9706 170.894 12.7238 170.894 12.7238L169.421 12.1582Z" fill="#CACFDB"/>
<path fill-rule="evenodd" clip-rule="evenodd" d="M147.7 33.4839C150.04 40.673 156.74 45.5405 164.3 45.5444C171.892 45.5389 178.613 40.6389 180.941 33.4134C183.251 26.2145 180.667 18.3467 174.539 13.919C168.411 9.49132 160.129 9.50888 154.02 13.9625C147.911 18.4162 145.36 26.2948 147.7 33.4839ZM148.412 26.9016C149.03 18.5752 155.951 12.1267 164.301 12.0987H164.323C165.969 12.0957 167.606 12.3467 169.175 12.8429C177.136 15.3609 181.818 23.581 179.923 31.7124C178.028 39.8439 170.195 45.1477 161.941 43.8876C153.688 42.6275 147.794 35.2279 148.412 26.9016Z" fill="#8893A7"/>
<path d="M129.277 136.184L126.985 138.558L127.067 135.045L124.521 137.271L119.751 112.22L123.636 100.111L155.474 110.33L151.589 122.438L133.028 140.121L132.023 136.489L129.307 138.893L129.277 136.184Z" fill="white"/>
<path d="M140.961 119.037C138.193 115.495 134.655 114.358 130.349 115.629L159.009 26.373L169.622 29.7816L140.961 119.037Z" fill="white"/>
<path d="M141.028 118.754L129.292 137.836L131.592 136.876L132.924 139.749L151.589 122.438L147.957 119.476L141.028 118.754Z" fill="#CACFDB"/>
<path fill-rule="evenodd" clip-rule="evenodd" d="M132.827 140.865H133.028C133.211 140.861 133.386 140.79 133.519 140.664L152.08 122.982C152.17 122.895 152.236 122.788 152.274 122.669L156.159 110.56C156.286 110.17 156.073 109.75 155.682 109.623L123.837 99.4043C123.448 99.282 123.034 99.4942 122.906 99.8806L119.014 111.997C118.984 112.116 118.984 112.242 119.014 112.361L123.785 137.405C123.835 137.668 124.022 137.884 124.276 137.97C124.531 138.062 124.816 138.008 125.02 137.829L126.293 136.713L126.255 138.536C126.247 138.843 126.429 139.123 126.712 139.242C126.995 139.361 127.322 139.293 127.535 139.072L128.562 138.008V138.901C128.566 139.191 128.738 139.454 129.004 139.572C129.269 139.69 129.579 139.643 129.798 139.451L131.621 137.859L132.313 140.344C132.382 140.596 132.576 140.794 132.827 140.865ZM132.239 135.775C132.17 135.764 132.1 135.764 132.031 135.775C131.837 135.758 131.645 135.816 131.495 135.939L130.006 137.263V136.177C130.002 135.875 129.816 135.606 129.536 135.495C129.255 135.384 128.936 135.453 128.726 135.671L127.759 136.668L127.796 135.06C127.805 134.764 127.637 134.491 127.369 134.365C127.1 134.239 126.783 134.284 126.561 134.48L124.99 135.857L120.525 112.272L124.127 101.049L154.544 110.813L150.941 122.036L133.422 138.729L132.745 136.288C132.676 136.041 132.485 135.847 132.239 135.775Z" fill="#8893A7"/>
<path d="M130.364 115.629C127.55 112.23 124.013 111.094 119.751 112.22L148.404 22.9645L159.009 26.3731L130.364 115.629Z" fill="white"/>
<path d="M151.589 122.438C148.776 119.035 145.238 117.901 140.976 119.037L169.622 29.7816L180.234 33.1827L151.589 122.438Z" fill="white"/>
<path d="M158.882 26.6484L169.495 30.0942L141.028 118.754C138.051 116.023 134.412 115.197 130.483 115.137L158.882 26.6484Z" fill="#F0F1F5"/>
<path d="M169.622 29.7816L180.234 33.1827L151.768 121.888C148.791 119.156 145.151 118.323 141.222 118.271L169.622 29.7816Z" fill="#CACFDB"/>
<path d="M112.733 138.298L116.193 143.507C116.61 144.073 117.131 143.723 117.466 143.113L118.255 142.793L117.89 141.58L119.178 140.999L120.026 140.21L119.833 138.514L120.83 137.874C120.985 137.594 120.988 137.254 120.837 136.972C120.687 136.69 120.404 136.502 120.086 136.474L113.812 136.43C113.347 136.376 112.894 136.604 112.66 137.01C112.425 137.415 112.454 137.921 112.733 138.298Z" fill="#DCE0E8"/>
<path fill-rule="evenodd" clip-rule="evenodd" d="M115.598 143.976C115.833 144.337 116.232 144.557 116.662 144.564L116.744 144.594C117.261 144.529 117.717 144.222 117.972 143.768L118.538 143.537C118.892 143.389 119.076 142.996 118.962 142.629L118.776 142.019L119.461 141.706C119.536 141.676 119.604 141.63 119.662 141.572L120.51 140.783C120.683 140.621 120.769 140.386 120.741 140.151L120.599 138.923L121.21 138.536C121.316 138.467 121.403 138.372 121.463 138.261C121.741 137.746 121.734 137.124 121.443 136.616C121.152 136.108 120.619 135.787 120.034 135.767L113.79 135.715C113.051 135.674 112.355 136.06 111.999 136.708C111.644 137.356 111.692 138.151 112.122 138.752L115.598 143.976ZM113.298 137.405C113.379 137.255 113.538 137.165 113.708 137.174L113.693 137.122L119.937 137.167C120.006 137.169 120.069 137.209 120.101 137.271C120.108 137.295 120.108 137.321 120.101 137.345L119.356 137.836C119.104 137.994 118.969 138.286 119.014 138.581L119.17 139.898L118.687 140.352L117.511 140.88C117.166 141.033 116.99 141.42 117.101 141.781L117.287 142.369L117.131 142.436C116.971 142.496 116.839 142.612 116.759 142.763C116.729 142.824 116.691 142.882 116.647 142.934L113.298 137.866C113.207 137.726 113.207 137.545 113.298 137.405Z" fill="#8893A7"/>
<path d="M86.1415 170.821C83.5923 170.738 81.0819 170.173 78.7438 169.153C66.9611 164.386 56.4852 156.878 48.1858 147.251C47.5384 146.47 47.6359 145.314 48.4049 144.653C49.1739 143.991 50.331 144.068 51.0064 144.825C58.9197 153.99 68.9061 161.134 80.1356 165.663C82.7552 166.72 87.5034 168.134 89.8924 165.723C91.1055 164.502 91.5297 162.284 90.9641 160.074C90.3985 157.864 89.111 155.891 87.7416 153.785L87.6151 153.592C86.8708 152.401 85.241 149.923 86.0745 147.348C86.9825 144.527 90.1306 143.433 92.6237 143.835C94.5682 144.273 96.3941 145.129 97.9747 146.343L98.2278 146.514C101.985 149.009 105.955 151.168 110.091 152.966C115.099 155.147 116.752 154.224 117.786 152.036C118.078 151.389 118.327 150.722 118.53 150.042C118.776 149.244 119.067 148.462 119.401 147.697C120.443 145.465 122.162 143.976 124.112 143.656C124.783 143.515 125.477 143.754 125.919 144.278C126.361 144.802 126.478 145.527 126.225 146.164C125.972 146.801 125.389 147.247 124.707 147.325C123.881 147.459 123.174 148.412 122.78 149.26C122.508 149.891 122.272 150.537 122.073 151.195C121.82 152.025 121.514 152.838 121.158 153.629C117.935 160.431 110.917 157.35 108.61 156.383C104.274 154.493 100.113 152.227 96.1737 149.61L95.9132 149.439C94.7696 148.537 93.4521 147.881 92.0432 147.511C90.9864 147.34 89.8105 147.809 89.617 148.486C89.364 149.283 90.0487 150.488 90.7483 151.567L90.8748 151.761C92.3633 153.994 93.8517 156.368 94.5959 159.151C95.4965 162.656 94.715 166.177 92.5642 168.342C90.8585 170.022 88.5331 170.919 86.1415 170.821Z" fill="#F0F1F5"/>
<path d="M136.928 150.243L135.387 148.189L136.928 150.243Z" fill="white"/>
<path fill-rule="evenodd" clip-rule="evenodd" d="M141.244 144.058H141.192L138.625 143.879C138.219 143.848 137.914 143.496 137.94 143.091C137.968 142.682 138.32 142.373 138.729 142.398L141.296 142.577C141.707 142.591 142.029 142.936 142.014 143.347C142 143.758 141.655 144.08 141.244 144.066V144.058ZM136.935 150.987C136.701 150.987 136.48 150.877 136.34 150.689L134.792 148.635C134.545 148.306 134.612 147.84 134.941 147.593C135.269 147.347 135.736 147.413 135.983 147.742L137.523 149.796C137.691 150.021 137.719 150.321 137.595 150.572C137.471 150.824 137.216 150.984 136.935 150.987ZM129.136 153.711H129.292C129.639 153.713 129.941 153.475 130.021 153.138L130.557 150.622C130.645 150.222 130.392 149.825 129.991 149.737C129.798 149.695 129.596 149.732 129.43 149.839C129.263 149.947 129.147 150.116 129.106 150.31L128.563 152.825C128.521 153.019 128.558 153.221 128.665 153.387C128.773 153.553 128.942 153.67 129.136 153.711Z" fill="#8893A7"/>
<path d="M141.244 143.314L138.677 143.135L141.244 143.314Z" fill="white"/>
<path d="M129.292 152.967L129.828 150.451L129.292 152.967Z" fill="white"/>
<path fill-rule="evenodd" clip-rule="evenodd" d="M129.79 116.105C129.932 116.275 130.142 116.373 130.364 116.373L130.498 116.358L130.506 116.356C130.256 116.411 129.993 116.334 129.813 116.149C129.765 116.1 129.724 116.046 129.692 115.987C129.725 116.026 129.758 116.065 129.79 116.105ZM130.034 114.16C130.037 114.163 130.04 114.166 130.044 114.17L158.079 26.8568L158.062 26.8513L158.287 26.1497C158.415 25.7633 158.829 25.5511 159.217 25.6734L159.268 25.6897C159.428 25.7561 159.56 25.8763 159.642 26.0307C159.733 26.208 159.749 26.4144 159.686 26.6037L135.302 102.655L131.472 114.594L131.474 114.594L131.071 115.852C131 116.075 130.829 116.249 130.612 116.327L130.557 116.343C130.54 116.348 130.523 116.353 130.506 116.356C130.542 116.349 130.578 116.339 130.612 116.327C134.6 115.173 137.783 116.195 140.35 119.461C140.365 119.482 140.382 119.503 140.4 119.524C140.54 119.686 140.745 119.781 140.961 119.781L140.992 119.778C141.017 119.777 141.041 119.775 141.065 119.772L141.125 119.766C141.18 119.757 141.234 119.741 141.284 119.72C145.224 118.716 148.408 119.762 151.016 122.915C151.158 123.085 151.368 123.183 151.589 123.182L151.73 123.175C151.997 123.122 152.214 122.928 152.296 122.669L180.927 33.406C180.987 33.2175 180.97 33.0126 180.88 32.8366C180.789 32.6606 180.632 32.528 180.443 32.4682L169.83 29.0597C169.786 29.046 169.741 29.0366 169.695 29.0314L159.268 25.6897C159.247 25.6808 159.225 25.6729 159.202 25.666L148.59 22.2574C148.199 22.1358 147.784 22.3518 147.659 22.7412L119.036 111.997C118.954 112.256 119.019 112.539 119.207 112.736C119.394 112.933 119.674 113.012 119.937 112.942C123.884 111.898 127.076 112.894 129.692 115.987C129.596 115.812 129.572 115.602 129.634 115.405L130.034 114.16ZM168.545 35.5318L170.314 30.0123C170.375 29.8238 170.358 29.6189 170.267 29.4429C170.176 29.2669 170.019 29.1343 169.83 29.0746L169.695 29.0314C169.548 29.0144 169.398 29.0419 169.264 29.1118C169.091 29.2021 168.96 29.3572 168.9 29.5434L163.19 47.3293L168.669 30.2579L159.478 27.281L135.302 102.655L131.474 114.594C132.181 114.455 132.9 114.382 133.621 114.378C136.307 114.383 138.864 115.532 140.652 117.537L140.247 118.799C140.174 119.025 140.214 119.271 140.35 119.461L140.373 119.491C140.382 119.502 140.391 119.513 140.4 119.524C140.406 119.53 140.412 119.537 140.418 119.543C140.568 119.704 140.779 119.787 140.992 119.778L141.065 119.772C141.098 119.767 141.13 119.761 141.162 119.752C141.203 119.741 141.244 119.73 141.284 119.72C141.483 119.637 141.638 119.47 141.706 119.26L142.1 118.029C142.74 117.923 143.387 117.869 144.035 117.869C146.774 117.864 149.392 118.993 151.269 120.987L179.297 33.6665L170.098 30.6895L168.545 35.5318ZM168.545 35.5318L142.078 118.032L142.1 118.029L168.545 35.5318ZM140.652 117.537L163.19 47.3293L140.656 117.541L140.652 117.537ZM130.034 114.16C128.158 112.172 125.544 111.047 122.81 111.051C122.159 111.053 121.509 111.108 120.867 111.215L148.887 23.8798L158.062 26.8513L130.034 114.16Z" fill="#8893A7"/>
</g>
</svg>
