<svg width="16" height="16" viewBox="0 0 16 16" fill="none" xmlns="http://www.w3.org/2000/svg">
<path d="M10.0001 16V10H6.00011V16H2.90229C2.19038 16 1.61442 15.424 1.61442 14.7121V7.43165L1.34253 7.69324C1.07959 7.93113 0.671769 7.91146 0.433871 7.64673C0.195973 7.382 0.215648 6.97596 0.480377 6.73807L7.13795 0.3327C7.62806 -0.1109 8.37395 -0.1109 8.86406 0.3327L15.5198 6.73807C15.7846 6.97596 15.8042 7.382 15.5663 7.64673C15.3284 7.91146 14.9224 7.93113 14.6577 7.69324L14.3858 7.43165V14.7121C14.3858 15.424 13.8098 16 13.0979 16H10.0001Z" fill="#8893A7"/>
</svg>
