<svg width="16" height="16" viewBox="0 0 16 16" fill="none" xmlns="http://www.w3.org/2000/svg">
<path fill-rule="evenodd" clip-rule="evenodd" d="M15.5198 6.73807L8.86406 0.3327C8.37395 -0.1109 7.62806 -0.1109 7.13795 0.3327L0.480377 6.73807C0.215648 6.97596 0.195973 7.382 0.433871 7.64673C0.671769 7.91146 1.07959 7.93113 1.34253 7.69324L8.00011 1.28787L14.6577 7.69324C14.9224 7.93113 15.3284 7.91146 15.5663 7.64673C15.8042 7.382 15.7846 6.97596 15.5198 6.73807ZM13.7419 9.11347C13.3859 9.11347 13.0979 9.40145 13.0979 9.75741V14.7121H10.5401V10.4192C10.5401 9.70732 9.96411 9.13136 9.2522 9.13136H6.74801C6.03611 9.13136 5.46014 9.70732 5.46014 10.4192V14.7121H2.90229V9.75741C2.90229 9.40145 2.61431 9.11347 2.25835 9.11347C1.9024 9.11347 1.61442 9.40145 1.61442 9.75741V14.7121C1.61442 15.424 2.19038 16 2.90229 16H13.0979C13.8098 16 14.3858 15.424 14.3858 14.7121V9.75741C14.3858 9.40145 14.0978 9.11347 13.7419 9.11347ZM9.2522 14.7121V10.4192H6.74801V14.7121H9.2522Z" fill="#8893A7"/>
</svg>
