<svg width="16" height="16" viewBox="0 0 16 16" fill="none" xmlns="http://www.w3.org/2000/svg">
<path fill-rule="evenodd" clip-rule="evenodd" d="M15.8795 6.61246L15.8753 6.59556L13.5057 0.574446C13.4001 0.234424 13.0854 0 12.7285 0H3.12344C2.76441 0 2.44551 0.238648 2.34414 0.582893L0.128721 6.54277L0.122385 6.55755L0.118161 6.57445C0.0907061 6.67793 0.0822583 6.78353 0.0970419 6.88701C0.0949299 6.9208 0.092818 6.95459 0.092818 6.98838V14.7159C0.092818 15.4234 0.669376 16 1.37687 16H14.6229C15.3304 16 15.907 15.4234 15.9091 14.7159V6.98838V6.98835C15.9091 6.9609 15.9091 6.93346 15.907 6.91024C15.9154 6.80676 15.907 6.7075 15.8795 6.61246ZM9.63242 5.70433L9.62608 6.0359C9.60919 6.98416 8.95449 7.62196 7.99778 7.62196C7.53104 7.62196 7.12978 7.47202 6.84044 7.18691C6.55111 6.90179 6.39271 6.50475 6.38426 6.0359L6.37793 5.70433H2.03157L3.71056 1.62196H12.1414L13.8668 5.70433H9.63242ZM5.03474 7.32629H1.71267V14.378H14.2829V7.32629H10.9777C10.7412 7.87962 10.3758 8.34002 9.90697 8.66948C9.37265 9.04541 8.71161 9.24393 7.99989 9.24393C6.63981 9.24393 5.54794 8.53221 5.03474 7.32629Z" fill="#8893A7"/>
</svg>
