<svg width="16" height="16" viewBox="0 0 16 16" fill="none" xmlns="http://www.w3.org/2000/svg">
<rect width="16" height="16" fill="white"/>
<path fill-rule="evenodd" clip-rule="evenodd" d="M8 1C4.13359 1 1 4.13359 1 8C1 11.8664 4.13359 15 8 15C11.8664 15 15 11.8664 15 8C15 4.13359 11.8664 1 8 1ZM8 3.625C8.24199 3.625 8.4375 3.82051 8.4375 4.0625C8.4375 4.30449 8.24199 4.5 8 4.5C7.75801 4.5 7.5625 4.30449 7.5625 4.0625C7.5625 3.82051 7.75801 3.625 8 3.625ZM8.41699 12.375H9.30566C9.54766 12.375 9.75684 12.1795 9.75684 11.9375C9.75684 11.6955 9.54766 11.5 9.30566 11.5H8.41699V6.65332C8.41699 6.41133 8.22148 6.21582 7.97949 6.21582H7.54199H6.68066C6.43867 6.21582 6.24316 6.41133 6.24316 6.65332C6.24316 6.89531 6.43867 7.09082 6.68066 7.09082H7.54199V11.5H6.69434C6.45234 11.5 6.25684 11.6955 6.25684 11.9375C6.25684 12.1795 6.45234 12.375 6.69434 12.375H7.54199H8.41699Z" fill="#1971C2"/>
</svg>
