<svg width="16" height="16" viewBox="0 0 16 16" fill="none" xmlns="http://www.w3.org/2000/svg">
<path fill-rule="evenodd" clip-rule="evenodd" d="M1 8C1 4.13359 4.13359 1 8 1C11.8664 1 15 4.13359 15 8C15 11.8664 11.8664 15 8 15C4.13359 15 1 11.8664 1 8ZM11.3018 11.2348C11.4699 11.0611 11.4672 10.785 11.2949 10.6154L8.6248 8L11.2949 5.38594C11.4686 5.21641 11.4713 4.93887 11.3018 4.7666C11.1322 4.59297 10.8547 4.59023 10.6824 4.75977L8 7.3875L5.31758 4.7584C5.14395 4.59023 4.86777 4.59297 4.69824 4.76523C4.53008 4.93887 4.53281 5.21504 4.70508 5.38457L7.3752 8L4.70508 10.6141C4.53145 10.7836 4.52871 11.0611 4.69824 11.2334C4.86777 11.407 5.14531 11.4098 5.31758 11.2402L8 8.6125L10.6824 11.2416C10.8561 11.4098 11.1322 11.407 11.3018 11.2348Z" fill="#C62222"/>
</svg>
