<svg width="240" height="240" viewBox="0 0 240 240" fill="none" xmlns="http://www.w3.org/2000/svg">
<path fill-rule="evenodd" clip-rule="evenodd" d="M120 220C175.228 220 220 175.228 220 120C220 64.7715 175.228 20 120 20C64.7715 20 20 64.7715 20 120C20 175.228 64.7715 220 120 220Z" fill="#DCE0E8"/>
<mask id="mask0_1817_0" style="mask-type:alpha" maskUnits="userSpaceOnUse" x="20" y="-9" width="200" height="229">
<path fill-rule="evenodd" clip-rule="evenodd" d="M120 220C175.228 220 220 175.228 220 120C220 64.7715 178.228 -9 123 -9C67.7715 -9 20 64.7715 20 120C20 175.228 64.7715 220 120 220Z" fill="#DCE0E8"/>
</mask>
<g mask="url(#mask0_1817_0)">
<path d="M136.659 140.306V147.627C137.186 147.489 137.741 147.411 138.318 147.411H161.307C161.673 147.411 162.028 147.45 162.371 147.505L162.377 140.573L162.477 140.456C166.875 135.293 169.398 127.778 169.398 119.841C169.398 119.342 169.387 118.837 169.365 118.338C167.446 130.284 158.617 139.963 148.811 139.963C141.102 139.963 134.053 134.078 130.425 125.798C131.335 131.305 133.492 136.407 136.565 140.19L136.659 140.306Z" fill="white"/>
<path d="M128.09 117.262C127.436 118.482 127.081 119.946 127.081 121.499C127.081 124.25 128.246 126.757 129.993 127.927C129.599 126.169 129.333 124.355 129.205 122.52C128.695 120.828 128.312 119.07 128.09 117.262Z" fill="white"/>
<path d="M172.476 121.494C172.476 118.965 171.495 116.635 169.964 115.365C170.136 116.835 170.23 118.332 170.23 119.835C170.23 122.664 169.909 125.443 169.31 128.083C171.206 127.001 172.476 124.433 172.476 121.494Z" fill="white"/>
<path d="M94.5248 50.0197H96.8875V63.6633L112.295 49.8644V30.6912C112.295 26.6535 115.578 23.3702 119.616 23.3702H141.651V14.9621C141.651 12.1336 139.349 9.83191 136.521 9.83191H94.5248C91.6962 9.83191 89.3945 12.1336 89.3945 14.9621V44.8895C89.3945 47.718 91.6962 50.0197 94.5248 50.0197Z" fill="#DCE0E8"/>
<path d="M113.132 30.6912V67.9562C113.132 71.5335 116.044 74.4452 119.621 74.4452H149.953L150.07 74.5506L169.082 91.5608V74.4452H171.927C175.505 74.4452 178.416 71.5335 178.416 67.9562V30.6912C178.416 27.1139 175.505 24.2022 171.927 24.2022H119.621C116.044 24.1966 113.132 27.1084 113.132 30.6912Z" fill="white"/>
<path d="M109.666 161.809C112.539 160.3 118.196 157.838 123.143 155.741V149.718C123.143 142.93 120.198 136.707 115.611 133.717L115.606 133.723C115.6 133.717 115.595 133.712 115.589 133.701C115.478 133.629 115.373 133.551 115.262 133.484C110.792 130.778 95.9224 126.152 93.0993 125.287L93.0938 128.493C93.0661 128.593 90.2042 138.476 81.8295 138.476C78.3464 138.476 75.3404 136.74 73.133 133.451C71.4858 131 70.8702 128.582 70.8424 128.482L70.8313 128.382V125.126C68.3966 125.897 58.2248 129.164 52.1185 131.804C52.0796 131.843 52.0519 131.871 52.0353 131.882L52.0131 131.848C50.6487 132.442 49.4951 132.996 48.6854 133.49C43.899 136.385 40.8042 142.758 40.8042 149.724V166.079C40.8042 168.603 42.6289 170.661 44.8696 170.661H101.774C103.404 166.828 106.155 163.656 109.666 161.809Z" fill="white"/>
<path d="M71.6965 116.951V128.349C71.8907 129.064 74.4142 137.666 81.8627 137.666C89.3057 137.666 92.0844 129.092 92.3118 128.338V116.907C89.2669 119.952 85.8393 121.538 82.1345 121.538C78.3464 121.543 74.697 119.891 71.6965 116.951Z" fill="white"/>
<path d="M99.3889 94.6833L99.3833 93.2857C99.3833 87.6895 96.405 84.2232 94.6469 83.0529C92.6669 81.7385 89.8771 82.4096 88.9676 82.6813C88.596 83.1805 88.18 83.6519 87.7252 84.0845C85.5844 86.1366 82.8113 87.1959 79.9217 87.0795C78.818 87.0351 77.8141 87.0018 76.899 87.0018C72.8281 87.0018 70.4599 87.6119 68.674 90.1299C65.4683 94.6556 65.4017 105.57 68.5409 111.361C71.7189 117.218 76.7936 120.712 82.1235 120.712C88.1467 120.712 93.4544 116.23 97.4699 107.745C99.4166 103.652 99.4055 99.6915 99.3889 94.6833Z" fill="white"/>
<path d="M100.842 93.7182L100.836 92.3317C100.836 86.192 97.4199 82.3485 95.4011 81.0396C94.1865 80.2576 92.7833 80.0413 91.5354 80.0635C91.5576 79.7806 91.5742 79.4922 91.5742 79.2094L90.3541 80.1578L90.0102 79.2094L87.1816 81.8715C85.2016 83.9014 82.4618 84.9996 79.6776 84.8831C73.6378 84.6335 69.7777 84.75 67.0988 88.4327C64.9636 91.3666 64.0595 96.5801 64.4034 101.638C64.6419 105.099 65.4627 108.493 66.8825 111.033C66.0395 108.144 65.7345 104.744 65.9674 101.605C66.2004 98.3992 66.9935 95.4597 68.3356 93.6128C70.0827 91.2113 72.34 90.6234 76.422 90.6234C77.3815 90.6234 78.4408 90.6567 79.6166 90.7066C82.8223 90.8397 85.9837 89.5752 88.2687 87.2347C88.5737 86.9241 88.8566 86.6024 89.1173 86.2641C90.1045 85.9924 92.7445 85.4322 94.5969 86.6302C96.3329 87.7505 99.2613 91.0838 99.2835 96.4525C99.2835 96.4691 99.2835 96.4802 99.2835 96.4969L99.289 97.889C99.3001 101.716 99.3056 104.922 98.4127 108.027C98.5292 107.8 98.6456 107.584 98.7621 107.351C100.487 103.801 100.803 100.302 100.847 96.4414C100.847 95.554 100.847 94.65 100.842 93.7182Z" fill="#DCE0E8"/>
<path d="M70.8922 116.086C69.7553 114.833 68.7292 113.385 67.8474 111.76C64.5252 105.631 64.6195 94.478 68.0304 89.6528C70.5872 86.0367 74.2421 86.0034 79.9935 86.2474C82.6557 86.3639 85.207 85.3822 87.187 83.4854C87.6473 83.0417 88.0633 82.5592 88.4349 82.049L88.4182 81.9991C88.4293 81.9935 88.4515 81.988 88.4903 81.9713C89.7216 80.2298 90.4038 78.1334 90.4038 75.9981C90.4038 73.2471 89.2668 70.5572 87.2813 68.6216C85.3068 66.6971 82.7056 65.6821 79.9935 65.7487C66.8047 66.0925 59.2341 76.4861 59.2341 94.2617C59.2341 118.055 55.2187 127.328 53.2109 130.484C59.6834 127.827 69.0842 124.843 70.8978 124.272V116.086H70.8922Z" fill="#CACFDB"/>
<path d="M95.1348 82.3597C97.0316 83.6187 100.243 87.3402 100.243 93.2857L100.248 94.6778C100.265 99.5917 100.276 103.835 98.2573 108.1C96.7376 111.305 95.0349 113.956 93.1714 116.036L93.1603 124.439C95.1348 125.038 108.745 129.225 114.53 132.131C112.439 128.609 108.213 118.671 108.213 95.8258C108.213 86.3807 107.658 79.7918 100.265 74.4563C96.2995 71.5945 91.0139 72.1269 90.5314 72.1824C90.9807 73.4025 91.2303 74.6893 91.2303 75.9982C91.2303 77.9837 90.6812 79.9415 89.6829 81.6442C91.0694 81.3558 93.3378 81.1672 95.1348 82.3597Z" fill="#CACFDB"/>
<path d="M71.3303 115.787V119.758C74.3974 122.925 78.191 124.71 82.1288 124.71C85.939 124.71 89.4609 123.035 92.5667 119.813V115.781C92.5667 115.781 89.2612 121.116 82.0012 121.116C74.7412 121.116 71.3303 115.787 71.3303 115.787Z" fill="#DCE0E8"/>
<path d="M138.318 158.648H161.307C164.329 158.648 166.792 156.313 166.792 153.445C166.792 150.578 164.335 148.243 161.307 148.243H138.318C135.295 148.243 132.838 150.578 132.838 153.445C132.832 156.313 135.295 158.648 138.318 158.648Z" fill="#DCE0E8"/>
<path d="M95.7338 171.165C96.6212 165.786 100.232 161.31 104.735 158.953C108.773 156.834 118.296 152.83 123.648 150.611L123.842 159.158L105.817 170.078C105.817 170.078 95.6395 171.715 95.7338 171.165Z" fill="#DCE0E8"/>
<path d="M189.542 162.563C184.517 159.929 170.896 154.172 167.585 152.785C167.607 153.002 167.623 153.223 167.623 153.445C167.623 156.773 164.789 159.48 161.306 159.48H138.317C134.834 159.48 132.006 156.773 132.006 153.445C132.006 153.29 132.017 153.135 132.028 152.985C128.733 154.327 115.112 159.929 110.082 162.569C104.558 165.469 100.986 171.836 100.986 178.791V195.147C100.986 197.671 103.116 199.728 105.739 199.728H193.885C196.503 199.728 198.638 197.671 198.638 195.147V178.791C198.638 171.831 195.066 165.464 189.542 162.563Z" fill="#CACFDB"/>
<path d="M130.281 125.337C133.537 136.319 141.191 143.49 149.416 143.49C159.909 143.49 169.238 131.865 169.382 118.615" fill="#DCE0E8"/>
<path d="M148.839 139.131C159.41 139.131 168.805 127.317 168.949 113.845V113.696L169.043 113.579C170.53 111.788 171.351 109.508 171.351 107.162C171.351 102.465 168.123 98.4048 163.68 97.5008L163.536 97.473L163.442 97.3566C159.598 92.609 154.413 89.9912 148.839 89.9912C137.746 89.9912 128.717 100.557 128.717 113.546C128.717 116.469 129.155 119.314 129.937 121.987L130.026 121.982C130.031 122.115 130.048 122.242 130.054 122.375C133.021 131.948 140.536 139.131 148.839 139.131Z" fill="#CACFDB"/>
<path d="M189.93 161.831C184.534 159.003 169.337 152.619 167.38 151.798C166.797 149.851 165.222 148.298 163.209 147.688L163.214 140.872C165.904 137.672 167.901 133.612 169.06 129.125C171.573 128.138 173.314 125.049 173.314 121.499C173.314 118.332 171.95 115.532 169.82 114.245C169.814 114.212 169.809 114.178 169.809 114.145L169.753 114.156C169.753 114.106 169.759 114.056 169.759 114.006C171.312 112.087 172.16 109.664 172.16 107.173C172.16 102.137 168.727 97.767 163.969 96.7243C159.975 91.8492 154.596 89.1649 148.811 89.1649C137.258 89.1649 127.857 100.108 127.857 113.552C127.857 114.345 127.891 115.132 127.952 115.914C126.854 117.412 126.243 119.386 126.243 121.499C126.243 124.927 127.852 127.927 130.253 129.025C131.379 133.429 133.293 137.45 135.822 140.606V147.905C134.019 148.648 132.655 150.168 132.183 152.026C131.263 152.403 127.929 153.761 124.003 155.414V149.746C124.003 142.719 120.947 136.269 116.177 133.102C115.484 132.264 109.017 123.707 109.017 95.8259C109.017 86.425 108.423 79.337 100.725 73.7797C96.5657 70.7737 90.9751 71.2673 90.1654 71.356C89.5941 70.1248 88.8121 68.9878 87.8304 68.0227C85.6952 65.9429 82.8888 64.8281 79.9382 64.9113C66.2335 65.2663 58.369 75.9649 58.369 94.2563C58.369 122.353 52.6287 130.024 51.6581 131.116C50.2882 131.715 49.1124 132.281 48.2805 132.786C43.2501 135.842 40 142.492 40 149.74V166.096C40 169.08 42.1963 171.509 44.8973 171.509H101.469C100.62 173.778 100.154 176.24 100.154 178.786V195.142C100.154 198.126 102.661 200.555 105.739 200.555H193.885C196.963 200.555 199.47 198.126 199.47 195.142V178.786C199.47 171.526 195.726 164.871 189.93 161.831ZM172.477 121.494C172.477 124.428 171.206 127.001 169.31 128.083C169.909 125.437 170.23 122.664 170.23 119.835C170.23 118.338 170.142 116.84 169.964 115.365C171.495 116.641 172.477 118.97 172.477 121.494ZM148.811 89.9913C154.385 89.9913 159.571 92.6091 163.414 97.3566L163.508 97.4731L163.653 97.5008C168.095 98.4048 171.323 102.47 171.323 107.162C171.323 109.514 170.502 111.793 169.016 113.579L168.921 113.696V113.845C168.777 127.317 159.376 139.131 148.811 139.131C140.503 139.131 132.993 131.948 130.032 122.376C130.02 122.242 130.009 122.115 130.004 121.982L129.915 121.987C129.127 119.32 128.695 116.474 128.695 113.546C128.695 100.562 137.719 89.9913 148.811 89.9913ZM127.086 121.494C127.086 119.941 127.441 118.477 128.096 117.256C128.318 119.064 128.695 120.823 129.211 122.514C129.338 124.35 129.604 126.164 129.998 127.922C128.251 126.757 127.086 124.245 127.086 121.494ZM136.565 140.195C133.492 136.413 131.335 131.31 130.425 125.803C134.052 134.078 141.102 139.968 148.811 139.968C158.617 139.968 167.446 130.284 169.365 118.343C169.387 118.843 169.398 119.342 169.398 119.846C169.398 127.783 166.875 135.293 162.477 140.462L162.377 140.578L162.371 147.511C162.022 147.455 161.667 147.417 161.307 147.417H138.318C137.741 147.417 137.192 147.494 136.659 147.633V140.312L136.565 140.195ZM138.318 148.243H161.307C164.329 148.243 166.792 150.578 166.792 153.445C166.792 156.313 164.335 158.648 161.307 158.648H138.318C135.295 158.648 132.838 156.313 132.838 153.445C132.832 150.578 135.295 148.243 138.318 148.243ZM100.237 74.4563C107.63 79.7918 108.185 86.3807 108.185 95.8259C108.185 118.671 112.406 128.609 114.502 132.131C108.717 129.225 95.1071 125.038 93.1326 124.439L93.1437 116.036C95.0072 113.956 96.7099 111.305 98.2296 108.1C100.248 103.835 100.237 99.5917 100.221 94.6778L100.215 93.2857C100.215 87.3402 97.0039 83.6187 95.1071 82.3597C93.3156 81.1672 91.0472 81.3558 89.6551 81.6442C90.659 79.936 91.2025 77.9837 91.2025 75.9982C91.2025 74.6893 90.953 73.4026 90.5037 72.1824C90.9862 72.1269 96.2718 71.5945 100.237 74.4563ZM82.1345 120.712C76.8046 120.712 71.7298 117.218 68.5518 111.361C65.4127 105.571 65.4793 94.6556 68.685 90.1299C70.4708 87.6064 72.8391 87.0019 76.91 87.0019C77.8251 87.0019 78.829 87.0351 79.9327 87.0795C82.8222 87.196 85.5898 86.1366 87.7362 84.0846C88.1909 83.6519 88.6069 83.1805 88.9785 82.6814C89.8825 82.4096 92.6778 81.7385 94.6578 83.053C96.416 84.2232 99.3943 87.6951 99.3943 93.2857L99.3998 94.6833C99.4165 99.6916 99.4276 103.652 97.4919 107.745C93.4598 116.23 88.1577 120.712 82.1345 120.712ZM71.6965 116.951C74.697 119.891 78.3464 121.544 82.1345 121.544C85.8394 121.544 89.2669 119.957 92.3118 116.913V128.343C92.0844 129.098 89.3057 137.672 81.8627 137.672C74.4142 137.672 71.8962 129.07 71.6965 128.354V116.951ZM59.201 94.2618C59.201 76.4807 66.766 66.0927 79.9604 65.7488C82.678 65.6878 85.2736 66.6972 87.2481 68.6217C89.2336 70.5574 90.3706 73.2473 90.3706 75.9982C90.3706 78.1335 89.6884 80.2244 88.4572 81.9714C88.4183 81.9825 88.3906 81.9936 88.3851 81.9992L88.4017 82.0491C88.0301 82.5593 87.6141 83.0419 87.1538 83.4856C85.1738 85.3824 82.6226 86.364 79.9604 86.2476C74.209 86.0035 70.5596 86.0368 67.9972 89.6529C64.5808 94.4781 64.492 105.632 67.8142 111.76C68.6961 113.385 69.7221 114.833 70.8591 116.086V124.272C69.0455 124.844 59.6391 127.827 53.1722 130.484C55.1855 127.328 59.201 118.055 59.201 94.2618ZM44.8973 170.677C42.6566 170.677 40.8319 168.62 40.8319 166.096V149.74C40.8319 142.774 43.9267 136.402 48.7131 133.507C49.5228 133.019 50.682 132.459 52.0408 131.865L52.0685 131.893C52.0796 131.882 52.1074 131.854 52.1517 131.815C58.2636 129.175 68.4298 125.908 70.8646 125.138V128.393L70.8757 128.493C70.9034 128.593 71.5191 131.011 73.1663 133.462C75.3737 136.751 78.3797 138.487 81.8627 138.487C90.2375 138.487 93.0993 128.604 93.1271 128.504L93.1326 125.298C95.9556 126.164 110.825 130.795 115.295 133.496C115.406 133.562 115.512 133.64 115.622 133.712C115.628 133.723 115.639 133.729 115.639 133.734L115.645 133.729C120.231 136.718 123.176 142.935 123.176 149.729V155.753C118.224 157.849 112.572 160.312 109.699 161.82C106.188 163.661 103.432 166.839 101.807 170.666H44.8973V170.677ZM198.638 195.142C198.638 197.665 196.508 199.723 193.885 199.723H105.739C103.121 199.723 100.986 197.665 100.986 195.142V178.786C100.986 171.831 104.558 165.464 110.082 162.563C115.112 159.923 128.734 154.327 132.028 152.979C132.017 153.135 132.006 153.285 132.006 153.44C132.006 156.768 134.84 159.474 138.318 159.474H161.307C164.79 159.474 167.624 156.768 167.624 153.44C167.624 153.218 167.607 152.996 167.585 152.78C170.896 154.172 184.517 159.923 189.542 162.558C195.066 165.458 198.638 171.825 198.638 178.78V195.142Z" fill="#8893A7" stroke="#8893A7" stroke-width="0.5" stroke-miterlimit="10"/>
<path d="M94.5247 50.8516H96.0554V65.5269L112.295 50.9848V67.9561C112.295 71.9938 115.578 75.2771 119.616 75.2771H149.626L169.909 93.4243V75.2771H171.922C175.96 75.2771 179.243 71.9938 179.243 67.9561V30.6912C179.243 26.6536 175.96 23.3702 171.922 23.3702H142.483V14.9622C142.483 11.6733 139.809 9 136.521 9H94.5247C91.2358 9 88.5625 11.6733 88.5625 14.9622V44.8895C88.5625 48.1728 91.2358 50.8516 94.5247 50.8516ZM178.417 30.6912V67.9561C178.417 71.5334 175.505 74.4452 171.927 74.4452H169.082V91.5608L150.07 74.5506L149.953 74.4452H119.621C116.044 74.4452 113.132 71.5334 113.132 67.9561V30.6912C113.132 27.1139 116.044 24.2021 119.621 24.2021H171.927C175.505 24.1966 178.417 27.1084 178.417 30.6912ZM89.3944 14.9622C89.3944 12.1336 91.6961 9.83193 94.5247 9.83193H136.526C139.355 9.83193 141.656 12.1336 141.656 14.9622V23.3647H119.621C115.584 23.3647 112.3 26.648 112.3 30.6857V49.8589L96.8929 63.6578V50.0142H94.5302C91.7017 50.0142 89.4 47.7125 89.4 44.8839V14.9622H89.3944Z" fill="#8893A7" stroke="#8893A7" stroke-width="0.5" stroke-miterlimit="10"/>
</g>
</svg>
