<svg width="16" height="16" viewBox="0 0 16 16" fill="none" xmlns="http://www.w3.org/2000/svg">
<path fill-rule="evenodd" clip-rule="evenodd" d="M1.28571 0H5.96429C6.675 0 7.25 0.575 7.25 1.28571V5.96429C7.25 6.675 6.675 7.25 5.96429 7.25H1.28571C0.575 7.25 0 6.675 0 5.96429V1.28571C0 0.575 0.575 0 1.28571 0ZM5.96429 5.96429V1.28571H1.28571V5.96429H5.96429ZM14.7143 1.28571V5.96429H10.0357V1.28571H14.7143ZM10.0357 0H14.7143C15.425 0 16 0.575 16 1.28571V5.96429C16 6.675 15.425 7.25 14.7143 7.25H10.0357C9.325 7.25 8.75 6.675 8.75 5.96429V1.28571C8.75 0.575 9.325 0 10.0357 0ZM5.96429 10.0357V14.7143H1.28571V10.0357H5.96429ZM1.28571 8.75H5.96429C6.675 8.75 7.25 9.325 7.25 10.0357V14.7143C7.25 15.425 6.675 16 5.96429 16H1.28571C0.575 16 0 15.425 0 14.7143V10.0357C0 9.325 0.575 8.75 1.28571 8.75ZM14.7143 10.0357V14.7143H10.0357V10.0357H14.7143ZM10.0357 8.75H14.7143C15.425 8.75 16 9.325 16 10.0357V14.7143C16 15.425 15.425 16 14.7143 16H10.0357C9.325 16 8.75 15.425 8.75 14.7143V10.0357C8.75 9.325 9.325 8.75 10.0357 8.75Z"/>
</svg>
