<svg width="17" height="16" viewBox="0 0 17 16" fill="none" xmlns="http://www.w3.org/2000/svg">
<path fill-rule="evenodd" clip-rule="evenodd" d="M8.19578 6.78754C10.215 5.21684 13.1348 5.35801 14.9914 7.21461C17.0017 9.22489 17.0035 12.4824 14.9932 14.4927C12.9829 16.503 9.72537 16.503 7.7151 14.4927C5.8585 12.6361 5.71733 9.71629 7.28803 7.69708L0.688966 1.09802C0.437011 0.847848 0.437011 0.440432 0.688966 0.188478C0.939133 -0.0634769 1.34655 -0.0634769 1.5985 0.188478L8.19578 6.78754ZM8.62285 13.5832C10.131 15.0913 12.5737 15.0913 14.0819 13.5832C15.5882 12.075 15.59 9.6323 14.0819 8.12415C12.5737 6.616 10.131 6.616 8.62285 8.12415C7.1147 9.6323 7.1147 12.075 8.62285 13.5832ZM5.6405 4.20724L7.0057 2.84204C7.25765 2.59009 7.25765 2.18267 7.0057 1.9325C6.75374 1.68055 6.34633 1.68055 6.09616 1.9325L4.73096 3.2977L5.6405 4.20724ZM5.28669 0.215281C5.53864 0.465449 5.53864 0.872864 5.28669 1.12482L3.92149 2.49002L3.01195 1.58048L4.37715 0.215281C4.6291 -0.0366732 5.03652 -0.0366732 5.28669 0.215281Z" fill="#8893A7"/>
</svg>
