<svg width="17" height="16" viewBox="0 0 17 16" fill="none" xmlns="http://www.w3.org/2000/svg">
<path fill-rule="evenodd" clip-rule="evenodd" d="M7.9824 8.23853C10.2521 8.23853 12.0925 6.3945 12.0925 4.11927C12.0925 1.84404 10.2521 0 7.9824 0C5.71267 0 3.8723 1.84404 3.8723 4.11927C3.8723 6.3945 5.71267 8.23853 7.9824 8.23853ZM7.9824 8.23853C4.09065 8.23853 0.936523 11.4 0.936523 15.3009H0.938358C0.938358 15.3073 0.9379 15.3133 0.937441 15.3193C0.936982 15.3252 0.936523 15.3312 0.936523 15.3376C0.936523 15.7028 1.23194 16 1.59707 16C1.96221 16 2.25762 15.7028 2.25762 15.3376C2.25762 15.3248 2.25762 15.3138 2.25579 15.3009H2.25762C2.25762 12.1321 4.82093 9.5633 7.9824 9.5633C8.70166 9.5633 9.38974 9.69541 10.0228 9.93945C10.5622 9.62385 11.1769 9.42752 11.8356 9.38716C10.7273 8.66055 9.40441 8.23853 7.9824 8.23853ZM10.7714 4.11927C10.7714 5.66239 9.52184 6.91376 7.9824 6.91376C6.44295 6.91376 5.1934 5.66239 5.1934 4.11927C5.1934 2.57615 6.44295 1.32477 7.9824 1.32477C9.52184 1.32477 10.7714 2.57615 10.7714 4.11927ZM14.0032 10.4488C12.7409 10.4488 11.8756 11.1979 11.8756 12.2954H13.1342C13.1342 11.8272 13.4301 11.4864 13.932 11.4864C14.404 11.4864 14.6662 11.7973 14.6662 12.1718C14.6662 12.4902 14.5538 12.7225 13.8871 13.333L11.9543 15.0823V16H16.0633V14.9287H13.7897V14.8575L14.8535 13.8949C15.715 13.1158 15.9997 12.6925 15.9997 12.052C15.9997 11.1268 15.2543 10.4488 14.0032 10.4488Z" fill="#8893A7"/>
</svg>
