<svg width="17" height="16" viewBox="0 0 17 16" fill="none" xmlns="http://www.w3.org/2000/svg">
<path fill-rule="evenodd" clip-rule="evenodd" d="M14.5 5.84375C14.5 2.61562 11.8141 0 8.5 0C5.18594 0 2.5 2.61562 2.5 5.84375C2.5 8.00625 3.70625 9.89531 5.5 10.9047V11.875C5.5 12.4969 6.00312 13 6.625 13H10.375C10.9969 13 11.5 12.4969 11.5 11.875V10.9047C13.2937 9.89531 14.5 8.00625 14.5 5.84375ZM6.5 14.875C6.18906 14.875 5.9375 15.1266 5.9375 15.4375C5.9375 15.7484 6.18906 16 6.5 16H10.5C10.8109 16 11.0625 15.7484 11.0625 15.4375C11.0625 15.1266 10.8109 14.875 10.5 14.875H6.5ZM10.4078 10.1891C10.9891 9.94844 11.5094 9.60625 11.9578 9.17031C12.4031 8.73594 12.7531 8.23125 12.9953 7.67031C13.2469 7.09219 13.3734 6.47813 13.3734 5.84375C13.3734 5.20937 13.2469 4.59531 12.9953 4.01719C12.7516 3.45625 12.4016 2.95156 11.9562 2.51719C11.5094 2.07969 10.9875 1.7375 10.4062 1.49844C9.80312 1.25 9.1625 1.12344 8.5 1.12344C7.83906 1.12344 7.19688 1.25 6.59375 1.49844C6.0125 1.73906 5.49219 2.08125 5.04375 2.51719C4.59844 2.95156 4.24844 3.45625 4.00469 4.01719C3.75312 4.59531 3.62656 5.20937 3.62656 5.84375C3.62656 6.47813 3.75312 7.09219 4.00469 7.67031C4.24844 8.23125 4.59844 8.73594 5.04375 9.17031C5.49062 9.60781 6.0125 9.95 6.59375 10.1891C6.59917 10.1918 6.6051 10.194 6.61126 10.1962C6.61576 10.1979 6.62038 10.1996 6.625 10.2016V11.875H10.3766V10.2016C10.382 10.1989 10.3879 10.1967 10.3941 10.1944C10.3986 10.1927 10.4032 10.191 10.4078 10.1891Z" fill="#8893A7"/>
</svg>
