<svg width="240" height="240" viewBox="0 0 240 240" fill="none" xmlns="http://www.w3.org/2000/svg">
<path fill-rule="evenodd" clip-rule="evenodd" d="M120 220C175.228 220 220 175.228 220 120C220 64.7715 175.228 20 120 20C64.7715 20 20 64.7715 20 120C20 175.228 64.7715 220 120 220Z" fill="#DCE0E8"/>
<path opacity="0.5" d="M118.988 184.174C118.988 191.535 115.858 198.112 110.852 202.81C109.443 204.063 108.035 205.159 106.314 206.099C102.559 208.291 98.1779 209.544 93.484 209.544C88.7901 209.544 84.409 208.291 80.6539 206.099C80.028 205.786 79.5586 205.472 78.9328 205.003C72.3612 200.461 67.9802 192.787 67.9802 184.174C67.9802 170.08 79.4022 158.804 93.3275 158.804C107.566 158.648 118.988 170.08 118.988 184.174Z" fill="#8893A7"/>
<path d="M115.988 181.174C115.988 188.535 112.858 195.112 107.852 199.81C106.443 201.063 105.035 202.159 103.314 203.099C99.559 205.291 95.1779 206.544 90.484 206.544C85.7901 206.544 81.409 205.291 77.6539 203.099C77.028 202.786 76.5586 202.472 75.9328 202.003C69.3612 197.461 64.9802 189.787 64.9802 181.174C64.9802 167.08 76.4022 155.804 90.3275 155.804C104.566 155.648 115.988 167.08 115.988 181.174Z" fill="#F0F1F5" stroke="#8893A7" stroke-width="2" stroke-miterlimit="10"/>
<path d="M85.3209 185.812C85.6338 186.125 85.9468 186.595 86.4162 186.908C86.7291 187.221 87.042 187.378 87.3549 187.691C87.5114 187.847 87.8243 188.004 87.9808 188.161C87.9808 188.161 88.1373 188.161 88.1373 188.317L88.2937 188.474V190.666C88.2937 190.666 88.2937 190.666 88.1373 190.51C87.9808 190.353 87.6679 190.196 87.5114 190.04C87.1985 189.883 86.8855 189.57 86.5726 189.413C86.4162 189.413 86.4162 189.257 86.2597 189.257C85.1644 188.63 84.2256 188.004 84.2256 187.221C84.3821 186.908 84.695 186.438 85.3209 185.812ZM107.087 197.925C106.148 195.889 104.879 193.955 102.688 192.859C101.593 192.389 100.342 191.919 99.0898 191.919C98.7769 191.919 98.3075 191.919 97.9946 191.919C97.8381 191.919 97.6816 191.919 97.5252 191.919C95.804 191.763 95.6476 191.449 95.6476 191.449V187.847C96.7428 186.908 97.8381 185.812 98.7769 184.715C99.5592 183.619 100.185 182.366 100.498 180.8C101.906 180.487 102.845 179.234 102.688 177.668C102.688 177.042 102.219 176.415 102.219 175.789C102.219 175.476 102.219 175.162 102.219 174.849C102.219 174.693 102.219 174.379 102.219 174.223C102.219 174.066 102.219 173.753 102.219 173.596C102.063 172.5 101.75 171.404 101.124 170.151C99.2463 166.706 95.804 164.513 91.736 164.513C90.9536 164.513 90.1713 164.67 89.389 164.827C87.9808 165.14 86.5726 165.766 85.4774 166.706C85.3209 166.862 85.008 167.019 84.8515 167.332L84.695 167.489C83.4433 168.742 82.3481 170.151 81.8787 171.874C81.2528 173.596 81.2528 175.319 81.4093 177.042C81.4093 177.042 81.4093 177.042 81.4093 177.198V177.355C81.4093 177.668 81.5657 177.668 81.4093 177.825C81.4093 177.981 81.2528 177.981 81.2528 178.138C80.9399 178.608 80.7834 179.234 81.0963 180.174C81.7222 181.74 82.661 181.583 83.7563 182.366C83.7563 182.366 83.5998 182.366 83.5998 182.523L82.5045 182.836C77.4977 184.402 75.7765 188.63 77.967 191.293C78.7494 192.232 80.0011 193.015 81.8787 193.485C81.4093 193.485 80.9399 193.798 80.627 194.112C78.4364 195.834 77.0283 198.497 76.7153 201.002C76.7153 201.159 76.7153 201.315 76.7153 201.472C77.3412 201.785 77.8106 202.255 78.4364 202.568L102.937 201.995C104.502 201.056 105.194 200.33 106.602 199.078C106.446 198.295 107.243 198.081 107.087 197.925Z" fill="white"/>
<path d="M107.852 198.81C106.444 200.063 105.036 201.159 103.314 202.099C99.5593 204.291 95.1783 205.544 90.4843 205.544C85.7904 205.544 81.4094 204.291 77.6542 202.099C77.0284 201.786 76.559 201.472 75.9331 201.003C75.9331 200.846 75.9331 200.689 75.9331 200.533C76.246 198.027 77.6542 195.365 79.8447 193.642C80.1577 193.329 80.6271 193.172 81.0964 193.016C79.2189 192.703 77.9671 191.92 77.1848 190.823H83.1305C84.8516 193.172 87.5115 194.582 90.6408 194.582C93.3007 194.582 95.6477 193.486 97.3688 191.763C97.5253 191.763 97.6817 191.763 97.8382 191.763C98.1511 191.763 98.4641 191.763 98.9334 191.763C100.185 191.763 101.437 192.076 102.532 192.703C104.723 193.799 106.287 195.678 107.383 197.871C107.695 198.184 107.695 198.497 107.852 198.81Z" fill="#CACFDB"/>
<path d="M95.8041 187.848V191.137L85.9468 191.45L86.4162 189.257C86.5726 189.257 86.5726 189.414 86.7291 189.414C87.042 189.57 87.355 189.884 87.6679 190.04C87.8244 190.197 87.9808 190.354 88.2938 190.51C88.2938 190.51 88.4502 190.51 88.4502 190.667V188.474L88.2938 188.318C90.0149 189.257 92.3618 189.884 95.8041 187.848Z" fill="url(#paint0_linear_3191_18913)"/>
<path d="M102.219 174.223C100.341 174.85 98.1509 175.163 96.1168 175.006C92.8311 174.693 89.7018 173.44 87.1983 171.248C86.416 173.597 84.382 175.319 82.035 176.416C81.7221 176.572 81.4091 176.729 81.0962 176.729C81.0962 176.729 81.0962 176.729 81.0962 176.572C80.9397 174.85 80.9397 173.127 81.5656 171.404C82.035 169.682 83.1302 168.272 84.382 167.019L84.5384 166.863C84.6949 166.706 85.0078 166.55 85.1643 166.236C86.2595 165.297 87.6677 164.67 89.0759 164.357C89.8582 164.2 90.6406 164.044 91.4229 164.044C95.491 164.044 99.0897 166.236 100.811 169.682C101.437 170.934 101.75 172.187 101.906 173.127C102.219 173.753 102.219 174.067 102.219 174.223Z" fill="#AAB2C5"/>
<path d="M89.702 197.401C88.7633 198.497 87.1986 198.497 85.7904 198.497C87.1986 197.087 86.4163 192.546 81.4094 193.016C74.5249 191.763 75.1508 184.559 82.0353 182.367L83.1305 182.053L83.287 182.21C83.7564 183.619 84.5387 184.872 85.321 185.812C82.5047 188.161 86.4163 188.787 88.2939 190.667C89.8585 191.606 91.2667 195.521 89.702 197.401Z" fill="#AAB2C5"/>
<path opacity="0.5" d="M189.397 121.845C189.397 129.519 186.111 136.253 180.948 141.108C176.254 145.493 169.995 148.155 163.111 148.155C157.635 148.155 152.471 146.432 148.247 143.457C141.362 138.759 136.981 130.928 136.981 122.002C136.981 107.594 148.716 95.8488 163.111 95.8488C177.506 95.8488 189.397 107.438 189.397 121.845Z" fill="#8893A7"/>
<path d="M186.397 118.845C186.397 125.893 183.581 132.157 179.2 136.855C178.887 137.325 178.417 137.638 177.948 137.951C173.254 142.336 166.995 144.998 160.111 144.998C154.635 144.998 149.471 143.276 145.247 140.3C143.995 139.517 142.9 138.421 141.804 137.481C136.954 132.783 133.981 126.206 133.981 118.845C133.981 104.438 145.716 92.6924 160.111 92.6924C174.662 92.6924 186.397 104.438 186.397 118.845Z" fill="#E9F0F8"/>
<path d="M186.397 118.845C186.397 126.519 183.111 133.253 177.948 138.108C173.254 142.493 166.995 145.155 160.111 145.155C154.635 145.155 149.471 143.432 145.247 140.457C138.362 135.759 133.981 127.928 133.981 119.002C133.981 104.594 145.716 92.8488 160.111 92.8488C174.506 92.8488 186.397 104.438 186.397 118.845Z" fill="#F0F1F5" stroke="#8893A7" stroke-width="2" stroke-miterlimit="10"/>
<path d="M179.2 135.855C178.887 136.325 178.417 136.638 177.948 136.951C173.254 141.336 166.996 143.999 160.111 143.999C154.635 143.999 149.471 142.276 145.247 139.3C143.995 138.517 142.9 137.421 141.805 136.482C142.431 135.699 143.369 135.229 145.403 134.446L146.186 134.133C147.75 133.506 149.941 132.723 152.757 131.47C153.227 131.314 153.54 131 153.852 130.687C154.009 130.531 154.165 130.374 154.165 130.061C154.322 129.748 154.478 129.278 154.478 128.965V123.64C154.322 123.483 154.322 123.483 154.165 123.327C153.696 122.7 153.383 121.917 153.383 120.978L153.07 120.821C151.662 121.134 151.818 119.725 151.506 116.906C151.349 115.81 151.506 115.497 152.131 115.34L152.601 114.714C151.662 112.521 151.193 110.485 151.193 108.919C151.193 106.257 152.288 104.534 153.852 103.751C152.914 101.872 152.914 101.245 152.914 101.245C152.914 101.245 158.39 102.185 160.268 101.872C162.615 101.402 166.37 102.029 167.778 105.161C170.125 106.1 170.907 107.51 171.22 109.076C171.533 111.581 170.125 114.244 169.812 115.34V115.497C170.125 115.653 170.281 115.966 170.125 117.063C169.812 119.725 169.812 121.291 168.56 120.978L167.308 123.17C167.308 123.483 167.308 123.483 167.152 123.64C167.152 124.11 167.152 124.893 167.152 129.121C167.152 129.591 167.308 130.217 167.621 130.531C167.778 130.687 167.778 130.844 167.934 130.844C168.247 131.157 168.56 131.47 168.873 131.47C172.002 132.723 174.193 133.663 175.914 134.289C177.479 134.916 178.574 135.385 179.2 135.855Z" fill="white"/>
<path d="M179.2 135.855C178.887 136.325 178.417 136.638 177.948 136.951C173.254 141.336 166.996 143.999 160.111 143.999C154.635 143.999 149.471 142.276 145.247 139.3C143.995 138.517 142.9 137.421 141.805 136.482C142.431 135.698 143.369 135.229 145.403 134.446L146.186 134.132C147.75 133.506 149.941 132.723 152.757 131.47C153.227 131.314 153.54 131 153.852 130.687C155.417 132.88 157.921 134.289 160.893 134.289C163.71 134.289 166.213 132.88 167.778 130.844C168.091 131.157 168.404 131.47 168.717 131.47C171.846 132.723 174.036 133.663 175.758 134.289C177.479 134.915 178.574 135.385 179.2 135.855Z" fill="#CACFDB"/>
<path d="M169.655 115.183C169.812 114.557 169.499 113.617 169.186 113.147C169.186 112.991 169.03 112.991 169.03 112.834C167.934 110.642 165.587 109.859 163.397 109.702C157.608 109.389 157.138 110.485 155.417 108.919C156.043 109.702 156.043 111.111 155.104 112.678C154.478 113.774 153.383 114.4 152.288 114.713C149.628 108.762 151.036 105.004 153.54 103.751C152.601 101.872 152.601 101.245 152.601 101.245C152.601 101.245 158.077 102.185 159.955 101.872C162.302 101.402 166.057 102.028 167.465 105.16C169.812 106.1 170.594 107.51 170.907 109.076C171.377 111.425 169.968 114.087 169.655 115.183Z" fill="#AAB2C5"/>
<path d="M154.635 128.964V123.64C154.478 123.483 154.478 123.483 154.322 123.327V123.013C154.635 123.483 154.948 123.953 155.417 124.266L159.642 127.242C160.58 128.025 161.989 128.025 162.927 127.242L166.839 123.796C166.995 123.64 167.152 123.64 167.308 123.483C167.308 123.953 167.308 124.736 167.308 128.964C167.308 129.278 167.308 129.434 167.465 129.747H154.635C154.478 129.434 154.635 129.278 154.635 128.964Z" fill="url(#paint1_linear_3191_18913)"/>
<path opacity="0.5" d="M14 141.012C14 146.023 18.0681 150.095 23.075 150.095H103.498C104.28 150.095 105.063 150.408 105.532 150.878L116.797 162.154C117.11 162.623 117.736 162.78 118.362 162.467C118.831 162.31 119.301 161.684 119.301 161.214V109.065C119.301 104.053 115.233 99.9814 110.226 99.9814H23.075C18.0681 99.9814 14 104.053 14 109.065V141.012Z" fill="#8893A7"/>
<path opacity="0.5" d="M80.8474 62.4846C80.8474 67.4959 84.9155 71.5677 89.9224 71.5677H103.498C104.28 71.5677 105.063 71.8809 105.532 72.3507L116.797 83.6263C117.11 84.0961 117.736 84.2527 118.362 83.9395C118.832 83.7829 119.301 83.1564 119.301 82.6866V46.0831C119.301 41.0717 115.233 37 110.226 37H89.9224C84.9155 37 80.8474 41.0717 80.8474 46.0831V62.4846Z" fill="#8893A7"/>
<path d="M11 137.012C11 142.023 15.0681 146.095 20.075 146.095H100.498C101.28 146.095 102.063 146.408 102.532 146.878L113.797 158.154C114.11 158.623 114.736 158.78 115.362 158.467C115.831 158.31 116.301 157.684 116.301 157.214V105.065C116.301 100.053 112.233 95.9814 107.226 95.9814H20.075C15.0681 95.9814 11 100.053 11 105.065V137.012Z" fill="white" stroke="#CACFDB" stroke-width="2" stroke-miterlimit="10"/>
<path d="M77.8474 58.4846C77.8474 63.4959 81.9155 67.5677 86.9224 67.5677H100.498C101.28 67.5677 102.063 67.8809 102.532 68.3507L113.797 79.6263C114.11 80.0961 114.736 80.2527 115.362 79.9395C115.832 79.7829 116.301 79.1564 116.301 78.6866V42.0831C116.301 37.0717 112.233 33 107.226 33H86.9224C81.9155 33 77.8474 37.0717 77.8474 42.0831V58.4846Z" fill="white" stroke="#CACFDB" stroke-width="2" stroke-miterlimit="10"/>
<path d="M96.5862 116.34H27.4287C26.8029 116.34 26.177 115.714 26.177 115.087V111.016C26.177 110.389 26.8029 109.763 27.4287 109.763H96.5862C97.2121 109.763 97.8379 110.389 97.8379 111.016V115.087C97.8379 115.87 97.3685 116.34 96.5862 116.34Z" fill="#DCE0E8"/>
<path d="M69.9872 133.41H27.4287C26.8029 133.41 26.177 132.784 26.177 132.157V128.085C26.177 127.459 26.8029 126.833 27.4287 126.833H69.9872C70.613 126.833 71.2389 127.459 71.2389 128.085V132.157C71.2389 132.94 70.7695 133.41 69.9872 133.41Z" fill="#DCE0E8"/>
<path opacity="0.5" d="M231.642 79.4659C231.642 84.0074 228.044 87.6093 223.506 87.6093H151.22C150.594 87.6093 149.811 87.9225 149.342 88.3923L139.172 98.5716C138.859 98.8849 138.233 99.0415 137.764 98.8849C137.294 98.7283 136.981 98.2584 136.981 97.7886V50.8072C136.981 46.2656 140.58 42.6637 145.117 42.6637H223.35C227.887 42.6637 231.486 46.2656 231.486 50.8072V79.4659H231.642Z" fill="#8893A7"/>
<path d="M228.642 75.4659C228.642 80.0074 225.044 83.6093 220.506 83.6093H148.22C147.594 83.6093 146.811 83.9225 146.342 84.3923L136.172 94.5716C135.859 94.8849 135.233 95.0415 134.764 94.8849C134.294 94.7283 133.981 94.2584 133.981 93.7886V46.8072C133.981 42.2656 137.58 38.6637 142.117 38.6637H220.35C224.887 38.6637 228.486 42.2656 228.486 46.8072V75.4659H228.642Z" fill="white" stroke="#CACFDB" stroke-width="2" stroke-miterlimit="10"/>
<path d="M212.526 56.9865H150.41C149.784 56.9865 149.314 56.5167 149.314 55.8903V52.1318C149.314 51.5053 149.784 51.0355 150.41 51.0355H212.526C213.152 51.0355 213.622 51.5053 213.622 52.1318V55.8903C213.622 56.5167 213.152 56.9865 212.526 56.9865Z" fill="#DCE0E8"/>
<path d="M188.744 72.3338H150.41C149.784 72.3338 149.314 71.864 149.314 71.2376V67.479C149.314 66.8526 149.784 66.3828 150.41 66.3828H188.744C189.369 66.3828 189.839 66.8526 189.839 67.479V71.2376C189.839 71.7074 189.213 72.3338 188.744 72.3338Z" fill="#DCE0E8"/>
<path d="M97.107 40.1965C91.5034 40.1965 87.0022 44.7437 87.0022 50.3014C87.0022 55.859 91.5494 60.4062 97.107 60.4062C102.665 60.4062 107.212 55.905 107.212 50.3014C107.212 44.7437 102.711 40.2425 97.107 40.1965ZM100.965 45.2949C101.884 45.2949 102.619 46.0298 102.619 46.9484C102.619 47.867 101.884 48.6019 100.965 48.6019C100.047 48.6019 99.3117 47.867 99.3117 46.9484C99.3117 46.0298 100.047 45.2949 100.965 45.2949ZM93.2948 45.249C94.2134 45.249 94.9483 45.9838 94.9483 46.9025C94.9483 47.8211 94.2134 48.556 93.2948 48.556C92.3761 48.556 91.6412 47.8211 91.6412 46.9025C91.6412 46.0298 92.3761 45.249 93.2948 45.249ZM102.94 52.6439C101.7 55.859 98.1175 57.4666 94.9023 56.2724C93.2488 55.6294 91.9168 54.2974 91.2738 52.6439C91.136 52.2305 91.3197 51.8171 91.7331 51.6793C91.825 51.6334 91.9168 51.6334 92.0087 51.6334H102.205C102.619 51.6334 102.986 52.0008 102.986 52.4142C102.986 52.4601 102.986 52.552 102.94 52.6439Z" fill="#CACFDB"/>
<defs>
<linearGradient id="paint0_linear_3191_18913" x1="90.8564" y1="191.338" x2="90.8564" y2="189.451" gradientUnits="userSpaceOnUse">
<stop stop-color="white"/>
<stop offset="0.9913" stop-color="#D6DEEA"/>
</linearGradient>
<linearGradient id="paint1_linear_3191_18913" x1="160.868" y1="129.538" x2="160.868" y2="126.01" gradientUnits="userSpaceOnUse">
<stop stop-color="white"/>
<stop offset="0.9913" stop-color="#D6DEEA"/>
</linearGradient>
</defs>
</svg>
