<svg width="16" height="16" viewBox="0 0 16 16" fill="none" xmlns="http://www.w3.org/2000/svg">
<path fill-rule="evenodd" clip-rule="evenodd" d="M0 8.00008C0 8.73646 0.596954 9.33341 1.33333 9.33341C2.06971 9.33341 2.66667 8.73646 2.66667 8.00008C2.66667 7.2637 2.06971 6.66675 1.33333 6.66675C0.596954 6.66675 0 7.2637 0 8.00008ZM6.66667 8.00008C6.66667 8.73646 7.26362 9.33341 8 9.33341C8.73638 9.33341 9.33333 8.73646 9.33333 8.00008C9.33333 7.2637 8.73638 6.66675 8 6.66675C7.26362 6.66675 6.66667 7.2637 6.66667 8.00008ZM14.6667 9.33341C13.9303 9.33341 13.3333 8.73646 13.3333 8.00008C13.3333 7.2637 13.9303 6.66675 14.6667 6.66675C15.403 6.66675 16 7.2637 16 8.00008C16 8.73646 15.403 9.33341 14.6667 9.33341Z"/>
</svg>
