<svg width="16" height="16" viewBox="0 0 16 16" fill="none" xmlns="http://www.w3.org/2000/svg">
<path fill-rule="evenodd" clip-rule="evenodd" d="M8 0C12.4183 0 16 3.58172 16 8C16 12.4183 12.4183 16 8 16C3.58172 16 0 12.4183 0 8C0 3.58172 3.58172 0 8 0ZM10.2275 3.85905C9.54001 3.36886 8.76501 3.19999 7.78251 3.19999C7.03751 3.19999 6.40001 3.34306 5.89501 3.66204C5.15001 4.13816 4.80001 4.93795 4.80001 6.20212H6.72001C6.72001 5.86438 6.68501 5.50084 6.89501 5.1889C7.10501 4.87696 7.39751 4.63773 7.90001 4.63773C8.41001 4.63773 8.67251 4.77611 8.92001 5.06225C9.13001 5.30618 9.21001 5.59701 9.21001 5.9066C9.21001 6.17398 9.06501 6.42025 8.89251 6.64306C8.79751 6.77441 8.67251 6.89168 8.51501 7.00426C8.51501 7.00426 7.47751 7.58357 7.11251 8.1324C6.84001 8.5405 6.74251 9.0518 6.72001 9.66396C6.71751 9.70852 6.73501 9.79999 6.90001 9.79999H8.44501C8.59001 9.79999 8.62001 9.69679 8.62251 9.65458C8.63251 9.43176 8.66251 9.08933 8.70501 8.96033C8.78751 8.71641 8.94751 8.50298 9.19751 8.32003L9.71501 7.98464C10.1825 7.64221 10.555 7.36311 10.72 7.14264C11.0025 6.78144 11.2 6.33581 11.2 5.80809C11.2 4.94733 10.8625 4.31172 10.2275 3.85905ZM8.02988 10.4007C7.32636 10.38 6.74508 10.8452 6.72063 11.5716C6.6989 12.3005 7.25031 12.7786 7.95654 12.7993C8.68994 12.82 9.25764 12.3703 9.27937 11.6439C9.3011 10.9176 8.76328 10.4213 8.02988 10.4007Z" fill="#8893A7"/>
</svg>
