<svg width="16" height="16" viewBox="0 0 16 16" fill="none" xmlns="http://www.w3.org/2000/svg">
<path fill-rule="evenodd" clip-rule="evenodd" d="M13 0H2.33334V1.33333H13V0ZM2.33334 16H13V14.6667H2.33334V16ZM13 2.66667H2.33333C1.6 2.66667 1 3.26667 1 4V12C1 12.7333 1.6 13.3333 2.33333 13.3333H13C13.7333 13.3333 14.3333 12.7333 14.3333 12V4C14.3333 3.26667 13.7333 2.66667 13 2.66667ZM7.66666 4.5C8.49333 4.5 9.16666 5.17333 9.16666 6C9.16666 6.82667 8.49333 7.5 7.66666 7.5C6.84 7.5 6.16666 6.82667 6.16666 6C6.16666 5.17333 6.84 4.5 7.66666 4.5ZM11 11.3333H4.33334V10.3333C4.33334 9.22 6.55334 8.66667 7.66667 8.66667C8.78 8.66667 11 9.22 11 10.3333V11.3333Z" fill="#8893A7"/>
</svg>
