<svg width="16" height="16" viewBox="0 0 16 16" fill="none" xmlns="http://www.w3.org/2000/svg">
<path fill-rule="evenodd" clip-rule="evenodd" d="M10.1818 7.81818C11.7891 7.81818 13.0909 6.51636 13.0909 4.90909C13.0909 3.30182 11.7891 2 10.1818 2C8.57456 2 7.27274 3.30182 7.27274 4.90909C7.27274 6.51636 8.57456 7.81818 10.1818 7.81818ZM2.37627 9.46746L0 7.09119L1.02852 6.06267L2.37656 7.41071L4.87818 4.90909L5.9067 5.93761L2.37684 9.46746H2.37627ZM10.1818 9.27273C12.1236 9.27273 16 10.2473 16 12.1818V13.6364H4.36365V12.1818C4.36365 10.2473 8.24001 9.27273 10.1818 9.27273Z" fill="#8893A7"/>
</svg>
