<svg width="16" height="16" viewBox="0 0 16 16" fill="none" xmlns="http://www.w3.org/2000/svg">
<path fill-rule="evenodd" clip-rule="evenodd" d="M11.4331 0L15 3.33527V14.5455C15 15.3476 14.3023 16 13.4444 16H2.55556C1.69767 16 1 15.3476 1 14.5455V1.45455C1 0.653091 1.69767 0 2.55556 0H11.4331ZM3 13C3 13.5523 3.44772 14 4 14H12C12.5523 14 13 13.5523 13 13V5.0303H10V2H4C3.44772 2 3 2.44772 3 3V13ZM7.54545 5.81818C9.55418 5.81818 11.1818 7.44582 11.1818 9.45455H7.54545V5.81818ZM6.09092 6.54545V10.7091H10.2546C9.80292 11.9775 8.6051 12.8909 7.18183 12.8909C5.37455 12.8909 3.9091 11.4262 3.9091 9.61818C3.9091 8.19564 4.82255 6.99636 6.09092 6.54545Z" fill="#8893A7"/>
</svg>
