<svg width="16" height="16" viewBox="0 0 16 16" fill="none" xmlns="http://www.w3.org/2000/svg">
<path fill-rule="evenodd" clip-rule="evenodd" d="M8 4.11111V1H0V15H16V4.11111H8ZM3.20001 13.4444H1.60001V11.8889H3.20001V13.4444ZM3.20001 10.3333H1.60001V8.77778H3.20001V10.3333ZM3.20001 7.22222H1.60001V5.66667H3.20001V7.22222ZM3.20001 4.11111H1.60001V2.55555H3.20001V4.11111ZM6.40001 13.4444H4.80001V11.8889H6.40001V13.4444ZM6.40001 10.3333H4.80001V8.77778H6.40001V10.3333ZM6.40001 7.22222H4.80001V5.66667H6.40001V7.22222ZM6.40001 4.11111H4.80001V2.55555H6.40001V4.11111ZM14.4 13.4444H8V11.8889H9.6V10.3333H8V8.77778H9.6V7.22222H8V5.66667H14.4V13.4444ZM12.8 7.22222H11.2V8.77778H12.8V7.22222ZM12.8 10.3333H11.2V11.8889H12.8V10.3333Z" fill="#8893A7"/>
</svg>
