<svg width="16" height="16" viewBox="0 0 16 16" fill="none" xmlns="http://www.w3.org/2000/svg">
<path fill-rule="evenodd" clip-rule="evenodd" d="M13 13H13.4375C13.7484 13 14 13.2516 14 13.5625C14 13.8734 13.7484 14.125 13.4375 14.125H9.125V14.875C9.125 15.4969 8.62187 16 8 16C7.37813 16 6.875 15.4969 6.875 14.875V14.125H2.5625C2.25156 14.125 2 13.8734 2 13.5625C2 13.2516 2.25156 13 2.5625 13H3V6C3 3.42812 4.94062 1.31094 7.4375 1.03125V0.5625C7.4375 0.251563 7.68906 0 8 0C8.31094 0 8.5625 0.251563 8.5625 0.5625V1.03125C11.0594 1.31094 13 3.42812 13 6V13ZM4.125 6V13H11.875V6C11.875 3.85938 10.1406 2.125 8 2.125C5.85938 2.125 4.125 3.85938 4.125 6Z" fill="#8893A7"/>
</svg>
