<svg width="16" height="16" viewBox="0 0 16 16" fill="none" xmlns="http://www.w3.org/2000/svg">
<path fill-rule="evenodd" clip-rule="evenodd" d="M14.7143 0H1.28571C0.575 0 0 0.575 0 1.28571V10.2857C0 10.6411 0.2875 10.9286 0.642858 10.9286C0.998215 10.9286 1.28571 10.6411 1.28571 10.2857V1.28571H14.7143V14.7143H5.71429C5.35893 14.7143 5.07143 15.0018 5.07143 15.3571C5.07143 15.7125 5.35893 16 5.71429 16H14.7143C15.425 16 16 15.425 16 14.7143V1.28571C16 0.575 15.425 0 14.7143 0ZM3.97679 7.40536L5.83036 9.25893L2.47321 12.6161C2.22143 12.8661 2.22143 13.2732 2.47321 13.525C2.6 13.65 2.7625 13.7125 2.92857 13.7125C3.09464 13.7125 3.25893 13.65 3.38393 13.525L6.74107 10.1679L8.59464 12.0214C8.79643 12.225 9.14286 12.0804 9.14286 11.7946V7.5C9.14286 7.14464 8.85536 6.85714 8.5 6.85714H4.20357C3.91786 6.85714 3.775 7.20357 3.97679 7.40536Z"/>
</svg>
