<svg width="17" height="16" viewBox="0 0 17 16" fill="none" xmlns="http://www.w3.org/2000/svg">
<path fill-rule="evenodd" clip-rule="evenodd" d="M8.5 0C4.08125 0 0.5 3.58125 0.5 8C0.5 12.4187 4.08125 16 8.5 16C12.9187 16 16.5 12.4187 16.5 8C16.5 3.58125 12.9187 0 8.5 0ZM8.5 1.125C9.42813 1.125 10.3281 1.30625 11.175 1.66406C11.9938 2.01094 12.7281 2.50625 13.3609 3.1375C13.9922 3.76875 14.4891 4.50469 14.8344 5.32344C15.1938 6.17188 15.375 7.07188 15.375 8C15.375 8.92813 15.1938 9.82812 14.8359 10.675C14.4891 11.4938 13.9938 12.2281 13.3625 12.8609C12.7312 13.4922 11.9953 13.9891 11.1766 14.3344C10.3281 14.6938 9.42813 14.875 8.5 14.875C7.57188 14.875 6.67188 14.6938 5.825 14.3359C5.00625 13.9891 4.27187 13.4938 3.63906 12.8625C3.00781 12.2312 2.51094 11.4953 2.16562 10.6766C1.80625 9.82812 1.625 8.92813 1.625 8C1.625 7.07188 1.80625 6.17188 2.16406 5.325C2.51094 4.50625 3.00625 3.77187 3.6375 3.13906C4.26875 2.50781 5.00469 2.01094 5.82344 1.66562C6.67188 1.30625 7.57188 1.125 8.5 1.125ZM8.08906 10.9609C8.19531 11.075 8.34375 11.1391 8.5 11.1391C8.65625 11.1391 8.80469 11.075 8.90938 10.9625L12.3625 7.27812C12.575 7.05156 12.5641 6.69531 12.3375 6.48281C12.1109 6.27031 11.7547 6.28125 11.5422 6.50781L8.5 9.75313L5.45625 6.50625C5.24375 6.27969 4.8875 6.26875 4.66094 6.48125C4.43438 6.69375 4.42344 7.05 4.63594 7.27656L8.08906 10.9609Z" fill="#8893A7"/>
</svg>
