<svg width="17" height="16" viewBox="0 0 17 16" fill="none" xmlns="http://www.w3.org/2000/svg">
<path fill-rule="evenodd" clip-rule="evenodd" d="M13.2575 6.75128C13.716 6.95257 14.1305 7.23224 14.4954 7.58673C15.2914 8.35627 15.7279 9.37876 15.7334 10.4636V13.3992C15.7334 14.2917 14.9851 15.0167 14.0681 15.0167H9.52514C9.2647 15.6081 8.66129 16 7.99369 16H2.93169C2.01282 16 1.26636 15.2732 1.26636 14.3825V11.4487C1.26636 10.3638 1.7047 9.34135 2.49885 8.57003C2.86199 8.21554 3.27832 7.93587 3.73684 7.73458C3.20496 7.46025 2.75011 7.0648 2.40898 6.57671C1.99265 5.98174 1.77256 5.28702 1.77256 4.56558C1.77256 2.59007 3.42688 0.9833 5.46086 0.9833C6.49527 0.9833 7.46548 1.39835 8.16243 2.12692C8.4302 1.53908 8.8557 1.03496 9.40042 0.659096C10.0258 0.228012 10.7631 0 11.5334 0C13.5674 0 15.2217 1.60677 15.2217 3.58228C15.2217 4.3055 15.0016 5.00022 14.5853 5.59519C14.2442 6.08328 13.7893 6.47873 13.2575 6.75128ZM11.5334 1.26653C10.8952 1.26653 10.2973 1.50701 9.84793 1.94522C9.39675 2.38165 9.14915 2.96237 9.14915 3.58228C9.14915 4.20218 9.39675 4.7829 9.84793 5.21933C10.2973 5.65754 10.8952 5.89802 11.5334 5.89802C12.1717 5.89802 12.7696 5.65754 13.2189 5.21933C13.6683 4.7829 13.9177 4.20218 13.9177 3.58228C13.9177 2.96237 13.6701 2.38165 13.2189 1.94522C12.7696 1.50701 12.1717 1.26653 11.5334 1.26653ZM3.07474 4.56558C3.07474 3.94567 3.32234 3.36495 3.77352 2.92852C4.22286 2.49031 4.82077 2.24983 5.45902 2.24983C6.09727 2.24983 6.69518 2.49031 7.14452 2.92852C7.5957 3.36673 7.8433 3.94745 7.8433 4.56558C7.8433 5.18548 7.5957 5.7662 7.14452 6.20263C6.69518 6.64084 6.09727 6.88132 5.45902 6.88132C4.8226 6.88132 4.22286 6.64084 3.77169 6.20263C3.32234 5.7662 3.07474 5.1837 3.07474 4.56558ZM8.24313 14.6266C8.31282 14.5607 8.3495 14.4734 8.3495 14.3808V11.4487C8.3495 10.7165 8.05789 10.0236 7.52968 9.49633L7.52417 9.4892C7.51868 9.48208 7.50951 9.47318 7.50035 9.46428L7.50034 9.46427L7.50033 9.46426C6.95195 8.93164 6.22749 8.6395 5.45902 8.6395C4.69055 8.6395 3.9661 8.93164 3.41771 9.46426C2.86933 9.99688 2.56854 10.7005 2.56854 11.4469V14.3808C2.56854 14.5731 2.72994 14.7299 2.92802 14.7299H7.99003C8.0854 14.7299 8.17527 14.6925 8.24313 14.6266ZM8.02671 8.22979C7.76444 8.03028 7.48199 7.86462 7.18304 7.7328C7.91116 7.35694 8.49439 6.75306 8.83003 6.02093C9.11247 6.31485 9.4426 6.56246 9.80758 6.7495C9.34907 6.95079 8.93273 7.23224 8.56959 7.58495C8.36601 7.78446 8.18444 8 8.02671 8.22979ZM14.0644 13.7484C14.2625 13.7484 14.4239 13.5916 14.4239 13.3992V10.4636C14.4239 9.71721 14.1231 9.01358 13.5747 8.48096C13.0264 7.94834 12.3019 7.6562 11.5334 7.6562C10.765 7.6562 10.0387 7.95012 9.49212 8.48274C9.27387 8.69294 9.09413 8.93342 8.95474 9.19884C9.41326 9.86506 9.65535 10.6399 9.65535 11.4469V13.7484H14.0644Z" fill="#8893A7"/>
</svg>
