<svg width="16" height="16" viewBox="0 0 16 16" fill="none" xmlns="http://www.w3.org/2000/svg">
<path fill-rule="evenodd" clip-rule="evenodd" d="M12.2179 11.1343C12.7655 11.6819 13.1968 12.3208 13.4974 13.0312C13.8088 13.7685 13.9663 14.5487 13.9699 15.3558C13.9699 15.7119 13.6818 16 13.3257 16C12.9695 16 12.6814 15.7119 12.6814 15.3558C12.6814 14.1049 12.1947 12.9292 11.3107 12.0452C10.4266 11.1612 9.25094 10.6744 8.00008 10.6744C6.74921 10.6744 5.5735 11.1612 4.68948 12.0452C3.80547 12.9292 3.31872 14.1049 3.31872 15.3558C3.31872 15.7119 3.03061 16 2.6745 16C2.31838 16 2.03027 15.7119 2.03027 15.3558C2.03027 14.5487 2.18775 13.7685 2.49912 13.0312C2.79976 12.3208 3.23103 11.6819 3.77862 11.1343C4.32621 10.5867 4.96507 10.1555 5.6755 9.85483C5.91709 9.75103 6.16583 9.66693 6.41636 9.59714C5.70771 9.35734 5.05812 8.95649 4.51411 8.41248C3.58178 7.48194 3.06998 6.2436 3.06998 4.92831C3.06998 3.61302 3.58357 2.37468 4.51411 1.44413C5.44466 0.5118 6.683 0 7.99829 0C9.31357 0 10.5519 0.513589 11.4825 1.44413C12.4148 2.37468 12.9266 3.61302 12.9266 4.92831C12.9266 6.2436 12.413 7.48194 11.4825 8.41248C10.9384 8.95649 10.2889 9.35734 9.58021 9.59714C9.83074 9.66693 10.0795 9.75282 10.3211 9.85483C11.0315 10.1555 11.6704 10.5867 12.2179 11.1343ZM7.9965 1.28845C5.99046 1.28845 4.35664 2.92048 4.35664 4.92831C4.35664 6.93435 5.98867 8.56817 7.9965 8.56817C10.0043 8.56817 11.6364 6.93614 11.6364 4.92831C11.6364 2.92048 10.0025 1.28845 7.9965 1.28845Z" fill="#8893A7"/>
</svg>
