<svg width="16" height="16" viewBox="0 0 16 16" fill="none" xmlns="http://www.w3.org/2000/svg">
<path fill-rule="evenodd" clip-rule="evenodd" d="M7.48298 0C9.69264 0 11.4843 1.79524 11.4843 4.01027C11.4843 6.2253 9.69264 8.02054 7.48298 8.02054C5.27331 8.02054 3.48163 6.2253 3.48163 4.01027C3.48163 1.79524 5.27331 0 7.48298 0ZM15.3763 11.8308L14.4959 10.9374L11.2734 14.2132L9.50667 12.4264L8.62621 13.3198L11.2734 16L15.3763 11.8308ZM7.48297 6.73083C5.98426 6.73083 4.76778 5.51256 4.76778 4.01027C4.76778 2.50798 5.98426 1.28972 7.48297 1.28972C8.98169 1.28972 10.1982 2.50798 10.1982 4.01027C10.1982 5.51256 8.98169 6.73083 7.48297 6.73083ZM7.48297 8.02054C8.86737 8.02054 10.1553 8.43139 11.2342 9.13877C10.5929 9.17807 9.99453 9.36921 9.46935 9.67645C8.85308 9.43887 8.18321 9.31026 7.48297 9.31026C4.40516 9.31026 1.90968 11.8111 1.90968 14.8961H1.90789C1.90968 14.9086 1.90968 14.9193 1.90968 14.9318C1.90968 15.2873 1.62208 15.5766 1.26661 15.5766C0.911131 15.5766 0.623535 15.2873 0.623535 14.9318C0.623535 14.9255 0.623982 14.9197 0.624428 14.9139C0.624875 14.9081 0.625321 14.9023 0.625321 14.8961H0.623535C0.623535 11.0984 3.69421 8.02054 7.48297 8.02054Z" fill="#8893A7"/>
</svg>
