<svg width="16" height="16" viewBox="0 0 16 16" fill="none" xmlns="http://www.w3.org/2000/svg">
<path fill-rule="evenodd" clip-rule="evenodd" d="M8.00006 0C10.2097 0 12.0014 1.79524 12.0014 4.01027C12.0014 6.2253 10.2097 8.02054 8.00006 8.02054C5.7904 8.02054 3.99872 6.2253 3.99872 4.01027C3.99872 1.79524 5.7904 0 8.00006 0ZM12.6463 12.497H14.2146C14.5701 12.497 14.8595 12.7846 14.8595 13.1419C14.8595 13.4974 14.5701 13.7868 14.2146 13.7868H12.6463V15.3551C12.6463 15.7106 12.3569 16 12.0014 16C11.6459 16 11.3565 15.7106 11.3565 15.3551V13.7868H9.78816C9.43269 13.7868 9.1433 13.4974 9.1433 13.1419C9.1433 12.7864 9.43269 12.497 9.78816 12.497H11.3565V10.9287C11.3565 10.5732 11.6459 10.2838 12.0014 10.2838C12.3569 10.2838 12.6463 10.5732 12.6463 10.9287V12.497ZM8.00006 6.73083C6.50135 6.73083 5.28487 5.51256 5.28487 4.01027C5.28487 2.50798 6.50135 1.28972 8.00006 1.28972C9.49878 1.28972 10.7153 2.50798 10.7153 4.01027C10.7153 5.51256 9.49878 6.73083 8.00006 6.73083ZM8.00006 8.02054C9.38446 8.02054 10.6724 8.43139 11.7513 9.13877C11.11 9.17807 10.5116 9.36921 9.98644 9.67645C9.37017 9.43887 8.7003 9.31026 8.00006 9.31026C4.92225 9.31026 2.42677 11.8111 2.42677 14.8961H2.42498C2.42677 14.9086 2.42677 14.9193 2.42677 14.9318C2.42677 15.2873 2.13917 15.5766 1.7837 15.5766C1.42822 15.5766 1.14062 15.2873 1.14062 14.9318C1.14062 14.9255 1.14107 14.9197 1.14152 14.9139C1.14196 14.9081 1.14241 14.9023 1.14241 14.8961H1.14062C1.14062 11.0984 4.2113 8.02054 8.00006 8.02054Z" fill="#8893A7"/>
</svg>
