<svg width="16" height="17" viewBox="0 0 16 17" fill="none" xmlns="http://www.w3.org/2000/svg">
<path fill-rule="evenodd" clip-rule="evenodd" d="M12.8282 0C13.8108 0 14.5603 0.961252 15.1032 1.79968C16.0538 3.26826 16.2531 5.08751 15.6799 7.0652C15.4165 7.96949 14.9946 8.88802 14.425 9.79231C13.8589 10.6877 13.1647 11.551 12.3583 12.3574C10.0424 14.6733 7.33486 16.0031 4.92817 16.0031C3.76755 16.0031 2.71373 15.7022 1.79698 15.1077C1.01552 14.6003 0.104109 13.9025 0.00798403 12.9876C-0.0258378 12.66 0.0311253 12.1705 0.508191 11.6934C0.85531 11.3446 1.3929 10.8443 1.97321 10.4438C2.65855 9.97032 3.23886 9.74068 3.74797 9.74068C3.90461 9.74068 4.05592 9.76383 4.20189 9.80833C4.57215 9.92225 4.92817 10.264 5.57968 10.9049C5.87162 11.1932 6.16 11.4763 6.31664 11.5884C6.33444 11.6009 6.37005 11.624 6.45015 11.624C6.61036 11.624 6.98774 11.5439 7.72826 11.0081C8.31925 10.5791 8.94941 9.9988 9.48699 9.48791C10.1171 8.82394 10.8185 8.05493 11.2386 7.38918C11.5608 6.88007 11.6943 6.47065 11.5875 6.31934C11.4748 6.16082 11.1808 5.86286 10.9194 5.59793L10.9111 5.5895L10.904 5.58238C10.2791 4.95223 9.92134 4.57663 9.80563 4.20459C9.62584 3.63674 9.79495 2.96386 10.3236 2.14858C10.7455 1.49706 11.3009 0.895388 11.6925 0.505547C12.1109 0.0872247 12.5416 0 12.8282 0ZM13.3551 9.11587C13.8625 8.31127 14.2363 7.50132 14.4659 6.71096C14.7045 5.89034 14.7863 5.1071 14.7134 4.3826C14.6386 3.68658 14.4143 3.0493 14.0494 2.48501C13.8482 2.17706 13.5794 1.79078 13.2964 1.5291C13.1148 1.35999 12.9457 1.26387 12.8336 1.26387C12.7642 1.26387 12.6787 1.31015 12.5879 1.40094L12.5861 1.40272C12.2372 1.75339 11.7442 2.28742 11.3881 2.83747C11.057 3.34836 10.9752 3.6759 11.0108 3.81653C11.025 3.84323 11.0677 3.90909 11.1745 4.0337C11.3169 4.19925 11.5216 4.4093 11.8047 4.69411L11.8438 4.73505C12.2123 5.10709 12.4651 5.36877 12.6217 5.5895C12.7588 5.78531 12.9155 6.11285 12.887 6.57211C12.8745 6.78039 12.8265 6.99222 12.7428 7.22007C12.6449 7.4853 12.4989 7.77012 12.3084 8.06917C11.826 8.82928 11.1069 9.62142 10.402 10.3637L10.377 10.3904L10.3592 10.4064C9.78961 10.9476 9.11852 11.5653 8.47056 12.0352C8.06826 12.3254 7.71046 12.5372 7.37758 12.6796C7.04292 12.822 6.74031 12.8915 6.45193 12.8915C6.13863 12.8915 5.85204 12.8042 5.60283 12.6351L5.5779 12.6173C5.36429 12.4625 5.10084 12.2115 4.68964 11.8038C4.39948 11.519 4.19655 11.3214 4.02744 11.1754C3.90105 11.0669 3.83519 11.0259 3.81383 11.0135C3.79781 11.0099 3.77645 11.0063 3.74619 11.0063C3.6109 11.0063 3.29404 11.0686 2.69059 11.4852C2.29363 11.7575 1.84682 12.1403 1.39824 12.5888C1.25081 12.7345 1.25935 12.8199 1.26293 12.8556L1.26295 12.8559C1.27007 12.9253 1.31991 13.0837 1.56557 13.3365C1.82546 13.6071 2.19216 13.858 2.48232 14.0467C3.1908 14.506 4.0132 14.7392 4.92639 14.7392C5.41948 14.7392 5.93748 14.6698 6.46973 14.5327C7.01444 14.3921 7.57161 14.1838 8.12522 13.9114C8.69129 13.6338 9.26092 13.2866 9.81631 12.8808C10.3842 12.4642 10.9396 11.9872 11.4647 11.462C12.2052 10.7215 12.8425 9.93116 13.3551 9.11587Z" fill="#8893A7"/>
</svg>
