<svg width="18" height="16" viewBox="0 0 18 16" fill="none" xmlns="http://www.w3.org/2000/svg">
<path fill-rule="evenodd" clip-rule="evenodd" d="M5.10159 0.17547C5.21976 0.0572963 5.37375 0 5.52594 0C5.71932 0 5.90911 0.0931065 6.02549 0.270367C6.41224 0.866607 6.59488 1.55595 6.57339 2.24172L10.4122 5.28559C11.0658 5.07252 11.7444 4.96509 12.4248 4.96509C13.859 4.96509 15.295 5.44136 16.4731 6.39212C16.756 6.6231 16.7811 7.04745 16.5233 7.30528L12.8348 11.0081L16.833 15.0045C17.0604 15.2319 17.0604 15.6025 16.833 15.8299C16.7202 15.9427 16.5698 16 16.4212 16C16.2726 16 16.124 15.9445 16.0094 15.8299L12.013 11.8335L8.32451 15.5363C8.20275 15.658 8.04698 15.7171 7.88941 15.7171C7.71215 15.7171 7.53489 15.6401 7.41135 15.4897C5.99685 13.7511 5.62263 11.4485 6.2887 9.40913L3.24483 5.57028C3.20902 5.57207 3.17321 5.57207 3.1374 5.57207C2.48565 5.57207 1.83391 5.38765 1.26632 5.0188C0.947606 4.8111 0.904634 4.36347 1.17321 4.0949L5.10159 0.17547ZM5.28422 2.20233C5.2878 2.07878 5.28064 1.95524 5.26453 1.83527L2.83301 4.26321C2.93328 4.27753 3.03534 4.28469 3.1374 4.28469C3.14814 4.28469 3.15933 4.28424 3.17052 4.2838C3.18172 4.28335 3.19291 4.2829 3.20365 4.2829L3.85181 4.26321L4.25468 4.76992L7.29855 8.60877L7.72827 9.1513L7.51341 9.81021C7.24841 10.6213 7.18753 11.4951 7.33794 12.3366C7.44716 12.9436 7.6656 13.5291 7.97894 14.0573L11.0139 11.0098L11.2413 10.7807L12.0094 10.009L15.0407 6.96509C14.7489 6.79499 14.4409 6.65175 14.1204 6.54073C13.5743 6.35273 13.0031 6.25604 12.423 6.25604C11.8733 6.25604 11.3308 6.34199 10.8115 6.51209L10.1526 6.72695L9.6101 6.29722L5.77124 3.25336L5.26453 2.85049L5.28422 2.20233Z"/>
</svg>
