<svg width="16" height="17" viewBox="0 0 16 17" fill="none" xmlns="http://www.w3.org/2000/svg">
<path fill-rule="evenodd" clip-rule="evenodd" d="M1.28428 0.0090332H14.7157C15.4239 0.0090332 16 0.585176 16 1.29331V7.35797C16 7.71293 15.7128 8.00011 15.3579 8.00011C15.0029 8.00011 14.7157 7.71293 14.7157 7.35797V1.29331H1.28428V14.7069H6.22519C6.58016 14.7069 6.86734 14.9941 6.86734 15.3491C6.86734 15.704 6.58016 15.9912 6.22519 15.9912H1.28428C0.576143 15.9912 0 15.4151 0 14.7069V1.29331C0 0.585176 0.576143 0.0090332 1.28428 0.0090332ZM8.50836 4.71806H2.94314C2.58818 4.71806 2.301 4.43088 2.301 4.07592C2.301 3.72096 2.58818 3.43378 2.94314 3.43378H8.50836C8.86332 3.43378 9.1505 3.72096 9.1505 4.07592C9.1505 4.43088 8.86332 4.71806 8.50836 4.71806ZM2.94314 6.85853H6.22519C6.58016 6.85853 6.86734 7.14571 6.86734 7.50067C6.86734 7.85563 6.58016 8.14281 6.22519 8.14281H2.94314C2.58818 8.14281 2.301 7.85563 2.301 7.50067C2.301 7.14571 2.58818 6.85853 2.94314 6.85853ZM6.22519 10.2833H2.94314C2.58818 10.2833 2.301 10.5705 2.301 10.9254C2.301 11.2804 2.58818 11.5676 2.94314 11.5676H6.22519C6.58016 11.5676 6.86734 11.2804 6.86734 10.9254C6.86734 10.5705 6.58016 10.2833 6.22519 10.2833Z" fill="#8893A7"/>
<path d="M14.8697 11L15.7501 11.8934L11.6472 16.0626L9 13.3824L9.88045 12.489L11.6472 14.2758L14.8697 11Z" fill="#8893A7"/>
</svg>
