<svg width="37" height="40" viewBox="0 0 37 40" fill="none" xmlns="http://www.w3.org/2000/svg">
<g filter="url(#filter0_dd_730_2627)">
<path fill-rule="evenodd" clip-rule="evenodd" d="M14.75 22.5L8.75 13.5L11 12L13.25 12.75V1.5H16.25L17.75 8.25H20L26.75 9.75L28.25 11.25L27.5 17.25L26 22.5H14.75Z" fill="white"/>
<path d="M24.9005 8.81981C24.082 7.4843 22.3556 7.08248 21.0502 7.8967C20.3019 6.92025 19.05 6.57117 17.9509 6.94116V2.82422C17.9509 1.26694 16.6952 0 15.1518 0C13.6084 0 12.3527 1.26694 12.3527 2.82422V11.3509C11.3993 10.71 10.1225 10.6998 9.14694 11.4199C7.90213 12.3389 7.62969 14.0955 8.53138 15.3539L13.8878 22.8305C14.4126 23.5628 15.2606 24 16.1563 24H24.8616C26.1607 24 27.2912 23.0956 27.5871 21.819L28.9264 16.0417C28.9753 15.8307 29 15.6149 29 15.3984V11.3203C29 9.19378 26.7495 7.83689 24.9005 8.81981ZM11.8483 12.9182L13.1729 14.7669C13.1729 14.929 13.2772 15.0727 13.4312 15.1231C13.5853 15.1735 13.7543 15.1192 13.8502 14.9885C13.9461 14.8578 13.9471 14.6803 13.8527 14.5485V2.82422C13.8527 1.07344 16.4509 1.07062 16.4509 2.82422V11.3203C16.4509 11.5274 16.6188 11.6953 16.8259 11.6953H17.1608C17.3679 11.6953 17.5358 11.5274 17.5358 11.3203V9.62109C17.5358 7.87031 20.134 7.8675 20.134 9.62109V11.3203C20.134 11.5274 20.3019 11.6953 20.509 11.6953H20.8438C21.0509 11.6953 21.2188 11.5274 21.2188 11.3203V10.3008C21.2188 8.54995 23.817 8.54728 23.817 10.3008V11.3203C23.817 11.5274 23.9849 11.6953 24.192 11.6953H24.5268C24.7339 11.6953 24.9018 11.5274 24.9018 11.3203C24.9018 9.56953 27.5 9.56672 27.5 11.3203V15.3984C27.5 15.5009 27.4883 15.6033 27.4653 15.7029L26.1259 21.4803C25.9867 22.0807 25.4668 22.5 24.8616 22.5H16.1563C15.7431 22.5 15.3509 22.2969 15.1071 21.9568L9.75013 14.4803C8.70889 13.0269 10.8658 11.547 11.8483 12.9182ZM16.4509 18.7969V14.7188C16.4509 14.5116 16.6188 14.3438 16.8259 14.3438H17.1607C17.3678 14.3438 17.5357 14.5116 17.5357 14.7188V18.7969C17.5357 19.004 17.3678 19.1719 17.1607 19.1719H16.8259C16.6188 19.1719 16.4509 19.004 16.4509 18.7969ZM20.1339 18.7969V14.7188C20.1339 14.5116 20.3018 14.3438 20.5089 14.3438H20.8438C21.0509 14.3438 21.2188 14.5116 21.2188 14.7188V18.7969C21.2188 19.004 21.0509 19.1719 20.8438 19.1719H20.5089C20.3018 19.1719 20.1339 19.004 20.1339 18.7969ZM23.817 18.7969V14.7188C23.817 14.5116 23.9849 14.3438 24.192 14.3438H24.5268C24.7339 14.3438 24.9018 14.5116 24.9018 14.7188V18.7969C24.9018 19.004 24.7339 19.1719 24.5268 19.1719H24.192C23.9849 19.1719 23.817 19.004 23.817 18.7969Z" fill="black"/>
</g>
<defs>
<filter id="filter0_dd_730_2627" x="0" y="0" width="37" height="40" filterUnits="userSpaceOnUse" color-interpolation-filters="sRGB">
<feFlood flood-opacity="0" result="BackgroundImageFix"/>
<feColorMatrix in="SourceAlpha" type="matrix" values="0 0 0 0 0 0 0 0 0 0 0 0 0 0 0 0 0 0 127 0" result="hardAlpha"/>
<feOffset dy="8"/>
<feGaussianBlur stdDeviation="4"/>
<feColorMatrix type="matrix" values="0 0 0 0 0 0 0 0 0 0 0 0 0 0 0 0 0 0 0.2 0"/>
<feBlend mode="normal" in2="BackgroundImageFix" result="effect1_dropShadow_730_2627"/>
<feColorMatrix in="SourceAlpha" type="matrix" values="0 0 0 0 0 0 0 0 0 0 0 0 0 0 0 0 0 0 127 0" result="hardAlpha"/>
<feOffset dy="4"/>
<feGaussianBlur stdDeviation="2"/>
<feComposite in2="hardAlpha" operator="out"/>
<feColorMatrix type="matrix" values="0 0 0 0 0 0 0 0 0 0 0 0 0 0 0 0 0 0 0.25 0"/>
<feBlend mode="normal" in2="effect1_dropShadow_730_2627" result="effect2_dropShadow_730_2627"/>
<feBlend mode="normal" in="SourceGraphic" in2="effect2_dropShadow_730_2627" result="shape"/>
</filter>
</defs>
</svg>
