<svg width="17" height="16" viewBox="0 0 17 16" fill="none" xmlns="http://www.w3.org/2000/svg">
<path fill-rule="evenodd" clip-rule="evenodd" d="M15.2143 4.57143H10.7857C12.0482 4.57143 13.0714 3.54821 13.0714 2.28571C13.0714 1.02321 12.0482 0 10.7857 0C9.52321 0 8.5 1.02321 8.5 2.28571C8.5 1.02321 7.47679 0 6.21429 0C4.95179 0 3.92857 1.02321 3.92857 2.28571C3.92857 3.54821 4.95179 4.57143 6.21429 4.57143H1.78571C1.075 4.57143 0.5 5.14643 0.5 5.85714V7.85714C0.5 8.56786 1.075 9.14286 1.78571 9.14286H1.64286V14.7143C1.64286 15.425 2.21786 16 2.92857 16H14.0714C14.7821 16 15.3571 15.425 15.3571 14.7143V9.14286H15.2143C15.925 9.14286 16.5 8.56786 16.5 7.85714V5.85714C16.5 5.14643 15.925 4.57143 15.2143 4.57143ZM6.21429 3.28571C5.6625 3.28571 5.21429 2.8375 5.21429 2.28571C5.21429 1.73393 5.6625 1.28571 6.21429 1.28571C6.76607 1.28571 7.21429 1.73393 7.21429 2.28571V3.28571H6.21429ZM2.92857 14.7143H7.85714V9.14286H2.92857V14.7143ZM7.85714 7.85714H1.78571V5.85714H7.85714V7.85714ZM10.7857 1.28571C10.2339 1.28571 9.78571 1.73393 9.78571 2.28571V3.28571H10.7857C11.3375 3.28571 11.7857 2.8375 11.7857 2.28571C11.7857 1.73393 11.3375 1.28571 10.7857 1.28571ZM14.0714 14.7143H9.14286V9.14286H14.0714V14.7143ZM9.14286 7.85714H15.2143V5.85714H9.14286V7.85714Z" fill="#8893A7"/>
</svg>
