<svg width="24" height="24" viewBox="0 0 24 24" fill="none" xmlns="http://www.w3.org/2000/svg">
<path d="M1 12L0.302227 11.725L0.193864 12L0.302227 12.275L1 12ZM23 12L23.6978 12.275L23.8061 12L23.6978 11.725L23 12ZM12 3.75C6.68046 3.75 2.14092 7.05921 0.302227 11.725L1.69777 12.275C3.31908 8.16079 7.31954 5.25 12 5.25V3.75ZM23.6978 11.725C21.8591 7.05921 17.3195 3.75 12 3.75V5.25C16.6805 5.25 20.6809 8.16079 22.3022 12.275L23.6978 11.725ZM12 20.25C17.3195 20.25 21.8591 16.9408 23.6978 12.275L22.3022 11.725C20.6809 15.8392 16.6805 18.75 12 18.75V20.25ZM0.302227 12.275C2.14092 16.9408 6.68046 20.25 12 20.25V18.75C7.31954 18.75 3.31908 15.8392 1.69777 11.725L0.302227 12.275ZM12 7.25C9.37245 7.25 7.25 9.37245 7.25 12H8.75C8.75 10.2009 10.2009 8.75 12 8.75V7.25ZM16.75 12C16.75 9.37245 14.6275 7.25 12 7.25V8.75C13.7991 8.75 15.25 10.2009 15.25 12H16.75ZM12 16.75C14.6275 16.75 16.75 14.6275 16.75 12H15.25C15.25 13.7991 13.7991 15.25 12 15.25V16.75ZM7.25 12C7.25 14.6275 9.37245 16.75 12 16.75V15.25C10.2009 15.25 8.75 13.7991 8.75 12H7.25Z" fill="#1971C2"/>
</svg>
