<svg width="16" height="16" viewBox="0 0 16 16" fill="none" xmlns="http://www.w3.org/2000/svg">
<path fill-rule="evenodd" clip-rule="evenodd" d="M15.7984 7.81668C14.5446 4.63499 11.4719 2.5 7.99991 2.5C4.52792 2.5 1.45523 4.63499 0.201392 7.81668L0.12915 8L0.201392 8.18332C1.45523 11.365 4.52792 13.5 7.99991 13.5C11.4719 13.5 14.5446 11.365 15.7984 8.18332L15.8707 8L15.7984 7.81668ZM1.20683 8C2.35538 5.29864 5.00967 3.5 7.99991 3.5C10.9901 3.5 13.6444 5.29864 14.793 8C13.6444 10.7014 10.9901 12.5 7.99991 12.5C5.00967 12.5 2.35538 10.7014 1.20683 8ZM7.99991 4.5C9.93605 4.5 11.4999 6.06386 11.4999 8C11.4999 9.93614 9.93605 11.5 7.99991 11.5C6.06377 11.5 4.49991 9.93614 4.49991 8C4.49991 6.06386 6.06377 4.5 7.99991 4.5ZM5.49991 8C5.49991 6.61614 6.61605 5.5 7.99991 5.5C9.38377 5.5 10.4999 6.61614 10.4999 8C10.4999 9.38386 9.38377 10.5 7.99991 10.5C6.61605 10.5 5.49991 9.38386 5.49991 8Z" fill="#1971C2"/>
</svg>
