<svg width="17" height="16" viewBox="0 0 17 16" fill="none" xmlns="http://www.w3.org/2000/svg">
<path fill-rule="evenodd" clip-rule="evenodd" d="M8.5 0C4.084 0 0.5 3.584 0.5 8C0.5 12.416 4.084 16 8.5 16C12.916 16 16.5 12.416 16.5 8C16.5 3.584 12.916 0 8.5 0ZM8.5 14.4C4.964 14.4 2.1 11.536 2.1 8C2.1 6.52 2.604 5.16 3.452 4.08L12.42 13.048C11.34 13.896 9.98 14.4 8.5 14.4ZM4.58 2.952L13.548 11.92C14.396 10.84 14.9 9.48 14.9 8C14.9 4.464 12.036 1.6 8.5 1.6C7.02 1.6 5.66 2.104 4.58 2.952Z" fill="#8893A7"/>
</svg>
