<svg width="16" height="16" viewBox="0 0 16 16" fill="none" xmlns="http://www.w3.org/2000/svg">
<path d="M13.4375 13H13V6C13 3.42812 11.0594 1.31094 8.5625 1.03125V0.5625C8.5625 0.251563 8.31094 0 8 0C7.68906 0 7.4375 0.251563 7.4375 0.5625V1.03125C4.94062 1.31094 3 3.42812 3 6V13H2.5625C2.25156 13 2 13.2516 2 13.5625C2 13.8734 2.25156 14.125 2.5625 14.125H6.875V14.875C6.875 15.4969 7.37813 16 8 16C8.62187 16 9.125 15.4969 9.125 14.875V14.125H13.4375C13.7484 14.125 14 13.8734 14 13.5625C14 13.2516 13.7484 13 13.4375 13Z" fill="#8893A7"/>
<path fill-rule="evenodd" clip-rule="evenodd" d="M8.00006 10.9969C7.61265 10.9969 7.29858 11.311 7.29858 11.6984C7.29858 12.0858 7.61265 12.3999 8.00006 12.3999C8.38748 12.3999 8.70154 12.0858 8.70154 11.6984C8.70154 11.311 8.38748 10.9969 8.00006 10.9969ZM7.37658 9.37571C7.37658 9.72022 7.65561 9.99925 8.00012 9.99925C8.34462 9.99925 8.62366 9.72022 8.62366 9.37571L8.62366 3.62357C8.62366 3.27907 8.34462 3.00004 8.00012 3.00004C7.65561 3.00004 7.37658 3.27907 7.37658 3.62357L7.37658 9.37571Z" fill="white"/>
</svg>
