<svg width="16" height="16" viewBox="0 0 16 16" fill="none" xmlns="http://www.w3.org/2000/svg">
<path fill-rule="evenodd" clip-rule="evenodd" d="M1.52075 0.75V14.5H0.770752C0.356169 14.5 0.020752 14.8354 0.020752 15.25V0.75C0.020752 0.335417 0.356169 0 0.770752 0C1.18534 0 1.52075 0.335417 1.52075 0.75ZM1.52075 14.5V15.25C1.52075 15.6646 1.18534 16 0.770752 16H15.2291C15.6437 16 15.9791 15.6646 15.9791 15.25C15.9791 14.8354 15.6437 14.5 15.2291 14.5H1.52075ZM5.50409 12.5V4.77083C5.50409 4.35625 5.16867 4.02083 4.75409 4.02083C4.3395 4.02083 4.00409 4.35625 4.00409 4.77083V12.5C4.00409 12.9146 4.3395 13.25 4.75409 13.25C5.16867 13.25 5.50409 12.9146 5.50409 12.5ZM13.4937 2.0625V12.5C13.4937 12.9146 13.1583 13.25 12.7437 13.25C12.3291 13.25 11.9937 12.9146 11.9937 12.5V2.0625C11.9937 1.64792 12.3291 1.3125 12.7437 1.3125C13.1583 1.3125 13.4937 1.64792 13.4937 2.0625ZM9.47909 12.5V7.39583C9.47909 6.98125 9.14159 6.64583 8.72909 6.64583C8.3145 6.64583 7.97909 6.98125 7.97909 7.39583V12.5C7.97909 12.9146 8.3145 13.25 8.72909 13.25C9.14367 13.25 9.47909 12.9146 9.47909 12.5Z" fill="#8893A7"/>
</svg>
