<svg width="17" height="16" viewBox="0 0 17 16" fill="none" xmlns="http://www.w3.org/2000/svg">
<path d="M2.57921 7.89251C2.62432 7.62456 2.87724 7.44274 3.14519 7.48785C3.41313 7.53297 3.59496 7.78588 3.54984 8.05383C3.5061 8.31358 3.48422 8.59793 3.48422 8.87818C3.48422 10.2507 4.01875 11.5413 4.98939 12.5119C5.96002 13.4825 7.25055 14.0157 8.62447 14.0157C9.99703 14.0157 11.2889 13.4812 12.2596 12.5105C13.2302 11.5399 13.7647 10.248 13.7647 8.87545C13.7647 7.50289 13.2302 6.211 12.2596 5.24036C11.2889 4.26973 9.99703 3.7352 8.62447 3.7352C8.56705 3.7352 8.50964 3.73657 8.45222 3.73793L9.5705 4.85621C9.76326 5.04897 9.76326 5.36067 9.5705 5.55206C9.37774 5.74482 9.06604 5.74482 8.87465 5.55206L7.01814 3.69555C6.82538 3.5028 6.82538 3.1911 7.01814 2.99971L8.87465 1.14457C9.06741 0.95181 9.3791 0.95181 9.5705 1.14457C9.76326 1.33733 9.76326 1.64902 9.5705 1.84042L8.66002 2.7509C9.47343 2.755 10.2636 2.91768 11.0073 3.23211C11.7373 3.54107 12.3922 3.98264 12.954 4.54452C13.5159 5.10639 13.9575 5.76122 14.2664 6.49125C14.5863 7.24725 14.749 8.04836 14.749 8.87545C14.749 9.70254 14.5863 10.5036 14.2678 11.2596C13.9588 11.9897 13.5173 12.6445 12.9554 13.2064C12.3935 13.7683 11.7387 14.2098 11.0087 14.5188C10.2527 14.8387 9.45156 15 8.62447 15C7.79738 15 6.99627 14.8387 6.24027 14.5188C5.51025 14.2112 4.85541 13.7696 4.29354 13.2077C3.73167 12.6459 3.2901 11.991 2.98114 11.2624C2.66124 10.5078 2.49992 9.70527 2.49992 8.87818C2.49992 8.54051 2.52726 8.20831 2.57921 7.89251Z" fill="#8893A7"/>
</svg>
