<svg width="240" height="240" viewBox="0 0 240 240" fill="none" xmlns="http://www.w3.org/2000/svg">
<path d="M220 119.031C220.011 155.601 200.081 189.262 168.023 206.818L167.346 207.192L166.653 207.558C165.615 208.104 164.577 208.623 163.54 209.116C162.582 209.583 161.617 210.027 160.644 210.464L160.045 210.728L159.92 210.783C159.726 210.869 159.539 210.954 159.337 211.032L159.189 211.094L158.605 211.336C157.624 211.749 156.644 212.115 155.647 212.52L155.375 212.629C154.402 212.995 153.421 213.353 152.433 213.688C152.262 213.758 152.083 213.82 151.904 213.875L151.701 213.945C151.437 214.031 151.164 214.124 150.923 214.202C146.066 215.784 141.093 216.985 136.049 217.793L135.271 217.91L134.492 218.026C132.873 218.26 131.247 218.455 129.596 218.611L128.818 218.681L128.04 218.751C126.841 218.836 125.635 218.914 124.421 218.961L123.642 219H122.864C121.93 219 120.988 219 120.046 219C119.361 219 118.676 219 117.999 219H117.33H117.229H116.45C111.658 218.827 106.885 218.306 102.168 217.442L101.343 217.286L100.518 217.131C99.5839 216.944 98.6499 216.749 97.7237 216.531C96.4628 216.251 95.2149 215.942 93.9799 215.604L93.2016 215.386L92.4232 215.168L91.1312 214.786L90.4385 214.576L90.3062 214.537L89.5823 214.303C88.721 214.028 87.8648 213.74 87.0138 213.439L86.8192 213.369C85.6362 212.953 84.4661 212.517 83.3089 212.06L82.7408 211.842L81.8535 211.476C65.1738 204.586 50.6614 193.32 39.8468 178.865C39.6833 178.654 39.5199 178.436 39.3642 178.218L38.8894 177.564C32.4695 168.671 27.5597 158.779 24.3579 148.286C24.2723 148.037 24.2022 147.78 24.1244 147.507C24.0466 147.234 23.9765 147.009 23.9065 146.728C11.4571 103.425 29.4675 57.1359 67.9008 33.6576C106.334 10.1794 155.708 15.3039 188.509 46.1755C188.711 46.3469 188.906 46.5416 189.108 46.7285L189.684 47.2893C191.728 49.278 193.687 51.355 195.56 53.5203C195.957 53.972 196.339 54.4238 196.728 54.8833C197.117 55.3429 197.584 55.9192 198.004 56.4411L198.105 56.5657C199.429 58.2169 200.69 59.9071 201.904 61.644C203.46 63.8871 204.963 66.2082 206.348 68.5837C207.298 70.196 208.193 71.8238 209.049 73.4906C209.36 74.1137 209.672 74.7368 209.975 75.3599C210.219 75.8532 210.452 76.3439 210.676 76.832V76.9021L210.714 76.9722C211.493 78.7325 212.271 80.5161 213.003 82.3309L213.19 82.8138C213.19 82.8994 213.26 82.9851 213.283 83.0708C217.717 94.541 219.995 106.733 220 119.031Z" fill="#DCE0E8"/>
<path fill-rule="evenodd" clip-rule="evenodd" d="M121.729 57.6667C121.478 58.2617 121.352 59.0609 121.352 60.0645H124.193L124.238 59.4086C124.319 58.7061 124.641 58.0932 125.203 57.5699L126.102 56.7419C126.805 56.0824 127.297 55.4821 127.578 54.9409C127.859 54.3996 128 53.8244 128 53.2151C128 51.8745 127.567 50.8369 126.701 50.1022C125.836 49.3674 124.619 49 123.05 49C121.496 49 120.27 49.3871 119.371 50.1613C118.472 50.9355 118.015 52.0072 118 53.3763H121.219C121.233 52.8029 121.405 52.353 121.735 52.0269C122.064 51.7007 122.502 51.5376 123.05 51.5376C124.204 51.5376 124.781 52.1434 124.781 53.3548C124.781 53.7563 124.67 54.138 124.448 54.5C124.226 54.862 123.781 55.3315 123.111 55.9086C122.441 56.4857 121.981 57.0717 121.729 57.6667ZM121.535 62.1774C121.198 62.4892 121.03 62.8853 121.03 63.3656C121.03 63.8387 121.195 64.2294 121.524 64.5376C121.853 64.8459 122.288 65 122.828 65C123.368 65 123.803 64.8459 124.132 64.5376C124.461 64.2294 124.626 63.8387 124.626 63.3656C124.626 62.8853 124.458 62.4892 124.121 62.1774C123.784 61.8656 123.353 61.7097 122.828 61.7097C122.303 61.7097 121.872 61.8656 121.535 62.1774ZM73.7037 84.8206C73.7037 82.7507 73.9552 81.1022 74.4584 79.875C74.9615 78.6478 75.8827 77.4392 77.222 76.249C78.5612 75.0588 79.4528 74.0904 79.8968 73.3438C80.3407 72.5971 80.5627 71.8098 80.5627 70.9819C80.5627 68.4832 79.4084 67.2339 77.0999 67.2339C76.0048 67.2339 75.128 67.5702 74.4695 68.2429C73.8109 68.9157 73.4669 69.8434 73.4373 71.0262H67C67.0296 68.2023 67.9434 65.9919 69.7414 64.3952C71.5394 62.7984 73.9922 62 77.0999 62C80.2372 62 82.6715 62.7577 84.4029 64.2732C86.1343 65.7887 87 67.9287 87 70.6935C87 71.9503 86.7188 73.1368 86.1565 74.253C85.5942 75.3693 84.6101 76.6075 83.2042 77.9677L81.4062 79.6754C80.2815 80.7547 79.6378 82.0188 79.475 83.4677L79.3862 84.8206H73.7037ZM73.0599 91.629C73.0599 90.6384 73.3966 89.8216 74.0699 89.1784C74.7433 88.5353 75.6052 88.2137 76.6559 88.2137C77.7066 88.2137 78.5686 88.5353 79.242 89.1784C79.9153 89.8216 80.2519 90.6384 80.2519 91.629C80.2519 92.6048 79.9227 93.4106 79.2642 94.0464C78.6056 94.6821 77.7362 95 76.6559 95C75.5757 95 74.7063 94.6821 74.0477 94.0464C73.3892 93.4106 73.0599 92.6048 73.0599 91.629ZM185.028 140.288C185.028 138.72 185.216 137.471 185.594 136.542C185.971 135.612 186.662 134.696 187.666 133.795C188.671 132.893 189.34 132.159 189.673 131.594C190.006 131.028 190.172 130.432 190.172 129.804C190.172 127.912 189.306 126.965 187.575 126.965C186.754 126.965 186.096 127.22 185.602 127.729C185.108 128.239 184.85 128.942 184.828 129.838H180C180.022 127.699 180.708 126.024 182.056 124.815C183.405 123.605 185.244 123 187.575 123C189.928 123 191.754 123.574 193.052 124.722C194.351 125.87 195 127.491 195 129.586C195 130.538 194.789 131.437 194.367 132.283C193.946 133.128 193.208 134.066 192.153 135.097L190.805 136.39C189.961 137.208 189.478 138.166 189.356 139.263L189.29 140.288H185.028ZM184.545 145.446C184.545 144.696 184.797 144.077 185.302 143.59C185.807 143.102 186.454 142.859 187.242 142.859C188.03 142.859 188.676 143.102 189.181 143.59C189.686 144.077 189.939 144.696 189.939 145.446C189.939 146.185 189.692 146.796 189.198 147.278C188.704 147.759 188.052 148 187.242 148C186.432 148 185.78 147.759 185.286 147.278C184.792 146.796 184.545 146.185 184.545 145.446ZM165.352 176.065C165.352 175.061 165.478 174.262 165.729 173.667C165.981 173.072 166.441 172.486 167.111 171.909C167.781 171.332 168.226 170.862 168.448 170.5C168.67 170.138 168.781 169.756 168.781 169.355C168.781 168.143 168.204 167.538 167.05 167.538C166.502 167.538 166.064 167.701 165.735 168.027C165.405 168.353 165.233 168.803 165.219 169.376H162C162.015 168.007 162.472 166.935 163.371 166.161C164.27 165.387 165.496 165 167.05 165C168.619 165 169.836 165.367 170.701 166.102C171.567 166.837 172 167.875 172 169.215C172 169.824 171.859 170.4 171.578 170.941C171.297 171.482 170.805 172.082 170.102 172.742L169.203 173.57C168.641 174.093 168.319 174.706 168.238 175.409L168.193 176.065H165.352ZM165.03 179.366C165.03 178.885 165.198 178.489 165.535 178.177C165.872 177.866 166.303 177.71 166.828 177.71C167.353 177.71 167.784 177.866 168.121 178.177C168.458 178.489 168.626 178.885 168.626 179.366C168.626 179.839 168.461 180.229 168.132 180.538C167.803 180.846 167.368 181 166.828 181C166.288 181 165.853 180.846 165.524 180.538C165.195 180.229 165.03 179.839 165.03 179.366ZM83.9834 173.583C83.7821 174.104 83.6815 174.803 83.6815 175.681H85.9545L85.99 175.108C86.0551 174.493 86.3126 173.957 86.7625 173.499L87.4817 172.774C88.044 172.197 88.4377 171.672 88.6626 171.198C88.8875 170.725 89 170.221 89 169.688C89 168.515 88.6537 167.607 87.9612 166.964C87.2686 166.321 86.2949 166 85.04 166C83.7969 166 82.8158 166.339 82.0966 167.016C81.3774 167.694 81.0118 168.631 81 169.829H83.5749C83.5868 169.328 83.7244 168.934 83.9878 168.649C84.2512 168.363 84.6019 168.22 85.04 168.22C85.9634 168.22 86.4251 168.75 86.4251 169.81C86.4251 170.162 86.3363 170.496 86.1587 170.812C85.9811 171.129 85.6245 171.54 85.0888 172.045C84.5531 172.55 84.1846 173.063 83.9834 173.583ZM83.828 177.53C83.5586 177.803 83.424 178.15 83.424 178.57C83.424 178.984 83.5557 179.326 83.8191 179.595C84.0825 179.865 84.4303 180 84.8624 180C85.2945 180 85.6422 179.865 85.9057 179.595C86.1691 179.326 86.3008 178.984 86.3008 178.57C86.3008 178.15 86.1661 177.803 85.8968 177.53C85.6274 177.257 85.2827 177.121 84.8624 177.121C84.4421 177.121 84.0973 177.257 83.828 177.53Z" fill="#CACFDB"/>
<path d="M232.939 81.2012L231.464 78.6431C232.224 76.4142 232.557 74.0616 232.447 71.7086C232.294 66.0531 230.288 59.5886 226.791 53.5247C223.294 47.4608 218.722 42.4757 213.911 39.517C211.935 38.2442 209.737 37.3579 207.432 36.9049L206.418 35.1482C205.238 33.1189 202.642 32.4296 200.615 33.6072L191.724 38.7464C189.702 39.9351 189.016 42.5361 190.187 44.5715L192.338 48.3084L127.13 86.0554L126.469 84.9227C126.083 84.234 125.433 83.733 124.67 83.5358C123.911 83.3293 123.1 83.4347 122.419 83.8286L116.824 87.057C115.411 87.8818 114.927 89.6955 115.74 91.1176L118.53 95.9718L82.9322 116.567L82.2789 115.435C81.8886 114.747 81.2371 114.246 80.4729 114.048C79.7133 113.841 78.903 113.947 78.2211 114.341L72.6648 117.561C71.2516 118.386 70.7676 120.2 71.5811 121.622L74.3786 126.476L31.1494 151.494C30.0228 150.48 28.5053 150.02 27.0071 150.238L21.6275 151.009C20.6523 151.148 19.8095 151.763 19.3783 152.651C18.947 153.539 18.9835 154.584 19.4756 155.439L35.5453 183.37C36.0355 184.224 36.9167 184.778 37.897 184.849H38.1122C39.0126 184.843 39.8611 184.426 40.4177 183.717L43.7992 179.41C44.7379 178.222 45.0986 176.677 44.7829 175.195L88.0121 150.169L90.8018 155.015C91.6248 156.436 93.4369 156.925 94.8596 156.11L100.416 152.889C101.098 152.498 101.594 151.848 101.792 151.086C101.998 150.324 101.893 149.512 101.5 148.828L100.846 147.688L136.467 127.123L139.265 131.97C139.657 132.653 140.305 133.152 141.065 133.356C141.825 133.56 142.634 133.452 143.315 133.056L148.871 129.843C150.288 129.021 150.773 127.204 149.955 125.783L149.301 124.642L214.533 86.8875L216.685 90.6245C217.247 91.6038 218.176 92.3175 219.266 92.6068C220.356 92.8962 221.515 92.7373 222.487 92.1655L231.379 87.057C232.361 86.4968 233.075 85.5635 233.362 84.4681C233.664 83.3664 233.511 82.1893 232.939 81.2012Z" fill="#CACFDB"/>
<path d="M223.825 81.0605C230.397 77.2562 230.046 64.3104 223.041 52.1454C216.035 39.9803 205.028 33.2026 198.456 37.0069C191.884 40.8112 192.235 53.757 199.24 65.922C206.246 78.0871 217.253 84.8648 223.825 81.0605Z" fill="#CACFDB"/>
<path fill-rule="evenodd" clip-rule="evenodd" d="M204.604 35.3947C210.975 36.535 218.476 42.6682 223.709 51.7602C227.16 57.7778 229.143 64.1267 229.289 69.6744C229.404 72.0018 229.073 74.3298 228.313 76.5318C228.205 76.84 228.082 77.1328 227.951 77.4179C227.824 77.6972 227.683 77.9698 227.529 78.2347C225.987 81.1313 222.956 82.917 219.682 82.8577C216.686 82.7233 213.784 81.7694 211.29 80.0993C211.049 79.9555 210.811 79.8014 210.575 79.637C210.068 79.3057 209.576 78.9512 209.084 78.5891C208.531 78.173 207.978 77.7261 207.432 77.2484C204.019 74.2181 201.115 70.6564 198.832 66.7002L198.602 66.3073C196.594 62.8854 195.064 59.2042 194.052 55.3661C193.86 54.6418 193.699 53.9253 193.568 53.2241C193.43 52.5075 193.322 51.7987 193.238 51.1052L193.231 51.0596C193.149 50.4514 193.068 49.8578 193.068 49.2714C192.692 43.2846 194.367 38.4921 198.072 36.3501C199.428 35.5828 200.964 35.1893 202.521 35.2097H202.721C203.029 35.209 203.337 35.227 203.643 35.2637C203.958 35.2945 204.281 35.333 204.604 35.3947ZM226.968 75.7382C227.085 75.4072 227.185 75.0703 227.268 74.7289C227.64 73.1261 227.795 71.4804 227.729 69.8362C227.59 64.5043 225.677 58.3788 222.349 52.6077C217.669 44.4558 211.182 38.7386 205.58 37.1976C205.234 37.0975 204.896 37.0204 204.565 36.9588C204.243 36.8917 203.917 36.8429 203.589 36.8124C201.942 36.6013 200.27 36.9225 198.817 37.7293C194.974 39.9792 193.691 45.7425 194.974 52.6308C195.128 53.463 195.313 54.3105 195.551 55.1735C195.804 56.2445 196.173 57.3386 196.573 58.4404C196.611 58.4789 196.611 58.556 196.611 58.556C197.51 60.9852 198.613 63.3334 199.908 65.5753L200.139 65.9682C201.359 68.0553 202.749 70.0372 204.297 71.8934C205.05 72.8077 205.85 73.6821 206.694 74.5131C206.917 74.7443 207.148 74.9677 207.378 75.1758C207.778 75.561 208.185 75.9231 208.593 76.2699C209.692 77.2105 210.864 78.0632 212.097 78.8202C216.485 81.4939 220.52 82.0564 223.44 80.3612C224.867 79.5044 225.978 78.2067 226.607 76.6628C226.745 76.3622 226.866 76.0534 226.968 75.7382Z" fill="#8893A7"/>
<path d="M124.885 85.0171L190.795 46.8656L211.937 83.5791L146.027 121.731L124.885 85.0171Z" fill="white"/>
<path d="M81.2323 115.18L117.851 93.9835L134.762 123.35L98.1436 144.547L81.2323 115.18Z" fill="white"/>
<path d="M30.2519 149.589L74.192 124.154L86.8763 146.181L42.9363 171.615L30.2519 149.589Z" fill="white"/>
<path d="M202.905 33.9847C202.458 33.2067 201.721 32.6388 200.856 32.4061C199.991 32.1734 199.07 32.295 198.294 32.7442L189.503 37.8295C188.727 38.2776 188.16 39.0167 187.928 39.8838C187.696 40.751 187.817 41.6751 188.265 42.4525L214.479 87.9739C215.413 89.5904 217.475 90.1451 219.09 89.2144L227.882 84.129C229.491 83.1902 230.043 81.1262 229.12 79.506L202.905 33.9847Z" fill="#F0F1F5"/>
<path d="M123.825 83.2045C123.545 82.7185 123.084 82.3641 122.543 82.2195C122.003 82.0749 121.427 82.1521 120.943 82.434L115.448 85.6162C114.963 85.8965 114.61 86.3588 114.466 86.9009C114.321 87.443 114.398 88.0204 114.68 88.5055L137.935 128.888C138.216 129.374 138.679 129.729 139.22 129.873C139.762 130.018 140.34 129.94 140.825 129.658L146.312 126.476C146.797 126.196 147.15 125.733 147.294 125.191C147.438 124.649 147.361 124.072 147.08 123.587L123.825 83.2045Z" fill="#F0F1F5"/>
<path d="M57.0792 111.428C56.6082 110.626 55.5835 110.348 54.7737 110.804L28.4058 126.068C27.601 126.537 27.3262 127.57 27.791 128.379L30.3271 132.786C30.7981 133.589 31.8228 133.866 32.6327 133.41L58.9928 118.147C59.8004 117.68 60.0789 116.646 59.6153 115.835L57.0792 111.428Z" fill="#F0F1F5"/>
<path d="M80.1732 113.347C79.8921 112.86 79.4296 112.505 78.8876 112.361C78.3456 112.216 77.7686 112.294 77.2835 112.576L71.7963 115.751C70.7904 116.337 70.4468 117.629 71.0278 118.64L90.0486 151.679C90.3297 152.166 90.7922 152.52 91.3342 152.665C91.8762 152.809 92.4532 152.732 92.9383 152.45L98.4332 149.267C98.9179 148.987 99.2714 148.525 99.4156 147.983C99.5598 147.441 99.4828 146.863 99.2017 146.378L80.1732 113.347Z" fill="#F0F1F5"/>
<path d="M30.6268 150.238C29.76 148.74 28.0719 147.919 26.3615 148.166L20.9819 148.936C20.2855 149.034 19.6832 149.472 19.375 150.106C19.0667 150.739 19.0929 151.485 19.4448 152.095L35.3531 179.71C35.7033 180.318 36.3316 180.713 37.0305 180.764C37.7293 180.815 38.4079 180.516 38.8422 179.964L42.1853 175.711C43.2528 174.346 43.3866 172.468 42.5234 170.965L30.6268 150.238Z" fill="#F0F1F5"/>
<path d="M135.458 103.365L201.368 65.213L211.939 83.5698L146.029 121.721L135.458 103.365Z" fill="#F0F1F5"/>
<path d="M219.813 63.3486C218.879 61.7321 216.817 61.1774 215.202 62.1081L206.418 67.1934C205.642 67.6416 205.075 68.3806 204.843 69.2478C204.611 70.1149 204.732 71.039 205.18 71.8164L214.479 87.997C215.416 89.6099 217.474 90.1638 219.09 89.2375L227.882 84.1522C229.487 83.2106 230.039 81.15 229.12 79.5292L219.813 63.3486Z" fill="#CACFDB"/>
<path d="M138.657 108.878C138.069 107.868 136.778 107.524 135.768 108.107L130.273 111.289C129.266 111.879 128.923 113.173 129.504 114.186L137.958 128.872C138.546 129.882 139.837 130.226 140.848 129.643L146.335 126.468C146.82 126.186 147.174 125.723 147.318 125.179C147.462 124.636 147.385 124.057 147.103 123.571L138.657 108.878Z" fill="#CACFDB"/>
<path d="M39.7644 166.103C39.1762 165.093 37.8855 164.749 36.8748 165.332L31.3799 168.515C30.8954 168.797 30.5418 169.259 30.3962 169.801C30.2499 170.345 30.3274 170.926 30.6114 171.412C31.8564 173.585 33.9544 177.214 35.3916 179.71C35.7418 180.319 36.37 180.713 37.0689 180.764C37.7677 180.815 38.4463 180.516 38.8806 179.964L42.2237 175.711C43.2912 174.346 43.425 172.468 42.5618 170.965C41.678 169.432 40.5637 167.498 39.7644 166.103Z" fill="#CACFDB"/>
<path d="M92.8537 135.368C92.2685 134.359 90.9801 134.014 89.9717 134.597L84.4768 137.771C83.9915 138.053 83.6379 138.517 83.4937 139.06C83.3496 139.604 83.4268 140.182 83.7083 140.669L90.0486 151.679C90.3297 152.166 90.7921 152.52 91.3341 152.665C91.8761 152.809 92.4531 152.732 92.9382 152.45L98.4331 149.267C98.9179 148.987 99.2714 148.525 99.4156 147.983C99.5597 147.441 99.4828 146.863 99.2016 146.378L92.8537 135.368Z" fill="#CACFDB"/>
<path d="M89.6846 129.865L126.303 108.669L134.761 123.356L98.1421 144.552L89.6846 129.865Z" fill="#F0F1F5"/>
<path d="M36.5935 160.594L80.5335 135.159L86.8738 146.17L42.9338 171.604L36.5935 160.594Z" fill="#F0F1F5"/>
<path d="M46.3045 140.592C46.0289 140.593 45.7738 140.446 45.6359 140.206L39.288 129.188C39.1853 129.01 39.1576 128.799 39.211 128.601C39.2644 128.403 39.3945 128.234 39.5723 128.132C39.9397 127.923 40.4065 128.051 40.6175 128.418L46.9655 139.436C47.0681 139.613 47.0958 139.825 47.0424 140.023C46.989 140.221 46.859 140.39 46.6811 140.491C46.5663 140.557 46.4366 140.591 46.3045 140.592Z" fill="#8893A7"/>
<path d="M57.0869 134.058C56.8113 134.059 56.5561 133.912 56.4183 133.672L50.1856 122.839C49.9758 122.473 50.0992 122.005 50.4623 121.791C50.6385 121.688 50.8486 121.659 51.0462 121.711C51.2437 121.763 51.4125 121.892 51.5152 122.069L57.7478 132.902C57.8511 133.079 57.88 133.289 57.8281 133.487C57.7762 133.685 57.6477 133.855 57.4712 133.958C57.3541 134.024 57.2215 134.059 57.0869 134.058Z" fill="#8893A7"/>
<path fill-rule="evenodd" clip-rule="evenodd" d="M210.575 79.6832L212.597 83.2044C212.804 83.5747 212.673 84.0433 212.304 84.2523L211.636 84.6375H211.597L147.042 121.992L146.381 122.377C146.267 122.445 146.137 122.482 146.004 122.485C145.938 122.493 145.871 122.493 145.805 122.485C145.608 122.433 145.439 122.306 145.336 122.13L137.12 107.861L124.217 85.4003C124.014 85.0338 124.14 84.5715 124.501 84.3602L125.162 83.9749L187.097 48.1619L189.741 46.6209L190.409 46.2356C190.587 46.1327 190.797 46.105 190.995 46.1585C191.193 46.212 191.361 46.3424 191.462 46.5207L193.068 49.3022L193.922 50.8047L194.959 52.6L204.75 69.6127L208.593 76.2699L209.653 78.0883L210.575 79.6832ZM136.16 102.952L146.343 120.674L210.844 83.2969L207.371 77.2638L206.056 74.9523L204.281 71.8703L200.685 65.6215L196.604 58.5329L196.465 58.294L194.836 55.4663L193.622 53.201L190.548 47.8845L188.296 49.1867L125.977 85.2693L136.16 102.952Z" fill="#8893A7"/>
<path d="M58.77 114.364C58.6575 114.168 58.4717 114.025 58.2538 113.967C58.0359 113.909 57.8039 113.941 57.6095 114.055L29.7815 130.159C29.3826 130.396 29.2461 130.91 29.474 131.315L30.7421 133.518C30.9735 133.925 31.4895 134.066 31.8949 133.834L59.7229 117.723C60.1281 117.491 60.2691 116.974 60.038 116.567L58.77 114.364Z" fill="#DCE0E8"/>
<path fill-rule="evenodd" clip-rule="evenodd" d="M129.32 112.376L135.422 122.97C135.631 123.329 135.519 123.789 135.168 124.01L134.5 124.396L128.513 127.863L127.829 128.256L127.13 128.664L119.944 132.825L118.476 133.68L117.231 134.397L115.732 135.267L108.578 139.405L107.886 139.806L107.202 140.206L99.1786 144.829L98.5176 145.215C98.4013 145.284 98.2687 145.321 98.1334 145.322C97.8605 145.321 97.6089 145.174 97.4724 144.937L91.3704 134.343L80.5574 115.566C80.4541 115.389 80.4252 115.178 80.4771 114.98C80.5291 114.782 80.6575 114.613 80.834 114.51L81.495 114.125L116.785 93.7064L117.454 93.3212C117.817 93.1094 118.283 93.2295 118.499 93.5908L121.75 99.2386L129.32 112.376ZM127.291 126.784L126.584 127.192L125.815 127.616L108.278 137.779L106.833 138.611L98.4197 143.473L98.3793 143.496L90.3099 129.481L82.2404 115.465L117.523 95.0394L125.593 109.055L133.67 123.07L127.291 126.784Z" fill="#8893A7"/>
<path fill-rule="evenodd" clip-rule="evenodd" d="M83.5546 138.873L87.5509 145.808C87.6253 145.996 87.6226 146.207 87.5432 146.393C87.4903 146.588 87.3633 146.754 87.1897 146.856L86.5211 147.241L43.7146 172.028L43.2535 172.29C43.1756 172.335 43.0893 172.364 42.9999 172.375C42.9567 172.383 42.9125 172.383 42.8693 172.375C42.5936 172.376 42.3385 172.229 42.2007 171.99L41.8318 171.342L38.2274 165.078L29.9044 150.616V150.577L29.5508 149.969C29.4525 149.79 29.4251 149.581 29.474 149.383C29.5369 149.189 29.6645 149.023 29.8352 148.913L30.2963 148.643L45.4745 139.89L46.8041 139.12L56.4029 133.572L57.7324 132.802L73.1642 123.872L73.8252 123.486C74.1885 123.275 74.6541 123.395 74.8704 123.756L83.5546 138.873ZM37.2591 160.209L43.2151 170.556L85.8217 145.9L79.8657 135.552L73.9097 125.212L31.3031 149.868L37.2591 160.209Z" fill="#8893A7"/>
<path fill-rule="evenodd" clip-rule="evenodd" d="M228.313 76.5781L229.781 79.1207C230.334 80.0821 230.481 81.2252 230.19 82.296C229.898 83.3667 229.192 84.2763 228.228 84.8225L219.436 89.9155C217.445 91.0587 214.907 90.3691 213.765 88.3745L211.613 84.6376L211.482 84.4064L211.228 83.9672L210.844 83.2969L207.371 77.2638L206.056 74.9523L204.281 71.8703L200.684 65.6215L196.604 58.5329L196.465 58.294L194.836 55.4663L193.568 53.1856L190.494 47.8691L190.11 47.2065L189.725 46.5361L187.574 42.7992C186.433 40.8032 187.121 38.2585 189.111 37.1129L197.895 32.0276C199.886 30.8844 202.424 31.574 203.566 33.5686L204.604 35.3638L205.088 36.2114L205.603 37.1129L227.267 74.7289L227.798 75.6766L228.313 76.5781ZM212.596 83.1967L215.133 87.5963C215.869 88.8358 217.464 89.2485 218.706 88.5209L227.498 83.4356C228.744 82.7111 229.171 81.1117 228.451 79.8604L227.529 78.2578L227.075 77.4873L226.607 76.7168L218.076 61.9L203.612 36.7893L203.151 36.0188L202.721 35.2483L202.237 34.4084C201.511 33.1586 199.916 32.7288 198.663 33.4453L189.879 38.5306C188.632 39.2581 188.206 40.8598 188.926 42.1135L191.462 46.5207L193.068 49.3023L193.921 50.8047L194.959 52.6L204.75 69.6127L208.592 76.2699L209.653 78.0806L210.575 79.6755L212.596 83.1967Z" fill="#8893A7"/>
<path fill-rule="evenodd" clip-rule="evenodd" d="M147.096 121.984L147.772 123.155L147.749 123.178C148.514 124.541 148.061 126.267 146.727 127.077L141.232 130.259C139.85 131.055 138.086 130.58 137.289 129.196L134.507 124.357L134.123 123.694L133.739 123.024L125.662 109.009L117.592 94.9931L117.208 94.3227L116.824 93.6601L114.034 88.8136C113.241 87.4306 113.715 85.6645 115.095 84.8687L120.582 81.6865C121.964 80.8948 123.725 81.3696 124.524 82.7498L125.193 83.9132L125.577 84.5836L125.969 85.2539L136.152 102.937L146.335 120.659L146.719 121.321L147.096 121.984ZM121.758 99.2694L129.328 112.368L135.422 123.001L129.32 112.406L121.758 99.2694ZM145.943 125.767L140.456 128.941C140.147 129.122 139.78 129.172 139.435 129.079C139.09 128.987 138.796 128.759 138.619 128.448L135.445 122.947L129.351 112.345L135.445 122.978L129.343 112.383L121.781 99.2463L118.53 93.5985L115.364 88.0971C115.181 87.791 115.131 87.4238 115.225 87.08C115.316 86.7311 115.543 86.4336 115.855 86.2556L121.343 83.0811C121.652 82.8999 122.021 82.8501 122.367 82.9427C122.714 83.0353 123.009 83.2626 123.187 83.5742L124.232 85.3926L137.12 107.86L145.336 122.13L146.389 123.964C146.758 124.599 146.549 125.413 145.92 125.79L145.943 125.767Z" fill="#8893A7"/>
<path fill-rule="evenodd" clip-rule="evenodd" d="M57.7324 111.043L60.2685 115.442L60.2916 115.45C60.9709 116.631 60.5687 118.141 59.3924 118.825L52.1069 123.039L50.7696 123.81L41.1785 129.358L39.849 130.128L33.0322 134.073C32.6592 134.292 32.2346 134.406 31.8026 134.404C31.5871 134.406 31.3724 134.378 31.1647 134.32C30.5179 134.163 29.9628 133.748 29.6277 133.172L27.0916 128.764C26.7667 128.197 26.6783 127.524 26.8457 126.892C27.0194 126.264 27.43 125.728 27.9908 125.397L54.374 110.141C55.5498 109.461 57.053 109.864 57.7324 111.043ZM51.2231 121.753L58.6008 117.476H58.6085C58.8099 117.352 58.9536 117.152 59.0082 116.922C59.0709 116.682 59.0378 116.428 58.9159 116.213L57.6556 114.025L56.3798 111.813C56.2217 111.535 55.9304 111.36 55.6113 111.351C55.4493 111.35 55.29 111.392 55.1502 111.474L28.7823 126.73C28.573 126.854 28.421 127.057 28.3597 127.293C28.2897 127.528 28.3203 127.782 28.4442 127.994L29.7199 130.205L31.0341 132.401C31.1531 132.617 31.3564 132.773 31.5951 132.833C31.8313 132.895 32.0825 132.862 32.2945 132.74L39.2111 128.718L40.2871 128.094L50.078 122.415L51.2231 121.753Z" fill="#8893A7"/>
<path fill-rule="evenodd" clip-rule="evenodd" d="M99.1862 144.829L99.8625 146C100.668 147.375 100.21 149.144 98.8404 149.953L93.3455 153.135C92.9081 153.387 92.4127 153.52 91.9084 153.521C91.6488 153.524 91.3901 153.49 91.1399 153.42C90.3992 153.224 89.7679 152.739 89.3876 152.072L86.5979 147.233L86.2213 146.571L85.8294 145.9L79.8734 135.552L73.9174 125.212L73.5331 124.542L73.1488 123.879L70.3591 119.033C69.5688 117.651 70.0391 115.889 71.412 115.088L76.9069 111.906C78.2864 111.11 80.0479 111.586 80.8417 112.969L81.5103 114.132L81.8946 114.803L82.2865 115.473L90.356 129.489L98.4331 143.504L98.8097 144.167L99.1862 144.829ZM92.5462 151.779L98.0411 148.612C98.686 148.242 98.9125 147.42 98.5484 146.771L97.4955 144.937L91.3935 134.343L80.5804 115.566L79.5199 113.732C79.3454 113.419 79.0512 113.191 78.7052 113.1C78.5899 113.069 78.4711 113.053 78.3517 113.054C78.1163 113.054 77.8853 113.118 77.6831 113.239L72.1882 116.413C71.5525 116.791 71.3341 117.609 71.6964 118.255L74.8703 123.756L83.5546 138.866L87.5509 145.8L90.7095 151.286C90.8864 151.597 91.1802 151.824 91.5252 151.917C91.8702 152.01 92.2379 151.96 92.5462 151.779Z" fill="#8893A7"/>
<path fill-rule="evenodd" clip-rule="evenodd" d="M43.5533 171.242C43.653 171.492 43.7301 171.749 43.7838 172.013C44.1194 173.476 43.7776 175.014 42.8539 176.196L40.3409 179.402L39.5185 180.457C38.9609 181.162 38.11 181.568 37.213 181.559H37.0516C36.0913 181.495 35.2264 180.954 34.746 180.118L18.8454 152.503C18.3662 151.673 18.3291 150.659 18.7464 149.796C19.1638 148.933 19.9812 148.333 20.9281 148.196L24.5939 147.665L26.277 147.426C27.7524 147.212 29.2462 147.669 30.3501 148.674C30.5451 148.854 30.725 149.05 30.8881 149.26C31.0471 149.452 31.1886 149.658 31.3108 149.876L37.2668 160.216L43.2228 170.564C43.3498 170.781 43.4603 171.008 43.5533 171.242ZM36.0525 179.317C36.2737 179.706 36.675 179.958 37.1208 179.987C37.562 179.996 37.979 179.785 38.2351 179.425L39.3264 178.038L41.5782 175.172C42.4458 174.065 42.5583 172.542 41.8625 171.319L38.2582 165.055L29.9351 150.593V150.554C29.3151 149.503 28.187 148.858 26.9686 148.859C26.8015 148.861 26.6346 148.874 26.4691 148.898L25.0166 149.106L21.1279 149.668C20.6794 149.736 20.2951 150.025 20.1058 150.439C19.9123 150.842 19.9296 151.314 20.1519 151.702L30.4577 169.601L36.0525 179.317Z" fill="#8893A7"/>
<path d="M124.463 165.209L124.417 166.843L124.371 168.576V169.347V170.117L124.263 174.132V175.434L124.225 176.744L123.08 219.121H122.311C121.389 219.121 120.459 219.121 119.529 219.121C118.853 219.121 118.176 219.121 117.508 219.121H116.847H116.747L115.141 177.514L115.087 176.181L115.033 174.848L114.833 170.071V169.301V168.53L114.787 167.474L114.695 165.163L124.463 165.209Z" fill="#CACFDB"/>
<path d="M125.016 164.67C124.871 164.521 124.671 164.437 124.463 164.439H114.549C114.125 164.439 113.781 164.784 113.781 165.209L113.919 168.545V168.73V169.362V170.133L114.165 176.035V176.274L114.203 177.368L114.249 178.701L115.786 219.114H116.555H116.655H117.316L115.779 176.435V176.197L115.733 175.102L115.679 173.769L115.525 170.117V169.347V168.576L115.433 166.326V165.98H123.671L123.602 168.576V169.347V170.117L123.525 173.061L123.487 174.363V175.673L122.303 219.129H123.072L123.84 219.09L124.962 177.853V176.543V175.488V175.241L125.101 170.148V169.378V168.607V168.006L125.178 165.263C125.208 165.051 125.15 164.837 125.016 164.67Z" fill="#8893A7"/>
<path d="M120.828 167.189L120.159 168.23L119.929 168.584L119.706 168.931L119.437 169.354L119.26 169.624L118.937 170.125L115.733 175.11L115.01 176.235L114.288 177.36L90.2408 214.753L90.1101 214.714L89.3954 214.483C88.5449 214.211 87.6995 213.926 86.8593 213.628L86.6672 213.558C85.499 213.147 84.3437 212.716 83.2012 212.264L82.6401 212.048L107.532 170.117L107.994 169.347L108.455 168.576L112.236 162.212L113.419 162.898L115.44 164.061L116.086 164.439L116.393 164.616L116.985 164.963L117.416 165.209L118.53 165.849L118.753 165.98L119.521 166.442L119.644 166.511L120.136 166.796L120.828 167.189Z" fill="white"/>
<path d="M158.255 211.224L158.109 211.285L157.532 211.524C156.564 211.932 155.596 212.295 154.612 212.695L154.343 212.803C153.382 213.165 152.414 213.52 151.438 213.851C151.269 213.92 151.092 213.982 150.915 214.036L150.716 214.105L124.916 176.52L124.148 175.449L123.379 174.378L120.467 170.133L120.121 169.624L119.936 169.362L119.644 168.938L119.406 168.592L119.176 168.253L118.453 167.197L119.114 166.812L119.614 166.527L119.729 166.457L120.497 165.995L120.659 165.903L121.835 165.225L122.104 165.07L122.872 164.624L123.164 164.454L123.564 164.223L125.585 163.052L127.014 162.227L131.057 168.592L132.041 170.133L158.255 211.224Z" fill="white"/>
<path d="M120.828 167.189L120.159 168.23L119.929 168.584L119.706 168.931L119.437 169.354L119.26 169.624L118.937 170.125L115.733 175.11L115.01 176.235L114.28 177.36L90.0794 214.722L89.3647 214.491C88.5142 214.218 87.6689 213.933 86.8286 213.635L86.6365 213.566L113.081 170.125L113.55 169.354L113.934 168.723L114.011 168.584L114.649 167.528L115.371 166.334L115.579 165.987L116.048 165.217L116.132 165.07L116.401 164.624L116.509 164.446L116.655 164.208L116.993 164.446L118.069 165.217L118.123 165.255L119.152 165.987L119.683 166.365L119.798 166.45L120.213 166.742L120.828 167.189Z" fill="#DCE0E8"/>
<path d="M154.612 212.695L154.343 212.803C153.382 213.165 152.414 213.52 151.438 213.851C151.269 213.92 151.092 213.982 150.915 214.036L124.916 176.512L124.148 175.441L123.379 174.37L120.467 170.125L120.121 169.616L119.936 169.354L119.644 168.931L119.406 168.584L119.176 168.245L118.453 167.189L119.076 166.742L119.491 166.45L119.614 166.365L120.144 165.987L121.043 165.34L121.22 165.217L122.296 164.446L122.634 164.208V164.246L122.765 164.446L122.88 164.616L123.095 164.947L123.272 165.217L124.332 166.85L125.101 167.983L125.493 168.584L125.992 169.354L126.5 170.125L154.612 212.695Z" fill="#DCE0E8"/>
<path d="M125.316 160.84C125.167 160.586 124.887 160.44 124.594 160.463L112.174 161.441C111.925 161.462 111.701 161.603 111.575 161.819L107.555 168.576L107.333 168.954L107.094 169.347L106.633 170.117L81.7256 211.686L82.6017 212.048L83.1627 212.264L108.432 170.117L108.654 169.74L108.885 169.347L109.346 168.576L112.689 162.952L113.419 162.898L114.657 162.797L123.172 162.127L122.503 163.167L121.681 164.439L121.189 165.209L121.104 165.332L120.751 165.887L120.689 165.98L120.205 166.75L120.167 166.812L119.683 167.582L119.237 168.283L119.014 168.622L118.837 168.9C118.818 168.924 118.8 168.95 118.784 168.977L118.515 169.393L118.023 170.163L115.671 173.816L114.949 174.941L114.357 175.857L114.226 176.066L89.357 214.529L90.0717 214.76L90.2023 214.799L90.8863 215.007L114.326 178.731L115.056 177.607L115.648 176.69L115.779 176.482L119.721 170.356L119.844 170.163L120.021 169.894C120.044 169.867 120.064 169.839 120.082 169.809L120.182 169.655L120.351 169.393L120.628 168.954L120.843 168.622L122.519 166.026L123.01 165.255L123.179 164.986L123.51 164.485L123.656 164.254L124.371 163.136L125.301 161.696C125.331 161.654 125.354 161.607 125.37 161.557C125.471 161.324 125.451 161.056 125.316 160.84Z" fill="#8893A7"/>
<path d="M158.9 210.808L132.986 170.033L132.548 169.339L132.063 168.569L127.752 161.788C127.605 161.558 127.348 161.423 127.076 161.434L125.37 161.503L115.379 161.896C115.101 161.908 114.851 162.07 114.726 162.32C114.651 162.464 114.624 162.629 114.649 162.79C114.669 162.903 114.714 163.011 114.779 163.106L115.433 164.053L115.686 164.431L116.117 165.055L116.217 165.201L116.747 165.972L118.53 168.569L118.776 168.923L119.06 169.339L119.245 169.609L119.583 170.11L119.713 170.302L123.402 175.696L123.494 175.834L123.541 175.904L124.132 176.774L124.901 177.853L149.932 214.383C150.2 214.306 150.469 214.213 150.7 214.128L150.9 214.059C151.077 214.005 151.253 213.944 151.422 213.874L124.939 175.233L124.839 175.087L124.793 175.018L124.202 174.155L123.433 173.084L121.412 170.14L120.882 169.37L120.582 168.931L120.351 168.599L120.113 168.245L119.637 167.559L119.129 166.789L119.091 166.727L118.568 165.957L118.484 165.826L118.069 165.225V165.186L117.538 164.416L116.816 163.368L122.48 163.144L124.348 163.067L125.654 163.013L126.668 162.975L130.204 168.576L131.187 170.117L157.501 211.524L158.078 211.285L158.224 211.224C158.424 211.147 158.608 211.062 158.8 210.977L158.923 210.923C158.921 210.884 158.914 210.845 158.9 210.808Z" fill="#8893A7"/>
<path d="M134.384 160.255C134.384 158.591 133.493 157.234 132.402 157.234H106.618C105.519 157.234 104.635 158.591 104.635 160.255V166.303C104.635 167.968 105.519 169.324 106.618 169.324H132.402C133.493 169.324 134.384 167.968 134.384 166.303V160.255Z" fill="white"/>
<path fill-rule="evenodd" clip-rule="evenodd" d="M106.618 156.487H132.402C133.939 156.487 135.153 158.151 135.153 160.255V166.326C135.153 168.176 134.238 169.678 132.986 170.033C132.796 170.088 132.599 170.116 132.402 170.117H106.618C105.073 170.117 103.859 168.453 103.859 166.326V160.278C103.859 158.151 105.081 156.487 106.618 156.487ZM132.402 168.576C132.97 168.576 133.616 167.613 133.616 166.326V160.255C133.616 158.968 132.97 158.005 132.402 158.005H106.618C106.041 158.005 105.396 158.968 105.396 160.255V166.326C105.396 167.613 106.041 168.576 106.618 168.576H132.402Z" fill="#8893A7"/>
<path d="M114.549 141.347H124.463V157.258H114.549V141.347Z" fill="white"/>
<path fill-rule="evenodd" clip-rule="evenodd" d="M114.549 140.576H124.463C124.887 140.576 125.231 140.921 125.231 141.347V157.258C125.231 157.683 124.887 158.028 124.463 158.028H114.549C114.125 158.028 113.781 157.683 113.781 157.258V141.347C113.781 140.921 114.125 140.576 114.549 140.576ZM115.318 156.487H123.694V142.117H115.318V156.487Z" fill="#8893A7"/>
<path d="M120.526 148.585C127.069 147.947 131.859 142.112 131.223 135.551C130.587 128.991 124.767 124.189 118.223 124.827C111.679 125.464 106.89 131.299 107.526 137.86C108.162 144.421 113.982 149.222 120.526 148.585Z" fill="white"/>
<path fill-rule="evenodd" clip-rule="evenodd" d="M127.921 127.339C128.113 127.516 128.305 127.701 128.49 127.894C131.261 130.772 132.515 134.792 131.874 138.74C131.232 142.689 128.77 146.102 125.231 147.95C124.982 148.087 124.726 148.211 124.463 148.32C124.209 148.435 123.956 148.543 123.694 148.636C120.992 149.613 118.039 149.643 115.318 148.72C115.056 148.628 114.81 148.535 114.549 148.428C114.288 148.32 114.034 148.204 113.78 148.073C110.578 146.49 108.192 143.625 107.21 140.183C107.133 139.937 107.071 139.675 107.018 139.413C106.952 139.159 106.901 138.902 106.864 138.642C106.765 138.008 106.716 137.366 106.718 136.724C106.715 131.842 109.506 127.392 113.894 125.279C118.283 123.165 123.492 123.762 127.291 126.815C127.506 126.985 127.714 127.162 127.921 127.339ZM124.463 146.648C124.724 146.509 124.978 146.37 125.231 146.216V146.239C128.16 144.432 130.089 141.368 130.456 137.94C130.822 134.512 129.586 131.107 127.107 128.718C126.919 128.528 126.721 128.348 126.515 128.179C126.3 128.002 126.084 127.832 125.854 127.67C122.464 125.238 118.001 124.911 114.294 126.824C110.588 128.737 108.259 132.567 108.263 136.747C108.261 137.11 108.279 137.472 108.316 137.833C108.339 138.111 108.378 138.38 108.424 138.65C108.463 138.91 108.517 139.167 108.585 139.42C109.314 142.339 111.187 144.84 113.78 146.355C114.026 146.501 114.303 146.648 114.549 146.771C114.795 146.894 115.056 147.002 115.318 147.102C118.014 148.171 121.022 148.138 123.694 147.01L123.723 146.997C123.974 146.886 124.211 146.781 124.463 146.648Z" fill="#8893A7"/>
<path d="M122.521 136.828C122.6 135.085 121.255 133.608 119.516 133.529C117.778 133.45 116.305 134.799 116.226 136.542C116.147 138.284 117.492 139.762 119.231 139.841C120.969 139.92 122.442 138.571 122.521 136.828Z" fill="white"/>
<path fill-rule="evenodd" clip-rule="evenodd" d="M119.383 132.763C119.576 132.763 119.769 132.778 119.959 132.809L120.029 132.779C121.959 133.052 123.393 134.708 123.393 136.662C123.393 138.616 121.959 140.272 120.029 140.545C119.652 140.607 119.268 140.607 118.891 140.545C117.706 140.375 116.664 139.67 116.065 138.631C115.465 137.593 115.374 136.336 115.817 135.221C116.043 134.645 116.404 134.133 116.87 133.726C117.248 133.382 117.693 133.12 118.176 132.956C118.566 132.829 118.973 132.764 119.383 132.763ZM117.001 136.693C117.001 138.012 118.067 139.081 119.383 139.081C120.699 139.081 121.765 138.012 121.765 136.693C121.765 135.374 120.699 134.304 119.383 134.304C118.067 134.304 117.001 135.374 117.001 136.693Z" fill="#8893A7"/>
</svg>
