<svg width="16" height="16" viewBox="0 0 16 16" fill="none" xmlns="http://www.w3.org/2000/svg">
<path fill-rule="evenodd" clip-rule="evenodd" d="M12.1393 11.2304L15.8125 14.9018C16.0625 15.1536 16.0625 15.5607 15.8143 15.8125C15.6875 15.9375 15.525 16 15.3589 16C15.1929 16 15.0286 15.9375 14.9036 15.8125L11.2304 12.1393C10.0429 13.1232 8.51964 13.7143 6.85714 13.7143C3.06964 13.7143 0 10.6446 0 6.85714C0 3.06964 3.06964 0 6.85714 0C10.6446 0 13.7143 3.06964 13.7143 6.85714C13.7143 8.51964 13.1232 10.0429 12.1393 11.2304ZM6.85714 12.4286C7.61071 12.4286 8.33929 12.2821 9.025 11.9911C9.68929 11.7107 10.2839 11.3089 10.7964 10.7964C11.3089 10.2839 11.7107 9.6875 11.9911 9.025C12.2821 8.33929 12.4286 7.61071 12.4286 6.85714C12.4286 6.10357 12.2821 5.375 11.9911 4.68929C11.7107 4.02679 11.3089 3.43036 10.7964 2.91786C10.2839 2.40536 9.6875 2.00357 9.025 1.72321C8.33929 1.43214 7.61071 1.28571 6.85714 1.28571C6.10357 1.28571 5.375 1.43214 4.68929 1.72321C4.02679 2.00357 3.43036 2.40536 2.91786 2.91786C2.40536 3.43036 2.00357 4.02679 1.72321 4.68929C1.43214 5.375 1.28571 6.10357 1.28571 6.85714C1.28571 7.61071 1.43214 8.33929 1.72321 9.025C2.00357 9.6875 2.40536 10.2839 2.91786 10.7964C3.43036 11.3089 4.02679 11.7107 4.68929 11.9911C5.375 12.2821 6.10357 12.4286 6.85714 12.4286Z" fill="#8893A7"/>
</svg>
