<svg width="16" height="16" viewBox="0 0 16 16" fill="none" xmlns="http://www.w3.org/2000/svg">
<path fill-rule="evenodd" clip-rule="evenodd" d="M12.1391 11.2302L15.8123 14.9016C16.0623 15.1534 16.0623 15.5605 15.8141 15.8123C15.6873 15.9373 15.5248 15.9998 15.3587 15.9998C15.1926 15.9998 15.0284 15.9373 14.9034 15.8123L11.2302 12.1391C10.0427 13.123 8.51952 13.7141 6.85705 13.7141C3.0696 13.7141 0 10.6445 0 6.85705C0 3.0696 3.0696 0 6.85705 0C10.6445 0 13.7141 3.0696 13.7141 6.85705C13.7141 8.51952 13.123 10.0427 12.1391 11.2302ZM6.85705 12.4284C7.61061 12.4284 8.33917 12.282 9.02487 11.9909C9.68915 11.7106 10.2838 11.3088 10.7963 10.7963C11.3088 10.2838 11.7106 9.68736 11.9909 9.02487C12.282 8.33917 12.4284 7.61061 12.4284 6.85705C12.4284 6.10349 12.282 5.37492 11.9909 4.68922C11.7106 4.02673 11.3088 3.43031 10.7963 2.91782C10.2838 2.40532 9.68736 2.00354 9.02487 1.72319C8.33917 1.43212 7.61061 1.2857 6.85705 1.2857C6.10349 1.2857 5.37492 1.43212 4.68922 1.72319C4.02673 2.00354 3.43031 2.40532 2.91782 2.91782C2.40532 3.43031 2.00354 4.02673 1.72319 4.68922C1.43212 5.37492 1.2857 6.10349 1.2857 6.85705C1.2857 7.61061 1.43212 8.33917 1.72319 9.02487C2.00354 9.68736 2.40532 10.2838 2.91782 10.7963C3.43031 11.3088 4.02673 11.7106 4.68922 11.9909C5.37492 12.282 6.10349 12.4284 6.85705 12.4284Z" fill="#8893A7"/>
</svg>
