<svg width="17" height="16" viewBox="0 0 17 16" fill="none" xmlns="http://www.w3.org/2000/svg">
<circle cx="8.5" cy="8" r="8" fill="#253C70"/>
<path fill-rule="evenodd" clip-rule="evenodd" d="M9.53091 3.17082C9.65771 2.81322 9.27491 2.42602 8.91491 2.54962C8.59051 2.62842 8.45531 3.06602 8.66091 3.32242C8.87651 3.63642 9.43651 3.54522 9.53091 3.17082Z" fill="#FFFEFE"/>
<path fill-rule="evenodd" clip-rule="evenodd" d="M8.90959 4.20285C8.53119 4.29405 8.43759 4.86885 8.76759 5.07605C9.04319 5.29605 9.50079 5.10845 9.54439 4.75885C9.62119 4.41005 9.24359 4.08885 8.90959 4.20285Z" fill="#FFFEFE"/>
<path fill-rule="evenodd" clip-rule="evenodd" d="M12.1227 5.75751C11.7575 5.87551 11.5919 6.37631 11.8323 6.68271C12.0811 7.08591 12.7771 6.99151 12.9119 6.53511C13.1015 6.06831 12.5831 5.57471 12.1227 5.75751Z" fill="#FFFEFE"/>
<path fill-rule="evenodd" clip-rule="evenodd" d="M8.90366 5.85839C8.55606 5.95039 8.44726 6.44719 8.70926 6.68479C8.93366 6.91479 9.36206 6.84239 9.49686 6.54879C9.71366 6.18359 9.29446 5.70959 8.90366 5.85839Z" fill="#FFFEFE"/>
<path fill-rule="evenodd" clip-rule="evenodd" d="M6.2751 6.69728C6.5375 6.70128 6.7307 6.36008 6.5739 6.14248C6.4631 5.94008 6.1623 5.88288 6.0015 6.05848C5.7359 6.26368 5.9455 6.75008 6.2751 6.69728Z" fill="#FFFEFE"/>
<path fill-rule="evenodd" clip-rule="evenodd" d="M2.25522 6.41292C2.37242 6.26252 2.11442 6.08412 2.01242 6.24412C1.89522 6.39332 2.15362 6.57292 2.25522 6.41292Z" fill="#FFFEFE"/>
<path fill-rule="evenodd" clip-rule="evenodd" d="M2.05683 7.89968C1.93963 8.04888 2.19763 8.22848 2.29923 8.06888C2.41643 7.91848 2.15843 7.74008 2.05683 7.89968Z" fill="#FFFEFE"/>
<path fill-rule="evenodd" clip-rule="evenodd" d="M2.05612 9.55077C1.93892 9.70037 2.19732 9.87957 2.29892 9.71997C2.41612 9.56957 2.15812 9.39117 2.05612 9.55077Z" fill="#FFFEFE"/>
<path fill-rule="evenodd" clip-rule="evenodd" d="M12.1208 7.41032C11.6956 7.54552 11.5804 8.16672 11.9308 8.44552C12.2896 8.78832 12.964 8.49552 12.9472 7.99432C12.97 7.57272 12.5084 7.26352 12.1208 7.41032Z" fill="#FFFEFE"/>
<path fill-rule="evenodd" clip-rule="evenodd" d="M13.7643 7.39597C13.2771 7.60277 13.2719 8.38477 13.7623 8.58917C14.1743 8.83677 14.7599 8.46437 14.7311 7.99157C14.7507 7.51877 14.1771 7.15957 13.7643 7.39597Z" fill="#FFFEFE"/>
<path fill-rule="evenodd" clip-rule="evenodd" d="M9.54972 7.98635C9.57572 7.61715 9.12972 7.36515 8.81452 7.54235C8.50332 7.70315 8.47412 8.20635 8.78132 8.38555C9.07972 8.61915 9.56012 8.35835 9.54972 7.98635Z" fill="#FFFEFE"/>
<path fill-rule="evenodd" clip-rule="evenodd" d="M7.32473 7.60362C7.09553 7.70322 7.05073 8.01642 7.16833 8.21642C7.32793 8.47362 7.78033 8.46642 7.91193 8.18562C8.14833 7.84322 7.66713 7.36282 7.32473 7.60362Z" fill="#FFFEFE"/>
<path fill-rule="evenodd" clip-rule="evenodd" d="M12.0304 9.09795C11.6436 9.30835 11.6136 9.91955 11.9984 10.1487C12.3696 10.4183 12.9628 10.1091 12.9432 9.64795C12.9784 9.17995 12.4256 8.88755 12.0304 9.09795Z" fill="#FFFEFE"/>
<path fill-rule="evenodd" clip-rule="evenodd" d="M8.79154 10.0441C9.11194 10.2949 9.61394 9.9569 9.54754 9.5725C9.52594 9.2237 9.10474 9.0381 8.81114 9.1989C8.49994 9.3617 8.47194 9.8737 8.79154 10.0441Z" fill="#FFFEFE"/>
<path fill-rule="evenodd" clip-rule="evenodd" d="M6.11038 9.28595C5.86478 9.37475 5.79838 9.74035 6.00158 9.90675C6.20478 10.1256 6.62478 9.95275 6.62078 9.65635C6.66118 9.39475 6.34798 9.17795 6.11038 9.28595Z" fill="#FFFEFE"/>
<path fill-rule="evenodd" clip-rule="evenodd" d="M7.31373 9.25879C7.04493 9.39039 7.03773 9.82399 7.28053 9.98519C7.53773 10.1684 7.97453 9.99039 7.96493 9.65399C8.00453 9.33239 7.58413 9.06279 7.31373 9.25879Z" fill="#FFFEFE"/>
<path fill-rule="evenodd" clip-rule="evenodd" d="M8.88683 10.82C8.51243 10.932 8.45323 11.5 8.79043 11.6952C9.11083 11.946 9.61163 11.6132 9.54963 11.2252C9.52763 10.914 9.17203 10.7172 8.88683 10.82Z" fill="#FFFEFE"/>
<path fill-rule="evenodd" clip-rule="evenodd" d="M10.3555 10.82C10.0267 11.0012 10.0007 11.5056 10.3087 11.72C10.6323 11.976 11.1695 11.7316 11.1819 11.3188C11.2275 10.8988 10.7047 10.5732 10.3555 10.82Z" fill="#FFFEFE"/>
<path fill-rule="evenodd" clip-rule="evenodd" d="M10.3073 10.0545C10.6309 10.3105 11.1677 10.0657 11.1805 9.65287C11.2261 9.23287 10.7033 8.90727 10.3537 9.15447C10.0253 9.33567 9.99929 9.83967 10.3073 10.0545Z" fill="#FFFEFE"/>
<path fill-rule="evenodd" clip-rule="evenodd" d="M10.3821 7.52045C10.0533 7.70205 10.0273 8.20605 10.3353 8.42085C10.6589 8.67685 11.1965 8.43205 11.2089 8.01925C11.2545 7.59925 10.7317 7.27365 10.3821 7.52045Z" fill="#FFFEFE"/>
<path fill-rule="evenodd" clip-rule="evenodd" d="M10.334 6.77891C10.6572 7.03531 11.1944 6.79051 11.2072 6.37731C11.2524 5.95731 10.73 5.63211 10.3804 5.87891C10.0516 6.06011 10.026 6.56411 10.334 6.77891Z" fill="#FFFEFE"/>
<path fill-rule="evenodd" clip-rule="evenodd" d="M10.3843 4.21528C10.0555 4.39688 10.0295 4.90088 10.3375 5.11528C10.6611 5.37168 11.1987 5.12688 11.2107 4.71408C11.2567 4.29408 10.7339 3.96848 10.3843 4.21528Z" fill="#FFFEFE"/>
<path fill-rule="evenodd" clip-rule="evenodd" d="M8.88683 12.4904C8.51243 12.6028 8.45323 13.1712 8.79043 13.366C9.11083 13.6172 9.61163 13.284 9.54963 12.896C9.52763 12.5852 9.17203 12.388 8.88683 12.4904Z" fill="#FFFEFE"/>
<path fill-rule="evenodd" clip-rule="evenodd" d="M7.28053 6.6784C7.53773 6.862 7.97453 6.6836 7.96493 6.3476C8.00453 6.026 7.58413 5.7564 7.31373 5.9524C7.04493 6.084 7.03773 6.5176 7.28053 6.6784Z" fill="#FFFEFE"/>
<path fill-rule="evenodd" clip-rule="evenodd" d="M6.11766 7.63434C5.87166 7.72354 5.80566 8.08874 6.00846 8.25594C6.21206 8.47434 6.63206 8.30114 6.62806 8.00474C6.66846 7.74314 6.35526 7.52634 6.11766 7.63434Z" fill="#FFFEFE"/>
<path fill-rule="evenodd" clip-rule="evenodd" d="M5.02801 9.3208C4.85121 9.3208 4.70801 9.4636 4.70801 9.6404C4.70801 9.8172 4.85121 9.9604 5.02801 9.9604C5.20481 9.9604 5.34801 9.8172 5.34801 9.6404C5.34801 9.4636 5.20481 9.3208 5.02801 9.3208Z" fill="#FFFFFE"/>
<path fill-rule="evenodd" clip-rule="evenodd" d="M5.05511 7.66357C4.87831 7.66357 4.73511 7.80677 4.73511 7.98357C4.73511 8.16037 4.87831 8.30397 5.05511 8.30397C5.23191 8.30397 5.37511 8.16037 5.37511 7.98357C5.37511 7.80677 5.23191 7.66357 5.05511 7.66357Z" fill="#FFFFFE"/>
<path fill-rule="evenodd" clip-rule="evenodd" d="M5.05511 6.00879C4.87831 6.00879 4.73511 6.15239 4.73511 6.32879C4.73511 6.50599 4.87831 6.64919 5.05511 6.64919C5.23191 6.64919 5.37511 6.50599 5.37511 6.32879C5.37511 6.15239 5.23191 6.00879 5.05511 6.00879Z" fill="#FFFFFE"/>
<path fill-rule="evenodd" clip-rule="evenodd" d="M4.01127 9.37207C3.86407 9.37207 3.74487 9.49127 3.74487 9.63887C3.74487 9.78607 3.86407 9.90527 4.01127 9.90527C4.15887 9.90527 4.27807 9.78607 4.27807 9.63887C4.27807 9.49127 4.15887 9.37207 4.01127 9.37207Z" fill="#FFFFFE"/>
<path fill-rule="evenodd" clip-rule="evenodd" d="M4.00956 8.25561C4.15716 8.25561 4.27636 8.13601 4.27636 7.98881C4.27636 7.84161 4.15716 7.72241 4.00956 7.72241C3.86236 7.72241 3.74316 7.84161 3.74316 7.98881C3.74316 8.13601 3.86236 8.25561 4.00956 8.25561Z" fill="#FFFFFE"/>
<path fill-rule="evenodd" clip-rule="evenodd" d="M4.00493 6.60888C4.15213 6.60888 4.27173 6.49008 4.27173 6.34248C4.27173 6.19528 4.15213 6.07568 4.00493 6.07568C3.85773 6.07568 3.73853 6.19528 3.73853 6.34248C3.73853 6.49008 3.85773 6.60888 4.00493 6.60888Z" fill="#FFFFFE"/>
<path fill-rule="evenodd" clip-rule="evenodd" d="M2.98835 9.43726C2.87035 9.43726 2.77515 9.53246 2.77515 9.65046C2.77515 9.76806 2.87035 9.86366 2.98835 9.86366C3.10595 9.86366 3.20155 9.76806 3.20155 9.65046C3.20155 9.53246 3.10595 9.43726 2.98835 9.43726Z" fill="#FFFEFE"/>
<path fill-rule="evenodd" clip-rule="evenodd" d="M3.00031 7.75732C2.88271 7.75732 2.78711 7.85332 2.78711 7.97092C2.78711 8.08892 2.88271 8.18452 3.00031 8.18452C3.11831 8.18452 3.21391 8.08892 3.21391 7.97092C3.21391 7.85332 3.11831 7.75732 3.00031 7.75732Z" fill="#FFFEFE"/>
<path fill-rule="evenodd" clip-rule="evenodd" d="M3.00031 6.10571C2.88271 6.10571 2.78711 6.20131 2.78711 6.31931C2.78711 6.43691 2.88271 6.53251 3.00031 6.53251C3.11831 6.53251 3.21391 6.43691 3.21391 6.31931C3.21391 6.20131 3.11831 6.10571 3.00031 6.10571Z" fill="#FFFEFE"/>
</svg>
