<svg width="17" height="18" viewBox="0 0 17 18" fill="none" xmlns="http://www.w3.org/2000/svg">
<path fill-rule="evenodd" clip-rule="evenodd" d="M16.3258 7.30857L16.3925 7.72966C16.4697 8.19285 16.5047 8.60868 16.4995 8.99642C16.4995 9.38768 16.4644 9.80175 16.3907 10.2632L16.324 10.6843L15.038 11.1141C14.9257 11.4633 14.7853 11.8019 14.6186 12.1265L15.2257 13.3389L14.9766 13.6863C14.7099 14.053 14.4432 14.3723 14.1572 14.6583C13.8817 14.939 13.5642 15.2074 13.1869 15.4794L12.8413 15.7285L11.6289 15.1215C11.3008 15.2864 10.9622 15.4267 10.6183 15.539L10.1902 16.8269L9.76914 16.8935C9.30595 16.9672 8.89188 17.0023 8.50062 17.0023C8.10936 17.0023 7.69529 16.9672 7.23386 16.8935L6.81277 16.8269L6.38467 15.539C6.03727 15.4285 5.69865 15.2864 5.37231 15.1197L4.16169 15.7268L3.81605 15.4776C3.43532 15.1987 3.11775 14.9302 2.8458 14.6565C2.55455 14.3635 2.2861 14.0459 2.02643 13.6845L1.77729 13.3406L2.38085 12.1318C2.21417 11.8072 2.07381 11.4668 1.96152 11.1194L0.675452 10.6895L0.60878 10.2685C0.53509 9.80701 0.5 9.39295 0.5 8.99993C0.5 8.60868 0.53509 8.19461 0.60878 7.72966L0.675452 7.30857L1.96152 6.88223C2.07381 6.53483 2.21417 6.19621 2.37909 5.87162L1.77203 4.65925L2.02117 4.31185C2.52296 3.62057 3.12652 3.01877 3.81429 2.52048L4.15993 2.27134L5.37055 2.88016C5.68812 2.71874 6.0285 2.57838 6.38291 2.46258L6.81102 1.17477L7.2321 1.10809C7.70758 1.03265 8.11112 0.997559 8.50062 0.997559C8.90065 0.997559 9.30244 1.03265 9.76738 1.10634L10.185 1.17126L10.6131 2.45381C10.9605 2.5661 11.2991 2.70646 11.6254 2.87314L12.8378 2.26608L13.1834 2.51522C13.8695 3.0135 14.473 3.61706 14.9783 4.30659L15.2275 4.65398L14.6204 5.86636C14.7871 6.19094 14.9274 6.53132 15.0397 6.87872L16.3258 7.30857ZM15.2432 8.99467V8.9859C15.2468 8.76132 15.2327 8.52446 15.1994 8.26128L14.5783 8.05425L14.0326 7.87178L13.8607 7.32261C13.7607 7.00153 13.6291 6.68572 13.4729 6.38394L13.2098 5.87688L13.7572 4.78031C13.4466 4.39607 13.0957 4.04692 12.7132 3.73988L11.6167 4.28904L11.1078 4.02235C10.8078 3.86796 10.4938 3.73812 10.1744 3.63811L9.62527 3.46793L9.23577 2.30468C8.9796 2.27485 8.73748 2.25906 8.50237 2.25906C8.27429 2.25906 8.03392 2.27485 7.76898 2.30468L7.56195 2.92578L7.37948 3.47143L6.83032 3.64338C6.50573 3.74514 6.19167 3.87497 5.89691 4.02937L5.38634 4.29781L4.28801 3.74865C3.90553 4.05569 3.55638 4.40484 3.24934 4.78733L3.54059 5.37158L3.79675 5.88566L3.53006 6.39447C3.37391 6.69625 3.24407 7.01031 3.14582 7.32787L2.97563 7.87879L1.81063 8.26654C1.7808 8.52446 1.76501 8.76483 1.76501 9.00169C1.76501 9.23855 1.77905 9.48067 1.81063 9.73683L2.97914 10.1246L3.14933 10.6773C3.24407 10.9896 3.37391 11.3019 3.53357 11.6072L3.80026 12.116L3.25284 13.2125C3.41075 13.4126 3.57041 13.5933 3.7406 13.7635C3.90728 13.9301 4.088 14.0898 4.29152 14.2512L4.87578 13.96L5.39336 13.7021L5.90568 13.9687C6.19342 14.1214 6.50397 14.2495 6.83032 14.3495L7.38299 14.5197L7.56371 15.0688L7.77074 15.6899C8.02865 15.7198 8.27078 15.7355 8.50588 15.7355C8.74274 15.7355 8.98487 15.7215 9.24103 15.6899L9.44806 15.0688L9.62702 14.5249L10.1762 14.353C10.4973 14.2512 10.8131 14.1214 11.1131 13.9652L11.6219 13.7003L12.7185 14.2495C12.922 14.0898 13.1027 13.9301 13.2659 13.7652L13.2694 13.7617C13.4361 13.595 13.5958 13.4143 13.7572 13.2108L13.2062 12.1107L13.4764 11.6001C13.6326 11.3054 13.7607 10.9948 13.8572 10.6755L14.0274 10.1228L14.5765 9.93685L15.1976 9.72981C15.2275 9.4719 15.2432 9.23153 15.2432 8.99467ZM8.50413 5.9418C6.81803 5.9418 5.446 7.31384 5.446 8.99993C5.446 10.686 6.81803 12.0581 8.50413 12.0581C10.1902 12.0581 11.5623 10.686 11.5623 8.99993C11.5623 7.31384 10.1902 5.9418 8.50413 5.9418ZM8.50413 10.7948C8.98311 10.7948 9.43403 10.6071 9.77265 10.2685C10.1113 9.92983 10.299 9.47892 10.299 8.99993C10.299 8.52095 10.1113 8.07179 9.77265 7.73141C9.43403 7.39104 8.98311 7.20506 8.50413 7.20506C8.02514 7.20506 7.57423 7.39279 7.23561 7.73141C6.89523 8.07004 6.70925 8.52095 6.70925 8.99993C6.70925 9.47892 6.89699 9.92983 7.23561 10.2685C7.57423 10.6088 8.02514 10.7948 8.50413 10.7948Z"/>
</svg>
