<svg width="16" height="16" viewBox="0 0 16 16" fill="none" xmlns="http://www.w3.org/2000/svg">
<path fill-rule="evenodd" clip-rule="evenodd" d="M14.9993 6.50797V4.62681C14.9993 4.00496 14.4962 3.50186 13.8744 3.50186H7.64027L7.24966 2.28473C7.10123 1.81756 6.66844 1.50195 6.17784 1.50195H1.12495C0.503102 1.50195 0 2.00505 0 2.6269V13.3811C0 13.4358 0.00468728 13.4905 0.0124994 13.5436C0.0124994 13.5451 0.0124994 13.5483 0.0140618 13.5498C0.0156243 13.5576 0.0167961 13.5655 0.0179679 13.5733L0.0179692 13.5733C0.0191406 13.5811 0.0203121 13.5889 0.021874 13.5967C0.0225906 13.5989 0.0229785 13.601 0.0233392 13.603C0.023765 13.6054 0.024153 13.6075 0.0249988 13.6092L0.0296861 13.6287L0.0343734 13.6483C0.035154 13.6522 0.0363247 13.6561 0.0374957 13.66L0.0374983 13.66C0.0386701 13.6639 0.0398419 13.6678 0.0406231 13.6717L0.0453104 13.6904C0.0499977 13.7076 0.054685 13.7233 0.0609347 13.7389V13.7404C0.118744 13.9092 0.215615 14.0592 0.342172 14.1811L0.345296 14.1842C0.351546 14.1896 0.357405 14.1951 0.363264 14.2006L0.363311 14.2006C0.369155 14.2061 0.374999 14.2115 0.381232 14.217C0.387482 14.2217 0.393732 14.2279 0.398419 14.2326C0.401544 14.235 0.404278 14.2373 0.407012 14.2396C0.409747 14.242 0.412481 14.2443 0.415606 14.2467C0.419705 14.2501 0.424103 14.2535 0.428669 14.2571L0.428695 14.2571C0.434563 14.2616 0.440709 14.2664 0.446854 14.2717C0.448413 14.2725 0.449971 14.2736 0.45153 14.2748L0.451541 14.2748C0.453104 14.276 0.454666 14.2771 0.456229 14.2779C0.462478 14.2826 0.469119 14.2873 0.475759 14.292C0.482399 14.2967 0.48904 14.3014 0.495289 14.306C0.496071 14.306 0.496461 14.3064 0.496852 14.3068C0.497242 14.3072 0.497633 14.3076 0.498414 14.3076C0.645283 14.406 0.817149 14.4732 1.0062 14.492C1.00933 14.492 1.01089 14.492 1.01402 14.4935L1.018 14.4939C1.03364 14.4953 1.04816 14.4967 1.06401 14.4967H1.07339C1.08198 14.4967 1.09057 14.4971 1.09917 14.4974C1.10776 14.4978 1.11635 14.4982 1.12495 14.4982H13.4369C13.9525 14.4982 14.4025 14.1467 14.529 13.6467L15.9664 7.89697C16.1321 7.23137 15.6649 6.5814 14.9993 6.50797ZM1.12495 2.6269H6.17471L6.81843 4.62681H13.8744V6.50172H2.56238C2.04678 6.50172 1.5968 6.85327 1.47024 7.35324L1.12495 8.74068V2.6269ZM1.12495 13.3764H13.4369L14.8743 7.62667H2.56238L1.12495 13.3764Z" fill="#8893A7"/>
</svg>
