<svg width="17" height="16" viewBox="0 0 17 16" fill="none" xmlns="http://www.w3.org/2000/svg">
<path fill-rule="evenodd" clip-rule="evenodd" d="M11.6578 11.8615C12.1299 11.1453 12.9423 10.6714 13.8615 10.6714C15.3153 10.6714 16.5 11.8561 16.5 13.3099C16.5 14.7636 15.3171 15.9466 13.8633 15.9466C12.4096 15.9466 11.2266 14.7636 11.2266 13.3099C11.2266 13.2493 11.2284 13.1905 11.232 13.1317L6.90107 10.0603C6.25971 10.9565 5.21039 11.5426 4.02745 11.5426C2.08201 11.5426 0.5 9.96058 0.5 8.01514C0.5 6.0697 2.08201 4.4877 4.02745 4.4877C5.0358 4.4877 5.94616 4.9117 6.5893 5.59225L11.2908 3.2228C11.248 3.03396 11.2249 2.83799 11.2249 2.63668C11.2249 1.18294 12.4078 0 13.8615 0C15.3153 0 16.4982 1.18294 16.4982 2.63668C16.4982 4.09041 15.3153 5.27336 13.8615 5.27336C13.0688 5.27336 12.3579 4.92239 11.8733 4.36655L7.28944 6.67543C7.46047 7.08874 7.55489 7.54125 7.55489 8.01514C7.55489 8.31266 7.51748 8.59949 7.448 8.87563L11.6578 11.8615ZM15.2155 2.63668C15.2155 1.89021 14.608 1.28271 13.8615 1.28271C13.1151 1.28271 12.5076 1.89021 12.5076 2.63668C12.5076 3.38314 13.1151 3.99065 13.8615 3.99065C14.608 3.99065 15.2155 3.38314 15.2155 2.63668ZM4.02745 10.2599C2.78928 10.2599 1.78271 9.25331 1.78271 8.01514C1.78271 6.77697 2.78928 5.7704 4.02745 5.7704C5.26562 5.7704 6.27219 6.77697 6.27219 8.01514C6.27219 9.25331 5.26562 10.2599 4.02745 10.2599ZM12.5076 13.3081C12.5076 14.0546 13.1151 14.6621 13.8615 14.6621C14.608 14.6621 15.2155 14.0546 15.2155 13.3081C15.2155 12.5616 14.608 11.9541 13.8615 11.9541C13.1151 11.9541 12.5076 12.5616 12.5076 13.3081Z" fill="#8893A7"/>
</svg>
