<svg width="17" height="16" viewBox="0 0 17 16" fill="none" xmlns="http://www.w3.org/2000/svg">
<path d="M13.8394 1.2H9.49376C8.411 1.2 7.53326 2.07775 7.53326 3.1605L7.53325 6.5H6.33325L6.33326 3.1605C6.33326 1.41501 7.74826 0 9.49376 0H13.8394C15.5849 0 16.9999 1.41501 16.9999 3.1605V12.8395C16.9999 14.585 15.5849 16 13.8394 16H9.49376C7.74826 16 6.33326 14.585 6.33326 12.8395V10H7.53326V12.8395C7.53326 13.9223 8.411 14.8 9.49376 14.8H13.8394C14.9222 14.8 15.7999 13.9223 15.7999 12.8395V3.1605C15.7999 2.07775 14.9222 1.2 13.8394 1.2Z" fill="#8893A7"/>
<path d="M10.0448 7.72212H2.11266C2.11128 7.72212 2.10989 7.71934 2.11128 7.71934L5.10329 4.82964C5.34525 4.59624 5.35355 4.20863 5.11988 3.96551C4.8876 3.72238 4.50185 3.71405 4.25989 3.94884L0.186655 7.88188C0.0677489 7.99719 0 8.15696 0 8.32228C0 8.489 0.0677489 8.64738 0.186655 8.76269L4.28201 12.718C4.39953 12.8319 4.55162 12.8888 4.70371 12.8888C4.8641 12.8888 5.0231 12.8263 5.142 12.7013C5.37429 12.4582 5.36737 12.0706 5.12541 11.8372L2.1334 8.94746C2.13202 8.94607 2.1334 8.94468 2.13478 8.94468H10.0586C10.3822 8.94468 10.6463 8.69044 10.6656 8.37091C10.6864 8.01664 10.3974 7.72212 10.0448 7.72212Z" fill="#8893A7"/>
</svg>
