<svg width="17" height="16" viewBox="0 0 17 16" fill="none" xmlns="http://www.w3.org/2000/svg">
<path fill-rule="evenodd" clip-rule="evenodd" d="M12.8992 4.77157L15.8759 1.80029C16.8556 3.31632 16.6821 5.35796 15.3538 6.68807C14.3294 7.71246 12.8796 8.04856 11.5727 7.69995L8.19379 11.0735C8.5442 12.3768 8.20452 13.8267 7.18191 14.8493C5.85359 16.174 3.80838 16.3474 2.29235 15.3677L5.26899 12.3964L4.05688 11.1861L1.09096 14.1485C0.148803 12.6396 0.332944 10.6265 1.64517 9.3161C2.66957 8.2917 4.11945 7.9556 5.42632 8.30422L8.80521 4.92711C8.45481 3.62382 8.79448 2.17393 9.81709 1.15133C11.1293 -0.159112 13.1424 -0.343253 14.6548 0.598904L11.6871 3.56125L12.8992 4.77157ZM4.36974 14.8904C5.10452 14.9029 5.84287 14.6294 6.40423 14.0698C7.29097 13.1831 7.46259 11.8512 6.91374 10.7928C6.78145 10.5425 6.61161 10.3047 6.40065 10.0938C6.1897 9.88282 5.95371 9.71298 5.70163 9.58247C4.64148 9.03542 3.31138 9.20525 2.42285 10.092C1.86149 10.6534 1.58796 11.3899 1.60048 12.1247L3.29886 10.4281C3.72972 9.99724 4.42516 9.99724 4.85602 10.4281L6.06813 11.6384C6.49898 12.0693 6.49898 12.7629 6.06813 13.1938L4.36974 14.8904ZM7.72003 9.99009C7.56807 9.75231 7.38929 9.52527 7.18012 9.31788C6.97274 9.1105 6.74569 8.92994 6.50792 8.77976L9.27897 6.01229C9.43093 6.25006 9.60971 6.47711 9.81888 6.68449C10.0263 6.89187 10.2533 7.07244 10.4911 7.22261L7.72003 9.99009ZM11.2974 6.41811C12.3575 6.96517 13.6876 6.79533 14.5762 5.9086C15.1357 5.34724 15.411 4.61067 15.4003 3.87768L13.7019 5.57428C13.2711 6.00514 12.5756 6.00514 12.1448 5.57428L10.9327 4.36396C10.5018 3.93311 10.5018 3.23945 10.9327 2.80859L12.6311 1.112C11.8963 1.09948 11.1561 1.37301 10.5966 1.93258C9.70804 2.81753 9.5382 4.14943 10.0853 5.20779C10.2176 5.45808 10.3874 5.69585 10.5984 5.90681C10.8093 6.11777 11.0453 6.28761 11.2974 6.41811Z" fill="#8893A7"/>
</svg>
