<svg width="16" height="16" viewBox="0 0 16 16" fill="none" xmlns="http://www.w3.org/2000/svg">
<path fill-rule="evenodd" clip-rule="evenodd" d="M4.5629 6.63989C4.08795 6.63989 3.70361 7.02423 3.70361 7.49918C3.70361 7.97414 4.08951 8.35847 4.5629 8.35847C5.03786 8.35847 5.4222 7.97414 5.4222 7.49918C5.4222 7.02423 5.03786 6.63989 4.5629 6.63989ZM11.4372 6.63989C10.9623 6.63989 10.5779 7.02423 10.5779 7.49918C10.5779 7.97414 10.9638 8.35847 11.4372 8.35847C11.9106 8.35847 12.295 7.97414 12.2965 7.49918C12.2965 7.02423 11.9106 6.63989 11.4372 6.63989ZM7.14078 7.49918C7.14078 7.02423 7.52512 6.63989 8.00007 6.63989C8.47346 6.63989 8.85936 7.02423 8.85936 7.49918C8.85936 7.97414 8.47346 8.35847 8.00007 8.35847C7.52668 8.35847 7.14078 7.97414 7.14078 7.49918Z" fill="#8893A7"/>
<path fill-rule="evenodd" clip-rule="evenodd" d="M13.6416 2.17947C14.3806 2.86691 14.9602 3.66839 15.3649 4.56049C15.7851 5.48853 15.9992 6.47437 15.9976 7.49146C15.9976 8.50854 15.7851 9.49282 15.3633 10.4209C14.9571 11.3145 14.3775 12.1144 13.64 12.8019C12.9057 13.4862 12.0511 14.0236 11.0996 14.3986C10.1169 14.7845 9.07328 14.9813 7.99839 14.9813C7.14378 14.9813 6.3048 14.8564 5.50176 14.6095L3.1848 15.9266C3.09887 15.975 3.002 16 2.9067 16C2.82077 16 2.73328 15.9797 2.6536 15.9391C2.48486 15.8547 2.37081 15.6907 2.34894 15.5032L1.98804 12.4316C0.705351 11.063 0.000732422 9.31628 0.000732422 7.48989C0.000732422 6.47437 0.214774 5.48853 0.635045 4.56049C1.04126 3.66683 1.62089 2.86691 2.35831 2.17947C3.09262 1.49517 3.94722 0.957719 4.89869 0.582756C5.88141 0.196856 6.92506 0 7.99995 0C9.07485 0 10.1185 0.196856 11.1012 0.582756C12.0527 0.957719 12.9073 1.49517 13.6416 2.17947ZM12.8745 11.977C13.5041 11.3911 13.9962 10.7099 14.34 9.95372C14.6946 9.17254 14.8743 8.3445 14.8758 7.48989C14.8758 6.63529 14.6962 5.80725 14.3415 5.02607C13.9978 4.26833 13.5041 3.58871 12.876 3.00283C12.2448 2.41383 11.509 1.95293 10.6888 1.62953C9.83727 1.29519 8.93267 1.12489 7.99995 1.12489C7.06723 1.12489 6.16263 1.29519 5.31271 1.62953C4.49248 1.95293 3.75662 2.41539 3.12543 3.00283C2.4958 3.58871 2.00366 4.2699 1.65995 5.02607C1.30529 5.80725 1.12562 6.63529 1.12562 7.48989C1.12562 9.08193 1.76462 10.6068 2.92388 11.7817C3.01138 11.8707 3.06762 11.9863 3.08168 12.1113L3.36603 14.5283L5.16117 13.5081C5.30021 13.4284 5.46739 13.4128 5.6205 13.4643C6.3798 13.7237 7.18128 13.8549 7.99839 13.8549C8.93111 13.8549 9.83571 13.6862 10.6872 13.3503C11.5074 13.0269 12.2433 12.5644 12.8745 11.977Z" fill="#8893A7"/>
</svg>
