<svg width="16" height="16" viewBox="0 0 16 16" fill="none" xmlns="http://www.w3.org/2000/svg">
<path fill-rule="evenodd" clip-rule="evenodd" d="M13.5833 2.11249C14.8616 2.11249 15.8961 3.24368 15.8961 4.64985C15.9711 5.76542 16.0055 6.87785 15.9993 7.99029C16.0024 9.10585 15.968 10.2183 15.893 11.3339C15.893 12.74 14.8585 13.8806 13.5802 13.8806C11.7581 13.9681 9.89844 14.0056 7.99817 13.9993C6.10104 14.0025 4.23515 13.965 2.41615 13.8806C1.14098 13.8806 0.10646 12.74 0.10646 11.3339C0.0314494 10.2183 -0.00293032 9.10585 0.000195114 7.99342C-0.00293032 6.88098 0.0314494 5.76854 0.109585 4.6561C0.109585 3.24993 1.1441 2.11249 2.41928 2.11249C4.15077 2.03125 5.91976 2 7.72001 2H8.0013H8.28259C10.086 2 11.8518 2.03125 13.5833 2.11249ZM6 5V11L11 7.99847L6 5Z" fill="#1971C2"/>
</svg>
