<svg width="16" height="16" viewBox="0 0 16 16" fill="none" xmlns="http://www.w3.org/2000/svg">
<path fill-rule="evenodd" clip-rule="evenodd" d="M10.8291 1H5.1702C2.86791 1.00271 1.00232 2.86861 1 5.1709V10.8298C1.00271 13.1321 2.86861 14.9977 5.1709 15H10.8298C13.1321 14.9973 14.9977 13.1314 15 10.8291V5.1702C14.9973 2.86791 13.1314 1.00232 10.8291 1ZM13.5919 10.8291C13.5919 11.5619 13.3009 12.2646 12.7827 12.7827C12.2646 13.3009 11.5619 13.5919 10.8291 13.5919H5.1702C3.6446 13.5915 2.40806 12.3547 2.40806 10.8291V5.1702C2.40845 3.6446 3.6453 2.40806 5.1709 2.40806H10.8298C12.3554 2.40845 13.5919 3.6453 13.5919 5.1709V10.8291ZM4.37991 7.99965C4.38262 6.00153 6.00153 4.3823 7.99965 4.37921V4.37991C9.99831 4.38185 11.6184 6.00099 11.6215 7.99965C11.6192 9.99859 9.99929 11.6185 8.00035 11.6208C6.00169 11.6181 4.38223 9.99831 4.37991 7.99965ZM7.99965 10.2127C6.77779 10.2127 5.78728 9.22221 5.78728 8.00035C5.78728 6.77849 6.77779 5.78798 7.99965 5.78798C9.22151 5.78798 10.212 6.77849 10.212 8.00035C10.212 9.22221 9.22151 10.2127 7.99965 10.2127ZM11.6278 5.27398C12.1069 5.27398 12.4952 4.88562 12.4952 4.40656C12.4952 3.9275 12.1069 3.53914 11.6278 3.53914C11.1487 3.53914 10.7604 3.9275 10.7604 4.40656C10.7604 4.88562 11.1487 5.27398 11.6278 5.27398Z" fill="#1971C2"/>
</svg>
