<svg width="16" height="16" viewBox="0 0 16 16" fill="none" xmlns="http://www.w3.org/2000/svg">
<path d="M4.06504 6.64635C3.91614 7.08157 3.84047 7.53847 3.84108 7.99846C3.84108 8.51214 3.93346 9.00413 4.10423 9.45833C4.53503 10.6074 5.45109 11.5078 6.60747 11.9187C7.76386 12.3295 9.04264 12.209 10.1019 11.5894H10.1026C10.927 11.106 11.5605 10.3542 11.897 9.45973H8.15493V6.69114H14.8769C15.0508 7.60688 15.0403 8.54809 14.8462 9.45973C14.5097 11.0357 13.6395 12.4472 12.3827 13.4559C11.1413 14.4555 9.59479 14.9994 8.00097 14.9969C5.55711 14.9983 3.28962 13.7245 2.01939 11.6367C0.749171 9.54884 0.660294 6.94957 1.78494 4.77987C2.98759 2.45711 5.38533 0.999082 8.00097 1C9.69879 1 11.2559 1.60467 12.4681 2.61104L10.2006 4.46704C9.12457 3.79736 7.80208 3.65438 6.60779 4.07858C5.4135 4.50279 4.47753 5.44797 4.06504 6.64635Z" fill="#1971C2"/>
</svg>
