<svg width="16" height="16" viewBox="0 0 16 16" fill="none" xmlns="http://www.w3.org/2000/svg">
<path d="M16 3.0427C15.41 3.30377 14.7794 3.48008 14.1149 3.56145C14.793 3.15459 15.3151 2.51038 15.5592 1.74412C14.9252 2.12047 14.2234 2.3951 13.474 2.5409C12.8739 1.90008 12.0195 1.5 11.0769 1.5C9.26298 1.5 7.79487 2.9715 7.79487 4.78544C7.79487 5.04312 7.822 5.29402 7.87964 5.53475C5.15024 5.39913 2.72939 4.09038 1.1121 2.10013C0.830684 2.58498 0.667938 3.1512 0.667938 3.75132C0.667938 4.89055 1.25111 5.89754 2.13266 6.4875C1.59017 6.47394 1.08159 6.32475 0.640814 6.07724C0.640814 6.0908 0.640814 6.10437 0.640814 6.11793C0.640814 7.71149 1.77326 9.03719 3.27527 9.33895C3.00064 9.41354 2.70905 9.45423 2.41068 9.45423C2.20047 9.45423 1.99364 9.43388 1.7936 9.3932C2.21064 10.6986 3.42445 11.6479 4.86205 11.675C3.73978 12.5566 2.32253 13.0821 0.783217 13.0821C0.518754 13.0821 0.257682 13.0652 0 13.0346C1.44776 13.9772 3.17355 14.5197 5.02479 14.5197C11.0701 14.5197 14.3725 9.51187 14.3725 5.16857C14.3725 5.02617 14.3691 4.88377 14.3624 4.74476C15.0032 4.28025 15.5592 3.70386 16 3.0427Z" fill="#1971C2"/>
</svg>
