<svg width="16" height="16" viewBox="0 0 16 16" fill="none" xmlns="http://www.w3.org/2000/svg">
<path d="M14.2271 1H1.77292C1.34635 1 1 1.34635 1 1.77292V14.2271C1 14.6536 1.34635 15 1.77292 15H8V9.45833H6.32656V7.41667H8V5.90729C8 4.09896 9.25417 3.11458 10.8693 3.11458C11.6422 3.11458 12.4734 3.17292 12.6667 3.19844V5.08698H11.3797C10.501 5.08698 10.3333 5.5026 10.3333 6.1151V7.41667H12.426L12.1526 9.45833H10.3333V15H14.2271C14.6536 15 15 14.6536 15 14.2271V1.77292C15 1.34635 14.6536 1 14.2271 1Z" fill="#1971C2"/>
</svg>
