<svg width="17" height="16" viewBox="0 0 17 16" fill="none" xmlns="http://www.w3.org/2000/svg">
<path fill-rule="evenodd" clip-rule="evenodd" d="M1.23958 5.66804C1.24641 5.67032 1.25324 5.67032 1.26006 5.67032C1.26195 5.67126 1.26422 5.67181 1.26689 5.67246C1.27066 5.67337 1.27521 5.67448 1.28054 5.67714H1.3215H15.6808C16.1336 5.67714 16.5 5.31077 16.5 4.85791C16.5 4.40506 16.1336 4.03869 15.6808 4.03869H3.29903L5.93877 1.39895C6.25964 1.08036 6.25964 0.561513 5.93877 0.240649C5.62018 -0.0802162 5.10134 -0.0802162 4.78047 0.240649L0.741217 4.2799C0.736666 4.28445 0.732115 4.28958 0.727564 4.2947C0.723012 4.29982 0.718461 4.30494 0.71391 4.30949L0.700256 4.32314C0.69798 4.32542 0.695705 4.32826 0.693429 4.33111C0.691153 4.33395 0.688878 4.33679 0.686602 4.33907C0.679775 4.34362 0.675224 4.35045 0.670673 4.35728C0.668397 4.35955 0.663846 4.3641 0.66157 4.36865C0.654743 4.37548 0.650192 4.38231 0.645641 4.38913C0.644503 4.39141 0.643365 4.39312 0.642227 4.39482C0.641089 4.39653 0.639952 4.39824 0.638814 4.40051C0.636538 4.40393 0.634263 4.40791 0.631987 4.41189C0.629711 4.41587 0.627436 4.41986 0.62516 4.42327C0.624022 4.42554 0.622884 4.42725 0.621747 4.42896C0.620609 4.43066 0.619471 4.43237 0.618333 4.43465C0.616057 4.43806 0.613782 4.44204 0.611506 4.44602C0.609231 4.45001 0.606955 4.45399 0.604679 4.4574L0.597852 4.47106C0.595577 4.47447 0.59387 4.47788 0.592163 4.4813C0.590457 4.48471 0.58875 4.48812 0.586474 4.49154L0.579647 4.50519C0.578509 4.50861 0.576803 4.51202 0.575096 4.51543C0.573389 4.51885 0.571683 4.52226 0.570545 4.52567C0.569407 4.52909 0.568269 4.53193 0.567131 4.53477C0.565993 4.53762 0.564856 4.54046 0.563718 4.54388C0.56258 4.54729 0.561442 4.55014 0.560304 4.55298C0.559167 4.55582 0.558029 4.55867 0.556891 4.56208L0.550064 4.58256C0.550064 4.58711 0.547788 4.59394 0.545513 4.59849C0.544375 4.60191 0.543237 4.60589 0.542099 4.60987C0.540961 4.61385 0.539824 4.61784 0.538686 4.62125C0.537548 4.62352 0.536979 4.6258 0.53641 4.62808C0.535841 4.63035 0.535272 4.63263 0.534135 4.6349C0.532997 4.63945 0.531859 4.64344 0.530721 4.64742C0.529583 4.6514 0.528445 4.65538 0.527308 4.65993C0.527308 4.66221 0.526739 4.66449 0.52617 4.66676C0.525601 4.66904 0.525032 4.67131 0.525032 4.67359C0.525032 4.68042 0.522756 4.68952 0.520481 4.69862C0.520481 4.7009 0.519912 4.70317 0.519343 4.70545C0.518774 4.70772 0.518205 4.71 0.518205 4.71227C0.516996 4.7159 0.51643 4.72017 0.515823 4.72474C0.515288 4.72877 0.514721 4.73304 0.513654 4.73731C0.513654 4.73958 0.513085 4.74243 0.512516 4.74527C0.511947 4.74812 0.511378 4.75096 0.511378 4.75324C0.511378 4.75779 0.510809 4.76177 0.51024 4.76575C0.509671 4.76973 0.509103 4.77372 0.509103 4.77827C0.506827 4.78509 0.506827 4.79192 0.506827 4.79875C0.504551 4.8033 0.504551 4.81013 0.504551 4.81695C0.502276 4.84426 0.502276 4.87157 0.504551 4.89888C0.506827 4.90343 0.506827 4.91025 0.506827 4.91708C0.509103 4.92391 0.509103 4.93074 0.509103 4.93756C0.509103 4.94211 0.509671 4.9461 0.51024 4.95008C0.510809 4.95406 0.511378 4.95804 0.511378 4.96259C0.511378 4.96487 0.511947 4.96771 0.512516 4.97056C0.513085 4.9734 0.513654 4.97625 0.513654 4.97852C0.514862 4.98215 0.515429 4.98642 0.516036 4.99099C0.516571 4.99502 0.517138 4.99929 0.518205 5.00356C0.518205 5.00583 0.518774 5.00811 0.519343 5.01038C0.519912 5.01266 0.520481 5.01493 0.520481 5.01721C0.520481 5.02404 0.522756 5.03314 0.525032 5.04224C0.525032 5.04452 0.525601 5.04679 0.52617 5.04907C0.526739 5.05134 0.527308 5.05362 0.527308 5.0559C0.528445 5.06045 0.529583 5.06443 0.530721 5.06841C0.531859 5.07239 0.532997 5.07638 0.534135 5.08093C0.535272 5.0832 0.535841 5.08548 0.53641 5.08775C0.536979 5.09003 0.537548 5.09231 0.538686 5.09458C0.539824 5.09799 0.540961 5.10198 0.542099 5.10596C0.543237 5.10994 0.544375 5.11392 0.545513 5.11734C0.545513 5.12189 0.547788 5.12872 0.550064 5.13327L0.556891 5.15375C0.558029 5.15716 0.559167 5.16001 0.560304 5.16285C0.561442 5.16569 0.56258 5.16854 0.563718 5.17195C0.564856 5.17537 0.565993 5.17821 0.567131 5.18106C0.568269 5.1839 0.569407 5.18674 0.570545 5.19016C0.571683 5.19357 0.573389 5.19698 0.575096 5.2004C0.576803 5.20381 0.578509 5.20722 0.579647 5.21064L0.586474 5.22429C0.58875 5.22771 0.590457 5.23112 0.592163 5.23453C0.59387 5.23795 0.595577 5.24136 0.597852 5.24477L0.604679 5.25843C0.606955 5.26184 0.609231 5.26582 0.611506 5.26981C0.613782 5.27379 0.616057 5.27777 0.618333 5.28118C0.619471 5.28346 0.620609 5.28517 0.621747 5.28687C0.622884 5.28858 0.624022 5.29029 0.62516 5.29256C0.627436 5.29597 0.629711 5.29996 0.631987 5.30394C0.634263 5.30792 0.636538 5.3119 0.638814 5.31532C0.639952 5.31759 0.641089 5.3193 0.642227 5.32101C0.643365 5.32271 0.644503 5.32442 0.645641 5.3267C0.652468 5.33352 0.657019 5.34035 0.66157 5.34718C0.663846 5.34945 0.668397 5.354 0.670673 5.35855C0.6775 5.36311 0.682051 5.36993 0.686602 5.37676C0.688878 5.37904 0.691153 5.38188 0.693429 5.38472C0.695705 5.38757 0.69798 5.39041 0.700256 5.39269C0.702531 5.39724 0.707081 5.40179 0.711631 5.40634L0.711634 5.40634C0.729839 5.42682 0.748044 5.44503 0.768525 5.46323C0.773076 5.46551 0.777628 5.47006 0.782179 5.47461C0.784455 5.47689 0.787299 5.47916 0.790144 5.48144C0.792988 5.48372 0.795833 5.48599 0.798108 5.48827C0.80266 5.49509 0.809487 5.49964 0.816313 5.5042C0.818589 5.50647 0.82314 5.51102 0.827692 5.5133C0.834519 5.52012 0.841345 5.52468 0.848172 5.52923C0.850448 5.53037 0.852155 5.5315 0.853861 5.53264C0.855568 5.53378 0.857275 5.53492 0.859551 5.53605C0.862964 5.53833 0.866946 5.54061 0.870929 5.54288C0.874911 5.54516 0.878893 5.54743 0.882307 5.54971C0.884583 5.55085 0.886289 5.55198 0.887996 5.55312C0.889703 5.55426 0.891409 5.5554 0.893685 5.55654C0.897099 5.55881 0.901081 5.56109 0.905063 5.56336C0.909046 5.56564 0.913028 5.56791 0.916441 5.57019L0.930095 5.57702C0.933509 5.57929 0.936922 5.581 0.940336 5.58271C0.943749 5.58441 0.947163 5.58612 0.950576 5.58839C0.9574 5.59067 0.961951 5.59294 0.9665 5.59522L0.966505 5.59522C0.969919 5.59636 0.973332 5.59807 0.976746 5.59977C0.980159 5.60148 0.983573 5.60319 0.986986 5.60432C0.9904 5.60546 0.993244 5.6066 0.996089 5.60774C0.998933 5.60887 1.00178 5.61001 1.00519 5.61115C1.0086 5.61229 1.01145 5.61343 1.01429 5.61456C1.01714 5.6157 1.01998 5.61684 1.0234 5.61798L1.04388 5.6248C1.04843 5.6248 1.05526 5.62708 1.05981 5.62936C1.06322 5.63049 1.0672 5.63163 1.07118 5.63277C1.07517 5.63391 1.07915 5.63505 1.08256 5.63618C1.08484 5.63732 1.08711 5.63789 1.08939 5.63846C1.09167 5.63903 1.09394 5.6396 1.09622 5.64073C1.10077 5.64187 1.10475 5.64301 1.10873 5.64415C1.11272 5.64528 1.1167 5.64642 1.12125 5.64756C1.12352 5.64756 1.1258 5.64813 1.12808 5.6487C1.13035 5.64927 1.13263 5.64984 1.1349 5.64984C1.14173 5.65211 1.15083 5.65439 1.15993 5.65666C1.16221 5.65666 1.16449 5.65723 1.16676 5.6578C1.16904 5.65837 1.17131 5.65894 1.17359 5.65894C1.17721 5.66015 1.18148 5.66071 1.18605 5.66132C1.19008 5.66186 1.19435 5.66242 1.19862 5.66349C1.2009 5.66349 1.20374 5.66406 1.20659 5.66463C1.20943 5.6652 1.21227 5.66577 1.21455 5.66577C1.2191 5.66577 1.22308 5.66633 1.22707 5.6669C1.23105 5.66747 1.23503 5.66804 1.23958 5.66804ZM15.7581 10.1055C15.7513 10.1033 15.7445 10.1033 15.7377 10.1033C15.7331 10.101 15.7263 10.101 15.7195 10.101H15.6785H1.31923C0.866377 10.101 0.5 10.4674 0.5 10.9202C0.5 11.3731 0.866377 11.7394 1.31923 11.7394H13.701L11.0612 14.3792C10.7404 14.6978 10.7404 15.2166 11.0612 15.5375C11.3798 15.8583 11.8987 15.8583 12.2195 15.5375L16.2565 11.4937C16.2611 11.4891 16.2656 11.484 16.2702 11.4789C16.2747 11.4738 16.2793 11.4686 16.2838 11.4641L16.2975 11.4504C16.2997 11.4482 16.302 11.4453 16.3043 11.4425C16.3066 11.4396 16.3088 11.4368 16.3111 11.4345C16.3179 11.43 16.3225 11.4231 16.3271 11.4163C16.3293 11.414 16.3339 11.4095 16.3362 11.4049C16.343 11.3981 16.3475 11.3913 16.3521 11.3844C16.3532 11.3822 16.3544 11.3805 16.3555 11.3788C16.3566 11.377 16.3578 11.3753 16.3589 11.3731C16.3612 11.3696 16.3635 11.3657 16.3657 11.3617C16.368 11.3577 16.3703 11.3537 16.3726 11.3503C16.3737 11.348 16.3748 11.3463 16.376 11.3446C16.3771 11.3429 16.3783 11.3412 16.3794 11.3389C16.3817 11.3355 16.3839 11.3315 16.3862 11.3276C16.3885 11.3236 16.3908 11.3196 16.393 11.3162L16.3999 11.3025C16.4021 11.2991 16.4039 11.2957 16.4056 11.2923C16.4073 11.2889 16.409 11.2854 16.4113 11.282L16.4181 11.2684C16.4192 11.265 16.4209 11.2616 16.4226 11.2581C16.4243 11.2547 16.426 11.2513 16.4272 11.2479C16.4283 11.2445 16.4295 11.2416 16.4306 11.2388C16.4317 11.236 16.4329 11.2331 16.434 11.2297C16.4358 11.2244 16.4375 11.2205 16.4393 11.2159C16.4398 11.2145 16.4403 11.2131 16.4408 11.2115L16.4477 11.191C16.4477 11.1865 16.4499 11.1796 16.4522 11.1751C16.4533 11.1717 16.4545 11.1677 16.4556 11.1637C16.4568 11.1597 16.4579 11.1557 16.459 11.1523C16.4602 11.1501 16.4607 11.1478 16.4613 11.1455C16.4619 11.1432 16.4625 11.1409 16.4636 11.1387C16.4647 11.1341 16.4659 11.1301 16.467 11.1262C16.4681 11.1222 16.4693 11.1182 16.4704 11.1136C16.4704 11.1114 16.471 11.1091 16.4716 11.1068C16.4721 11.1045 16.4727 11.1023 16.4727 11.1C16.4727 11.0932 16.475 11.0841 16.4772 11.075C16.4772 11.0727 16.4778 11.0704 16.4784 11.0681C16.479 11.0659 16.4795 11.0636 16.4795 11.0613C16.4807 11.0577 16.4813 11.0534 16.4819 11.0488C16.4824 11.0448 16.483 11.0405 16.4841 11.0363C16.4841 11.034 16.4846 11.0311 16.4852 11.0283C16.4858 11.0255 16.4863 11.0226 16.4863 11.0203C16.4863 11.0158 16.4869 11.0118 16.4875 11.0078C16.4881 11.0038 16.4886 10.9999 16.4886 10.9953C16.4909 10.9885 16.4909 10.9817 16.4909 10.9748C16.4932 10.9703 16.4932 10.9634 16.4932 10.9566C16.4954 10.9293 16.4954 10.902 16.4932 10.8747C16.4909 10.8701 16.4909 10.8633 16.4909 10.8565C16.4886 10.8497 16.4886 10.8428 16.4886 10.836C16.4886 10.8315 16.4881 10.8275 16.4875 10.8235C16.4869 10.8195 16.4863 10.8155 16.4863 10.811C16.4863 10.8087 16.4858 10.8059 16.4852 10.803C16.4846 10.8002 16.4841 10.7973 16.4841 10.7951C16.4829 10.7914 16.4823 10.7872 16.4817 10.7826C16.4812 10.7786 16.4806 10.7743 16.4795 10.77C16.4795 10.7677 16.479 10.7655 16.4784 10.7632C16.4778 10.7609 16.4772 10.7586 16.4772 10.7564C16.4772 10.7495 16.475 10.7404 16.4727 10.7313C16.4727 10.7291 16.4721 10.7268 16.4716 10.7245C16.471 10.7222 16.4704 10.72 16.4704 10.7177C16.4693 10.7131 16.4681 10.7091 16.467 10.7052C16.4659 10.7012 16.4647 10.6972 16.4636 10.6926C16.4613 10.6881 16.4613 10.6835 16.459 10.679C16.4583 10.6766 16.4575 10.674 16.4567 10.6713C16.4552 10.6662 16.4537 10.6607 16.4522 10.6562C16.4522 10.6517 16.4499 10.6449 16.4477 10.6403L16.4408 10.6198C16.44 10.6172 16.4391 10.6149 16.4382 10.6127C16.4368 10.6091 16.4354 10.6058 16.434 10.6016C16.4329 10.5982 16.4317 10.5954 16.4306 10.5925C16.4295 10.5897 16.4283 10.5868 16.4272 10.5834C16.426 10.58 16.4243 10.5766 16.4226 10.5732C16.4209 10.5698 16.4192 10.5663 16.4181 10.5629L16.4113 10.5493C16.409 10.5459 16.4073 10.5425 16.4056 10.539C16.4039 10.5356 16.4021 10.5322 16.3999 10.5288L16.393 10.5151C16.3908 10.5117 16.3885 10.5078 16.3862 10.5038C16.3839 10.4998 16.3817 10.4958 16.3794 10.4924C16.3771 10.4878 16.3748 10.4856 16.3726 10.481C16.3703 10.4776 16.368 10.4736 16.3657 10.4696C16.3635 10.4657 16.3612 10.4617 16.3589 10.4583C16.3578 10.456 16.3566 10.4543 16.3555 10.4526C16.3544 10.4509 16.3532 10.4492 16.3521 10.4469C16.3453 10.4401 16.3407 10.4332 16.3362 10.4264C16.3339 10.4241 16.3293 10.4196 16.3271 10.415C16.3202 10.4105 16.3157 10.4036 16.3111 10.3968C16.3066 10.3923 16.302 10.3854 16.2975 10.3809C16.2952 10.3763 16.2906 10.3718 16.2861 10.3672C16.2679 10.3468 16.2497 10.3285 16.2292 10.3103C16.2246 10.3081 16.2201 10.3035 16.2155 10.299C16.211 10.2944 16.2042 10.2899 16.1996 10.2853C16.1951 10.2785 16.1882 10.2739 16.1814 10.2694C16.1791 10.2671 16.1746 10.2626 16.17 10.2603C16.1632 10.2534 16.1564 10.2489 16.1496 10.2443C16.1473 10.2432 16.1456 10.2421 16.1439 10.2409C16.1422 10.2398 16.1404 10.2387 16.1382 10.2375C16.1348 10.2352 16.1308 10.233 16.1268 10.2307C16.1228 10.2284 16.1188 10.2261 16.1154 10.2239C16.1131 10.2227 16.1114 10.2216 16.1097 10.2205C16.108 10.2193 16.1063 10.2182 16.104 10.217C16.1006 10.2148 16.0966 10.2125 16.0927 10.2102C16.0887 10.2079 16.0847 10.2057 16.0813 10.2034L16.0676 10.1966C16.0642 10.1943 16.0608 10.1926 16.0574 10.1909C16.054 10.1892 16.0506 10.1875 16.0471 10.1852C16.0403 10.1829 16.0358 10.1806 16.0312 10.1784C16.0278 10.1772 16.0244 10.1755 16.021 10.1738C16.0176 10.1721 16.0142 10.1704 16.0107 10.1693C16.0073 10.1681 16.0045 10.167 16.0016 10.1658C15.9988 10.1647 15.9959 10.1636 15.9925 10.1624C15.9891 10.1613 15.9863 10.1601 15.9834 10.159C15.9806 10.1579 15.9777 10.1567 15.9743 10.1556L15.9538 10.1488C15.9493 10.1488 15.9425 10.1465 15.9379 10.1442C15.9338 10.1429 15.9289 10.1415 15.9241 10.1401C15.921 10.1392 15.9179 10.1383 15.9152 10.1374C15.9129 10.1363 15.9106 10.1357 15.9083 10.1351C15.9061 10.1345 15.9038 10.134 15.9015 10.1328C15.8968 10.1317 15.8927 10.1305 15.8886 10.1293C15.8848 10.1282 15.8809 10.1271 15.8765 10.126C15.8742 10.126 15.8719 10.1254 15.8696 10.1249C15.8674 10.1243 15.8651 10.1237 15.8628 10.1237C15.856 10.1215 15.8469 10.1192 15.8378 10.1169C15.8355 10.1169 15.8332 10.1163 15.831 10.1158C15.8287 10.1152 15.8264 10.1146 15.8241 10.1146C15.8205 10.1134 15.8162 10.1129 15.8117 10.1123C15.8076 10.1117 15.8034 10.1112 15.7991 10.1101C15.7946 10.1101 15.7877 10.1078 15.7832 10.1078C15.7786 10.1078 15.7746 10.1072 15.7707 10.1067C15.7667 10.1061 15.7627 10.1055 15.7581 10.1055Z"/>
</svg>
