<svg width="16" height="16" viewBox="0 0 16 16" fill="none" xmlns="http://www.w3.org/2000/svg">
<path fill-rule="evenodd" clip-rule="evenodd" d="M12.7899 9.40887C12.6041 9.58752 12.5194 9.8449 12.5632 10.0971L13.26 14.1036C13.3145 14.4211 13.2601 14.6487 12.9962 14.8383C12.8468 14.9454 12.6692 15 12.4915 15C12.3551 15 12.2182 14.9678 12.0925 14.9026L8.36677 12.9219C8.13715 12.8028 7.86282 12.8028 7.6332 12.9219L4.0639 14.9027C3.77468 15.0529 3.42454 15.0275 3.15976 14.8383C2.89586 14.6487 2.68507 14.4216 2.74044 14.1037L3.59394 10.014C3.6378 9.76173 3.55303 9.50435 3.36725 9.32571L0.259761 6.91457C0.0250404 6.6898 -0.0586414 6.35328 0.0417767 6.04683C0.143035 5.74036 0.411246 5.51729 0.73478 5.47072L4.77677 4.77099C5.03343 4.73416 5.25529 4.57517 5.37012 4.34578L7.23101 0.47197C7.3752 0.182876 7.67343 0 8.00039 0C8.32736 0 8.62474 0.182858 8.76978 0.47197L10.5577 4.34569C10.6725 4.57515 10.8944 4.73421 11.1511 4.77102L15.266 5.47072C15.5887 5.51686 15.8578 5.74036 15.9582 6.04683C16.059 6.35328 15.974 6.68979 15.7406 6.91455L12.7899 9.40887Z" fill="#E29223"/>
</svg>
