<svg width="24" height="24" viewBox="0 0 24 24" fill="none" xmlns="http://www.w3.org/2000/svg">
<path fill-rule="evenodd" clip-rule="evenodd" d="M12 0C5.37187 0 0 5.37188 0 12C0 18.6281 5.37187 24 12 24C18.6281 24 24 18.6281 24 12C24 5.37188 18.6281 0 12 0ZM16.9055 7.1625L9.22969 14.8617L7.22813 11.3578C6.99609 10.9523 6.48281 10.8117 6.07734 11.0437C5.67188 11.2758 5.53125 11.7891 5.76328 12.1945L8.31328 16.6594C8.46797 16.9313 8.75391 17.0859 9.04688 17.0859C9.18984 17.0859 9.33281 17.0508 9.46406 16.9758C9.53906 16.9313 9.60703 16.8797 9.66328 16.8187L9.67266 16.8094L18.0984 8.35781C18.4266 8.02734 18.4266 7.49297 18.0961 7.16484C17.768 6.83203 17.2359 6.83203 16.9055 7.1625ZM16.0125 21.5016C17.2406 20.9836 18.3445 20.2383 19.2914 19.2914C20.2406 18.3445 20.9836 17.2406 21.5039 16.0125C22.0406 14.7422 22.3125 13.3922 22.3125 12C22.3125 10.6078 22.0406 9.25781 21.5016 7.98516C20.9836 6.75703 20.2383 5.65312 19.2914 4.70625C18.3422 3.75937 17.2406 3.01641 16.0125 2.49609C14.7422 1.95938 13.3922 1.6875 12 1.6875C10.6078 1.6875 9.25781 1.95938 7.98516 2.49844C6.75703 3.01641 5.65312 3.76172 4.70625 4.70859C3.75938 5.65781 3.01641 6.75937 2.49609 7.9875C1.95938 9.25781 1.6875 10.6078 1.6875 12C1.6875 13.3922 1.95938 14.7422 2.49844 16.0148C3.01641 17.243 3.76172 18.3469 4.70859 19.2937C5.65781 20.2406 6.75938 20.9836 7.9875 21.5039C9.25781 22.0406 10.6078 22.3125 12 22.3125C13.3922 22.3125 14.7422 22.0406 16.0125 21.5016Z" fill="#2F9E44"/>
</svg>
