<svg width="17" height="16" viewBox="0 0 17 16" fill="none" xmlns="http://www.w3.org/2000/svg">
<path fill-rule="evenodd" clip-rule="evenodd" d="M1.81233 4.55736C1.08755 4.55736 0.5 3.98487 0.5 3.27868C0.5 2.57248 1.08755 2 1.81233 2C2.53711 2 3.12466 2.57248 3.12466 3.27868C3.12466 3.98487 2.53711 4.55736 1.81233 4.55736ZM5.37645 3.86728H15.7459C16.1625 3.86728 16.4979 3.5405 16.5 3.13457C16.5 2.73067 16.1625 2.40187 15.748 2.40187H5.37645C4.96192 2.40187 4.62446 2.73067 4.62446 3.13457C4.62446 3.53847 4.96192 3.86728 5.37645 3.86728ZM0.5 8.45835C0.5 9.16454 1.08755 9.73703 1.81233 9.73703C2.53711 9.73703 3.12466 9.16454 3.12466 8.45835C3.12466 7.75215 2.53711 7.17967 1.81233 7.17967C1.08755 7.17967 0.5 7.75215 0.5 8.45835ZM5.37645 9.04897H15.7459C16.1625 9.04897 16.4979 8.72017 16.5 8.31627C16.5 7.91237 16.1625 7.58357 15.748 7.58357H5.37645C4.96192 7.58357 4.62446 7.91237 4.62446 8.31627C4.62446 8.72017 4.96192 9.04897 5.37645 9.04897ZM0.5 13.638C0.5 14.3442 1.08755 14.9167 1.81233 14.9167C2.53711 14.9167 3.12466 14.3442 3.12466 13.638C3.12466 12.9318 2.53711 12.3593 1.81233 12.3593C1.08755 12.3593 0.5 12.9318 0.5 13.638ZM5.37645 14.2286H15.7459C16.1625 14.2286 16.4979 13.9019 16.5 13.4959C16.5 13.092 16.1625 12.7632 15.748 12.7632H5.37645C4.96192 12.7632 4.62446 13.092 4.62446 13.4959C4.62446 13.8998 4.96192 14.2286 5.37645 14.2286Z"/>
</svg>
