<svg width="240" height="240" viewBox="0 0 240 240" fill="none" xmlns="http://www.w3.org/2000/svg">
<path fill-rule="evenodd" clip-rule="evenodd" d="M120 220C175.228 220 220 175.228 220 120C220 64.7715 175.228 20 120 20C64.7715 20 20 64.7715 20 120C20 175.228 64.7715 220 120 220Z" fill="#DCE0E8"/>
<mask id="mask0_1817_1" style="mask-type:alpha" maskUnits="userSpaceOnUse" x="20" y="2" width="217" height="218">
<path fill-rule="evenodd" clip-rule="evenodd" d="M120 220C175.228 220 220 175.228 220 120C220 101.528 246.201 62.5495 233 41C206.734 -1.8791 127.756 2.99996 91 2.99996C62.3567 2.99996 43.7212 15.2993 33 39C23.0492 60.9976 20 93.4148 20 120C20 175.228 64.7715 220 120 220Z" fill="white"/>
</mask>
<g mask="url(#mask0_1817_1)">
<g style="mix-blend-mode:multiply">
<path d="M230.174 76.5854L218.157 116.754L199.041 180.61C197.677 182.531 196.255 184.396 194.753 186.212C194.325 186.744 193.889 187.269 193.437 187.785C192.985 188.302 192.629 188.778 192.153 189.262C189.781 191.936 187.275 194.487 184.642 196.905L183.027 198.35C180.631 200.465 178.133 202.464 175.533 204.347C175.258 204.557 174.976 204.758 174.725 204.944C174.475 205.13 174.176 205.348 173.918 205.541C172.739 206.364 171.543 207.172 170.332 207.962L89.5742 183.815C89.1493 183.686 88.9077 183.239 89.0332 182.814L89.7519 180.393L89.9861 179.585L90.2203 178.819L129.792 46.5457C129.853 46.3399 129.994 46.1671 130.184 46.0656C130.373 45.9641 130.595 45.9423 130.801 46.005L203.798 67.7963L226.451 74.5596L227.258 74.7937L228.066 75.0277L229.681 75.512C229.894 75.5824 230.067 75.7381 230.161 75.9416C230.254 76.1452 230.259 76.3783 230.174 76.5854Z" fill="#CACFDB"/>
</g>
<path d="M228.723 71.8231L227.91 74.4555L218.063 107.434L193.932 188.096C193.51 188.6 193.079 189.095 192.641 189.583C190.255 192.275 187.733 194.843 185.085 197.277L183.46 198.731C181.049 200.86 178.536 202.872 175.92 204.768C175.644 204.979 175.359 205.182 175.107 205.369L89.8548 179.914L88.0754 179.386L129.154 42.0785L202.179 63.9178L228.723 71.8231Z" fill="white"/>
<path d="M228.958 71.0431L201.48 62.829L129.39 41.266C129.183 41.2028 128.959 41.2248 128.769 41.327C128.578 41.4291 128.436 41.6031 128.374 41.8103L87.2955 179.118C87.2345 179.325 87.2579 179.547 87.3605 179.736C87.4629 179.928 87.6386 180.072 87.848 180.134L89.6192 180.662L174.238 205.97C174.523 205.775 174.799 205.58 175.051 205.369C175.303 205.158 175.619 204.979 175.863 204.768L90.1229 179.143L89.1235 178.842L129.747 43.0534L202.87 64.9333L227.731 72.3674L227.179 74.2199L217.819 105.5L192.633 189.615C193.071 189.128 193.502 188.632 193.924 188.129C194.379 187.609 194.818 187.08 195.249 186.544L218.29 109.514L228.706 74.6911L229.519 72.0506C229.579 71.8426 229.553 71.6193 229.448 71.4302C229.343 71.241 229.167 71.1017 228.958 71.0431Z" fill="#8893A7"/>
<path d="M142.06 128.608C142.38 127.532 143.511 126.92 144.586 127.24L169.062 134.523C170.137 134.842 170.749 135.973 170.429 137.049C170.109 138.124 168.978 138.736 167.903 138.416L143.427 131.134C142.352 130.814 141.74 129.683 142.06 128.608Z" fill="#CACFDB"/>
<path d="M126.809 133.223C127.05 132.424 127.894 131.972 128.693 132.213L179.134 147.451C179.933 147.692 180.385 148.536 180.143 149.335C179.902 150.134 179.059 150.586 178.259 150.344L127.819 135.107C127.019 134.866 126.567 134.022 126.809 133.223Z" fill="#F0F1F5"/>
<path d="M109.151 138.409C109.389 137.611 110.228 137.157 111.026 137.395L128.571 142.615C129.368 142.852 129.823 143.691 129.585 144.489C129.348 145.287 128.509 145.741 127.711 145.504L110.166 140.284C109.368 140.046 108.914 139.207 109.151 138.409Z" fill="#F0F1F5"/>
<path d="M107.605 143.599C107.842 142.802 108.681 142.347 109.479 142.585L143.112 152.592C143.91 152.829 144.365 153.669 144.127 154.466C143.89 155.264 143.051 155.719 142.253 155.481L108.619 145.474C107.822 145.236 107.367 144.397 107.605 143.599Z" fill="#F0F1F5"/>
<path d="M104.217 153.414C104.458 152.615 105.302 152.163 106.101 152.404L119.672 156.504C120.472 156.745 120.924 157.589 120.682 158.388C120.441 159.187 119.597 159.639 118.798 159.398L105.227 155.298C104.428 155.056 103.976 154.213 104.217 153.414Z" fill="#F0F1F5"/>
<path d="M103.526 157.319C103.764 156.521 104.603 156.067 105.401 156.304L131.247 163.995C132.045 164.232 132.499 165.071 132.262 165.869C132.024 166.667 131.185 167.121 130.387 166.884L104.541 159.193C103.743 158.956 103.289 158.117 103.526 157.319Z" fill="#F0F1F5"/>
<path d="M154.937 152.037C155.175 151.239 156.014 150.785 156.811 151.022L166.608 153.937C167.406 154.174 167.86 155.013 167.623 155.811C167.385 156.609 166.546 157.063 165.748 156.826L155.952 153.911C155.154 153.674 154.7 152.835 154.937 152.037Z" fill="#CACFDB"/>
<path d="M152.584 157.542C152.825 156.743 153.669 156.29 154.468 156.532L180.417 164.371C181.216 164.612 181.668 165.456 181.427 166.255C181.186 167.054 180.342 167.506 179.543 167.264L153.593 159.425C152.794 159.184 152.342 158.341 152.584 157.542Z" fill="#F0F1F5"/>
<path d="M150.853 165.753C151.09 164.955 151.929 164.501 152.727 164.738L170.747 170.1C171.545 170.337 171.999 171.176 171.762 171.974C171.524 172.772 170.685 173.226 169.887 172.989L151.868 167.627C151.07 167.39 150.616 166.551 150.853 165.753Z" fill="#CACFDB"/>
<path d="M149.312 170.934C149.55 170.136 150.389 169.682 151.187 169.919L183.418 179.509C184.216 179.747 184.671 180.586 184.433 181.384C184.196 182.182 183.357 182.636 182.559 182.398L150.327 172.808C149.529 172.571 149.075 171.732 149.312 170.934Z" fill="#F0F1F5"/>
<path d="M99.8762 167.3C100.118 166.501 100.961 166.049 101.76 166.29L115.332 170.39C116.131 170.632 116.583 171.475 116.341 172.274C116.1 173.073 115.257 173.525 114.457 173.284L100.886 169.184C100.087 168.943 99.6348 168.099 99.8762 167.3Z" fill="#CACFDB"/>
<path d="M119.27 103.058C119.511 102.259 120.355 101.807 121.154 102.048L134.725 106.148C135.524 106.389 135.977 107.233 135.735 108.032C135.494 108.831 134.65 109.283 133.851 109.041L120.28 104.942C119.481 104.7 119.029 103.857 119.27 103.058Z" fill="#F0F1F5"/>
<path d="M122.906 87.3002C123.148 86.5012 123.991 86.0491 124.79 86.2905L138.362 90.3902C139.161 90.6316 139.613 91.475 139.372 92.2741C139.13 93.0732 138.287 93.5253 137.488 93.2839L123.916 89.1842C123.117 88.9428 122.665 88.0993 122.906 87.3002Z" fill="#F0F1F5"/>
<path d="M98.0343 172.397C98.2717 171.599 99.1109 171.145 99.9087 171.382L129.236 180.108C130.034 180.345 130.488 181.185 130.25 181.982C130.013 182.78 129.174 183.235 128.376 182.997L99.049 174.271C98.2512 174.034 97.7969 173.195 98.0343 172.397Z" fill="#F0F1F5"/>
<path d="M117.428 109.366C117.665 108.569 118.505 108.114 119.302 108.352L148.63 117.078C149.427 117.315 149.882 118.154 149.644 118.952C149.407 119.75 148.568 120.204 147.77 119.967L118.443 111.241C117.645 111.003 117.191 110.164 117.428 109.366Z" fill="#F0F1F5"/>
<path fill-rule="evenodd" clip-rule="evenodd" d="M170.432 62.3389C157.769 58.9458 144.711 66.452 141.331 79.067C137.951 91.682 145.506 104.711 158.17 108.104C170.833 111.498 183.89 103.991 187.271 91.3764C190.651 78.7614 183.105 65.7346 170.432 62.3389Z" fill="#F0F1F5"/>
<path fill-rule="evenodd" clip-rule="evenodd" d="M182.715 80.1343L180.818 76.8617L179.479 74.5566L177.166 75.8833L159.163 86.2366L155.423 79.7165L154.09 77.392L151.765 78.7259L148.485 80.6113L146.185 81.931L147.505 84.2309L152.569 93.0729L154.474 96.3578L155.813 98.6629L158.125 97.3361L161.405 95.4507L181.742 83.7662L184.054 82.4394L182.715 80.1343ZM160.076 93.1482L156.796 95.0336L154.898 91.7609L149.834 82.919L153.114 81.0336L158.18 89.8659L178.518 78.1814L180.415 81.454L160.076 93.1482Z" fill="#CACFDB"/>
<path d="M145.652 181.16C145.894 180.361 146.737 179.909 147.536 180.15L162.496 184.67C163.295 184.911 163.747 185.754 163.506 186.554C163.264 187.353 162.421 187.805 161.622 187.563L146.662 183.044C145.863 182.803 145.411 181.959 145.652 181.16Z" fill="#CACFDB"/>
<path d="M165.046 118.13C165.288 117.331 166.131 116.879 166.93 117.12L181.89 121.639C182.689 121.881 183.141 122.724 182.9 123.523C182.659 124.322 181.815 124.774 181.016 124.533L166.056 120.014C165.257 119.772 164.805 118.929 165.046 118.13Z" fill="#CACFDB"/>
<path d="M143.824 186.024C144.062 185.226 144.901 184.772 145.699 185.009L175.205 193.789C176.003 194.026 176.457 194.865 176.22 195.663C175.982 196.461 175.143 196.915 174.345 196.678L144.839 187.898C144.041 187.661 143.587 186.822 143.824 186.024Z" fill="#F0F1F5"/>
<path d="M163.218 122.994C163.456 122.196 164.295 121.742 165.092 121.979L194.599 130.758C195.396 130.996 195.851 131.835 195.613 132.633C195.376 133.431 194.537 133.885 193.739 133.647L164.233 124.868C163.435 124.631 162.981 123.792 163.218 122.994Z" fill="#F0F1F5"/>
<g style="mix-blend-mode:multiply">
<path d="M150.587 148.87L137.482 33.9051C137.458 33.6909 137.35 33.4951 137.181 33.3607C137.017 33.222 136.801 33.1599 136.588 33.1901L33.3228 44.9628C33.1116 44.9889 32.919 45.0968 32.7866 45.2634C32.6465 45.4303 32.5844 45.6491 32.6159 45.8646L45.6155 159.993L35.3458 161.163C35.1313 161.187 34.9353 161.296 34.8011 161.465C34.667 161.634 34.6057 161.85 34.6309 162.064C35.3233 168.1 40.4256 172.661 46.5011 172.675C46.957 172.675 47.4127 172.651 47.866 172.602L140.041 162.089C143.201 161.74 146.091 160.147 148.074 157.662C150.056 155.176 150.966 152.004 150.603 148.846L150.587 148.87Z" fill="#CACFDB"/>
</g>
<path d="M46.6311 158.652L33.5178 160.147L37.2146 167.232L41.8944 169.702H48.1342L46.6311 158.652Z" fill="white"/>
<path d="M44.6244 158.88L31.4949 43.9391L134.752 32.1664L147.857 147.107C148.543 153.213 144.162 158.723 138.059 159.432L45.8594 169.994" fill="white"/>
<path d="M37.2146 167.232L128.918 156.271L133.907 159.529L131.99 160.147L44.0962 170.165L37.2146 167.232Z" fill="#DCE0E8"/>
<path d="M45.8593 170.807C45.4106 170.831 45.0269 170.488 45.0022 170.039C44.9775 169.59 45.3213 169.206 45.77 169.182L137.945 158.62C143.59 157.973 147.657 152.895 147.053 147.245L134.053 33.1088L32.4373 44.654L45.4369 158.79C45.4844 159.234 45.1652 159.633 44.7219 159.684C44.2782 159.731 43.8792 159.412 43.8282 158.969L30.6905 44.0609C30.6429 43.6172 30.9621 43.2182 31.4055 43.1672L134.663 31.3945C134.876 31.3633 135.092 31.4255 135.256 31.5651C135.427 31.6981 135.538 31.8941 135.564 32.1095L148.661 147.05C149.022 150.208 148.111 153.379 146.129 155.864C144.147 158.349 141.258 159.942 138.099 160.293L45.9568 170.807H45.8593Z" fill="#8893A7"/>
<path d="M147.857 147.107C148.555 153.225 144.161 158.751 138.042 159.448C131.924 160.146 126.399 155.752 125.701 149.634" fill="white"/>
<path d="M136.767 160.342C130.69 160.324 125.589 155.76 124.897 149.723C124.849 149.279 125.168 148.88 125.612 148.829C126.055 148.782 126.454 149.101 126.505 149.544C127.172 155.202 132.284 159.258 137.945 158.62C143.59 157.973 147.657 152.895 147.053 147.245C147.02 146.955 147.144 146.669 147.378 146.495C147.613 146.321 147.923 146.285 148.191 146.401C148.459 146.517 148.644 146.768 148.678 147.058C149.038 150.216 148.127 153.387 146.146 155.872C144.164 158.357 141.275 159.951 138.116 160.301C137.667 160.343 137.217 160.356 136.767 160.342Z" fill="#8893A7"/>
<path d="M51.0708 137.032C50.9765 136.205 51.5706 135.458 52.3976 135.364L70.5849 133.292C71.412 133.198 72.1588 133.792 72.253 134.619C72.3472 135.446 71.7532 136.192 70.9262 136.287L52.7388 138.359C51.9118 138.453 51.165 137.859 51.0708 137.032Z" fill="#CACFDB"/>
<path d="M47.4345 106.729C47.3403 105.902 47.9343 105.155 48.7614 105.061L66.9487 102.989C67.7757 102.894 68.5225 103.488 68.6168 104.315C68.711 105.143 68.1169 105.889 67.2899 105.984L49.1026 108.056C48.2756 108.15 47.5288 107.556 47.4345 106.729Z" fill="#CACFDB"/>
<path d="M51.3955 141.915C51.3012 141.088 51.8953 140.341 52.7223 140.247L87.5874 136.274C88.4144 136.18 89.1613 136.774 89.2555 137.601C89.3497 138.428 88.7557 139.175 87.9286 139.269L53.0635 143.242C52.2365 143.336 51.4897 142.742 51.3955 141.915Z" fill="#F0F1F5"/>
<path d="M48.6464 111.053C48.5522 110.226 49.1463 109.48 49.9733 109.385L84.8384 105.413C85.6654 105.319 86.4122 105.913 86.5065 106.74C86.6007 107.567 86.0066 108.314 85.1796 108.408L50.3145 112.38C49.4875 112.474 48.7407 111.88 48.6464 111.053Z" fill="#F0F1F5"/>
<path d="M52.2829 151.106C52.1887 150.279 52.7827 149.532 53.6098 149.438L67.6559 147.837C68.4829 147.743 69.2297 148.337 69.324 149.164C69.4182 149.991 68.8241 150.738 67.9971 150.832L53.951 152.432C53.124 152.527 52.3771 151.933 52.2829 151.106Z" fill="#CACFDB"/>
<path d="M48.6464 120.803C48.5522 119.976 49.1463 119.229 49.9733 119.135L64.0194 117.534C64.8464 117.44 65.5933 118.034 65.6875 118.861C65.7817 119.688 65.1877 120.435 64.3607 120.529L50.3145 122.129C49.4875 122.224 48.7407 121.63 48.6464 120.803Z" fill="#CACFDB"/>
<path d="M52.2829 156.605C52.1887 155.778 52.7827 155.032 53.6098 154.937L84.0108 151.474C84.8378 151.379 85.5846 151.973 85.6788 152.8C85.7731 153.627 85.179 154.374 84.352 154.468L53.951 157.932C53.124 158.026 52.3771 157.432 52.2829 156.605Z" fill="#F0F1F5"/>
<path d="M48.6464 126.302C48.5522 125.475 49.1463 124.729 49.9733 124.634L80.3743 121.171C81.2013 121.076 81.9481 121.67 82.0424 122.497C82.1366 123.324 81.5426 124.071 80.7155 124.165L50.3145 127.629C49.4875 127.723 48.7407 127.129 48.6464 126.302Z" fill="#F0F1F5"/>
<path d="M98.3435 131.268C98.2492 130.441 98.8433 129.694 99.6703 129.6L109.826 128.443C110.653 128.349 111.399 128.943 111.494 129.77C111.588 130.597 110.994 131.344 110.167 131.438L100.012 132.595C99.1845 132.689 98.4377 132.095 98.3435 131.268Z" fill="#CACFDB"/>
<path d="M93.4951 100.965C93.4008 100.138 93.9949 99.3915 94.8219 99.2973L104.977 98.1402C105.804 98.046 106.551 98.6401 106.645 99.4671C106.739 100.294 106.145 101.041 105.318 101.135L95.1631 102.292C94.3361 102.386 93.5893 101.792 93.4951 100.965Z" fill="#CACFDB"/>
<path d="M98.3435 136.808C98.2492 135.981 98.8433 135.234 99.6703 135.14L126.528 132.08C127.355 131.985 128.101 132.579 128.196 133.406C128.29 134.233 127.696 134.98 126.869 135.074L100.012 138.134C99.1845 138.229 98.4377 137.635 98.3435 136.808Z" fill="#F0F1F5"/>
<path d="M93.4951 106.505C93.4008 105.678 93.9949 104.931 94.8219 104.837L121.679 101.777C122.506 101.682 123.253 102.276 123.347 103.103C123.441 103.93 122.847 104.677 122.02 104.771L95.1631 107.831C94.3361 107.926 93.5893 107.332 93.4951 106.505Z" fill="#F0F1F5"/>
<path d="M99.5556 145.573C99.4614 144.746 100.055 143.999 100.882 143.905L119.562 141.777C120.389 141.682 121.136 142.276 121.23 143.103C121.325 143.93 120.73 144.677 119.903 144.771L101.224 146.9C100.397 146.994 99.6498 146.4 99.5556 145.573Z" fill="#CACFDB"/>
<path d="M94.7072 115.27C94.613 114.443 95.2071 113.696 96.0341 113.602L114.714 111.474C115.541 111.379 116.288 111.973 116.382 112.8C116.476 113.627 115.882 114.374 115.055 114.468L96.3753 116.597C95.5483 116.691 94.8015 116.097 94.7072 115.27Z" fill="#CACFDB"/>
<path d="M100.768 150.888C100.674 150.061 101.268 149.314 102.095 149.22L135.507 145.413C136.334 145.319 137.081 145.913 137.175 146.74C137.269 147.567 136.675 148.314 135.848 148.408L102.436 152.215C101.609 152.309 100.862 151.715 100.768 150.888Z" fill="#F0F1F5"/>
<path d="M95.9194 120.585C95.8252 119.758 96.4192 119.011 97.2462 118.917L130.658 115.11C131.485 115.016 132.232 115.61 132.326 116.437C132.421 117.264 131.827 118.011 131 118.105L97.5875 121.912C96.7604 122.006 96.0136 121.412 95.9194 120.585Z" fill="#F0F1F5"/>
<path d="M44.6244 170.847C38.5376 170.851 33.4151 166.291 32.7135 160.245C32.6884 160.03 32.7497 159.814 32.8838 159.645C33.018 159.476 33.214 159.367 33.4285 159.343C33.643 159.318 33.8586 159.379 34.0279 159.513C34.1971 159.647 34.3059 159.843 34.3304 160.058C34.9719 165.735 40.0921 169.819 45.77 169.182C46.2137 169.134 46.6127 169.453 46.6637 169.897C46.6888 170.111 46.6276 170.327 46.4934 170.496C46.3593 170.665 46.1633 170.774 45.9487 170.799C45.5084 170.838 45.0664 170.854 44.6244 170.847Z" fill="#8893A7"/>
<path d="M33.5178 160.96C33.0691 160.984 32.6854 160.64 32.6607 160.192C32.636 159.743 32.9797 159.359 33.4285 159.335L125.612 148.87C126.06 148.821 126.464 149.144 126.513 149.593C126.563 150.042 126.239 150.446 125.79 150.495L33.6153 160.951L33.5178 160.96Z" fill="#8893A7"/>
<path fill-rule="evenodd" clip-rule="evenodd" d="M82.6281 44.683C69.6019 46.1622 60.1994 57.9282 61.6729 70.9048C63.1465 83.8814 74.9477 93.2396 87.974 91.7604C101 90.2812 110.403 78.5152 108.929 65.5386C107.456 52.562 95.6644 43.2027 82.6281 44.683Z" fill="#F0F1F5"/>
<path fill-rule="evenodd" clip-rule="evenodd" d="M100.574 56.7453L97.6095 54.3947L95.5195 52.74L93.8537 54.8212L80.8917 71.0473L75.0241 66.3494L72.9318 64.6747L71.2572 66.7671L68.8956 69.7224L67.2386 71.7926L69.3088 73.4496L77.2587 79.8233L80.2339 82.1827L82.3239 83.8374L83.9897 81.7562L86.3514 78.8008L100.998 60.4813L102.664 58.4L100.574 56.7453ZM84.2713 77.145L81.9096 80.1003L78.9455 77.7497L70.9956 71.376L73.3572 68.4207L81.306 74.7844L95.9525 56.4649L98.9167 58.8155L84.2713 77.145Z" fill="#CACFDB"/>
</g>
</svg>
