<svg width="16" height="16" viewBox="0 0 16 16" fill="none" xmlns="http://www.w3.org/2000/svg">
<path fill-rule="evenodd" clip-rule="evenodd" d="M8 0C3.58125 0 0 3.58125 0 8C0 12.4187 3.58125 16 8 16C12.4187 16 16 12.4187 16 8C16 3.58125 12.4187 0 8 0ZM12.8609 12.8609C12.2297 13.4922 11.4938 13.9891 10.675 14.3344C9.82812 14.6938 8.92813 14.875 8 14.875C7.07188 14.875 6.17188 14.6938 5.325 14.3359C4.50625 13.9891 3.77187 13.4938 3.13906 12.8625C2.50781 12.2312 2.01094 11.4953 1.66562 10.6766C1.30625 9.82812 1.125 8.92813 1.125 8C1.125 7.07188 1.30625 6.17188 1.66406 5.325C2.01094 4.50625 2.50625 3.77187 3.1375 3.13906C3.76875 2.50781 4.50469 2.01094 5.32344 1.66562C6.17188 1.30625 7.07188 1.125 8 1.125C8.92813 1.125 9.82812 1.30625 10.675 1.66406C11.4938 2.01094 12.2281 2.50625 12.8609 3.1375C13.4922 3.76875 13.9891 4.50469 14.3344 5.32344C14.6938 6.17188 14.875 7.07188 14.875 8C14.875 8.92813 14.6938 9.82812 14.3359 10.675C13.9891 11.4938 13.4937 12.2297 12.8609 12.8609ZM8.5625 7.875H11.4531C11.7641 7.875 12.0156 8.12656 12.0156 8.4375C12.0156 8.74844 11.7641 9 11.4531 9H8.5625C7.94063 9 7.4375 8.49687 7.4375 7.875V4.125C7.4375 3.81406 7.68906 3.5625 8 3.5625C8.31094 3.5625 8.5625 3.81406 8.5625 4.125V7.875Z" fill="#1971C2"/>
<mask id="mask0_168_1916" style="mask-type:alpha" maskUnits="userSpaceOnUse" x="0" y="0" width="16" height="16">
<path fill-rule="evenodd" clip-rule="evenodd" d="M8 0C3.58125 0 0 3.58125 0 8C0 12.4187 3.58125 16 8 16C12.4187 16 16 12.4187 16 8C16 3.58125 12.4187 0 8 0ZM12.8609 12.8609C12.2297 13.4922 11.4938 13.9891 10.675 14.3344C9.82812 14.6938 8.92813 14.875 8 14.875C7.07188 14.875 6.17188 14.6938 5.325 14.3359C4.50625 13.9891 3.77187 13.4938 3.13906 12.8625C2.50781 12.2312 2.01094 11.4953 1.66562 10.6766C1.30625 9.82812 1.125 8.92813 1.125 8C1.125 7.07188 1.30625 6.17188 1.66406 5.325C2.01094 4.50625 2.50625 3.77187 3.1375 3.13906C3.76875 2.50781 4.50469 2.01094 5.32344 1.66562C6.17188 1.30625 7.07188 1.125 8 1.125C8.92813 1.125 9.82812 1.30625 10.675 1.66406C11.4938 2.01094 12.2281 2.50625 12.8609 3.1375C13.4922 3.76875 13.9891 4.50469 14.3344 5.32344C14.6938 6.17188 14.875 7.07188 14.875 8C14.875 8.92813 14.6938 9.82812 14.3359 10.675C13.9891 11.4938 13.4937 12.2297 12.8609 12.8609ZM8.5625 7.875H11.4531C11.7641 7.875 12.0156 8.12656 12.0156 8.4375C12.0156 8.74844 11.7641 9 11.4531 9H8.5625C7.94063 9 7.4375 8.49687 7.4375 7.875V4.125C7.4375 3.81406 7.68906 3.5625 8 3.5625C8.31094 3.5625 8.5625 3.81406 8.5625 4.125V7.875Z" fill="white"/>
</mask>
<g mask="url(#mask0_168_1916)">
</g>
</svg>
