<svg width="16" height="16" viewBox="0 0 16 16" fill="none" xmlns="http://www.w3.org/2000/svg">
<path fill-rule="evenodd" clip-rule="evenodd" d="M1.51804 13.0685C1.35282 13.0244 1.17916 13.0008 1 13.0008V15.0008H2.41421L15.0208 2.39419L13.6066 0.97998L10.1673 4.41932C7.71114 2.28961 4.50608 1.0008 1 1.0008V3.12785C3.92129 3.12785 6.59878 4.17171 8.6798 5.90679L7.32873 7.25785C5.60486 5.84716 3.40127 5.0008 1 5.0008V7.0008C2.84871 7.0008 4.55096 7.62788 5.90564 8.68094L4.47653 10.11C3.49572 9.41159 2.29583 9.0008 1 9.0008V11.0008C1.74181 11.0008 2.43645 11.2027 3.03197 11.5546L1.51804 13.0685ZM7 15.0008C7 14.4633 6.92933 13.9423 6.79677 13.4467L5.24264 15.0008H7ZM12.7921 7.45133C14.1896 9.62964 15 12.2206 15 15.0008H12.9993C12.9764 12.7901 12.3557 10.7226 11.2911 8.95234L12.7921 7.45133ZM11 15.0008C11 13.3319 10.5912 11.7585 9.86821 10.3752L8.36694 11.8765C8.77453 12.8364 9 13.8922 9 15.0008H11Z" fill="#1971C2"/>
</svg>
