<svg width="17" height="16" viewBox="0 0 17 16" fill="none" xmlns="http://www.w3.org/2000/svg">
<path d="M15.7297 10.7636C15.7365 10.7636 15.7433 10.7636 15.7501 10.7613C15.7592 10.7613 15.766 10.759 15.7751 10.759C15.7797 10.759 15.7865 10.7567 15.791 10.7567C15.8001 10.7545 15.8092 10.7545 15.816 10.7522C15.8206 10.7522 15.8251 10.7499 15.8297 10.7499C15.8387 10.7477 15.8478 10.7454 15.8547 10.7431C15.8592 10.7431 15.8637 10.7408 15.8683 10.7408C15.8774 10.7386 15.8842 10.7363 15.8933 10.734C15.8978 10.7317 15.9024 10.7317 15.9069 10.7295C15.9137 10.7272 15.9228 10.7249 15.9297 10.7227C15.9342 10.7204 15.941 10.7181 15.9456 10.7181C15.9524 10.7158 15.9592 10.7136 15.966 10.7113C15.9728 10.709 15.9774 10.7067 15.9842 10.7045C15.991 10.7022 15.9956 10.6999 16.0024 10.6977C16.0092 10.6954 16.016 10.6908 16.0228 10.6886C16.0274 10.6863 16.0319 10.684 16.0387 10.6817C16.0456 10.6772 16.0524 10.6749 16.0592 10.6704C16.0637 10.6681 16.0683 10.6658 16.0728 10.6636C16.0797 10.659 16.0887 10.6545 16.0956 10.6499C16.1001 10.6477 16.1024 10.6454 16.1069 10.6431C16.1137 10.6386 16.1228 10.634 16.1297 10.6295C16.1342 10.6272 16.1365 10.6249 16.141 10.6227C16.1478 10.6181 16.1547 10.6136 16.1615 10.6067C16.166 10.6045 16.1706 10.5999 16.1728 10.5977C16.1797 10.5931 16.1865 10.5886 16.191 10.5817C16.1956 10.5772 16.2024 10.5727 16.2069 10.5681C16.2115 10.5636 16.216 10.559 16.2206 10.5567C16.241 10.5386 16.2592 10.5204 16.2774 10.4999C16.2819 10.4954 16.2865 10.4908 16.2887 10.4863C16.2933 10.4817 16.2978 10.4749 16.3024 10.4704C16.3069 10.4636 16.3115 10.4567 16.3183 10.4522C16.3206 10.4477 16.3251 10.4431 16.3274 10.4408C16.3319 10.434 16.3365 10.4272 16.3433 10.4204C16.3456 10.4158 16.3478 10.4136 16.3501 10.409C16.3547 10.4022 16.3592 10.3931 16.3637 10.3863C16.366 10.3817 16.3683 10.3795 16.3706 10.3749C16.3751 10.3681 16.3797 10.359 16.3842 10.3522C16.3865 10.3477 16.3887 10.3431 16.391 10.3386C16.3956 10.3317 16.3978 10.3249 16.4024 10.3181C16.4047 10.3136 16.4069 10.309 16.4092 10.3045C16.4115 10.2977 16.416 10.2908 16.4183 10.284C16.4206 10.2772 16.4228 10.2727 16.4251 10.2658C16.4274 10.259 16.4297 10.2545 16.4319 10.2477C16.4342 10.2408 16.4365 10.234 16.4387 10.2272C16.441 10.2227 16.4433 10.2158 16.4433 10.2113C16.4456 10.2045 16.4478 10.1954 16.4501 10.1886C16.4524 10.184 16.4524 10.1795 16.4547 10.1749C16.4569 10.1658 16.4592 10.159 16.4615 10.1499C16.4615 10.1454 16.4637 10.1408 16.4637 10.1363C16.466 10.1272 16.4683 10.1181 16.4683 10.1113C16.4683 10.1067 16.4706 10.1022 16.4706 10.0977C16.4728 10.0886 16.4728 10.0795 16.4751 10.0727C16.4751 10.0681 16.4774 10.0613 16.4774 10.0567C16.4774 10.0477 16.4797 10.0408 16.4797 10.0317C16.4797 10.0249 16.4797 10.0181 16.4819 10.0113C16.4819 10.0045 16.4819 9.99765 16.4842 9.99311C16.4865 9.96583 16.4865 9.93856 16.4842 9.91129C16.4842 9.90447 16.4842 9.89765 16.4819 9.89311C16.4819 9.88629 16.4819 9.87947 16.4797 9.87265C16.4797 9.86356 16.4774 9.85674 16.4774 9.84765C16.4774 9.84311 16.4751 9.83629 16.4751 9.83174C16.4728 9.82265 16.4728 9.81356 16.4706 9.80674C16.4706 9.8022 16.4683 9.79765 16.4683 9.79311C16.466 9.78402 16.4637 9.77492 16.4637 9.76811C16.4637 9.76356 16.4615 9.75902 16.4615 9.75447C16.4592 9.74538 16.4569 9.73856 16.4547 9.72947C16.4524 9.72492 16.4524 9.72038 16.4501 9.71583C16.4478 9.70902 16.4456 9.69992 16.4433 9.69311C16.441 9.68856 16.4387 9.68174 16.4387 9.6772C16.4365 9.67038 16.4342 9.66356 16.4319 9.65674C16.4297 9.64992 16.4274 9.64538 16.4251 9.63856C16.4228 9.63174 16.4206 9.6272 16.4183 9.62038C16.416 9.61356 16.4115 9.60674 16.4092 9.59992C16.4069 9.59538 16.4047 9.59083 16.4024 9.58629C16.3978 9.57947 16.3956 9.57265 16.391 9.56583C16.3887 9.56129 16.3865 9.55674 16.3842 9.5522C16.3797 9.54538 16.3751 9.53629 16.3706 9.52947C16.3683 9.52492 16.366 9.52265 16.3637 9.51811C16.3592 9.51129 16.3547 9.5022 16.3501 9.49538C16.3478 9.49083 16.3456 9.48856 16.3433 9.48402C16.3387 9.4772 16.3342 9.47038 16.3274 9.46356C16.3251 9.45902 16.3206 9.45447 16.3183 9.4522C16.3137 9.44538 16.3092 9.43856 16.3024 9.43402C16.2978 9.42947 16.2933 9.42265 16.2887 9.41811C16.2842 9.41356 16.2797 9.40902 16.2751 9.40447C16.266 9.39538 16.2569 9.38402 16.2478 9.37492L12.216 5.33629C11.8956 5.01583 11.3774 5.01583 11.0592 5.33629C10.7387 5.65674 10.7387 6.17492 11.0592 6.49311L13.6956 9.12947H1.32966C0.877384 9.12947 0.511475 9.49538 0.511475 9.94765C0.511475 10.3999 0.877384 10.7658 1.32966 10.7658H15.6706C15.6842 10.7658 15.6978 10.7658 15.7115 10.7658C15.7183 10.7658 15.7251 10.7636 15.7297 10.7636Z" fill="#8893A7"/>
</svg>
