<svg width="16" height="16" viewBox="0 0 16 16" fill="none" xmlns="http://www.w3.org/2000/svg">
<path fill-rule="evenodd" clip-rule="evenodd" d="M8.01786 0.000976562C7.85893 0.000976562 7.7 0.0616909 7.58036 0.181334L4.79643 2.96526C4.55714 3.20633 4.55714 3.59741 4.79821 3.83848C5.0375 4.07955 5.42857 4.07955 5.66964 3.83848L7.4 2.10812V12.426C7.4 12.767 7.67679 13.0438 8.01786 13.0438C8.35893 13.0438 8.63571 12.767 8.63571 12.426V2.10812L10.3661 3.83848C10.4821 3.95455 10.6375 4.01883 10.8018 4.01883C10.9661 4.01883 11.1214 3.95455 11.2375 3.83848C11.4786 3.59741 11.4786 3.20633 11.2375 2.96526L8.45536 0.181334C8.33393 0.0616909 8.17679 0.000976562 8.01786 0.000976562ZM14.7643 10.9117C14.7643 10.5706 15.0411 10.2938 15.3821 10.2938C15.7232 10.2938 16 10.5706 16 10.9099V14.8903C16 15.501 15.5036 15.9992 14.8911 15.9992H1.10893C0.498214 15.9992 0 15.5028 0 14.8903V10.9099C0 10.5706 0.275 10.292 0.616071 10.292C0.957143 10.292 1.23393 10.5688 1.23393 10.9099V14.401C1.23393 14.6045 1.4 14.7688 1.60179 14.7688H14.3964C14.6 14.7688 14.7643 14.6028 14.7643 14.401V10.9117Z" fill="#8893A7"/>
</svg>
