<svg width="17" height="16" viewBox="0 0 17 16" fill="none" xmlns="http://www.w3.org/2000/svg">
<path fill-rule="evenodd" clip-rule="evenodd" d="M15.4338 1.06691C14.0126 -0.354335 11.7031 -0.354335 10.2818 1.06691L7.07146 4.27727C6.81844 4.5303 6.81844 4.93944 7.07146 5.19067C7.32449 5.4437 7.73364 5.4437 7.98487 5.19067L11.1952 1.98031C12.1122 1.06332 13.6035 1.06332 14.5204 1.98031C14.9637 2.42355 15.2095 3.01394 15.2095 3.64202C15.2095 4.2701 14.9655 4.86049 14.5204 5.30373L11.3101 8.51409C11.0571 8.76712 11.0571 9.17626 11.3101 9.42749C11.4357 9.55311 11.6008 9.61592 11.7677 9.61592C11.9346 9.61592 12.0979 9.55311 12.2253 9.42749L15.4356 6.21713C16.8551 4.79768 16.8551 2.48636 15.4338 1.06691ZM9.01491 10.8093L5.80634 14.0196C5.3631 14.4629 4.77271 14.7087 4.14463 14.7087C3.51656 14.7087 2.92617 14.4647 2.48292 14.0196C2.03968 13.5746 1.79204 12.986 1.79204 12.3579C1.79204 11.7298 2.03609 11.1394 2.48113 10.6962L5.69149 7.48584C5.94452 7.23282 5.94452 6.82367 5.69149 6.57244C5.43847 6.31942 5.02932 6.31942 4.77809 6.57244L1.56773 9.78101C0.87864 10.4701 0.5 11.3853 0.5 12.3579C0.5 13.3305 0.87864 14.2457 1.56773 14.933C2.27835 15.6436 3.21149 15.999 4.14284 15.999C5.07598 15.999 6.00912 15.6436 6.71795 14.933L9.92831 11.7227C10.1813 11.4696 10.1813 11.0605 9.92831 10.8093C9.67529 10.558 9.26793 10.558 9.01491 10.8093ZM9.85474 7.59351L8.02434 9.4239C7.89693 9.54952 7.73543 9.61233 7.56854 9.61233C7.40165 9.61233 7.23656 9.54952 7.11094 9.4239C6.85792 9.17267 6.85792 8.76353 7.11094 8.5105L8.94134 6.68011C9.19256 6.42709 9.60171 6.42709 9.85474 6.68011C10.1078 6.93134 10.1078 7.34049 9.85474 7.59351Z" fill="#8893A7"/>
</svg>
