<svg width="16" height="16" viewBox="0 0 16 16" fill="none" xmlns="http://www.w3.org/2000/svg">
<g clip-path="url(#clip0_5842_23405)">
<path d="M11.75 14H15.5V12.5C15.5 11.2574 14.4926 10.25 13.25 10.25C12.5333 10.25 11.8949 10.5851 11.4828 11.1072M11.75 14H4.25M11.75 14V12.5C11.75 12.0078 11.6552 11.5378 11.4828 11.1072M4.25 14H0.5V12.5C0.5 11.2574 1.50736 10.25 2.75 10.25C3.46671 10.25 4.10514 10.5851 4.51718 11.1072M4.25 14V12.5C4.25 12.0078 4.34482 11.5378 4.51718 11.1072M4.51718 11.1072C5.07013 9.72577 6.42111 8.75 8 8.75C9.57889 8.75 10.9299 9.72577 11.4828 11.1072M10.25 4.25C10.25 5.49264 9.24264 6.5 8 6.5C6.75736 6.5 5.75 5.49264 5.75 4.25C5.75 3.00736 6.75736 2 8 2C9.24264 2 10.25 3.00736 10.25 4.25ZM14.75 6.5C14.75 7.32843 14.0784 8 13.25 8C12.4216 8 11.75 7.32843 11.75 6.5C11.75 5.67157 12.4216 5 13.25 5C14.0784 5 14.75 5.67157 14.75 6.5ZM4.25 6.5C4.25 7.32843 3.57843 8 2.75 8C1.92157 8 1.25 7.32843 1.25 6.5C1.25 5.67157 1.92157 5 2.75 5C3.57843 5 4.25 5.67157 4.25 6.5Z" stroke="#8893A7" stroke-width="1.2" stroke-linecap="round" stroke-linejoin="round"/>
</g>
<defs>
<clipPath id="clip0_5842_23405">
<rect width="16" height="16" fill="white"/>
</clipPath>
</defs>
</svg>
