<svg width="16" height="16" viewBox="0 0 16 16" fill="none" xmlns="http://www.w3.org/2000/svg">
<path fill-rule="evenodd" clip-rule="evenodd" d="M15.7859 5.04219C15.6734 4.94531 15.5312 4.89062 15.3828 4.89062C15.2812 4.89062 15.1813 4.91562 15.0922 4.96406L13.1297 6.01094V3.08281C13.1297 2.46875 12.6312 1.96875 12.0203 1.96875H1.10938C0.498438 1.96875 0 2.46875 0 3.08281V12.9172C0 13.5312 0.498438 14.0312 1.10938 14.0312H12.0219C12.6328 14.0312 13.1313 13.5312 13.1313 12.9172V9.75313L15.0516 10.9781C15.1516 11.0422 15.2656 11.075 15.3828 11.075C15.5234 11.075 15.6625 11.025 15.7734 10.9359C15.9172 10.8172 16 10.6391 16 10.4469V5.52187C16 5.33437 15.9219 5.15937 15.7859 5.04219ZM14.7656 6.54375V9.32656L13.1531 8.29844V7.40312L14.7656 6.54375ZM11.8969 12.4219V3.575C11.8969 3.37187 11.7328 3.20625 11.5297 3.20625H1.60156C1.39844 3.20625 1.23438 3.37187 1.23438 3.575V12.4219C1.23438 12.625 1.39844 12.7906 1.60156 12.7906H11.5297C11.7328 12.7906 11.8969 12.625 11.8969 12.4219Z" fill="#8893A7"/>
</svg>
