<svg width="16" height="16" viewBox="0 0 16 16" fill="none" xmlns="http://www.w3.org/2000/svg">
<path fill-rule="evenodd" clip-rule="evenodd" d="M8 1C4.13359 1 1 4.13359 1 8C1 11.8664 4.13359 15 8 15C11.8664 15 15 11.8664 15 8C15 4.13359 11.8664 1 8 1ZM8.4375 11.9375C8.4375 12.1795 8.24199 12.375 8 12.375C7.75801 12.375 7.5625 12.1795 7.5625 11.9375C7.5625 11.6955 7.75801 11.5 8 11.5C8.24199 11.5 8.4375 11.6955 8.4375 11.9375ZM8 10.625C8.24199 10.625 8.4375 10.4295 8.4375 10.1875V4.0625C8.4375 3.82051 8.24199 3.625 8 3.625C7.75801 3.625 7.5625 3.82051 7.5625 4.0625V10.1875C7.5625 10.4295 7.75801 10.625 8 10.625Z" fill="#F08C00"/>
</svg>
