<svg width="17" height="16" viewBox="0 0 17 16" fill="none" xmlns="http://www.w3.org/2000/svg">
<path fill-rule="evenodd" clip-rule="evenodd" d="M8.5 0C4.08125 0 0.5 3.58125 0.5 8C0.5 12.4187 4.08125 16 8.5 16C12.9187 16 16.5 12.4187 16.5 8C16.5 3.58125 12.9187 0 8.5 0ZM13.4493 12.9493C12.8066 13.592 12.0573 14.098 11.2236 14.4495C10.3614 14.8155 9.445 15 8.5 15C7.555 15 6.63864 14.8155 5.77636 14.4511C4.94273 14.098 4.195 13.5936 3.55068 12.9509C2.90795 12.3082 2.40205 11.5589 2.05045 10.7252C1.68455 9.86136 1.5 8.945 1.5 8C1.5 7.055 1.68455 6.13864 2.04886 5.27636C2.40205 4.44273 2.90636 3.695 3.54909 3.05068C4.19182 2.40795 4.94114 1.90205 5.77477 1.55045C6.63864 1.18455 7.555 1 8.5 1C9.445 1 10.3614 1.18455 11.2236 1.54886C12.0573 1.90205 12.805 2.40636 13.4493 3.04909C14.092 3.69182 14.598 4.44114 14.9495 5.27477C15.3155 6.13864 15.5 7.055 15.5 8C15.5 8.945 15.3155 9.86136 14.9511 10.7236C14.598 11.5573 14.0936 12.3066 13.4493 12.9493ZM9.07031 7.44314H11.9375C12.2484 7.44314 12.5 7.69569 12.5 8.00784C12.5 8.32 12.2484 8.57255 11.9375 8.57255H9.07031V11.4353C9.07031 11.7475 8.81875 12 8.50781 12C8.19688 12 7.94531 11.7475 7.94531 11.4353V8.57255H5.0625C4.75156 8.57255 4.5 8.32 4.5 8.00784C4.5 7.69569 4.75156 7.44314 5.0625 7.44314H7.94531V4.56471C7.94531 4.25255 8.19688 4 8.50781 4C8.81875 4 9.07031 4.25255 9.07031 4.56471V7.44314Z" fill="#8893A7"/>
</svg>
