<svg height="16" viewBox="0 0 16 16" width="16" xmlns="http://www.w3.org/2000/svg">
      <g fill="" fill-rule="evenodd">
        <path
          d="m8 4.11111111v-3.11111111h-8v14h16v-10.88888889zm-4.8 9.33333329h-1.6v-1.5555555h1.6zm0-3.1111111h-1.6v-1.55555552h1.6zm0-3.11111108h-1.6v-1.55555555h1.6zm0-3.11111111h-1.6v-1.55555555h1.6zm3.2 9.33333329h-1.6v-1.5555555h1.6zm0-3.1111111h-1.6v-1.55555552h1.6zm0-3.11111108h-1.6v-1.55555555h1.6zm0-3.11111111h-1.6v-1.55555555h1.6zm8 9.33333329h-6.4v-1.5555555h1.6v-1.5555556h-1.6v-1.55555552h1.6v-1.55555556h-1.6v-1.55555555h6.4zm-1.6-6.22222218h-1.6v1.55555556h1.6zm0 3.11111108h-1.6v1.5555556h1.6z"
        />
	</g>
</svg>