<svg width="16" height="16" viewBox="0 0 16 16" fill="none" xmlns="http://www.w3.org/2000/svg">
      <path
        fill-rule="evenodd"
        clip-rule="evenodd"
        d="M7.4824 8.23853C9.75212 8.23853 11.5925 6.3945 11.5925 4.11927C11.5925 1.84404 9.75212 0 7.4824 0C5.21267 0 3.3723 1.84404 3.3723 4.11927C3.3723 6.3945 5.21267 8.23853 7.4824 8.23853ZM7.4824 8.23853C3.59065 8.23853 0.436523 11.4 0.436523 15.3009H0.438358C0.438358 15.3073 0.4379 15.3133 0.437441 15.3193C0.436982 15.3252 0.436523 15.3312 0.436523 15.3376C0.436523 15.7028 0.731936 16 1.09707 16C1.46221 16 1.75762 15.7028 1.75762 15.3376C1.75762 15.3248 1.75762 15.3138 1.75579 15.3009H1.75762C1.75762 12.1321 4.32093 9.5633 7.4824 9.5633C8.20166 9.5633 8.88974 9.69541 9.52276 9.93945C10.0622 9.62385 10.6769 9.42752 11.3356 9.38716C10.2273 8.66055 8.90441 8.23853 7.4824 8.23853ZM10.2714 4.11927C10.2714 5.66239 9.02184 6.91376 7.4824 6.91376C5.94295 6.91376 4.6934 5.66239 4.6934 4.11927C4.6934 2.57615 5.94295 1.32477 7.4824 1.32477C9.02184 1.32477 10.2714 2.57615 10.2714 4.11927ZM13.5032 10.4488C12.2409 10.4488 11.3756 11.1979 11.3756 12.2954H12.6342C12.6342 11.8272 12.9301 11.4864 13.432 11.4864C13.904 11.4864 14.1662 11.7973 14.1662 12.1718C14.1662 12.4902 14.0538 12.7225 13.3871 13.333L11.4543 15.0823V16H15.5633V14.9287H13.2897V14.8575L14.3535 13.8949C15.215 13.1158 15.4997 12.6925 15.4997 12.052C15.4997 11.1268 14.7543 10.4488 13.5032 10.4488Z"
        fill="#8893A7"
      />
    </svg>