<svg width="16" height="16" viewBox="0 0 16 16" fill="none" xmlns="http://www.w3.org/2000/svg">
	<path
        fill-rule="evenodd"
        clip-rule="evenodd"
        d="M8.01072 8.23853C10.2804 8.23853 12.1208 6.3945 12.1208 4.11927C12.1208 1.84404 10.2804 0 8.01072 0C5.74099 0 3.90062 1.84404 3.90062 4.11927C3.90062 6.3945 5.74099 8.23853 8.01072 8.23853ZM8.01072 8.23853C4.11897 8.23853 0.964844 11.4 0.964844 15.3009H0.966679C0.966679 15.3073 0.96622 15.3133 0.965761 15.3193C0.965302 15.3252 0.964844 15.3312 0.964844 15.3376C0.964844 15.7028 1.26026 16 1.62539 16C1.99053 16 2.28594 15.7028 2.28594 15.3376C2.28594 15.3248 2.28594 15.3138 2.28411 15.3009H2.28594C2.28594 12.1321 4.84925 9.5633 8.01072 9.5633C8.72998 9.5633 9.41806 9.69541 10.0511 9.93945C10.5905 9.62385 11.2052 9.42752 11.8639 9.38716C10.7557 8.66055 9.43273 8.23853 8.01072 8.23853ZM10.7997 4.11927C10.7997 5.66239 9.55017 6.91376 8.01072 6.91376C6.47127 6.91376 5.22172 5.66239 5.22172 4.11927C5.22172 2.57615 6.47127 1.32477 8.01072 1.32477C9.55017 1.32477 10.7997 2.57615 10.7997 4.11927ZM13.6278 11.8603V16H15.036V10.628H13.6278L12.2196 11.5587V12.7351L13.5549 11.8603H13.6278Z"
        fill="#8893A7"
      />
</svg>