<svg width="16" height="16" viewBox="0 0 16 16" fill="none" xmlns="http://www.w3.org/2000/svg">
<path fill-rule="evenodd" clip-rule="evenodd" d="M2.19614 1H13.8804C14.5186 1 15.0036 1.45949 15 2.09039V13.8002C15 14.4311 14.5186 15 13.8768 15H2.19614C1.55796 15 1 14.4347 1 13.8002V2.09039C1 1.45949 1.55796 1 2.19614 1ZM3.33394 12.6697H5.33967V6.4337H3.33394V12.6697ZM4.40609 5.48554H4.3915C3.74967 5.48554 3.33394 5.00781 3.33394 4.40974C3.33394 3.80073 3.76061 3.33394 4.41703 3.33394C5.07345 3.33394 5.4746 3.79708 5.48918 4.40974C5.48918 5.00781 5.07345 5.48554 4.40609 5.48554ZM10.664 12.6697H12.6697V9.02656C12.6697 7.15576 11.6741 6.28783 10.3576 6.28783C9.29642 6.28783 8.84057 6.8859 8.54883 7.30163V6.4337H6.5431V12.6697H8.54883V9.11773C8.54883 8.93539 8.56342 8.7567 8.61812 8.62541C8.76399 8.26073 9.0922 7.88512 9.64651 7.88512C10.3722 7.88512 10.664 8.44307 10.664 9.25995V12.6697Z" fill="#1971C2"/>
</svg>
