<svg height="24" viewBox="0 0 24 24" width="24" xmlns="http://www.w3.org/2000/svg">
  <g fill="" fill-rule="evenodd">
    <path
      d="m17.1526587 15.0943396 6.8473413 6.8610635-2.0445969 2.0445969-6.8610635-6.8473413v-1.0840481l-.3704974-.3842195c-1.5643225 1.3447684-3.5951973 2.1543739-5.8044597 2.1543739-4.92624356 0-8.9193825-3.9931389-8.9193825-8.9193825 0-4.92624356 3.99313894-8.9193825 8.9193825-8.9193825 4.9262436 0 8.9193825 3.99313894 8.9193825 8.9193825 0 2.2092624-.8096055 4.2401372-2.1543739 5.8044597l.3842195.3704974zm-8.2332762 0c3.4168096 0 6.1749571-2.7581475 6.1749571-6.1749571s-2.7581475-6.17495711-6.1749571-6.17495711-6.17495711 2.75814751-6.17495711 6.17495711 2.75814751 6.1749571 6.17495711 6.1749571zm4.0806175-5.0943396h-3v3h-2v-3h-3v-2h3v-3h2v3h3z"
    />
  </g>
</svg>