<svg height="16" viewBox="0 0 16 16" width="16" xmlns="http://www.w3.org/2000/svg">
  <g fill="" fill-rule="evenodd">
    <path
      id="ic-settings-16"
      d="m13.9215473 8.784c.0318696-.256.0557719-.512.0557719-.784s-.0239023-.528-.0557719-.784l1.681124-1.32c.1513808-.12.1912179-.336.0956089-.512l-1.5934824-2.768c-.095609-.176-.3107291-.24-.4860122-.176l-1.9838857.8c-.4143055-.32-.8604806-.584-1.3464927-.784l-.3027617-2.12c-.02390223-.192-.1912179-.336-.39040321-.336h-3.18696499c-.19918531 0-.36650097.144-.39040321.336l-.30276167 2.12c-.48601216.2-.93218726.472-1.34649271.784l-1.98388571-.8c-.18325048-.072-.39040321 0-.48601216.176l-1.59348249 2.768c-.10357636.176-.05577189.392.09560895.512l1.68112403 1.32c-.03186965.256-.05577189.52-.05577189.784s.02390224.528.05577189.784l-1.68112403 1.32c-.15138084.12-.1912179.336-.09560895.512l1.59348249 2.768c.09560895.176.31072909.24.48601216.176l1.98388571-.8c.41430545.32.86048055.584 1.34649271.784l.30276167 2.12c.02390224.192.1912179.336.39040321.336h3.18696499c.19918531 0 .36650098-.144.39040321-.336l.3027617-2.12c.4860121-.2.9321872-.472 1.3464927-.784l1.9838857.8c.1832505.072.3904032 0 .4860122-.176l1.5934824-2.768c.095609-.176.0557719-.392-.0956089-.512zm-5.9215473 1.716c-1.37857143 0-2.5-1.12142857-2.5-2.5s1.12142857-2.5 2.5-2.5 2.5 1.12142857 2.5 2.5-1.12142857 2.5-2.5 2.5z"
    />
  </g>
</svg>